0
SECTION
2
HEADER
9
$INSUNITS
70
4
0
ENDSEC
0
SECTION
2
TABLES
0
TABLE
2
LTYPE
0
LTYPE
72
65
70
64
2
CONTINUOUS
3
______
73
0
40
0
0
ENDTAB
0
TABLE
2
LAYER
0
ENDTAB
0
ENDSEC
0
SECTION
2
ENTITIES
0
LINE
8
0
10
161.9242609
20
-173.9110851
11
179.3703142
21
-172.5380509
0
LINE
8
0
10
179.3703142
20
-172.5380509
11
178.0757391
21
-156.0889149
0
LINE
8
0
10
178.0757391
20
-156.0889149
11
160.6296858
21
-157.4619491
0
LINE
8
0
10
160.6296858
20
-157.4619491
11
161.9242609
21
-173.9110851
0
LINE
8
0
10
160.5119972
20
-155.9665731
11
177.9580505
21
-154.5935389
0
LINE
8
0
10
177.9580505
20
-154.5935389
11
176.6634754
21
-138.1444029
0
LINE
8
0
10
176.6634754
20
-138.1444029
11
159.2174221
21
-139.5174371
0
LINE
8
0
10
159.2174221
20
-139.5174371
11
160.5119972
21
-155.9665731
0
LINE
8
0
10
159.0997335
20
-138.0220611
11
176.5457868
21
-136.6490269
0
LINE
8
0
10
176.5457868
20
-136.6490269
11
175.2512117
21
-120.1998909
0
LINE
8
0
10
175.2512117
20
-120.1998909
11
157.8051584
21
-121.5729251
0
LINE
8
0
10
157.8051584
20
-121.5729251
11
159.0997335
21
-138.0220611
0
LINE
8
0
10
180.0519954
20
-156.714448
11
197.5433602
21
-156.1647597
0
LINE
8
0
10
197.5433602
20
-156.1647597
11
197.0250826
21
-139.6729014
0
LINE
8
0
10
197.0250826
20
-139.6729014
11
179.5337178
21
-140.2225897
0
LINE
8
0
10
179.5337178
20
-140.2225897
11
180.0519954
21
-156.714448
0
LINE
8
0
10
179.4866017
20
-138.7233299
11
196.9779665
21
-138.1736416
0
LINE
8
0
10
196.9779665
20
-138.1736416
11
196.4596889
21
-121.6817833
0
LINE
8
0
10
196.4596889
20
-121.6817833
11
178.9683241
21
-122.2314716
0
LINE
8
0
10
178.9683241
20
-122.2314716
11
179.4866017
21
-138.7233299
0
LINE
8
0
10
178.921208
20
-120.7322118
11
196.4125728
21
-120.1825235
0
LINE
8
0
10
196.4125728
20
-120.1825235
11
195.8942952
21
-103.6906652
0
LINE
8
0
10
195.8942952
20
-103.6906652
11
178.4029304
21
-104.2403535
0
LINE
8
0
10
178.4029304
20
-104.2403535
11
178.921208
21
-120.7322118
0
LINE
8
0
10
199.0390478
20
-151.1939863
11
216.5368889
21
-151.4688643
0
LINE
8
0
10
216.5368889
20
-151.4688643
11
216.7960596
21
-134.9708999
0
LINE
8
0
10
216.7960596
20
-134.9708999
11
199.2982185
21
-134.6960219
0
LINE
8
0
10
199.2982185
20
-134.6960219
11
199.0390478
21
-151.1939863
0
LINE
8
0
10
199.3217795
20
-133.1962069
11
216.8196206
21
-133.4710849
0
LINE
8
0
10
216.8196206
20
-133.4710849
11
217.0787913
21
-116.9731205
0
LINE
8
0
10
217.0787913
20
-116.9731205
11
199.5809502
21
-116.6982425
0
LINE
8
0
10
199.5809502
20
-116.6982425
11
199.3217795
21
-133.1962069
0
LINE
8
0
10
199.6045112
20
-115.1984275
11
217.1023523
21
-115.4733055
0
LINE
8
0
10
217.1023523
20
-115.4733055
11
217.361523
21
-98.9753411
0
LINE
8
0
10
217.361523
20
-98.9753411
11
199.8636819
21
-98.7004631
0
LINE
8
0
10
199.8636819
20
-98.7004631
11
199.6045112
21
-115.1984275
0
LINE
8
0
10
217.9660209
20
-155.9918701
11
235.463862
21
-156.2667481
0
LINE
8
0
10
235.463862
20
-156.2667481
11
235.7230327
21
-139.7687837
0
LINE
8
0
10
235.7230327
20
-139.7687837
11
218.2251916
21
-139.4939057
0
LINE
8
0
10
218.2251916
20
-139.4939057
11
217.9660209
21
-155.9918701
0
LINE
8
0
10
218.2487526
20
-137.9940907
11
235.7465937
21
-138.2689687
0
LINE
8
0
10
235.7465937
20
-138.2689687
11
236.0057644
21
-121.7710043
0
LINE
8
0
10
236.0057644
20
-121.7710043
11
218.5079233
21
-121.4961263
0
LINE
8
0
10
218.5079233
20
-121.4961263
11
218.2487526
21
-137.9940907
0
LINE
8
0
10
218.5314843
20
-119.9963113
11
236.0293254
21
-120.2711893
0
LINE
8
0
10
236.0293254
20
-120.2711893
11
236.2884961
21
-103.7732249
0
LINE
8
0
10
236.2884961
20
-103.7732249
11
218.790655
21
-103.4983469
0
LINE
8
0
10
218.790655
20
-103.4983469
11
218.5314843
21
-119.9963113
0
LINE
8
0
10
236.9071306
20
-159.889865
11
254.4049717
21
-160.164743
0
LINE
8
0
10
254.4049717
20
-160.164743
11
254.6641424
21
-143.6667786
0
LINE
8
0
10
254.6641424
20
-143.6667786
11
237.1663013
21
-143.3919006
0
LINE
8
0
10
237.1663013
20
-143.3919006
11
236.9071306
21
-159.889865
0
LINE
8
0
10
237.1898623
20
-141.8920856
11
254.6877034
21
-142.1669636
0
LINE
8
0
10
254.6877034
20
-142.1669636
11
254.9468741
21
-125.6689992
0
LINE
8
0
10
254.9468741
20
-125.6689992
11
237.449033
21
-125.3941212
0
LINE
8
0
10
237.449033
20
-125.3941212
11
237.1898623
21
-141.8920856
0
LINE
8
0
10
237.472594
20
-123.8943062
11
254.9704351
21
-124.1691842
0
LINE
8
0
10
254.9704351
20
-124.1691842
11
255.2296058
21
-107.6712198
0
LINE
8
0
10
255.2296058
20
-107.6712198
11
237.7317647
21
-107.3963418
0
LINE
8
0
10
237.7317647
20
-107.3963418
11
237.472594
21
-123.8943062
0
LINE
8
0
10
217.5560599
20
-182.0886502
11
235.053901
21
-182.3635282
0
LINE
8
0
10
235.053901
20
-182.3635282
11
235.3130717
21
-165.8655638
0
LINE
8
0
10
235.3130717
20
-165.8655638
11
217.8152306
21
-165.5906858
0
LINE
8
0
10
217.8152306
20
-165.5906858
11
217.5560599
21
-182.0886502
0
LINE
8
0
10
236.5254428
20
-184.1868672
11
254.0232839
21
-184.4617452
0
LINE
8
0
10
254.0232839
20
-184.4617452
11
254.2824546
21
-167.9637808
0
LINE
8
0
10
254.2824546
20
-167.9637808
11
236.7846135
21
-167.6889028
0
LINE
8
0
10
236.7846135
20
-167.6889028
11
236.5254428
21
-184.1868672
0
LINE
8
0
10
271.157951
20
-192.9144766
11
278.4178703
21
-167.4283319
0
LINE
8
0
10
255.2892193
20
-188.3941495
11
262.5491386
21
-162.9080048
0
LINE
8
0
10
278.4178703
20
-167.4283319
11
262.5491386
21
-162.9080048
0
LINE
8
0
10
255.2892193
20
-188.3941495
11
271.157951
21
-192.9144766
0
ENDSEC
0
EOF