0
SECTION
2
HEADER
9
$INSUNITS
70
4
0
ENDSEC
0
SECTION
2
TABLES
0
TABLE
2
LTYPE
0
LTYPE
72
65
70
64
2
CONTINUOUS
3
______
73
0
40
0
0
ENDTAB
0
TABLE
2
LAYER
0
ENDTAB
0
ENDSEC
0
SECTION
2
ENTITIES
0
LINE
8
0
10
279.3195495
20
-109.8959042
11
279.3314596
21
-167.5808531
0
LINE
8
0
10
279.3218949
20
-167.6493946
11
271.8551197
21
-193.8617124
0
LINE
8
0
10
271.5461946
20
-194.0336579
11
254.3694948
21
-189.1407463
0
LINE
8
0
10
254.1975493
20
-188.8318212
11
255.1646253
21
-185.4368743
0
LINE
8
0
10
255.1646253
20
-185.4368743
11
254.9785564
21
-185.4068666
0
LINE
8
0
10
254.9785564
20
-185.4068666
11
235.789539
21
-185.1054215
0
LINE
8
0
10
235.5434787
20
-184.8529142
11
235.556705
21
-183.5501835
0
LINE
8
0
10
235.3106447
20
-183.2976762
11
216.821541
21
-183.0072262
0
LINE
8
0
10
216.5754986
20
-182.7533302
11
217.0494333
21
-152.5841931
0
LINE
8
0
10
216.8032504
20
-152.330295
11
198.6464586
21
-152.0552738
0
LINE
8
0
10
198.3927957
20
-152.3130977
11
198.5342408
21
-156.8139557
0
LINE
8
0
10
198.2922169
20
-157.071685
11
179.3746515
21
-157.6661935
0
LINE
8
0
10
179.1333535
20
-157.9366591
11
180.3896213
21
-173.138952
0
LINE
8
0
10
180.1600854
20
-173.4087703
11
161.2794473
21
-174.8947087
0
LINE
8
0
10
161.0106032
20
-174.6650942
11
156.7847964
21
-120.9711266
0
LINE
8
0
10
157.0144109
20
-120.7022825
11
177.6129593
21
-119.0811416
0
LINE
8
0
10
177.8432441
20
-118.8248262
11
177.4112615
21
-103.5904149
0
LINE
8
0
10
177.6533084
20
-103.3334523
11
198.6616739
21
-102.6732377
0
LINE
8
0
10
198.9038211
20
-102.4236068
11
198.90816
21
-98.0090503
0
LINE
8
0
10
199.1620868
20
-97.7593268
11
218.0945935
21
-98.0567423
0
LINE
8
0
10
218.340609
20
-98.3120825
11
218.2547335
21
-102.3083377
0
LINE
8
0
10
218.500749
20
-102.5636779
11
237.0237084
21
-102.8546598
0
LINE
8
0
10
237.2697607
20
-103.1078614
11
237.2296602
21
-106.209003
0
LINE
8
0
10
237.4757125
20
-106.4622046
11
255.9641247
21
-106.7526438
0
LINE
8
0
10
256.2101671
20
-107.0065398
11
256.1782812
21
-109.0362893
0
LINE
8
0
10
256.4243236
20
-109.2901853
11
279.0734763
21
-109.6459867
0
ARC
8
0
10
279.0814596
20
-167.5809048
40
0.25
50
344.1000009
51
0.0118315
0
ARC
8
0
10
271.6146844
20
-193.7932226
40
0.25
50
254.1000009
51
344.1000009
0
ARC
8
0
10
254.4379846
20
-188.900311
40
0.25
50
164.1000009
51
254.1000009
0
ARC
8
0
10
235.7934658
20
-184.8554523
40
0.25
50
179.4183118
51
269.100001
0
ARC
8
0
10
235.3067179
20
-183.5476454
40
0.25
50
359.4183118
51
89.100001
0
ARC
8
0
10
216.8254678
20
-182.757257
40
0.25
50
179.100001
51
269.100001
0
ARC
8
0
10
216.7994641
20
-152.5802663
40
0.25
50
359.100001
51
89.132205
0
ARC
8
0
10
198.6426723
20
-152.3052451
40
0.25
50
89.132205
51
181.7999965
0
ARC
8
0
10
198.2843642
20
-156.8218084
40
0.25
50
271.8000023
51
1.7999965
0
ARC
8
0
10
179.3825042
20
-157.9160701
40
0.25
50
91.8000023
51
184.7240015
0
ARC
8
0
10
180.1404706
20
-173.159541
40
0.25
50
274.5000004
51
4.7240015
0
ARC
8
0
10
161.2598325
20
-174.6454794
40
0.25
50
184.5000004
51
274.5000004
0
ARC
8
0
10
157.0340257
20
-120.9515118
40
0.25
50
94.5000004
51
184.5000004
0
ARC
8
0
10
177.5933445
20
-118.8319123
40
0.25
50
274.5000004
51
1.6242263
0
ARC
8
0
10
177.6611611
20
-103.5833289
40
0.25
50
91.8000023
51
181.6242263
0
ARC
8
0
10
198.6538212
20
-102.4233611
40
0.25
50
271.8000023
51
359.943684
0
ARC
8
0
10
199.1581599
20
-98.009296
40
0.25
50
89.100001
51
179.943684
0
ARC
8
0
10
218.0906667
20
-98.3067115
40
0.25
50
358.7689628
51
89.100001
0
ARC
8
0
10
218.5046758
20
-102.3137087
40
0.25
50
178.7689628
51
269.100001
0
ARC
8
0
10
237.0197816
20
-103.104629
40
0.25
50
359.2591564
51
89.100001
0
ARC
8
0
10
237.4796393
20
-106.2122354
40
0.25
50
179.2591564
51
269.100001
0
ARC
8
0
10
255.9601979
20
-107.002613
40
0.25
50
359.100001
51
89.100001
0
ARC
8
0
10
256.4282504
20
-109.0402161
40
0.25
50
179.100001
51
269.100001
0
ARC
8
0
10
279.0695495
20
-109.8959559
40
0.25
50
0.0118316
51
89.100001
0
ENDSEC
0
EOF