0
SECTION
2
HEADER
9
$INSUNITS
70
4
0
ENDSEC
0
SECTION
2
TABLES
0
TABLE
2
LTYPE
0
LTYPE
72
65
70
64
2
CONTINUOUS
3
______
73
0
40
0
0
ENDTAB
0
TABLE
2
LAYER
0
ENDTAB
0
ENDSEC
0
SECTION
2
ENTITIES
0
LINE
8
0
10
279.1824654
20
-111.8625469
11
257.4479379
21
-164.9057689
0
LINE
8
0
10
258.0993114
20
-166.2466664
11
278.7903027
21
-172.1406504
0
LINE
8
0
10
278.9066524
20
-174.0230756
11
254.3325734
21
-184.4408556
0
LINE
8
0
10
253.8323243
20
-184.5141099
11
235.1696115
21
-182.4498139
0
LINE
8
0
10
235.0753786
20
-182.4438755
11
218.4846885
21
-182.1832481
0
LINE
8
0
10
217.5005192
20
-181.1676642
11
217.9508539
21
-152.5008294
0
LINE
8
0
10
216.9640601
20
-151.4852077
11
198.5037435
21
-151.2436744
0
LINE
8
0
10
197.4911541
20
-152.2749996
11
197.5844277
21
-155.2430149
0
LINE
8
0
10
196.6163319
20
-156.2739323
11
179.234552
21
-156.8201766
0
LINE
8
0
10
178.2691486
20
-157.8994417
11
179.3665127
21
-171.6141978
0
LINE
8
0
10
178.4481576
20
-172.6908736
11
162.8576707
21
-173.9178715
0
LINE
8
0
10
161.7822943
20
-172.9994133
11
157.8075565
21
-122.4955811
0
LINE
8
0
10
158.7260147
20
-121.4202047
11
177.8634461
21
-119.9140563
0
LINE
8
0
10
178.7845118
20
-118.886315
11
178.361258
21
-105.16153
0
LINE
8
0
10
179.329372
20
-104.1311994
11
198.7821896
21
-103.51987
0
LINE
8
0
10
199.7507149
20
-102.5316686
11
199.7835921
21
-99.6237214
0
LINE
8
0
10
200.7992355
20
-98.63515
11
216.4351138
21
-98.880778
0
LINE
8
0
10
217.4193156
20
-99.8941399
11
217.3855422
21
-102.3983629
0
LINE
8
0
10
218.369744
20
-103.4117248
11
235.362641
21
-103.6786706
0
LINE
8
0
10
236.3468501
20
-104.691477
11
236.3260905
21
-106.2969045
0
LINE
8
0
10
237.3102996
20
-107.3097109
11
254.3009772
21
-107.5766219
0
LINE
8
0
10
255.2851465
20
-108.5922058
11
255.2768216
21
-109.1221405
0
LINE
8
0
10
256.2609909
20
-110.1377244
11
278.27284
21
-110.4835141
0
ARC
8
0
10
258.3732706
20
-165.2849251
40
1
50
157.7185748
51
254.1000009
0
ARC
8
0
10
278.5163435
20
-173.1023917
40
1
50
292.9737229
51
74.1000009
0
ARC
8
0
10
253.9422645
20
-183.5201717
40
1
50
263.6881316
51
292.9737229
0
ARC
8
0
10
235.0596713
20
-183.4437521
40
1
50
83.6881316
51
89.100001
0
ARC
8
0
10
218.5003958
20
-181.1833715
40
1
50
179.100001
51
269.100001
0
ARC
8
0
10
216.9509773
20
-152.4851221
40
1
50
359.100001
51
89.2503894
0
ARC
8
0
10
198.4906607
20
-152.2435888
40
1
50
89.2503894
51
181.8000023
0
ARC
8
0
10
196.5849211
20
-155.2744257
40
1
50
271.8000023
51
1.8000023
0
ARC
8
0
10
179.2659628
20
-157.8196832
40
1
50
91.8000023
51
184.5746845
0
ARC
8
0
10
178.3696985
20
-171.6939563
40
1
50
274.5000004
51
4.5746845
0
ARC
8
0
10
162.7792116
20
-172.9209542
40
1
50
184.5000004
51
274.5000004
0
ARC
8
0
10
158.8044738
20
-122.417122
40
1
50
94.5000004
51
184.5000004
0
ARC
8
0
10
177.784987
20
-118.917139
40
1
50
274.5000004
51
1.7663649
0
ARC
8
0
10
179.3607828
20
-105.130706
40
1
50
91.8000023
51
181.7663649
0
ARC
8
0
10
198.7507788
20
-102.5203634
40
1
50
271.8000023
51
359.352246
0
ARC
8
0
10
200.7835282
20
-99.6350266
40
1
50
89.100001
51
179.352246
0
ARC
8
0
10
216.4194065
20
-99.8806546
40
1
50
359.2273258
51
89.100001
0
ARC
8
0
10
218.3854513
20
-102.4118482
40
1
50
179.2273258
51
269.100001
0
ARC
8
0
10
235.3469337
20
-104.6785472
40
1
50
359.2591564
51
89.100001
0
ARC
8
0
10
237.3260069
20
-106.3098343
40
1
50
179.2591564
51
269.100001
0
ARC
8
0
10
254.2852699
20
-108.5764985
40
1
50
359.100001
51
89.100001
0
ARC
8
0
10
256.2766982
20
-109.1378478
40
1
50
179.100001
51
269.100001
0
ARC
8
0
10
278.2571327
20
-111.4833907
40
1
50
337.7185748
51
89.100001
0
ENDSEC
0
EOF