0
SECTION
2
HEADER
9
$INSUNITS
70
4
0
ENDSEC
0
SECTION
2
TABLES
0
TABLE
2
LTYPE
0
LTYPE
72
65
70
64
2
CONTINUOUS
3
______
73
0
40
0
0
ENDTAB
0
TABLE
2
LAYER
0
ENDTAB
0
ENDSEC
0
SECTION
2
ENTITIES
0
LINE
8
0
10
271.157951
20
-192.9144766
11
278.4178703
21
-167.4283319
0
LINE
8
0
10
278.4178703
20
-167.4283319
11
262.5491386
21
-162.9080048
0
LINE
8
0
10
262.5491386
20
-162.9080048
11
255.2892193
21
-188.3941495
0
LINE
8
0
10
255.2892193
20
-188.3941495
11
271.157951
21
-192.9144766
0
ENDSEC
0
EOF