0
SECTION
2
HEADER
9
$INSUNITS
70
4
0
ENDSEC
0
SECTION
2
TABLES
0
TABLE
2
LTYPE
0
LTYPE
72
65
70
64
2
CONTINUOUS
3
______
73
0
40
0
0
ENDTAB
0
TABLE
2
LAYER
0
ENDTAB
0
ENDSEC
0
SECTION
2
ENTITIES
0
LINE
8
0
10
279.3195495
20
-109.8959042
11
279.3314596
21
-167.5808531
0
LINE
8
0
10
279.3218949
20
-167.6493946
11
271.8551197
21
-193.8617124
0
LINE
8
0
10
271.5461946
20
-194.0336579
11
254.3694948
21
-189.1407463
0
LINE
8
0
10
254.1975493
20
-188.8318212
11
255.1646253
21
-185.4368743
0
LINE
8
0
10
255.1646253
20
-185.4368743
11
254.9785564
21
-185.4068666
0
LINE
8
0
10
254.9785564
20
-185.4068666
11
235.789539
21
-185.1054215
0
LINE
8
0
10
235.5434787
20
-184.8529142
11
235.556705
21
-183.5501835
0
LINE
8
0
10
235.3106447
20
-183.2976762
11
216.821541
21
-183.0072262
0
LINE
8
0
10
216.5754986
20
-182.7533302
11
217.0494333
21
-152.5841931
0
LINE
8
0
10
216.8032504
20
-152.330295
11
198.6464586
21
-152.0552738
0
LINE
8
0
10
198.3927957
20
-152.3130977
11
198.5342408
21
-156.8139557
0
LINE
8
0
10
198.2922169
20
-157.071685
11
179.3746515
21
-157.6661935
0
LINE
8
0
10
179.1333535
20
-157.9366591
11
180.3896213
21
-173.138952
0
LINE
8
0
10
180.1600854
20
-173.4087703
11
161.2794473
21
-174.8947087
0
LINE
8
0
10
161.0106032
20
-174.6650942
11
156.7847964
21
-120.9711266
0
LINE
8
0
10
157.0144109
20
-120.7022825
11
177.6129593
21
-119.0811416
0
LINE
8
0
10
177.8432441
20
-118.8248262
11
177.4112615
21
-103.5904149
0
LINE
8
0
10
177.6533084
20
-103.3334523
11
198.6616739
21
-102.6732377
0
LINE
8
0
10
198.9038211
20
-102.4236068
11
198.90816
21
-98.0090503
0
LINE
8
0
10
199.1620868
20
-97.7593268
11
218.0945935
21
-98.0567423
0
LINE
8
0
10
218.340609
20
-98.3120825
11
218.2547335
21
-102.3083377
0
LINE
8
0
10
218.500749
20
-102.5636779
11
237.0237084
21
-102.8546598
0
LINE
8
0
10
237.2697607
20
-103.1078614
11
237.2296602
21
-106.209003
0
LINE
8
0
10
237.4757125
20
-106.4622046
11
255.9641247
21
-106.7526438
0
LINE
8
0
10
256.2101671
20
-107.0065398
11
256.1782812
21
-109.0362893
0
LINE
8
0
10
256.4243236
20
-109.2901853
11
279.0734763
21
-109.6459867
0
ARC
8
0
10
279.0814596
20
-167.5809048
40
0.25
50
344.1000009
51
0.0118315
0
ARC
8
0
10
271.6146844
20
-193.7932226
40
0.25
50
254.1000009
51
344.1000009
0
ARC
8
0
10
254.4379846
20
-188.900311
40
0.25
50
164.1000009
51
254.1000009
0
ARC
8
0
10
235.7934658
20
-184.8554523
40
0.25
50
179.4183118
51
269.100001
0
ARC
8
0
10
235.3067179
20
-183.5476454
40
0.25
50
359.4183118
51
89.100001
0
ARC
8
0
10
216.8254678
20
-182.757257
40
0.25
50
179.100001
51
269.100001
0
ARC
8
0
10
216.7994641
20
-152.5802663
40
0.25
50
359.100001
51
89.132205
0
ARC
8
0
10
198.6426723
20
-152.3052451
40
0.25
50
89.132205
51
181.7999965
0
ARC
8
0
10
198.2843642
20
-156.8218084
40
0.25
50
271.8000023
51
1.7999965
0
ARC
8
0
10
179.3825042
20
-157.9160701
40
0.25
50
91.8000023
51
184.7240015
0
ARC
8
0
10
180.1404706
20
-173.159541
40
0.25
50
274.5000004
51
4.7240015
0
ARC
8
0
10
161.2598325
20
-174.6454794
40
0.25
50
184.5000004
51
274.5000004
0
ARC
8
0
10
157.0340257
20
-120.9515118
40
0.25
50
94.5000004
51
184.5000004
0
ARC
8
0
10
177.5933445
20
-118.8319123
40
0.25
50
274.5000004
51
1.6242263
0
ARC
8
0
10
177.6611611
20
-103.5833289
40
0.25
50
91.8000023
51
181.6242263
0
ARC
8
0
10
198.6538212
20
-102.4233611
40
0.25
50
271.8000023
51
359.943684
0
ARC
8
0
10
199.1581599
20
-98.009296
40
0.25
50
89.100001
51
179.943684
0
ARC
8
0
10
218.0906667
20
-98.3067115
40
0.25
50
358.7689628
51
89.100001
0
ARC
8
0
10
218.5046758
20
-102.3137087
40
0.25
50
178.7689628
51
269.100001
0
ARC
8
0
10
237.0197816
20
-103.104629
40
0.25
50
359.2591564
51
89.100001
0
ARC
8
0
10
237.4796393
20
-106.2122354
40
0.25
50
179.2591564
51
269.100001
0
ARC
8
0
10
255.9601979
20
-107.002613
40
0.25
50
359.100001
51
89.100001
0
ARC
8
0
10
256.4282504
20
-109.0402161
40
0.25
50
179.100001
51
269.100001
0
ARC
8
0
10
279.0695495
20
-109.8959559
40
0.25
50
0.0118316
51
89.100001
0
LINE
8
0
10
161.9242609
20
-173.9110851
11
179.3703142
21
-172.5380509
0
LINE
8
0
10
179.3703142
20
-172.5380509
11
178.0757391
21
-156.0889149
0
LINE
8
0
10
178.0757391
20
-156.0889149
11
160.6296858
21
-157.4619491
0
LINE
8
0
10
160.6296858
20
-157.4619491
11
161.9242609
21
-173.9110851
0
LINE
8
0
10
160.5119972
20
-155.9665731
11
177.9580505
21
-154.5935389
0
LINE
8
0
10
177.9580505
20
-154.5935389
11
176.6634754
21
-138.1444029
0
LINE
8
0
10
176.6634754
20
-138.1444029
11
159.2174221
21
-139.5174371
0
LINE
8
0
10
159.2174221
20
-139.5174371
11
160.5119972
21
-155.9665731
0
LINE
8
0
10
159.0997335
20
-138.0220611
11
176.5457868
21
-136.6490269
0
LINE
8
0
10
176.5457868
20
-136.6490269
11
175.2512117
21
-120.1998909
0
LINE
8
0
10
175.2512117
20
-120.1998909
11
157.8051584
21
-121.5729251
0
LINE
8
0
10
157.8051584
20
-121.5729251
11
159.0997335
21
-138.0220611
0
LINE
8
0
10
180.0519954
20
-156.714448
11
197.5433602
21
-156.1647597
0
LINE
8
0
10
197.5433602
20
-156.1647597
11
197.0250826
21
-139.6729014
0
LINE
8
0
10
197.0250826
20
-139.6729014
11
179.5337178
21
-140.2225897
0
LINE
8
0
10
179.5337178
20
-140.2225897
11
180.0519954
21
-156.714448
0
LINE
8
0
10
179.4866017
20
-138.7233299
11
196.9779665
21
-138.1736416
0
LINE
8
0
10
196.9779665
20
-138.1736416
11
196.4596889
21
-121.6817833
0
LINE
8
0
10
196.4596889
20
-121.6817833
11
178.9683241
21
-122.2314716
0
LINE
8
0
10
178.9683241
20
-122.2314716
11
179.4866017
21
-138.7233299
0
LINE
8
0
10
178.921208
20
-120.7322118
11
196.4125728
21
-120.1825235
0
LINE
8
0
10
196.4125728
20
-120.1825235
11
195.8942952
21
-103.6906652
0
LINE
8
0
10
195.8942952
20
-103.6906652
11
178.4029304
21
-104.2403535
0
LINE
8
0
10
178.4029304
20
-104.2403535
11
178.921208
21
-120.7322118
0
LINE
8
0
10
199.0390478
20
-151.1939863
11
216.5368889
21
-151.4688643
0
LINE
8
0
10
216.5368889
20
-151.4688643
11
216.7960596
21
-134.9708999
0
LINE
8
0
10
216.7960596
20
-134.9708999
11
199.2982185
21
-134.6960219
0
LINE
8
0
10
199.2982185
20
-134.6960219
11
199.0390478
21
-151.1939863
0
LINE
8
0
10
199.3217795
20
-133.1962069
11
216.8196206
21
-133.4710849
0
LINE
8
0
10
216.8196206
20
-133.4710849
11
217.0787913
21
-116.9731205
0
LINE
8
0
10
217.0787913
20
-116.9731205
11
199.5809502
21
-116.6982425
0
LINE
8
0
10
199.5809502
20
-116.6982425
11
199.3217795
21
-133.1962069
0
LINE
8
0
10
199.6045112
20
-115.1984275
11
217.1023523
21
-115.4733055
0
LINE
8
0
10
217.1023523
20
-115.4733055
11
217.361523
21
-98.9753411
0
LINE
8
0
10
217.361523
20
-98.9753411
11
199.8636819
21
-98.7004631
0
LINE
8
0
10
199.8636819
20
-98.7004631
11
199.6045112
21
-115.1984275
0
LINE
8
0
10
217.9660209
20
-155.9918701
11
235.463862
21
-156.2667481
0
LINE
8
0
10
235.463862
20
-156.2667481
11
235.7230327
21
-139.7687837
0
LINE
8
0
10
235.7230327
20
-139.7687837
11
218.2251916
21
-139.4939057
0
LINE
8
0
10
218.2251916
20
-139.4939057
11
217.9660209
21
-155.9918701
0
LINE
8
0
10
218.2487526
20
-137.9940907
11
235.7465937
21
-138.2689687
0
LINE
8
0
10
235.7465937
20
-138.2689687
11
236.0057644
21
-121.7710043
0
LINE
8
0
10
236.0057644
20
-121.7710043
11
218.5079233
21
-121.4961263
0
LINE
8
0
10
218.5079233
20
-121.4961263
11
218.2487526
21
-137.9940907
0
LINE
8
0
10
218.5314843
20
-119.9963113
11
236.0293254
21
-120.2711893
0
LINE
8
0
10
236.0293254
20
-120.2711893
11
236.2884961
21
-103.7732249
0
LINE
8
0
10
236.2884961
20
-103.7732249
11
218.790655
21
-103.4983469
0
LINE
8
0
10
218.790655
20
-103.4983469
11
218.5314843
21
-119.9963113
0
LINE
8
0
10
236.9071306
20
-159.889865
11
254.4049717
21
-160.164743
0
LINE
8
0
10
254.4049717
20
-160.164743
11
254.6641424
21
-143.6667786
0
LINE
8
0
10
254.6641424
20
-143.6667786
11
237.1663013
21
-143.3919006
0
LINE
8
0
10
237.1663013
20
-143.3919006
11
236.9071306
21
-159.889865
0
LINE
8
0
10
237.1898623
20
-141.8920856
11
254.6877034
21
-142.1669636
0
LINE
8
0
10
254.6877034
20
-142.1669636
11
254.9468741
21
-125.6689992
0
LINE
8
0
10
254.9468741
20
-125.6689992
11
237.449033
21
-125.3941212
0
LINE
8
0
10
237.449033
20
-125.3941212
11
237.1898623
21
-141.8920856
0
LINE
8
0
10
237.472594
20
-123.8943062
11
254.9704351
21
-124.1691842
0
LINE
8
0
10
254.9704351
20
-124.1691842
11
255.2296058
21
-107.6712198
0
LINE
8
0
10
255.2296058
20
-107.6712198
11
237.7317647
21
-107.3963418
0
LINE
8
0
10
237.7317647
20
-107.3963418
11
237.472594
21
-123.8943062
0
LINE
8
0
10
217.5560599
20
-182.0886502
11
235.053901
21
-182.3635282
0
LINE
8
0
10
235.053901
20
-182.3635282
11
235.3130717
21
-165.8655638
0
LINE
8
0
10
235.3130717
20
-165.8655638
11
217.8152306
21
-165.5906858
0
LINE
8
0
10
217.8152306
20
-165.5906858
11
217.5560599
21
-182.0886502
0
LINE
8
0
10
236.5254428
20
-184.1868672
11
254.0232839
21
-184.4617452
0
LINE
8
0
10
254.0232839
20
-184.4617452
11
254.2824546
21
-167.9637808
0
LINE
8
0
10
254.2824546
20
-167.9637808
11
236.7846135
21
-167.6889028
0
LINE
8
0
10
236.7846135
20
-167.6889028
11
236.5254428
21
-184.1868672
0
LINE
8
0
10
271.157951
20
-192.9144766
11
278.4178703
21
-167.4283319
0
LINE
8
0
10
255.2892193
20
-188.3941495
11
262.5491386
21
-162.9080048
0
LINE
8
0
10
278.4178703
20
-167.4283319
11
262.5491386
21
-162.9080048
0
LINE
8
0
10
255.2892193
20
-188.3941495
11
271.157951
21
-192.9144766
0
ENDSEC
0
EOF