0
SECTION
2
HEADER
9
$INSUNITS
70
4
0
ENDSEC
0
SECTION
2
TABLES
0
TABLE
2
LTYPE
0
LTYPE
72
65
70
64
2
CONTINUOUS
3
______
73
0
40
0
0
ENDTAB
0
TABLE
2
LAYER
0
ENDTAB
0
ENDSEC
0
SECTION
2
ENTITIES
0
LINE
8
0
10
279.7380942
20
-110.5065322
11
279.0709892
21
-167.2161417
0
LINE
8
0
10
279.0709892
20
-167.2161417
11
272.0943437
21
-191.7078459
0
LINE
8
0
10
272.0943437
20
-191.7078459
11
254.0637454
21
-186.3426128
0
LINE
8
0
10
217.4282656
20
-185.7670967
11
254.0637454
21
-186.3426128
0
LINE
8
0
10
217.4282656
20
-185.7670967
11
217.9666025
21
-151.4983249
0
LINE
8
0
10
217.9666025
20
-151.4983249
11
197.4583135
21
-151.2299961
0
LINE
8
0
10
197.4583135
20
-151.2299961
11
197.6158385
21
-156.2425215
0
LINE
8
0
10
197.6158385
20
-156.2425215
11
178.185431
21
-156.8531466
0
LINE
8
0
10
178.185431
20
-156.8531466
11
179.4463752
21
-172.6123122
0
LINE
8
0
10
179.4463752
20
-172.6123122
11
161.8607534
21
-173.9963306
0
LINE
8
0
10
161.8607534
20
-173.9963306
11
157.7290974
21
-121.4986638
0
LINE
8
0
10
157.7290974
20
-121.4986638
11
178.8138991
21
-119.839254
0
LINE
8
0
10
178.8138991
20
-119.839254
11
178.3304521
21
-104.1625917
0
LINE
8
0
10
178.3304521
20
-104.1625917
11
199.7398826
21
-103.4897733
0
LINE
8
0
10
199.7398826
20
-103.4897733
11
199.7949472
21
-98.6193734
0
LINE
8
0
10
199.7949472
20
-98.6193734
11
217.432771
21
-98.8964505
0
LINE
8
0
10
217.432771
20
-98.8964505
11
217.3720868
21
-103.3960523
0
LINE
8
0
10
217.3720868
20
-103.3960523
11
236.3597441
21
-103.6943343
0
LINE
8
0
10
236.3597441
20
-103.6943343
11
236.3131965
21
-107.2940472
0
LINE
8
0
10
236.3131965
20
-107.2940472
11
255.3008538
21
-107.5923292
0
LINE
8
0
10
255.3008538
20
-107.5923292
11
255.2611143
21
-110.1220171
0
LINE
8
0
10
255.2611143
20
-110.1220171
11
279.7380942
21
-110.5065322
0
LINE
8
0
10
161.9242609
20
-173.9110851
11
179.3703142
21
-172.5380509
0
LINE
8
0
10
179.3703142
20
-172.5380509
11
178.0757391
21
-156.0889149
0
LINE
8
0
10
178.0757391
20
-156.0889149
11
160.6296858
21
-157.4619491
0
LINE
8
0
10
160.6296858
20
-157.4619491
11
161.9242609
21
-173.9110851
0
LINE
8
0
10
160.5119972
20
-155.9665731
11
177.9580505
21
-154.5935389
0
LINE
8
0
10
177.9580505
20
-154.5935389
11
176.6634754
21
-138.1444029
0
LINE
8
0
10
176.6634754
20
-138.1444029
11
159.2174221
21
-139.5174371
0
LINE
8
0
10
159.2174221
20
-139.5174371
11
160.5119972
21
-155.9665731
0
LINE
8
0
10
159.0997335
20
-138.0220611
11
176.5457868
21
-136.6490269
0
LINE
8
0
10
176.5457868
20
-136.6490269
11
175.2512117
21
-120.1998909
0
LINE
8
0
10
175.2512117
20
-120.1998909
11
157.8051584
21
-121.5729251
0
LINE
8
0
10
157.8051584
20
-121.5729251
11
159.0997335
21
-138.0220611
0
LINE
8
0
10
180.0519954
20
-156.714448
11
197.5433602
21
-156.1647597
0
LINE
8
0
10
197.5433602
20
-156.1647597
11
197.0250826
21
-139.6729014
0
LINE
8
0
10
197.0250826
20
-139.6729014
11
179.5337178
21
-140.2225897
0
LINE
8
0
10
179.5337178
20
-140.2225897
11
180.0519954
21
-156.714448
0
LINE
8
0
10
179.4866017
20
-138.7233299
11
196.9779665
21
-138.1736416
0
LINE
8
0
10
196.9779665
20
-138.1736416
11
196.4596889
21
-121.6817833
0
LINE
8
0
10
196.4596889
20
-121.6817833
11
178.9683241
21
-122.2314716
0
LINE
8
0
10
178.9683241
20
-122.2314716
11
179.4866017
21
-138.7233299
0
LINE
8
0
10
178.921208
20
-120.7322118
11
196.4125728
21
-120.1825235
0
LINE
8
0
10
196.4125728
20
-120.1825235
11
195.8942952
21
-103.6906652
0
LINE
8
0
10
195.8942952
20
-103.6906652
11
178.4029304
21
-104.2403535
0
LINE
8
0
10
178.4029304
20
-104.2403535
11
178.921208
21
-120.7322118
0
LINE
8
0
10
199.0390478
20
-151.1939863
11
216.5368889
21
-151.4688643
0
LINE
8
0
10
216.5368889
20
-151.4688643
11
216.7960596
21
-134.9708999
0
LINE
8
0
10
216.7960596
20
-134.9708999
11
199.2982185
21
-134.6960219
0
LINE
8
0
10
199.2982185
20
-134.6960219
11
199.0390478
21
-151.1939863
0
LINE
8
0
10
199.3217795
20
-133.1962069
11
216.8196206
21
-133.4710849
0
LINE
8
0
10
216.8196206
20
-133.4710849
11
217.0787913
21
-116.9731205
0
LINE
8
0
10
217.0787913
20
-116.9731205
11
199.5809502
21
-116.6982425
0
LINE
8
0
10
199.5809502
20
-116.6982425
11
199.3217795
21
-133.1962069
0
LINE
8
0
10
199.6045112
20
-115.1984275
11
217.1023523
21
-115.4733055
0
LINE
8
0
10
217.1023523
20
-115.4733055
11
217.361523
21
-98.9753411
0
LINE
8
0
10
217.361523
20
-98.9753411
11
199.8636819
21
-98.7004631
0
LINE
8
0
10
199.8636819
20
-98.7004631
11
199.6045112
21
-115.1984275
0
LINE
8
0
10
217.9660209
20
-155.9918701
11
235.463862
21
-156.2667481
0
LINE
8
0
10
235.463862
20
-156.2667481
11
235.7230327
21
-139.7687837
0
LINE
8
0
10
235.7230327
20
-139.7687837
11
218.2251916
21
-139.4939057
0
LINE
8
0
10
218.2251916
20
-139.4939057
11
217.9660209
21
-155.9918701
0
LINE
8
0
10
218.2487526
20
-137.9940907
11
235.7465937
21
-138.2689687
0
LINE
8
0
10
235.7465937
20
-138.2689687
11
236.0057644
21
-121.7710043
0
LINE
8
0
10
236.0057644
20
-121.7710043
11
218.5079233
21
-121.4961263
0
LINE
8
0
10
218.5079233
20
-121.4961263
11
218.2487526
21
-137.9940907
0
LINE
8
0
10
218.5314843
20
-119.9963113
11
236.0293254
21
-120.2711893
0
LINE
8
0
10
236.0293254
20
-120.2711893
11
236.2884961
21
-103.7732249
0
LINE
8
0
10
236.2884961
20
-103.7732249
11
218.790655
21
-103.4983469
0
LINE
8
0
10
218.790655
20
-103.4983469
11
218.5314843
21
-119.9963113
0
LINE
8
0
10
236.9071306
20
-159.889865
11
254.4049717
21
-160.164743
0
LINE
8
0
10
254.4049717
20
-160.164743
11
254.6641424
21
-143.6667786
0
LINE
8
0
10
254.6641424
20
-143.6667786
11
237.1663013
21
-143.3919006
0
LINE
8
0
10
237.1663013
20
-143.3919006
11
236.9071306
21
-159.889865
0
LINE
8
0
10
237.1898623
20
-141.8920856
11
254.6877034
21
-142.1669636
0
LINE
8
0
10
254.6877034
20
-142.1669636
11
254.9468741
21
-125.6689992
0
LINE
8
0
10
254.9468741
20
-125.6689992
11
237.449033
21
-125.3941212
0
LINE
8
0
10
237.449033
20
-125.3941212
11
237.1898623
21
-141.8920856
0
LINE
8
0
10
237.472594
20
-123.8943062
11
254.9704351
21
-124.1691842
0
LINE
8
0
10
254.9704351
20
-124.1691842
11
255.2296058
21
-107.6712198
0
LINE
8
0
10
255.2296058
20
-107.6712198
11
237.7317647
21
-107.3963418
0
LINE
8
0
10
237.7317647
20
-107.3963418
11
237.472594
21
-123.8943062
0
LINE
8
0
10
217.4995136
20
-185.6882061
11
234.9973547
21
-185.9630841
0
LINE
8
0
10
234.9973547
20
-185.9630841
11
235.2565254
21
-169.4651197
0
LINE
8
0
10
235.2565254
20
-169.4651197
11
217.7586843
21
-169.1902417
0
LINE
8
0
10
217.7586843
20
-169.1902417
11
217.4995136
21
-185.6882061
0
LINE
8
0
10
236.4971696
20
-185.9866451
11
253.9950107
21
-186.2615231
0
LINE
8
0
10
253.9950107
20
-186.2615231
11
254.2541814
21
-169.7635587
0
LINE
8
0
10
254.2541814
20
-169.7635587
11
236.7563403
21
-169.4886807
0
LINE
8
0
10
236.7563403
20
-169.4886807
11
236.4971696
21
-185.9866451
0
LINE
8
0
10
272.0908543
20
-191.464583
11
278.9398348
21
-167.4210503
0
LINE
8
0
10
255.2603814
20
-186.6702967
11
262.1093619
21
-162.626764
0
LINE
8
0
10
255.2603814
20
-186.6702967
11
272.0908543
21
-191.464583
0
LINE
8
0
10
278.9398348
20
-167.4210503
11
262.1093619
21
-162.626764
0
ENDSEC
0
EOF