0
SECTION
2
HEADER
9
$INSUNITS
70
4
0
ENDSEC
0
SECTION
2
TABLES
0
TABLE
2
LTYPE
0
LTYPE
72
65
70
64
2
CONTINUOUS
3
______
73
0
40
0
0
ENDTAB
0
TABLE
2
LAYER
0
ENDTAB
0
ENDSEC
0
SECTION
2
ENTITIES
0
LINE
8
0
10
279.1824654
20
-111.8625469
11
257.4479379
21
-164.9057689
0
LINE
8
0
10
258.0993114
20
-166.2466664
11
261.3354993
21
-167.1685188
0
LINE
8
0
10
277.204231
20
-171.6888459
11
278.7903027
21
-172.1406504
0
LINE
8
0
10
278.9066524
20
-174.0230756
11
276.214161
21
-175.1645134
0
LINE
8
0
10
256.7014066
20
-183.4366274
11
254.3325734
21
-184.4408556
0
LINE
8
0
10
253.8323243
20
-184.5141099
11
253.2489343
21
-184.4495807
0
LINE
8
0
10
236.5503315
20
-182.6025363
11
235.1696115
21
-182.4498139
0
LINE
8
0
10
235.0753786
20
-182.4438755
11
218.4846885
21
-182.1832481
0
LINE
8
0
10
217.5005192
20
-181.1676642
11
217.9508539
21
-152.5008294
0
LINE
8
0
10
216.9640601
20
-151.4852077
11
198.5037435
21
-151.2436744
0
LINE
8
0
10
197.4911541
20
-152.2749996
11
197.5844277
21
-155.2430149
0
LINE
8
0
10
196.6163319
20
-156.2739323
11
179.234552
21
-156.8201766
0
LINE
8
0
10
178.2691486
20
-157.8994417
11
179.3665127
21
-171.6141978
0
LINE
8
0
10
178.4481576
20
-172.6908736
11
162.8576707
21
-173.9178715
0
LINE
8
0
10
161.7822943
20
-172.9994133
11
157.8075565
21
-122.4955811
0
LINE
8
0
10
158.7260147
20
-121.4202047
11
177.8634461
21
-119.9140563
0
LINE
8
0
10
178.7845118
20
-118.886315
11
178.361258
21
-105.16153
0
LINE
8
0
10
179.329372
20
-104.1311994
11
198.7821896
21
-103.51987
0
LINE
8
0
10
199.7507149
20
-102.5316686
11
199.7835921
21
-99.6237214
0
LINE
8
0
10
200.7992355
20
-98.63515
11
216.4351138
21
-98.880778
0
LINE
8
0
10
217.4193156
20
-99.8941399
11
217.3855422
21
-102.3983629
0
LINE
8
0
10
218.369744
20
-103.4117248
11
235.362641
21
-103.6786706
0
LINE
8
0
10
236.3468501
20
-104.691477
11
236.3260905
21
-106.2969045
0
LINE
8
0
10
237.3102996
20
-107.3097109
11
254.3009772
21
-107.5766219
0
LINE
8
0
10
255.2851465
20
-108.5922058
11
255.2768216
21
-109.1221405
0
LINE
8
0
10
256.2609909
20
-110.1377244
11
278.27284
21
-110.4835141
0
ARC
8
0
10
258.3732706
20
-165.2849251
40
1
50
157.7185748
51
254.1000009
0
ARC
8
0
10
278.5163435
20
-173.1023917
40
1
50
292.9737229
51
74.1000009
0
ARC
8
0
10
253.9422645
20
-183.5201717
40
1
50
263.6881316
51
292.9737229
0
ARC
8
0
10
235.0596713
20
-183.4437521
40
1
50
83.6881316
51
89.100001
0
ARC
8
0
10
218.5003958
20
-181.1833715
40
1
50
179.100001
51
200.6652003
0
ARC
8
0
10
218.5003958
20
-181.1833715
40
1
50
246.0260837
51
269.100001
0
ARC
8
0
10
216.9509773
20
-152.4851221
40
1
50
359.100001
51
89.2503894
0
ARC
8
0
10
198.4906607
20
-152.2435888
40
1
50
89.2503894
51
181.8000023
0
ARC
8
0
10
196.5849211
20
-155.2744257
40
1
50
271.8000023
51
294.8739192
0
ARC
8
0
10
196.5849211
20
-155.2744257
40
1
50
340.2348296
51
1.8000023
0
ARC
8
0
10
179.2659628
20
-157.8196832
40
1
50
91.8000023
51
184.5746845
0
ARC
8
0
10
178.3696985
20
-171.6939563
40
1
50
274.5000004
51
297.5739319
0
ARC
8
0
10
178.3696985
20
-171.6939563
40
1
50
343.139038
51
4.5746845
0
ARC
8
0
10
162.7792116
20
-172.9209542
40
1
50
184.5000004
51
206.0651851
0
ARC
8
0
10
162.7792116
20
-172.9209542
40
1
50
251.4260838
51
274.5000004
0
ARC
8
0
10
158.8044738
20
-122.417122
40
1
50
94.5000004
51
117.5739319
0
ARC
8
0
10
158.8044738
20
-122.417122
40
1
50
162.9347966
51
184.5000004
0
ARC
8
0
10
177.784987
20
-118.917139
40
1
50
274.5000004
51
1.7663649
0
ARC
8
0
10
179.3607828
20
-105.130706
40
1
50
91.8000023
51
114.8739192
0
ARC
8
0
10
179.3607828
20
-105.130706
40
1
50
160.1435114
51
181.7663649
0
ARC
8
0
10
198.7507788
20
-102.5203634
40
1
50
271.8000023
51
359.352246
0
ARC
8
0
10
200.7835282
20
-99.6350266
40
1
50
89.100001
51
112.1739318
0
ARC
8
0
10
200.7835282
20
-99.6350266
40
1
50
158.2334074
51
179.352246
0
ARC
8
0
10
216.4194065
20
-99.8806546
40
1
50
359.2273258
51
381.0086072
0
ARC
8
0
10
216.4194065
20
-99.8806546
40
1
50
426.0260837
51
89.100001
0
ARC
8
0
10
218.3854513
20
-102.4118482
40
1
50
179.2273258
51
269.100001
0
ARC
8
0
10
235.3469337
20
-104.6785472
40
1
50
359.2591564
51
381.0935522
0
ARC
8
0
10
235.3469337
20
-104.6785472
40
1
50
426.0260837
51
89.100001
0
ARC
8
0
10
237.3260069
20
-106.3098343
40
1
50
179.2591564
51
269.100001
0
ARC
8
0
10
254.2852699
20
-108.5764985
40
1
50
359.100001
51
380.6652003
0
ARC
8
0
10
254.2852699
20
-108.5764985
40
1
50
426.0260837
51
89.100001
0
ARC
8
0
10
256.2766982
20
-109.1378478
40
1
50
179.100001
51
269.100001
0
ARC
8
0
10
278.2571327
20
-111.4833907
40
1
50
337.7185748
51
89.100001
0
LINE
8
0
10
162.4606838
20
-173.8688677
11
178.8325913
21
-172.5803706
0
LINE
8
0
10
179.3267099
20
-171.9840065
11
178.0757391
21
-156.0889149
0
LINE
8
0
10
178.0757391
20
-156.0889149
11
160.6296858
21
-157.4619491
0
LINE
8
0
10
160.6296858
20
-157.4619491
11
161.8809169
21
-173.3603476
0
LINE
8
0
10
160.5119972
20
-155.9665731
11
177.9580505
21
-154.5935389
0
LINE
8
0
10
177.9580505
20
-154.5935389
11
176.6634754
21
-138.1444029
0
LINE
8
0
10
176.6634754
20
-138.1444029
11
159.2174221
21
-139.5174371
0
LINE
8
0
10
159.2174221
20
-139.5174371
11
160.5119972
21
-155.9665731
0
LINE
8
0
10
159.0997335
20
-138.0220611
11
176.5457868
21
-136.6490269
0
LINE
8
0
10
176.5457868
20
-136.6490269
11
175.2512117
21
-120.1998909
0
LINE
8
0
10
175.2512117
20
-120.1998909
11
158.341581
21
-121.5307077
0
LINE
8
0
10
157.8485024
20
-122.1236622
11
159.0997335
21
-138.0220611
0
LINE
8
0
10
180.0519954
20
-156.714448
11
197.005544
21
-156.1816613
0
LINE
8
0
10
197.5260076
20
-155.6125916
11
197.0250826
21
-139.6729014
0
LINE
8
0
10
197.0250826
20
-139.6729014
11
179.5337178
21
-140.2225897
0
LINE
8
0
10
179.5337178
20
-140.2225897
11
180.0519954
21
-156.714448
0
LINE
8
0
10
179.4866017
20
-138.7233299
11
196.9779665
21
-138.1736416
0
LINE
8
0
10
196.9779665
20
-138.1736416
11
196.4596889
21
-121.6817833
0
LINE
8
0
10
196.4596889
20
-121.6817833
11
178.9683241
21
-122.2314716
0
LINE
8
0
10
178.9683241
20
-122.2314716
11
179.4866017
21
-138.7233299
0
LINE
8
0
10
178.921208
20
-120.7322118
11
196.4125728
21
-120.1825235
0
LINE
8
0
10
196.4125728
20
-120.1825235
11
195.8942952
21
-103.6906652
0
LINE
8
0
10
195.8942952
20
-103.6906652
11
178.9401599
21
-104.2234704
0
LINE
8
0
10
178.4202364
20
-104.7910406
11
178.921208
21
-120.7322118
0
LINE
8
0
10
199.0390478
20
-151.1939863
11
216.5368889
21
-151.4688643
0
LINE
8
0
10
216.5368889
20
-151.4688643
11
216.7960596
21
-134.9708999
0
LINE
8
0
10
216.7960596
20
-134.9708999
11
199.2982185
21
-134.6960219
0
LINE
8
0
10
199.2982185
20
-134.6960219
11
199.0390478
21
-151.1939863
0
LINE
8
0
10
199.3217795
20
-133.1962069
11
216.8196206
21
-133.4710849
0
LINE
8
0
10
216.8196206
20
-133.4710849
11
217.0787913
21
-116.9731205
0
LINE
8
0
10
217.0787913
20
-116.9731205
11
199.5809502
21
-116.6982425
0
LINE
8
0
10
199.5809502
20
-116.6982425
11
199.3217795
21
-133.1962069
0
LINE
8
0
10
199.6045112
20
-115.1984275
11
217.1023523
21
-115.4733055
0
LINE
8
0
10
217.1023523
20
-115.4733055
11
217.3529331
21
-99.5221464
0
LINE
8
0
10
216.8257272
20
-98.9669241
11
200.4061087
21
-98.7089842
0
LINE
8
0
10
199.854826
20
-99.2642002
11
199.6045112
21
-115.1984275
0
LINE
8
0
10
217.9660209
20
-155.9918701
11
235.463862
21
-156.2667481
0
LINE
8
0
10
235.463862
20
-156.2667481
11
235.7230327
21
-139.7687837
0
LINE
8
0
10
235.7230327
20
-139.7687837
11
218.2251916
21
-139.4939057
0
LINE
8
0
10
218.2251916
20
-139.4939057
11
217.9660209
21
-155.9918701
0
LINE
8
0
10
218.2487526
20
-137.9940907
11
235.7465937
21
-138.2689687
0
LINE
8
0
10
235.7465937
20
-138.2689687
11
236.0057644
21
-121.7710043
0
LINE
8
0
10
236.0057644
20
-121.7710043
11
218.5079233
21
-121.4961263
0
LINE
8
0
10
218.5079233
20
-121.4961263
11
218.2487526
21
-137.9940907
0
LINE
8
0
10
218.5314843
20
-119.9963113
11
236.0293254
21
-120.2711893
0
LINE
8
0
10
236.0293254
20
-120.2711893
11
236.2799277
21
-104.3186554
0
LINE
8
0
10
235.7532544
20
-103.7648167
11
218.790655
21
-103.4983469
0
LINE
8
0
10
218.790655
20
-103.4983469
11
218.5314843
21
-119.9963113
0
LINE
8
0
10
236.9071306
20
-159.889865
11
254.4049717
21
-160.164743
0
LINE
8
0
10
254.4049717
20
-160.164743
11
254.6641424
21
-143.6667786
0
LINE
8
0
10
254.6641424
20
-143.6667786
11
237.1663013
21
-143.3919006
0
LINE
8
0
10
237.1663013
20
-143.3919006
11
236.9071306
21
-159.889865
0
LINE
8
0
10
237.1898623
20
-141.8920856
11
254.6877034
21
-142.1669636
0
LINE
8
0
10
254.6877034
20
-142.1669636
11
254.9468741
21
-125.6689992
0
LINE
8
0
10
254.9468741
20
-125.6689992
11
237.449033
21
-125.3941212
0
LINE
8
0
10
237.449033
20
-125.3941212
11
237.1898623
21
-141.8920856
0
LINE
8
0
10
237.472594
20
-123.8943062
11
254.9704351
21
-124.1691842
0
LINE
8
0
10
254.9704351
20
-124.1691842
11
255.2209284
21
-108.2235919
0
LINE
8
0
10
254.6915906
20
-107.662768
11
237.7317647
21
-107.3963418
0
LINE
8
0
10
237.7317647
20
-107.3963418
11
237.472594
21
-123.8943062
0
LINE
8
0
10
218.0940751
20
-182.097102
11
235.053901
21
-182.3635282
0
LINE
8
0
10
235.053901
20
-182.3635282
11
235.3130717
21
-165.8655638
0
LINE
8
0
10
235.3130717
20
-165.8655638
11
217.8152306
21
-165.5906858
0
LINE
8
0
10
217.8152306
20
-165.5906858
11
217.5647373
21
-181.5362781
0
LINE
8
0
10
253.2489343
20
-184.4495807
11
254.0232839
21
-184.4617452
0
LINE
8
0
10
254.0232839
20
-184.4617452
11
254.2824546
21
-167.9637808
0
LINE
8
0
10
254.2824546
20
-167.9637808
11
236.7846135
21
-167.6889028
0
LINE
8
0
10
236.7846135
20
-167.6889028
11
236.5503315
21
-182.6025363
0
LINE
8
0
10
276.214161
20
-175.1645134
11
277.204231
21
-171.6888459
0
LINE
8
0
10
261.3163222
20
-167.2358407
11
256.7014066
21
-183.4366274
0
LINE
8
0
10
261.3354993
20
-167.1685188
11
261.3163222
21
-167.2358407
0
ENDSEC
0
EOF