<svg width="122.547mm" height="96.284mm" viewBox="0 0 122.547 96.284" xmlns="http://www.w3.org/2000/svg"><g id="svgGroup" stroke-linecap="round" fill-rule="evenodd" font-size="9pt" stroke="#000" stroke-width="0.25mm" fill="none" style="stroke:#000;stroke-width:0.25mm;fill:none"><path d="M 122.536 12.137 L 122.547 69.822 A 0.25 0.25 0 0 1 122.538 69.89 L 115.071 96.102 A 0.25 0.25 0 0 1 114.762 96.274 L 97.585 91.381 A 0.25 0.25 0 0 1 97.414 91.073 L 98.381 87.678 L 98.195 87.648 L 79.006 87.346 A 0.25 0.25 0 0 1 78.759 87.094 L 78.773 85.791 A 0.25 0.25 0 0 0 78.527 85.538 L 60.038 85.248 A 0.25 0.25 0 0 1 59.791 84.994 L 60.265 54.825 A 0.25 0.25 0 0 0 60.019 54.571 L 41.862 54.296 A 0.25 0.25 0 0 0 41.609 54.554 L 41.75 59.055 A 0.25 0.25 0 0 1 41.508 59.312 L 22.591 59.907 A 0.25 0.25 0 0 0 22.349 60.177 L 23.606 75.38 A 0.25 0.25 0 0 1 23.376 75.649 L 4.495 77.135 A 0.25 0.25 0 0 1 4.227 76.906 L 0.001 23.212 A 0.25 0.25 0 0 1 0.23 22.943 L 20.829 21.322 A 0.25 0.25 0 0 0 21.059 21.066 L 20.627 5.831 A 0.25 0.25 0 0 1 20.869 5.574 L 41.878 4.914 A 0.25 0.25 0 0 0 42.12 4.664 L 42.124 0.25 A 0.25 0.25 0 0 1 42.378 0 L 61.311 0.297 A 0.25 0.25 0 0 1 61.557 0.553 L 61.471 4.549 A 0.25 0.25 0 0 0 61.717 4.804 L 80.24 5.095 A 0.25 0.25 0 0 1 80.486 5.349 L 80.446 8.45 A 0.25 0.25 0 0 0 80.692 8.703 L 99.18 8.993 A 0.25 0.25 0 0 1 99.426 9.247 L 99.394 11.277 A 0.25 0.25 0 0 0 99.64 11.531 L 122.289 11.887 A 0.25 0.25 0 0 1 122.536 12.137 Z M 114.374 95.155 L 121.634 69.669 L 105.765 65.149 L 98.505 90.635 L 114.374 95.155 Z M 22.137 22.973 L 39.629 22.423 L 39.11 5.931 L 21.619 6.481 L 22.137 22.973 Z M 22.703 40.964 L 40.194 40.414 L 39.676 23.922 L 22.184 24.472 L 22.703 40.964 Z M 23.268 58.955 L 40.759 58.405 L 40.241 41.914 L 22.75 42.463 L 23.268 58.955 Z M 42.255 53.435 L 59.753 53.71 L 60.012 37.212 L 42.514 36.937 L 42.255 53.435 Z M 42.538 35.437 L 60.036 35.712 L 60.295 19.214 L 42.797 18.939 L 42.538 35.437 Z M 42.82 17.439 L 60.318 17.714 L 60.577 1.216 L 43.08 0.941 L 42.82 17.439 Z M 61.182 58.233 L 78.68 58.507 L 78.939 42.009 L 61.441 41.735 L 61.182 58.233 Z M 61.465 40.235 L 78.963 40.51 L 79.222 24.012 L 61.724 23.737 L 61.465 40.235 Z M 61.747 22.237 L 79.245 22.512 L 79.504 6.014 L 62.007 5.739 L 61.747 22.237 Z M 80.123 62.131 L 97.621 62.405 L 97.88 45.907 L 80.382 45.633 L 80.123 62.131 Z M 80.406 44.133 L 97.904 44.408 L 98.163 27.91 L 80.665 27.635 L 80.406 44.133 Z M 80.689 26.135 L 98.186 26.41 L 98.446 9.912 L 80.948 9.637 L 80.689 26.135 Z M 60.772 84.329 L 78.27 84.604 L 78.529 68.106 L 61.031 67.831 L 60.772 84.329 Z M 79.741 86.428 L 97.239 86.702 L 97.498 70.204 L 80.001 69.93 L 79.741 86.428 Z M 5.14 76.152 L 22.586 74.779 L 21.292 58.33 L 3.846 59.703 L 5.14 76.152 Z M 3.728 58.207 L 21.174 56.834 L 19.879 40.385 L 2.433 41.758 L 3.728 58.207 Z M 2.316 40.263 L 19.762 38.89 L 18.467 22.441 L 1.021 23.814 L 2.316 40.263 Z" vector-effect="non-scaling-stroke"/></g></svg>