0
SECTION
2
HEADER
9
$INSUNITS
70
4
0
ENDSEC
0
SECTION
2
TABLES
0
TABLE
2
LTYPE
0
LTYPE
72
65
70
64
2
CONTINUOUS
3
______
73
0
40
0
0
ENDTAB
0
TABLE
2
LAYER
0
ENDTAB
0
ENDSEC
0
SECTION
2
ENTITIES
0
LINE
8
0
10
161.6946463
20
-174.1799292
11
179.6391583
21
-172.7676655
0
LINE
8
0
10
179.6391583
20
-172.7676655
11
178.3053537
21
-155.8200708
0
LINE
8
0
10
178.3053537
20
-155.8200708
11
160.3608417
21
-157.2323345
0
LINE
8
0
10
160.3608417
20
-157.2323345
11
161.6946463
21
-174.1799292
0
LINE
8
0
10
160.2823826
20
-156.2354172
11
178.2268946
21
-154.8231535
0
LINE
8
0
10
178.2268946
20
-154.8231535
11
176.89309
21
-137.8755588
0
LINE
8
0
10
176.89309
20
-137.8755588
11
158.948578
21
-139.2878225
0
LINE
8
0
10
158.948578
20
-139.2878225
11
160.2823826
21
-156.2354172
0
LINE
8
0
10
158.8701189
20
-138.2909052
11
176.8146309
21
-136.8786415
0
LINE
8
0
10
176.8146309
20
-136.8786415
11
175.4808263
21
-119.9310468
0
LINE
8
0
10
175.4808263
20
-119.9310468
11
157.5363143
21
-121.3433105
0
LINE
8
0
10
157.5363143
20
-121.3433105
11
158.8701189
21
-138.2909052
0
LINE
8
0
10
179.8099714
20
-156.9721773
11
197.8010895
21
-156.4067836
0
LINE
8
0
10
197.8010895
20
-156.4067836
11
197.2671066
21
-139.4151721
0
LINE
8
0
10
197.2671066
20
-139.4151721
11
179.2759885
21
-139.9805658
0
LINE
8
0
10
179.2759885
20
-139.9805658
11
179.8099714
21
-156.9721773
0
LINE
8
0
10
179.2445777
20
-138.9810592
11
197.2356958
21
-138.4156655
0
LINE
8
0
10
197.2356958
20
-138.4156655
11
196.7017129
21
-121.424054
0
LINE
8
0
10
196.7017129
20
-121.424054
11
178.7105948
21
-121.9894477
0
LINE
8
0
10
178.7105948
20
-121.9894477
11
179.2445777
21
-138.9810592
0
LINE
8
0
10
178.679184
20
-120.9899411
11
196.6703021
21
-120.4245474
0
LINE
8
0
10
196.6703021
20
-120.4245474
11
196.1363192
21
-103.4329359
0
LINE
8
0
10
196.1363192
20
-103.4329359
11
178.1452011
21
-103.9983296
0
LINE
8
0
10
178.1452011
20
-103.9983296
11
178.679184
21
-120.9899411
0
LINE
8
0
10
198.7851518
20
-151.4400286
11
216.7829312
21
-151.7227603
0
LINE
8
0
10
216.7829312
20
-151.7227603
11
217.0499556
21
-134.7248576
0
LINE
8
0
10
217.0499556
20
-134.7248576
11
199.0521762
21
-134.4421259
0
LINE
8
0
10
199.0521762
20
-134.4421259
11
198.7851518
21
-151.4400286
0
LINE
8
0
10
199.0678835
20
-133.4422492
11
217.0656629
21
-133.7249809
0
LINE
8
0
10
217.0656629
20
-133.7249809
11
217.3326873
21
-116.7270782
0
LINE
8
0
10
217.3326873
20
-116.7270782
11
199.3349079
21
-116.4443465
0
LINE
8
0
10
199.3349079
20
-116.4443465
11
199.0678835
21
-133.4422492
0
LINE
8
0
10
199.3506152
20
-115.4444698
11
217.3483946
21
-115.7272015
0
LINE
8
0
10
217.3483946
20
-115.7272015
11
217.615419
21
-98.7292988
0
LINE
8
0
10
217.615419
20
-98.7292988
11
199.6176396
21
-98.4465671
0
LINE
8
0
10
199.6176396
20
-98.4465671
11
199.3506152
21
-115.4444698
0
LINE
8
0
10
217.7121249
20
-156.2379124
11
235.7099043
21
-156.5206441
0
LINE
8
0
10
235.7099043
20
-156.5206441
11
235.9769287
21
-139.5227414
0
LINE
8
0
10
235.9769287
20
-139.5227414
11
217.9791493
21
-139.2400097
0
LINE
8
0
10
217.9791493
20
-139.2400097
11
217.7121249
21
-156.2379124
0
LINE
8
0
10
217.9948566
20
-138.240133
11
235.992636
21
-138.5228647
0
LINE
8
0
10
235.992636
20
-138.5228647
11
236.2596604
21
-121.524962
0
LINE
8
0
10
236.2596604
20
-121.524962
11
218.261881
21
-121.2422303
0
LINE
8
0
10
218.261881
20
-121.2422303
11
217.9948566
21
-138.240133
0
LINE
8
0
10
218.2775883
20
-120.2423536
11
236.2753677
21
-120.5250853
0
LINE
8
0
10
236.2753677
20
-120.5250853
11
236.5423921
21
-103.5271826
0
LINE
8
0
10
236.5423921
20
-103.5271826
11
218.5446127
21
-103.2444509
0
LINE
8
0
10
218.5446127
20
-103.2444509
11
218.2775883
21
-120.2423536
0
LINE
8
0
10
236.6532346
20
-160.1359073
11
254.651014
21
-160.418639
0
LINE
8
0
10
254.651014
20
-160.418639
11
254.9180384
21
-143.4207363
0
LINE
8
0
10
254.9180384
20
-143.4207363
11
236.920259
21
-143.1380046
0
LINE
8
0
10
236.920259
20
-143.1380046
11
236.6532346
21
-160.1359073
0
LINE
8
0
10
236.9359663
20
-142.1381279
11
254.9337457
21
-142.4208596
0
LINE
8
0
10
254.9337457
20
-142.4208596
11
255.2007701
21
-125.4229569
0
LINE
8
0
10
255.2007701
20
-125.4229569
11
237.2029907
21
-125.1402252
0
LINE
8
0
10
237.2029907
20
-125.1402252
11
236.9359663
21
-142.1381279
0
LINE
8
0
10
237.218698
20
-124.1403485
11
255.2164774
21
-124.4230802
0
LINE
8
0
10
255.2164774
20
-124.4230802
11
255.4835018
21
-107.4251775
0
LINE
8
0
10
255.4835018
20
-107.4251775
11
237.4857224
21
-107.1424458
0
LINE
8
0
10
237.4857224
20
-107.1424458
11
237.218698
21
-124.1403485
0
LINE
8
0
10
217.2456176
20
-185.9342484
11
235.243397
21
-186.2169801
0
LINE
8
0
10
235.243397
20
-186.2169801
11
235.5104214
21
-169.2190774
0
LINE
8
0
10
235.5104214
20
-169.2190774
11
217.512642
21
-168.9363457
0
LINE
8
0
10
217.512642
20
-168.9363457
11
217.2456176
21
-185.9342484
0
LINE
8
0
10
236.2432736
20
-186.2326874
11
254.241053
21
-186.5154191
0
LINE
8
0
10
254.241053
20
-186.5154191
11
254.5080774
21
-169.5175164
0
LINE
8
0
10
254.5080774
20
-169.5175164
11
236.510298
21
-169.2347847
0
LINE
8
0
10
236.510298
20
-169.2347847
11
236.2432736
21
-186.2326874
0
LINE
8
0
10
256.115783
20
-182.7548417
11
273.4271265
21
-187.6861076
0
LINE
8
0
10
273.4271265
20
-187.6861076
11
278.0844332
21
-171.3365053
0
LINE
8
0
10
278.0844332
20
-171.3365053
11
260.7730897
21
-166.4052394
0
LINE
8
0
10
260.7730897
20
-166.4052394
11
256.115783
21
-182.7548417
0
ENDSEC
0
EOF