%TF.GenerationSoftware,KiCad,Pcbnew,8.0.8*%
%TF.CreationDate,2025-02-08T17:55:19+10:30*%
%TF.ProjectId,quasikb,71756173-696b-4622-9e6b-696361645f70,0.1*%
%TF.SameCoordinates,Original*%
%TF.FileFunction,Copper,L2,Bot*%
%TF.FilePolarity,Positive*%
%FSLAX46Y46*%
G04 Gerber Fmt 4.6, Leading zero omitted, Abs format (unit mm)*
G04 Created by KiCad (PCBNEW 8.0.8) date 2025-02-08 17:55:19*
%MOMM*%
%LPD*%
G01*
G04 APERTURE LIST*
G04 Aperture macros list*
%AMRotRect*
0 Rectangle, with rotation*
0 The origin of the aperture is its center*
0 $1 length*
0 $2 width*
0 $3 Rotation angle, in degrees counterclockwise*
0 Add horizontal line*
21,1,$1,$2,0,0,$3*%
%AMOutline5P*
0 Free polygon, 5 corners , with rotation*
0 The origin of the aperture is its center*
0 number of corners: always 5*
0 $1 to $10 corner X, Y*
0 $11 Rotation angle, in degrees counterclockwise*
0 create outline with 5 corners*
4,1,5,$1,$2,$3,$4,$5,$6,$7,$8,$9,$10,$1,$2,$11*%
%AMOutline6P*
0 Free polygon, 6 corners , with rotation*
0 The origin of the aperture is its center*
0 number of corners: always 6*
0 $1 to $12 corner X, Y*
0 $13 Rotation angle, in degrees counterclockwise*
0 create outline with 6 corners*
4,1,6,$1,$2,$3,$4,$5,$6,$7,$8,$9,$10,$11,$12,$1,$2,$13*%
%AMOutline7P*
0 Free polygon, 7 corners , with rotation*
0 The origin of the aperture is its center*
0 number of corners: always 7*
0 $1 to $14 corner X, Y*
0 $15 Rotation angle, in degrees counterclockwise*
0 create outline with 7 corners*
4,1,7,$1,$2,$3,$4,$5,$6,$7,$8,$9,$10,$11,$12,$13,$14,$1,$2,$15*%
%AMOutline8P*
0 Free polygon, 8 corners , with rotation*
0 The origin of the aperture is its center*
0 number of corners: always 8*
0 $1 to $16 corner X, Y*
0 $17 Rotation angle, in degrees counterclockwise*
0 create outline with 8 corners*
4,1,8,$1,$2,$3,$4,$5,$6,$7,$8,$9,$10,$11,$12,$13,$14,$15,$16,$1,$2,$17*%
%AMFreePoly0*
4,1,6,0.250000,0.000000,-0.250000,-0.625000,-0.500000,-0.625000,-0.500000,0.625000,-0.250000,0.625000,0.250000,0.000000,0.250000,0.000000,$1*%
%AMFreePoly1*
4,1,6,0.500000,-0.625000,-0.650000,-0.625000,-0.150000,0.000000,-0.650000,0.625000,0.500000,0.625000,0.500000,-0.625000,0.500000,-0.625000,$1*%
G04 Aperture macros list end*
%TA.AperFunction,SMDPad,CuDef*%
%ADD10Outline5P,-1.300000X1.300000X1.300000X1.300000X1.300000X-1.300000X-0.117000X-1.300000X-1.300000X-0.117000X4.500000*%
%TD*%
%TA.AperFunction,SMDPad,CuDef*%
%ADD11RotRect,2.600000X2.600000X4.500000*%
%TD*%
%TA.AperFunction,SMDPad,CuDef*%
%ADD12Outline5P,-1.300000X1.300000X1.300000X1.300000X1.300000X-1.300000X-0.117000X-1.300000X-1.300000X-0.117000X1.800000*%
%TD*%
%TA.AperFunction,SMDPad,CuDef*%
%ADD13RotRect,2.600000X2.600000X1.800000*%
%TD*%
%TA.AperFunction,SMDPad,CuDef*%
%ADD14Outline5P,-1.300000X1.300000X1.300000X1.300000X1.300000X-1.300000X-0.117000X-1.300000X-1.300000X-0.117000X359.100000*%
%TD*%
%TA.AperFunction,SMDPad,CuDef*%
%ADD15RotRect,2.600000X2.600000X359.100000*%
%TD*%
%TA.AperFunction,SMDPad,CuDef*%
%ADD16Outline5P,-1.300000X1.300000X1.300000X1.300000X1.300000X-1.300000X-0.117000X-1.300000X-1.300000X-0.117000X74.100000*%
%TD*%
%TA.AperFunction,SMDPad,CuDef*%
%ADD17RotRect,2.600000X2.600000X74.100000*%
%TD*%
%TA.AperFunction,ComponentPad*%
%ADD18C,1.700000*%
%TD*%
%TA.AperFunction,ComponentPad*%
%ADD19C,0.800000*%
%TD*%
%TA.AperFunction,SMDPad,CuDef*%
%ADD20FreePoly0,359.100000*%
%TD*%
%TA.AperFunction,SMDPad,CuDef*%
%ADD21FreePoly1,359.100000*%
%TD*%
%TA.AperFunction,SMDPad,CuDef*%
%ADD22FreePoly1,179.100000*%
%TD*%
%TA.AperFunction,SMDPad,CuDef*%
%ADD23FreePoly0,179.100000*%
%TD*%
%TA.AperFunction,SMDPad,CuDef*%
%ADD24RotRect,1.000000X0.800000X359.100000*%
%TD*%
%TA.AperFunction,SMDPad,CuDef*%
%ADD25RotRect,0.700000X1.500000X359.100000*%
%TD*%
%TA.AperFunction,SMDPad,CuDef*%
%ADD26RotRect,1.500000X1.500000X359.100000*%
%TD*%
%TA.AperFunction,ComponentPad*%
%ADD27C,1.000000*%
%TD*%
%TA.AperFunction,ViaPad*%
%ADD28C,0.600000*%
%TD*%
%TA.AperFunction,Conductor*%
%ADD29C,0.200000*%
%TD*%
%TA.AperFunction,Conductor*%
%ADD30C,0.250000*%
%TD*%
G04 APERTURE END LIST*
D10*
%TO.P,S1,1*%
%TO.N,GND*%
X166268264Y-159325295D03*
D11*
%TO.P,S1,2*%
%TO.N,matrix_pinky_bottom*%
X177955269Y-160612311D03*
%TD*%
D10*
%TO.P,S2,1*%
%TO.N,GND*%
X164856000Y-141380783D03*
D11*
%TO.P,S2,2*%
%TO.N,matrix_pinky_home*%
X176543005Y-142667799D03*
%TD*%
D10*
%TO.P,S3,1*%
%TO.N,GND*%
X163443737Y-123436271D03*
D11*
%TO.P,S3,2*%
%TO.N,matrix_pinky_top*%
X175130742Y-124723287D03*
%TD*%
D12*
%TO.P,S4,1*%
%TO.N,GND*%
X185078261Y-142349481D03*
D13*
%TO.P,S4,2*%
%TO.N,matrix_ring_bottom*%
X196691665Y-144185601D03*
%TD*%
D12*
%TO.P,S5,1*%
%TO.N,GND*%
X184512867Y-124358363D03*
D13*
%TO.P,S5,2*%
%TO.N,matrix_ring_home*%
X196126271Y-126194483D03*
%TD*%
D12*
%TO.P,S6,1*%
%TO.N,GND*%
X183947474Y-106367245D03*
D13*
%TO.P,S6,2*%
%TO.N,matrix_ring_top*%
X195560878Y-108203365D03*
%TD*%
D14*
%TO.P,S7,1*%
%TO.N,GND*%
X204736417Y-137081736D03*
D15*
%TO.P,S7,2*%
%TO.N,matrix_middle_bottom*%
X216250436Y-139462884D03*
%TD*%
D14*
%TO.P,S8,1*%
%TO.N,GND*%
X205019148Y-119083957D03*
D15*
%TO.P,S8,2*%
%TO.N,matrix_middle_home*%
X216533167Y-121465105D03*
%TD*%
D14*
%TO.P,S9,1*%
%TO.N,GND*%
X205301880Y-101086177D03*
D15*
%TO.P,S9,2*%
%TO.N,matrix_middle_top*%
X216815899Y-103467325D03*
%TD*%
D14*
%TO.P,S10,1*%
%TO.N,GND*%
X223663390Y-141879620D03*
D15*
%TO.P,S10,2*%
%TO.N,matrix_index_bottom*%
X235177409Y-144260768D03*
%TD*%
D14*
%TO.P,S11,1*%
%TO.N,GND*%
X223946122Y-123881840D03*
D15*
%TO.P,S11,2*%
%TO.N,matrix_index_home*%
X235460141Y-126262988D03*
%TD*%
D14*
%TO.P,S12,1*%
%TO.N,GND*%
X224228853Y-105884061D03*
D15*
%TO.P,S12,2*%
%TO.N,matrix_index_top*%
X235742872Y-108265209D03*
%TD*%
D14*
%TO.P,S13,1*%
%TO.N,GND*%
X242604500Y-145777615D03*
D15*
%TO.P,S13,2*%
%TO.N,matrix_inner_bottom*%
X254118519Y-148158763D03*
%TD*%
D14*
%TO.P,S14,1*%
%TO.N,GND*%
X242887231Y-127779835D03*
D15*
%TO.P,S14,2*%
%TO.N,matrix_inner_home*%
X254401250Y-130160983D03*
%TD*%
D14*
%TO.P,S15,1*%
%TO.N,GND*%
X243169963Y-109782056D03*
D15*
%TO.P,S15,2*%
%TO.N,matrix_inner_top*%
X254683982Y-112163204D03*
%TD*%
D14*
%TO.P,S16,1*%
%TO.N,GND*%
X223253429Y-167976400D03*
D15*
%TO.P,S16,2*%
%TO.N,thumb_innit*%
X234767448Y-170357548D03*
%TD*%
D14*
%TO.P,S17,1*%
%TO.N,GND*%
X242222812Y-170074617D03*
D15*
%TO.P,S17,2*%
%TO.N,thumb_middle*%
X253736831Y-172455765D03*
%TD*%
D16*
%TO.P,S18,1*%
%TO.N,GND*%
X260233968Y-179430886D03*
D17*
%TO.P,S18,2*%
%TO.N,thumb_reachy*%
X265514028Y-168925485D03*
%TD*%
D18*
%TO.P,MCU1,24*%
%TO.N,MCU1_24*%
X259826648Y-115344374D03*
%TO.P,MCU1,1*%
%TO.N,MCU1_1*%
X275064768Y-115583754D03*
D19*
%TO.P,MCU1,124*%
%TO.N,RAW*%
X264046127Y-115410659D03*
%TO.P,MCU1,101*%
%TO.N,P1*%
X270845288Y-115517469D03*
D20*
%TO.P,MCU1,24*%
%TO.N,MCU1_24*%
X261946386Y-115377674D03*
D21*
%TO.P,MCU1,101*%
%TO.N,P1*%
X262671297Y-115389061D03*
D22*
%TO.P,MCU1,124*%
%TO.N,RAW*%
X272220119Y-115539066D03*
D23*
%TO.P,MCU1,1*%
%TO.N,MCU1_1*%
X272945029Y-115550454D03*
D18*
%TO.P,MCU1,23*%
%TO.N,MCU1_23*%
X259786751Y-117884061D03*
%TO.P,MCU1,2*%
%TO.N,MCU1_2*%
X275024871Y-118123440D03*
D19*
%TO.P,MCU1,123*%
%TO.N,GND*%
X264006231Y-117950346D03*
%TO.P,MCU1,102*%
%TO.N,P0*%
X270805392Y-118057155D03*
D20*
%TO.P,MCU1,23*%
%TO.N,MCU1_23*%
X261906490Y-117917360D03*
D21*
%TO.P,MCU1,102*%
%TO.N,P0*%
X262631400Y-117928748D03*
D22*
%TO.P,MCU1,123*%
%TO.N,GND*%
X272180222Y-118078753D03*
D23*
%TO.P,MCU1,2*%
%TO.N,MCU1_2*%
X272905133Y-118090141D03*
D18*
%TO.P,MCU1,22*%
%TO.N,MCU1_22*%
X259746855Y-120423747D03*
%TO.P,MCU1,3*%
%TO.N,MCU1_3*%
X274984975Y-120663127D03*
D19*
%TO.P,MCU1,122*%
%TO.N,RST*%
X263966334Y-120490032D03*
%TO.P,MCU1,103*%
%TO.N,GND*%
X270765495Y-120596842D03*
D20*
%TO.P,MCU1,22*%
%TO.N,MCU1_22*%
X261866593Y-120457047D03*
D21*
%TO.P,MCU1,103*%
%TO.N,GND*%
X262591504Y-120468435D03*
D22*
%TO.P,MCU1,122*%
%TO.N,RST*%
X272140326Y-120618440D03*
D23*
%TO.P,MCU1,3*%
%TO.N,MCU1_3*%
X272865236Y-120629827D03*
D18*
%TO.P,MCU1,21*%
%TO.N,MCU1_21*%
X259706958Y-122963434D03*
%TO.P,MCU1,4*%
%TO.N,MCU1_4*%
X274945078Y-123202813D03*
D19*
%TO.P,MCU1,121*%
%TO.N,VCC*%
X263926438Y-123029719D03*
%TO.P,MCU1,104*%
%TO.N,GND*%
X270725599Y-123136529D03*
D20*
%TO.P,MCU1,21*%
%TO.N,MCU1_21*%
X261826697Y-122996733D03*
D21*
%TO.P,MCU1,104*%
%TO.N,GND*%
X262551607Y-123008121D03*
D22*
%TO.P,MCU1,121*%
%TO.N,VCC*%
X272100429Y-123158126D03*
D23*
%TO.P,MCU1,4*%
%TO.N,MCU1_4*%
X272825340Y-123169514D03*
D18*
%TO.P,MCU1,20*%
%TO.N,matrix_inner_top*%
X259667062Y-125503121D03*
%TO.P,MCU1,5*%
%TO.N,matrix_ring_home*%
X274905182Y-125742500D03*
%TO.P,MCU1,19*%
%TO.N,matrix_index_top*%
X259627165Y-128042807D03*
%TO.P,MCU1,6*%
%TO.N,matrix_pinky_home*%
X274865285Y-128282187D03*
%TO.P,MCU1,18*%
%TO.N,matrix_middle_top*%
X259587268Y-130582494D03*
%TO.P,MCU1,7*%
%TO.N,matrix_inner_bottom*%
X274825388Y-130821873D03*
%TO.P,MCU1,17*%
%TO.N,matrix_ring_top*%
X259547372Y-133122181D03*
%TO.P,MCU1,8*%
%TO.N,matrix_index_bottom*%
X274785492Y-133361560D03*
%TO.P,MCU1,16*%
%TO.N,matrix_pinky_top*%
X259507475Y-135661867D03*
%TO.P,MCU1,9*%
%TO.N,matrix_middle_bottom*%
X274745595Y-135901247D03*
%TO.P,MCU1,15*%
%TO.N,matrix_inner_home*%
X259467579Y-138201554D03*
%TO.P,MCU1,10*%
%TO.N,matrix_ring_bottom*%
X274705699Y-138440933D03*
%TO.P,MCU1,14*%
%TO.N,matrix_index_home*%
X259427682Y-140741240D03*
%TO.P,MCU1,11*%
%TO.N,matrix_pinky_bottom*%
X274665802Y-140980620D03*
%TO.P,MCU1,13*%
%TO.N,matrix_middle_home*%
X259387786Y-143280927D03*
%TO.P,MCU1,12*%
%TO.N,P9*%
X274625905Y-143520307D03*
%TO.P,MCU1,25*%
%TO.N,thumb_innit*%
X272166012Y-138401037D03*
%TO.P,MCU1,26*%
%TO.N,thumb_middle*%
X269626325Y-138361140D03*
%TO.P,MCU1,27*%
%TO.N,thumb_reachy*%
X267086639Y-138321244D03*
%TO.P,MCU1,28*%
%TO.N,thumb_innit*%
X262007265Y-138241450D03*
%TO.P,MCU1,29*%
%TO.N,thumb_middle*%
X264546952Y-138281347D03*
%TD*%
%TO.P,RST1,2*%
%TO.N,GND*%
X274539739Y-153780219D03*
%TO.P,RST1,1*%
%TO.N,RST*%
X274641837Y-147281021D03*
%TD*%
D24*
%TO.P,PWR1,*%
%TO.N,*%
X263818012Y-112296691D03*
X263852725Y-110086964D03*
X271117111Y-112411355D03*
X271151824Y-110201627D03*
D25*
%TO.P,PWR1,1*%
%TO.N,BAT_P*%
X265207629Y-112968601D03*
%TO.P,PWR1,2*%
%TO.N,RAW*%
X268207259Y-113015723D03*
%TO.P,PWR1,3*%
%TO.N,N/C*%
X269707074Y-113039284D03*
%TD*%
D26*
%TO.P,PAD1,1*%
%TO.N,GND*%
X263810118Y-150361263D03*
%TD*%
%TO.P,PAD2,1*%
%TO.N,BAT_P*%
X270109341Y-150460219D03*
%TD*%
D27*
%TO.P,REF\u002A\u002A,1*%
%TO.N,BAT_P*%
X266926352Y-152535479D03*
%TD*%
D28*
%TO.N,matrix_pinky_bottom*%
X177284201Y-158458322D03*
%TO.N,GND*%
X161782136Y-159678361D03*
%TO.N,matrix_pinky_home*%
X175871937Y-140513810D03*
%TO.N,GND*%
X160369872Y-141733849D03*
%TO.N,matrix_pinky_top*%
X174459673Y-122569298D03*
%TO.N,GND*%
X158957609Y-123789337D03*
%TO.N,matrix_ring_bottom*%
X196122809Y-142002392D03*
%TO.N,GND*%
X180580482Y-142490829D03*
%TO.N,matrix_ring_home*%
X195557415Y-124011274D03*
%TO.N,GND*%
X180015088Y-124499711D03*
%TO.N,matrix_ring_top*%
X194992021Y-106020156D03*
%TO.N,GND*%
X179449694Y-106508593D03*
%TO.N,matrix_middle_bottom*%
X215785053Y-137255302D03*
%TO.N,GND*%
X200236971Y-137011053D03*
%TO.N,matrix_middle_home*%
X216067785Y-119257522D03*
%TO.N,GND*%
X200519703Y-119013273D03*
%TO.N,matrix_middle_top*%
X216350517Y-101259743D03*
%TO.N,GND*%
X200802435Y-101015494D03*
%TO.N,matrix_index_bottom*%
X234712026Y-142053185D03*
%TO.N,GND*%
X219163945Y-141808937D03*
%TO.N,matrix_index_home*%
X234994758Y-124055406D03*
%TO.N,GND*%
X219446676Y-123811157D03*
%TO.N,matrix_index_top*%
X235277490Y-106057626D03*
%TO.N,GND*%
X219729408Y-105813378D03*
%TO.N,matrix_inner_bottom*%
X253653136Y-145951180D03*
%TO.N,GND*%
X238105054Y-145706931D03*
%TO.N,matrix_inner_home*%
X253935868Y-127953401D03*
%TO.N,GND*%
X238387786Y-127709152D03*
%TO.N,matrix_inner_top*%
X254218599Y-109955621D03*
%TO.N,GND*%
X238670518Y-109711373D03*
%TO.N,thumb_innit*%
X234302065Y-168149965D03*
%TO.N,GND*%
X218753984Y-167905717D03*
%TO.N,thumb_middle*%
X253271448Y-170248182D03*
%TO.N,GND*%
X237723366Y-170003934D03*
%TO.N,thumb_reachy*%
X263261217Y-168803645D03*
%TO.N,GND*%
X259001151Y-183758722D03*
%TD*%
D29*
%TO.N,GND*%
X270765495Y-120596842D02*
X269788590Y-121573747D01*
X259073747Y-121573747D02*
X258596855Y-121096855D01*
X264006231Y-117384661D02*
X264006231Y-117950346D01*
X269788590Y-121573747D02*
X259073747Y-121573747D01*
X258596855Y-121096855D02*
X258596855Y-117447611D01*
X263355631Y-116734061D02*
X264006231Y-117384661D01*
X258596855Y-117447611D02*
X259310405Y-116734061D01*
X259310405Y-116734061D02*
X263355631Y-116734061D01*
%TO.N,RAW*%
X268207259Y-113015723D02*
X268207259Y-113765816D01*
X268207259Y-113765816D02*
X268691443Y-114250000D01*
X268691443Y-114250000D02*
X270931053Y-114250000D01*
X270931053Y-114250000D02*
X272220119Y-115539066D01*
%TO.N,BAT_P*%
X265207629Y-112968601D02*
X264851999Y-113324231D01*
X264851999Y-113324231D02*
X263522969Y-113324231D01*
X271331165Y-111703551D02*
X273174562Y-111703551D01*
X263522969Y-113324231D02*
X263000000Y-112801262D01*
X263000000Y-112801262D02*
X263000000Y-111544768D01*
X264491281Y-111544768D02*
X265615450Y-110420599D01*
X263000000Y-111544768D02*
X264491281Y-111544768D01*
X271013725Y-152535479D02*
X266926352Y-152535479D01*
X265615450Y-110420599D02*
X270048213Y-110420599D01*
X270048213Y-110420599D02*
X271331165Y-111703551D01*
X273174562Y-111703551D02*
X276650000Y-115178989D01*
X276650000Y-115178989D02*
X276650000Y-146899204D01*
X276650000Y-146899204D02*
X271013725Y-152535479D01*
%TO.N,GND*%
X238387786Y-127709152D02*
X241983504Y-124113434D01*
X241983504Y-124113434D02*
X269748694Y-124113434D01*
X269748694Y-124113434D02*
X270725599Y-123136529D01*
X238387786Y-127709152D02*
X238387786Y-109994105D01*
X238387786Y-109994105D02*
X238670518Y-109711373D01*
X219446676Y-123811157D02*
X221174552Y-122083281D01*
X221174552Y-122083281D02*
X234304378Y-122083281D01*
X234304378Y-122083281D02*
X238387786Y-126166689D01*
X238387786Y-126166689D02*
X238387786Y-127709152D01*
X219446676Y-123811157D02*
X219446676Y-106096110D01*
X219446676Y-106096110D02*
X219729408Y-105813378D01*
X200519703Y-119013273D02*
X202247578Y-117285398D01*
X202247578Y-117285398D02*
X215377404Y-117285398D01*
X215377404Y-117285398D02*
X219446676Y-121354670D01*
X219446676Y-121354670D02*
X219446676Y-123811157D01*
X200802435Y-101015494D02*
X200802435Y-107802435D01*
X200802435Y-107802435D02*
X200519703Y-108085167D01*
X200519703Y-108085167D02*
X200519703Y-119013273D01*
X179449694Y-106508593D02*
X181543912Y-104414375D01*
X181543912Y-104414375D02*
X197865144Y-104414375D01*
X197865144Y-104414375D02*
X200802435Y-101477084D01*
X200802435Y-101477084D02*
X200802435Y-101015494D01*
X180015088Y-124499711D02*
X180015088Y-107073987D01*
X180015088Y-107073987D02*
X179449694Y-106508593D01*
X180500000Y-124484472D02*
X180015088Y-124499711D01*
X184512867Y-124358363D02*
X180500000Y-124484472D01*
X158957609Y-123789337D02*
X158957609Y-122574355D01*
X158957609Y-122574355D02*
X160202646Y-121329318D01*
X160202646Y-121329318D02*
X176844695Y-121329318D01*
X176844695Y-121329318D02*
X180015088Y-124499711D01*
X160369872Y-141733849D02*
X158957609Y-140321586D01*
X158957609Y-140321586D02*
X158957609Y-123789337D01*
X161782136Y-156717864D02*
X164750000Y-153750000D01*
X161782136Y-159678361D02*
X161782136Y-156717864D01*
X164750000Y-153750000D02*
X169250000Y-153750000D01*
X169250000Y-153750000D02*
X180509171Y-142490829D01*
X180509171Y-142490829D02*
X180580482Y-142490829D01*
X161782136Y-159678361D02*
X160369872Y-158266097D01*
X160369872Y-158266097D02*
X160369872Y-141733849D01*
X200236971Y-137011053D02*
X186060258Y-137011053D01*
X186060258Y-137011053D02*
X180580482Y-142490829D01*
X219163945Y-141808937D02*
X219163945Y-139352449D01*
X219163945Y-139352449D02*
X215094673Y-135283177D01*
X215094673Y-135283177D02*
X201964847Y-135283177D01*
X201964847Y-135283177D02*
X200236971Y-137011053D01*
X238105054Y-145706931D02*
X238105054Y-144164469D01*
X238105054Y-144164469D02*
X233940585Y-140000000D01*
X233940585Y-140000000D02*
X220972882Y-140000000D01*
X220972882Y-140000000D02*
X219163945Y-141808937D01*
X263810118Y-150361263D02*
X247267716Y-150361263D01*
X247267716Y-150361263D02*
X242613384Y-145706931D01*
X242613384Y-145706931D02*
X238105054Y-145706931D01*
X242604500Y-145777615D02*
X242684068Y-145777615D01*
X242684068Y-145777615D02*
X247267716Y-150361263D01*
X237723366Y-170003934D02*
X237723366Y-170425574D01*
X237723366Y-170425574D02*
X232121833Y-176027107D01*
X232121833Y-176027107D02*
X220777107Y-176027107D01*
X220777107Y-176027107D02*
X218753984Y-174003984D01*
X218753984Y-174003984D02*
X218753984Y-167905717D01*
X259001151Y-183758722D02*
X245835938Y-183758722D01*
X245835938Y-183758722D02*
X237723366Y-175646150D01*
X237723366Y-175646150D02*
X237723366Y-170003934D01*
%TO.N,RST*%
X274641837Y-147281021D02*
X276250000Y-145672858D01*
X276250000Y-145672858D02*
X276250000Y-120301806D01*
X276250000Y-120301806D02*
X275448194Y-119500000D01*
X275448194Y-119500000D02*
X274500000Y-119500000D01*
X274500000Y-119500000D02*
X274250000Y-119250000D01*
X265206366Y-119250000D02*
X263966334Y-120490032D01*
X274250000Y-119250000D02*
X265206366Y-119250000D01*
%TO.N,GND*%
X264149607Y-188750000D02*
X258250000Y-188750000D01*
X258250000Y-184509873D02*
X259001151Y-183758722D01*
X278729475Y-157969955D02*
X278731443Y-167500417D01*
X278723524Y-167559884D02*
X278176412Y-169480537D01*
X274539739Y-153780219D02*
X278729475Y-157969955D01*
X278731443Y-167503135D02*
X278723524Y-167559884D01*
X278176412Y-169480537D02*
X276088142Y-176811465D01*
X258250000Y-188750000D02*
X258250000Y-184509873D01*
X276088142Y-176811465D02*
X264149607Y-188750000D01*
X278731443Y-167500417D02*
X278731443Y-167503135D01*
%TO.N,thumb_innit*%
X262007265Y-138241450D02*
X263477471Y-136771244D01*
X263477471Y-136771244D02*
X270536219Y-136771244D01*
X270536219Y-136771244D02*
X272166012Y-138401037D01*
X234302065Y-168149965D02*
X255034349Y-168149965D01*
X255034349Y-168149965D02*
X265200000Y-157984314D01*
X265200000Y-157984314D02*
X265200000Y-141434185D01*
X265200000Y-141434185D02*
X262007265Y-138241450D01*
%TO.N,thumb_middle*%
X264546952Y-138281347D02*
X265657055Y-137171244D01*
X265657055Y-137171244D02*
X268436429Y-137171244D01*
X268436429Y-137171244D02*
X269626325Y-138361140D01*
X253271448Y-170248182D02*
X253501818Y-170248182D01*
X253501818Y-170248182D02*
X265600000Y-158150000D01*
X265600000Y-158150000D02*
X265600000Y-139334395D01*
X265600000Y-139334395D02*
X264546952Y-138281347D01*
%TO.N,thumb_reachy*%
X263261217Y-168803645D02*
X266000000Y-166064862D01*
X266000000Y-166064862D02*
X266000000Y-139407883D01*
X266000000Y-139407883D02*
X267086639Y-138321244D01*
%TO.N,matrix_pinky_bottom*%
X177456811Y-160651541D02*
X177284201Y-158458322D01*
%TO.N,GND*%
X166268264Y-159325295D02*
X161782136Y-159678361D01*
%TO.N,matrix_pinky_home*%
X176044547Y-142707029D02*
X175871937Y-140513810D01*
%TO.N,GND*%
X164856000Y-141380783D02*
X160369872Y-141733849D01*
%TO.N,matrix_pinky_top*%
X174632283Y-124762516D02*
X174459673Y-122569298D01*
%TO.N,GND*%
X163443737Y-123436271D02*
X158957609Y-123789337D01*
%TO.N,matrix_ring_bottom*%
X196191912Y-144201306D02*
X196122809Y-142002392D01*
%TO.N,GND*%
X185078261Y-142349481D02*
X180580482Y-142490829D01*
%TO.N,matrix_ring_home*%
X195626519Y-126210188D02*
X195557415Y-124011274D01*
%TO.N,matrix_ring_top*%
X195061125Y-108219070D02*
X194992021Y-106020156D01*
%TO.N,GND*%
X183947474Y-106367245D02*
X179449694Y-106508593D01*
%TO.N,matrix_middle_bottom*%
X215750497Y-139455030D02*
X215785053Y-137255302D01*
%TO.N,GND*%
X204736416Y-137081736D02*
X200236971Y-137011053D01*
%TO.N,matrix_middle_home*%
X216033229Y-121457251D02*
X216067785Y-119257522D01*
%TO.N,GND*%
X205019148Y-119083956D02*
X200519703Y-119013273D01*
%TO.N,matrix_middle_top*%
X216315960Y-103459471D02*
X216350517Y-101259743D01*
%TO.N,GND*%
X205301880Y-101086177D02*
X200802435Y-101015494D01*
%TO.N,matrix_index_bottom*%
X234677470Y-144252914D02*
X234712026Y-142053185D01*
%TO.N,GND*%
X223663389Y-141879620D02*
X219163945Y-141808937D01*
%TO.N,matrix_index_home*%
X234960202Y-126255134D02*
X234994758Y-124055406D01*
%TO.N,GND*%
X223946121Y-123881840D02*
X219446676Y-123811157D01*
%TO.N,matrix_index_top*%
X235242934Y-108257355D02*
X235277490Y-106057626D01*
%TO.N,GND*%
X224228853Y-105884061D02*
X219729408Y-105813378D01*
%TO.N,matrix_inner_bottom*%
X253618580Y-148150909D02*
X253653136Y-145951180D01*
%TO.N,GND*%
X242604499Y-145777614D02*
X238105054Y-145706931D01*
%TO.N,matrix_inner_home*%
X253901312Y-130153129D02*
X253935868Y-127953401D01*
%TO.N,GND*%
X242887231Y-127779835D02*
X238387786Y-127709152D01*
%TO.N,matrix_inner_top*%
X254184043Y-112155350D02*
X254218599Y-109955621D01*
%TO.N,GND*%
X243169963Y-109782056D02*
X238670518Y-109711373D01*
%TO.N,thumb_innit*%
X234267509Y-170349694D02*
X234302065Y-168149965D01*
%TO.N,GND*%
X223253428Y-167976400D02*
X218753984Y-167905717D01*
%TO.N,thumb_middle*%
X253236892Y-172447911D02*
X253271448Y-170248182D01*
%TO.N,GND*%
X242222811Y-170074617D02*
X237723366Y-170003934D01*
%TO.N,thumb_reachy*%
X265377048Y-169406355D02*
X263261217Y-168803645D01*
%TO.N,GND*%
X260233968Y-179430886D02*
X259001151Y-183758722D01*
D30*
%TO.N,MCU1_24*%
X259826648Y-115344374D02*
X261946387Y-115377673D01*
%TO.N,MCU1_1*%
X275064768Y-115583753D02*
X272945030Y-115550454D01*
%TO.N,P1*%
X264837722Y-115653122D02*
X270611705Y-115743827D01*
X262671297Y-115389061D02*
X263020949Y-115394554D01*
X263734472Y-116130852D02*
X264335008Y-116140286D01*
X263020949Y-115394554D02*
X263734472Y-116130852D01*
X264335008Y-116140286D02*
X264837722Y-115653122D01*
%TO.N,RAW*%
X272220119Y-115539066D02*
X271870467Y-115533573D01*
X270043539Y-115284846D02*
X264269556Y-115194141D01*
X271870467Y-115533573D02*
X271156945Y-114797275D01*
X271156945Y-114797275D02*
X270556409Y-114787841D01*
X270556409Y-114787841D02*
X270043539Y-115284846D01*
%TO.N,MCU1_23*%
X259786752Y-117884060D02*
X261906490Y-117917360D01*
%TO.N,MCU1_2*%
X275024872Y-118123440D02*
X272905133Y-118090140D01*
%TO.N,P0*%
X264797825Y-118192809D02*
X270571808Y-118283514D01*
X262631401Y-117928748D02*
X262981053Y-117934240D01*
X263694575Y-118670539D02*
X264295111Y-118679973D01*
X262981053Y-117934240D02*
X263694575Y-118670539D01*
X264295111Y-118679973D02*
X264797825Y-118192809D01*
%TO.N,GND*%
X272180223Y-118078753D02*
X271830571Y-118073260D01*
X270003642Y-117824533D02*
X264229660Y-117733828D01*
X271830571Y-118073260D02*
X271117048Y-117336961D01*
X271117048Y-117336961D02*
X270516512Y-117327527D01*
X270516512Y-117327527D02*
X270003642Y-117824533D01*
%TO.N,MCU1_22*%
X259746855Y-120423747D02*
X261866594Y-120457046D01*
%TO.N,MCU1_3*%
X274984975Y-120663126D02*
X272865237Y-120629827D01*
%TO.N,GND*%
X264757929Y-120732496D02*
X270531911Y-120823201D01*
X262591504Y-120468434D02*
X262941156Y-120473927D01*
X263654679Y-121210225D02*
X264255215Y-121219659D01*
X262941156Y-120473927D02*
X263654679Y-121210225D01*
X264255215Y-121219659D02*
X264757929Y-120732496D01*
%TO.N,RST*%
X272140326Y-120618439D02*
X271790674Y-120612946D01*
X269963746Y-120364219D02*
X264189763Y-120273515D01*
X271790674Y-120612946D02*
X271077151Y-119876648D01*
X271077151Y-119876648D02*
X270476616Y-119867214D01*
X270476616Y-119867214D02*
X269963746Y-120364219D01*
%TO.N,MCU1_21*%
X259706958Y-122963434D02*
X261826697Y-122996733D01*
%TO.N,MCU1_4*%
X274945078Y-123202813D02*
X272825340Y-123169514D01*
%TO.N,GND*%
X264718032Y-123272182D02*
X270492015Y-123362887D01*
X262551608Y-123008121D02*
X262901259Y-123013614D01*
X263614782Y-123749912D02*
X264215318Y-123759346D01*
X262901259Y-123013614D02*
X263614782Y-123749912D01*
X264215318Y-123759346D02*
X264718032Y-123272182D01*
%TO.N,VCC*%
X272100429Y-123158126D02*
X271750777Y-123152633D01*
X269923849Y-122903906D02*
X264149866Y-122813201D01*
X271750777Y-123152633D02*
X271037255Y-122416335D01*
X271037255Y-122416335D02*
X270436719Y-122406901D01*
X270436719Y-122406901D02*
X269923849Y-122903906D01*
%TD*%
M02*
