M48
; DRILL file {KiCad 8.0.8} date 2025-02-08T17:55:16+1030
; FORMAT={-:-/ absolute / inch / decimal}
; #@! TF.CreationDate,2025-02-08T17:55:16+10:30
; #@! TF.GenerationSoftware,Kicad,Pcbnew,8.0.8
; #@! TF.FileFunction,Plated,1,2,PTH
FMAT,2
INCH
; #@! TA.AperFunction,Plated,PTH,ViaDrill
T1C0.0118
; #@! TA.AperFunction,Plated,PTH,ComponentDrill
T2C0.0157
; #@! TA.AperFunction,Plated,PTH,ComponentDrill
T3C0.0276
; #@! TA.AperFunction,Plated,PTH,ComponentDrill
T4C0.0394
%
G90
G05
T1
X6.2582Y-4.8736
X6.3138Y-5.5801
X6.3694Y-6.2865
X6.8685Y-4.8256
X6.9241Y-5.532
X6.9797Y-6.2385
X7.0649Y-4.1933
X7.0872Y-4.9016
X7.1095Y-5.6099
X7.6769Y-4.174
X7.6991Y-4.8823
X7.7214Y-5.5906
X7.8833Y-5.3941
X7.8945Y-4.6856
X7.9056Y-3.977
X8.4955Y-5.4038
X8.5066Y-4.6952
X8.5177Y-3.9866
X8.6124Y-6.6105
X8.6285Y-5.583
X8.6396Y-4.8745
X8.6508Y-4.1659
X9.2245Y-6.6201
X9.2406Y-5.5926
X9.2518Y-4.8841
X9.2629Y-4.1755
X9.3592Y-6.6931
X9.3742Y-5.7365
X9.3853Y-5.0279
X9.3965Y-4.3193
X9.9713Y-6.7027
X9.9863Y-5.7461
X9.9975Y-5.0375
X10.0086Y-4.329
X10.1969Y-7.2346
X10.3646Y-6.6458
T2
X10.3908Y-4.8437
X10.3924Y-4.7437
X10.3939Y-4.6437
X10.3955Y-4.5437
X10.6585Y-4.8479
X10.6601Y-4.7479
X10.6616Y-4.6479
X10.6632Y-4.5479
T3
X10.5089Y-6.0053
T4
X10.2121Y-5.641
X10.2137Y-5.541
X10.2153Y-5.441
X10.2168Y-5.341
X10.2184Y-5.241
X10.22Y-5.141
X10.2215Y-5.0411
X10.2231Y-4.9411
X10.2247Y-4.8411
X10.2263Y-4.7411
X10.2278Y-4.6411
X10.2294Y-4.5411
X10.3152Y-5.4426
X10.4152Y-5.4441
X10.5152Y-5.4457
X10.6152Y-5.4473
X10.7152Y-5.4489
X10.8087Y-6.0543
X10.812Y-5.6504
X10.8127Y-5.7985
X10.8136Y-5.5504
X10.8152Y-5.4504
X10.8168Y-5.3504
X10.8183Y-5.2505
X10.8199Y-5.1505
X10.8215Y-5.0505
X10.823Y-4.9505
X10.8246Y-4.8505
X10.8262Y-4.7505
X10.8278Y-4.6505
X10.8293Y-4.5505
M30
