%TF.GenerationSoftware,KiCad,Pcbnew,8.0.8*%
%TF.CreationDate,2025-02-10T10:47:39+10:30*%
%TF.ProjectId,quasikb,71756173-696b-4622-9e6b-696361645f70,0.1*%
%TF.SameCoordinates,Original*%
%TF.FileFunction,Paste,Top*%
%TF.FilePolarity,Positive*%
%FSLAX46Y46*%
G04 Gerber Fmt 4.6, Leading zero omitted, Abs format (unit mm)*
G04 Created by KiCad (PCBNEW 8.0.8) date 2025-02-10 10:47:39*
%MOMM*%
%LPD*%
G01*
G04 APERTURE LIST*
G04 Aperture macros list*
%AMRotRect*
0 Rectangle, with rotation*
0 The origin of the aperture is its center*
0 $1 length*
0 $2 width*
0 $3 Rotation angle, in degrees counterclockwise*
0 Add horizontal line*
21,1,$1,$2,0,0,$3*%
%AMOutline5P*
0 Free polygon, 5 corners , with rotation*
0 The origin of the aperture is its center*
0 number of corners: always 5*
0 $1 to $10 corner X, Y*
0 $11 Rotation angle, in degrees counterclockwise*
0 create outline with 5 corners*
4,1,5,$1,$2,$3,$4,$5,$6,$7,$8,$9,$10,$1,$2,$11*%
%AMOutline6P*
0 Free polygon, 6 corners , with rotation*
0 The origin of the aperture is its center*
0 number of corners: always 6*
0 $1 to $12 corner X, Y*
0 $13 Rotation angle, in degrees counterclockwise*
0 create outline with 6 corners*
4,1,6,$1,$2,$3,$4,$5,$6,$7,$8,$9,$10,$11,$12,$1,$2,$13*%
%AMOutline7P*
0 Free polygon, 7 corners , with rotation*
0 The origin of the aperture is its center*
0 number of corners: always 7*
0 $1 to $14 corner X, Y*
0 $15 Rotation angle, in degrees counterclockwise*
0 create outline with 7 corners*
4,1,7,$1,$2,$3,$4,$5,$6,$7,$8,$9,$10,$11,$12,$13,$14,$1,$2,$15*%
%AMOutline8P*
0 Free polygon, 8 corners , with rotation*
0 The origin of the aperture is its center*
0 number of corners: always 8*
0 $1 to $16 corner X, Y*
0 $17 Rotation angle, in degrees counterclockwise*
0 create outline with 8 corners*
4,1,8,$1,$2,$3,$4,$5,$6,$7,$8,$9,$10,$11,$12,$13,$14,$15,$16,$1,$2,$17*%
%AMFreePoly0*
4,1,6,0.250000,0.000000,-0.250000,-0.625000,-0.500000,-0.625000,-0.500000,0.625000,-0.250000,0.625000,0.250000,0.000000,0.250000,0.000000,$1*%
%AMFreePoly1*
4,1,6,0.500000,-0.625000,-0.650000,-0.625000,-0.150000,0.000000,-0.650000,0.625000,0.500000,0.625000,0.500000,-0.625000,0.500000,-0.625000,$1*%
G04 Aperture macros list end*
%ADD10RotRect,0.700000X1.500000X179.100000*%
%ADD11RotRect,1.000000X0.800000X179.100000*%
%ADD12RotRect,1.500000X1.500000X359.100000*%
%ADD13FreePoly0,179.100000*%
%ADD14FreePoly0,359.100000*%
%ADD15FreePoly1,179.100000*%
%ADD16FreePoly1,359.100000*%
%ADD17Outline5P,-1.300000X1.300000X1.300000X1.300000X1.300000X-0.117000X0.117000X-1.300000X-1.300000X-1.300000X4.500000*%
%ADD18RotRect,2.600000X2.600000X4.500000*%
%ADD19Outline5P,-1.300000X1.300000X1.300000X1.300000X1.300000X-0.117000X0.117000X-1.300000X-1.300000X-1.300000X359.100000*%
%ADD20RotRect,2.600000X2.600000X359.100000*%
%ADD21Outline5P,-1.300000X1.300000X1.300000X1.300000X1.300000X-0.117000X0.117000X-1.300000X-1.300000X-1.300000X1.800000*%
%ADD22RotRect,2.600000X2.600000X1.800000*%
%ADD23Outline5P,-1.300000X1.300000X1.300000X1.300000X1.300000X-0.117000X0.117000X-1.300000X-1.300000X-1.300000X74.100000*%
%ADD24RotRect,2.600000X2.600000X74.100000*%
G04 APERTURE END LIST*
D10*
%TO.C,PWR1*%
X265207629Y-112968601D03*
X266707444Y-112992162D03*
X269707074Y-113039284D03*
D11*
X271151824Y-110201627D03*
X263852725Y-110086964D03*
X271117111Y-112411355D03*
X263818012Y-112296691D03*
%TD*%
D12*
%TO.C,PAD1*%
X263810118Y-150361263D03*
%TD*%
D13*
%TO.C,MCU1*%
X272945029Y-115550454D03*
X272905133Y-118090141D03*
X272865236Y-120629827D03*
X272825340Y-123169514D03*
D14*
X261826697Y-122996733D03*
X261866593Y-120457047D03*
X261906490Y-117917360D03*
X261946386Y-115377674D03*
D15*
X272220119Y-115539066D03*
X272180222Y-118078753D03*
X272140326Y-120618440D03*
X272100429Y-123158126D03*
D16*
X262551607Y-123008121D03*
X262591504Y-120468435D03*
X262631400Y-117928748D03*
X262671297Y-115389061D03*
%TD*%
D12*
%TO.C,PAD2*%
X270109341Y-150460219D03*
%TD*%
D17*
%TO.C,S1*%
X172798073Y-158811388D03*
D18*
X161456287Y-161910809D03*
%TD*%
D17*
%TO.C,S2*%
X171385809Y-140866876D03*
D18*
X160044023Y-143966297D03*
%TD*%
D19*
%TO.C,S16*%
X229802621Y-168079283D03*
D20*
X218219489Y-170097592D03*
%TD*%
D19*
%TO.C,S17*%
X248772004Y-170177500D03*
D20*
X237188872Y-172195809D03*
%TD*%
D21*
%TO.C,S5*%
X191059635Y-124152623D03*
D22*
X179584438Y-126714331D03*
%TD*%
D19*
%TO.C,S10*%
X230212582Y-141982503D03*
D20*
X218629450Y-144000812D03*
%TD*%
D19*
%TO.C,S11*%
X230495314Y-123984723D03*
D20*
X218912182Y-126003032D03*
%TD*%
D19*
%TO.C,S14*%
X249436423Y-127882718D03*
D20*
X237853291Y-129901027D03*
%TD*%
D19*
%TO.C,S12*%
X230778045Y-105986944D03*
D20*
X219194913Y-108005253D03*
%TD*%
D19*
%TO.C,S7*%
X211285609Y-137184619D03*
D20*
X199702477Y-139202928D03*
%TD*%
D21*
%TO.C,S4*%
X191625029Y-142143741D03*
D22*
X180149832Y-144705449D03*
%TD*%
D19*
%TO.C,S9*%
X211851072Y-101189060D03*
D20*
X200267940Y-103207369D03*
%TD*%
D17*
%TO.C,S3*%
X169973546Y-122922364D03*
D18*
X158631760Y-126021785D03*
%TD*%
D19*
%TO.C,S8*%
X211568340Y-119186840D03*
D20*
X199985208Y-121205149D03*
%TD*%
D21*
%TO.C,S6*%
X190494242Y-106161505D03*
D22*
X179019045Y-108723213D03*
%TD*%
D19*
%TO.C,S15*%
X249719155Y-109884939D03*
D20*
X238136023Y-111903248D03*
%TD*%
D23*
%TO.C,S18*%
X262028401Y-173131481D03*
D24*
X260980003Y-184842303D03*
%TD*%
D19*
%TO.C,S13*%
X249153692Y-145880498D03*
D20*
X237570560Y-147898807D03*
%TD*%
M02*
