%TF.GenerationSoftware,KiCad,Pcbnew,8.0.8*%
%TF.CreationDate,2025-02-10T10:47:39+10:30*%
%TF.ProjectId,quasikb,71756173-696b-4622-9e6b-696361645f70,0.1*%
%TF.SameCoordinates,Original*%
%TF.FileFunction,Paste,Bot*%
%TF.FilePolarity,Positive*%
%FSLAX46Y46*%
G04 Gerber Fmt 4.6, Leading zero omitted, Abs format (unit mm)*
G04 Created by KiCad (PCBNEW 8.0.8) date 2025-02-10 10:47:39*
%MOMM*%
%LPD*%
G01*
G04 APERTURE LIST*
G04 Aperture macros list*
%AMRotRect*
0 Rectangle, with rotation*
0 The origin of the aperture is its center*
0 $1 length*
0 $2 width*
0 $3 Rotation angle, in degrees counterclockwise*
0 Add horizontal line*
21,1,$1,$2,0,0,$3*%
%AMOutline5P*
0 Free polygon, 5 corners , with rotation*
0 The origin of the aperture is its center*
0 number of corners: always 5*
0 $1 to $10 corner X, Y*
0 $11 Rotation angle, in degrees counterclockwise*
0 create outline with 5 corners*
4,1,5,$1,$2,$3,$4,$5,$6,$7,$8,$9,$10,$1,$2,$11*%
%AMOutline6P*
0 Free polygon, 6 corners , with rotation*
0 The origin of the aperture is its center*
0 number of corners: always 6*
0 $1 to $12 corner X, Y*
0 $13 Rotation angle, in degrees counterclockwise*
0 create outline with 6 corners*
4,1,6,$1,$2,$3,$4,$5,$6,$7,$8,$9,$10,$11,$12,$1,$2,$13*%
%AMOutline7P*
0 Free polygon, 7 corners , with rotation*
0 The origin of the aperture is its center*
0 number of corners: always 7*
0 $1 to $14 corner X, Y*
0 $15 Rotation angle, in degrees counterclockwise*
0 create outline with 7 corners*
4,1,7,$1,$2,$3,$4,$5,$6,$7,$8,$9,$10,$11,$12,$13,$14,$1,$2,$15*%
%AMOutline8P*
0 Free polygon, 8 corners , with rotation*
0 The origin of the aperture is its center*
0 number of corners: always 8*
0 $1 to $16 corner X, Y*
0 $17 Rotation angle, in degrees counterclockwise*
0 create outline with 8 corners*
4,1,8,$1,$2,$3,$4,$5,$6,$7,$8,$9,$10,$11,$12,$13,$14,$15,$16,$1,$2,$17*%
%AMFreePoly0*
4,1,6,0.250000,0.000000,-0.250000,-0.625000,-0.500000,-0.625000,-0.500000,0.625000,-0.250000,0.625000,0.250000,0.000000,0.250000,0.000000,$1*%
%AMFreePoly1*
4,1,6,0.500000,-0.625000,-0.650000,-0.625000,-0.150000,0.000000,-0.650000,0.625000,0.500000,0.625000,0.500000,-0.625000,0.500000,-0.625000,$1*%
G04 Aperture macros list end*
%ADD10RotRect,0.700000X1.500000X359.100000*%
%ADD11RotRect,1.000000X0.800000X359.100000*%
%ADD12RotRect,1.500000X1.500000X359.100000*%
%ADD13FreePoly0,179.100000*%
%ADD14FreePoly0,359.100000*%
%ADD15FreePoly1,359.100000*%
%ADD16FreePoly1,179.100000*%
%ADD17Outline5P,-1.300000X1.300000X1.300000X1.300000X1.300000X-1.300000X-0.117000X-1.300000X-1.300000X-0.117000X4.500000*%
%ADD18RotRect,2.600000X2.600000X4.500000*%
%ADD19Outline5P,-1.300000X1.300000X1.300000X1.300000X1.300000X-1.300000X-0.117000X-1.300000X-1.300000X-0.117000X359.100000*%
%ADD20RotRect,2.600000X2.600000X359.100000*%
%ADD21Outline5P,-1.300000X1.300000X1.300000X1.300000X1.300000X-1.300000X-0.117000X-1.300000X-1.300000X-0.117000X1.800000*%
%ADD22RotRect,2.600000X2.600000X1.800000*%
%ADD23Outline5P,-1.300000X1.300000X1.300000X1.300000X1.300000X-1.300000X-0.117000X-1.300000X-1.300000X-0.117000X74.100000*%
%ADD24RotRect,2.600000X2.600000X74.100000*%
G04 APERTURE END LIST*
D10*
%TO.C,PWR1*%
X269707074Y-113039284D03*
X268207259Y-113015723D03*
X265207629Y-112968601D03*
D11*
X271151824Y-110201627D03*
X263852725Y-110086964D03*
X271117111Y-112411355D03*
X263818012Y-112296691D03*
%TD*%
D12*
%TO.C,PAD1*%
X263810118Y-150361263D03*
%TD*%
D13*
%TO.C,MCU1*%
X272945029Y-115550454D03*
X272905133Y-118090141D03*
X272865236Y-120629827D03*
X272825340Y-123169514D03*
D14*
X261826697Y-122996733D03*
X261866593Y-120457047D03*
X261906490Y-117917360D03*
X261946386Y-115377674D03*
D15*
X262671297Y-115389061D03*
X262631400Y-117928748D03*
X262591504Y-120468435D03*
X262551607Y-123008121D03*
D16*
X272100429Y-123158126D03*
X272140326Y-120618440D03*
X272180222Y-118078753D03*
X272220119Y-115539066D03*
%TD*%
D12*
%TO.C,PAD2*%
X270109341Y-150460219D03*
%TD*%
D17*
%TO.C,S1*%
X166268264Y-159325295D03*
D18*
X177955269Y-160612311D03*
%TD*%
D17*
%TO.C,S2*%
X164856000Y-141380783D03*
D18*
X176543005Y-142667799D03*
%TD*%
D19*
%TO.C,S16*%
X223253429Y-167976400D03*
D20*
X234767448Y-170357548D03*
%TD*%
D19*
%TO.C,S17*%
X242222812Y-170074617D03*
D20*
X253736831Y-172455765D03*
%TD*%
D21*
%TO.C,S5*%
X184512867Y-124358363D03*
D22*
X196126271Y-126194483D03*
%TD*%
D19*
%TO.C,S10*%
X223663390Y-141879620D03*
D20*
X235177409Y-144260768D03*
%TD*%
D19*
%TO.C,S11*%
X223946122Y-123881840D03*
D20*
X235460141Y-126262988D03*
%TD*%
D19*
%TO.C,S14*%
X242887231Y-127779835D03*
D20*
X254401250Y-130160983D03*
%TD*%
D19*
%TO.C,S12*%
X224228853Y-105884061D03*
D20*
X235742872Y-108265209D03*
%TD*%
D19*
%TO.C,S7*%
X204736417Y-137081736D03*
D20*
X216250436Y-139462884D03*
%TD*%
D21*
%TO.C,S4*%
X185078261Y-142349481D03*
D22*
X196691665Y-144185601D03*
%TD*%
D19*
%TO.C,S9*%
X205301880Y-101086177D03*
D20*
X216815899Y-103467325D03*
%TD*%
D17*
%TO.C,S3*%
X163443737Y-123436271D03*
D18*
X175130742Y-124723287D03*
%TD*%
D19*
%TO.C,S8*%
X205019148Y-119083957D03*
D20*
X216533167Y-121465105D03*
%TD*%
D21*
%TO.C,S6*%
X183947474Y-106367245D03*
D22*
X195560878Y-108203365D03*
%TD*%
D19*
%TO.C,S15*%
X243169963Y-109782056D03*
D20*
X254683982Y-112163204D03*
%TD*%
D23*
%TO.C,S18*%
X260233968Y-179430886D03*
D24*
X265514028Y-168925485D03*
%TD*%
D19*
%TO.C,S13*%
X242604500Y-145777615D03*
D20*
X254118519Y-148158763D03*
%TD*%
M02*
