M48
; DRILL file {KiCad 8.0.8} date 2025-02-07T20:27:52+1030
; FORMAT={-:-/ absolute / inch / decimal}
; #@! TF.CreationDate,2025-02-07T20:27:52+10:30
; #@! TF.GenerationSoftware,Kicad,Pcbnew,8.0.8
; #@! TF.FileFunction,Plated,1,2,PTH
FMAT,2
INCH
; #@! TA.AperFunction,Plated,PTH,ViaDrill
T1C0.0118
; #@! TA.AperFunction,Plated,PTH,ComponentDrill
T2C0.0118
; #@! TA.AperFunction,Plated,PTH,ComponentDrill
T3C0.0157
; #@! TA.AperFunction,Plated,PTH,ComponentDrill
T4C0.0394
; #@! TA.AperFunction,Plated,PTH,ComponentDrill
T5C0.0630
%
G90
G05
T1
X6.5697Y-4.931
X6.5722Y-4.9624
X6.6253Y-5.6375
X6.6278Y-5.6689
X6.6809Y-6.344
X6.6834Y-6.3754
X7.3735Y-4.2653
X7.3745Y-4.2968
X7.3957Y-4.9736
X7.3967Y-5.0051
X7.418Y-5.6819
X7.419Y-5.7134
X8.1876Y-5.5121
X8.1881Y-5.4806
X8.1988Y-4.8035
X8.1993Y-4.7721
X8.2099Y-4.095
X8.2104Y-4.0635
X8.9166Y-6.7284
X8.9171Y-6.697
X8.9328Y-5.701
X8.9333Y-5.6695
X8.9439Y-4.9924
X8.9444Y-4.9609
X8.9551Y-4.2839
X8.9555Y-4.2524
X9.6635Y-6.8111
X9.664Y-6.7796
X9.6785Y-5.8545
X9.679Y-5.823
X9.6896Y-5.1459
X9.6901Y-5.1144
X9.7008Y-4.4373
X9.7013Y-4.4058
X10.3593Y-6.9626
X10.3896Y-6.9712
T2
X10.5089Y-6.0053
T3
X10.3786Y-5.6235
X10.3801Y-5.5235
X10.3817Y-5.4235
X10.3833Y-5.3236
X10.3848Y-5.2236
X10.3864Y-5.1236
X10.388Y-5.0236
X10.3895Y-4.9236
X10.3911Y-4.8236
X10.3927Y-4.7236
X10.3943Y-4.6236
X10.3958Y-4.5237
X10.6462Y-5.6277
X10.6478Y-5.5277
X10.6494Y-5.4277
X10.6509Y-5.3278
X10.6525Y-5.2278
X10.6541Y-5.1278
X10.6557Y-5.0278
X10.6572Y-4.9278
X10.6588Y-4.8278
X10.6604Y-4.7278
X10.6619Y-4.6278
X10.6635Y-4.5279
T4
X10.2124Y-5.6209
X10.214Y-5.5209
X10.2156Y-5.4209
X10.2171Y-5.3209
X10.2187Y-5.221
X10.2203Y-5.121
X10.2219Y-5.021
X10.2234Y-4.921
X10.225Y-4.821
X10.2266Y-4.721
X10.2281Y-4.621
X10.2297Y-4.521
X10.8087Y-6.0543
X10.8124Y-5.6303
X10.8127Y-5.7985
X10.8139Y-5.5303
X10.8155Y-5.4304
X10.8171Y-5.3304
X10.8186Y-5.2304
X10.8202Y-5.1304
X10.8218Y-5.0304
X10.8234Y-4.9304
X10.8249Y-4.8304
X10.8265Y-4.7304
X10.8281Y-4.6305
X10.8296Y-4.5305
T5
X6.4014Y-5.3007
X6.457Y-6.0072
X6.5126Y-6.7136
X6.7939Y-5.2698
X6.8495Y-5.9763
X6.9051Y-6.6827
X7.1879Y-4.6266
X7.2101Y-5.3349
X7.2324Y-6.0432
X7.5814Y-4.6142
X7.6036Y-5.3226
X7.6259Y-6.0309
X7.9857Y-5.8328
X7.9969Y-5.1242
X8.008Y-4.4157
X8.3794Y-5.839
X8.3905Y-5.1304
X8.4016Y-4.4218
X8.7147Y-7.0491
X8.7309Y-6.0217
X8.742Y-5.3131
X8.7531Y-4.6046
X9.1084Y-7.0553
X9.1245Y-6.0279
X9.1357Y-5.3193
X9.1468Y-4.6107
X9.4616Y-7.1317
X9.4766Y-6.1752
X9.4877Y-5.4666
X9.4989Y-4.758
X9.8552Y-7.1379
X9.8702Y-6.1813
X9.8814Y-5.4728
X9.8925Y-4.7642
X10.6471Y-7.2492
X10.755Y-6.8706
M30
