%TF.GenerationSoftware,KiCad,Pcbnew,8.0.8*%
%TF.CreationDate,2025-02-10T10:59:25+10:30*%
%TF.ProjectId,quasikb,71756173-696b-4622-9e6b-696361645f70,0.1*%
%TF.SameCoordinates,Original*%
%TF.FileFunction,Legend,Top*%
%TF.FilePolarity,Positive*%
%FSLAX46Y46*%
G04 Gerber Fmt 4.6, Leading zero omitted, Abs format (unit mm)*
G04 Created by KiCad (PCBNEW 8.0.8) date 2025-02-10 10:59:25*
%MOMM*%
%LPD*%
G01*
G04 APERTURE LIST*
%ADD10C,0.100000*%
%ADD11C,0.150000*%
%ADD12C,0.120000*%
G04 APERTURE END LIST*
D10*
G36*
X218194661Y-161459762D02*
G01*
X218753244Y-161805122D01*
X218753244Y-161953866D01*
X218198813Y-162299225D01*
X218109176Y-162167822D01*
X218590090Y-161879860D01*
X218109176Y-161597759D01*
X218194661Y-161459762D01*
G37*
G36*
X218932519Y-162595736D02*
G01*
X218932519Y-162439420D01*
X219650348Y-162439420D01*
X219650348Y-162595736D01*
X218932519Y-162595736D01*
G37*
G36*
X220147915Y-161550619D02*
G01*
X220200580Y-161566403D01*
X220247139Y-161593666D01*
X220287591Y-161632409D01*
X220292219Y-161638060D01*
X220302233Y-161567962D01*
X220467341Y-161567962D01*
X220467341Y-162637501D01*
X220277808Y-162617229D01*
X220277808Y-162251109D01*
X220243227Y-162286312D01*
X220200573Y-162315832D01*
X220191346Y-162320718D01*
X220144757Y-162337748D01*
X220096137Y-162345023D01*
X220076064Y-162345631D01*
X220023279Y-162341709D01*
X219971654Y-162328152D01*
X219927424Y-162304910D01*
X219915596Y-162296050D01*
X219880501Y-162260997D01*
X219851845Y-162218121D01*
X219831561Y-162172844D01*
X219825959Y-162156343D01*
X219812263Y-162103174D01*
X219803852Y-162051761D01*
X219798983Y-161996440D01*
X219797685Y-161947027D01*
X219994975Y-161947027D01*
X219996237Y-161997410D01*
X220000901Y-162048573D01*
X220010438Y-162096998D01*
X220028670Y-162142459D01*
X220030879Y-162146085D01*
X220064767Y-162182773D01*
X220111810Y-162201366D01*
X220131263Y-162202749D01*
X220181529Y-162194248D01*
X220215282Y-162175882D01*
X220252737Y-162141020D01*
X220277808Y-162107494D01*
X220277808Y-161766775D01*
X220245265Y-161728953D01*
X220219923Y-161709623D01*
X220173290Y-161691531D01*
X220145673Y-161689106D01*
X220095561Y-161697796D01*
X220052204Y-161726822D01*
X220033565Y-161750900D01*
X220013215Y-161796500D01*
X220001344Y-161849735D01*
X219996332Y-161899127D01*
X219994975Y-161947027D01*
X219797685Y-161947027D01*
X219797627Y-161944829D01*
X219799286Y-161895680D01*
X219805248Y-161842400D01*
X219815544Y-161792205D01*
X219830176Y-161745093D01*
X219832309Y-161739420D01*
X219854467Y-161691678D01*
X219881648Y-161650119D01*
X219917741Y-161611193D01*
X219933914Y-161597759D01*
X219978474Y-161570583D01*
X220028807Y-161553471D01*
X220079041Y-161546677D01*
X220096824Y-161546224D01*
X220147915Y-161550619D01*
G37*
G36*
X220887194Y-161564054D02*
G01*
X220887194Y-162090886D01*
X220892561Y-162140592D01*
X220911618Y-162177592D01*
X220955707Y-162200292D01*
X220982693Y-162202749D01*
X221032006Y-162194403D01*
X221069399Y-162176371D01*
X221107929Y-162146146D01*
X221138520Y-162108715D01*
X221138520Y-161564054D01*
X221328053Y-161564054D01*
X221328053Y-162330000D01*
X221162944Y-162330000D01*
X221152930Y-162232302D01*
X221118927Y-162270026D01*
X221078467Y-162300400D01*
X221047906Y-162316566D01*
X220999477Y-162334278D01*
X220949812Y-162343814D01*
X220916015Y-162345631D01*
X220864541Y-162341754D01*
X220814953Y-162328122D01*
X220770188Y-162301466D01*
X220751884Y-162283593D01*
X220723290Y-162240360D01*
X220706610Y-162193822D01*
X220698509Y-162140059D01*
X220697662Y-162113845D01*
X220697662Y-161564054D01*
X220887194Y-161564054D01*
G37*
G36*
X221907089Y-161548586D02*
G01*
X221958375Y-161555670D01*
X222010871Y-161569903D01*
X222055467Y-161590565D01*
X222087404Y-161613391D01*
X222121384Y-161650348D01*
X222145655Y-161694296D01*
X222160218Y-161745236D01*
X222164997Y-161795544D01*
X222165073Y-161803168D01*
X222165073Y-162121172D01*
X222171191Y-162169647D01*
X222178018Y-162184431D01*
X222217997Y-162212905D01*
X222219783Y-162213496D01*
X222178750Y-162344410D01*
X222129236Y-162335180D01*
X222083447Y-162317613D01*
X222075191Y-162313147D01*
X222037212Y-162282067D01*
X222009246Y-162238653D01*
X221973812Y-162275289D01*
X221931989Y-162304232D01*
X221900558Y-162319253D01*
X221850423Y-162335327D01*
X221798571Y-162343982D01*
X221763049Y-162345631D01*
X221707911Y-162341555D01*
X221658757Y-162329328D01*
X221610612Y-162305828D01*
X221578401Y-162280418D01*
X221545461Y-162240645D01*
X221523301Y-162194689D01*
X221511921Y-162142551D01*
X221510258Y-162110914D01*
X221511684Y-162095282D01*
X221707117Y-162095282D01*
X221716430Y-162147231D01*
X221748620Y-162185013D01*
X221797251Y-162201070D01*
X221824842Y-162202749D01*
X221873434Y-162195562D01*
X221911549Y-162180034D01*
X221953159Y-162150126D01*
X221981402Y-162114577D01*
X221981402Y-161970474D01*
X221906664Y-161970474D01*
X221857556Y-161972520D01*
X221806432Y-161980830D01*
X221760132Y-161999239D01*
X221754012Y-162003203D01*
X221720352Y-162039614D01*
X221707301Y-162087939D01*
X221707117Y-162095282D01*
X221511684Y-162095282D01*
X221514804Y-162061077D01*
X221531134Y-162010561D01*
X221559340Y-161966914D01*
X221599423Y-161930136D01*
X221605268Y-161926022D01*
X221650741Y-161900707D01*
X221703810Y-161881610D01*
X221755344Y-161870189D01*
X221812460Y-161863337D01*
X221864319Y-161861117D01*
X221875157Y-161861053D01*
X221981402Y-161861053D01*
X221981402Y-161819532D01*
X221974469Y-161770134D01*
X221946900Y-161726270D01*
X221939392Y-161720125D01*
X221892173Y-161697861D01*
X221843114Y-161689864D01*
X221819713Y-161689106D01*
X221769664Y-161692723D01*
X221727878Y-161699364D01*
X221679112Y-161710444D01*
X221629410Y-161725731D01*
X221615038Y-161730872D01*
X221569853Y-161599958D01*
X221619840Y-161582715D01*
X221670057Y-161568935D01*
X221715910Y-161559413D01*
X221765034Y-161551904D01*
X221815002Y-161547267D01*
X221850000Y-161546224D01*
X221907089Y-161548586D01*
G37*
G36*
X222708513Y-162202749D02*
G01*
X222758376Y-162199000D01*
X222807904Y-162184094D01*
X222815736Y-162180034D01*
X222850578Y-162143913D01*
X222856280Y-162114822D01*
X222843091Y-162068660D01*
X222802577Y-162037773D01*
X222791067Y-162032512D01*
X222742585Y-162014865D01*
X222693561Y-162000268D01*
X222674808Y-161995143D01*
X222626597Y-161981510D01*
X222578941Y-161964268D01*
X222546580Y-161949713D01*
X222503170Y-161922739D01*
X222467034Y-161887093D01*
X222461095Y-161879127D01*
X222439181Y-161833607D01*
X222430833Y-161782116D01*
X222430565Y-161769951D01*
X222437153Y-161717836D01*
X222456917Y-161671402D01*
X222489858Y-161630647D01*
X222513852Y-161610460D01*
X222559632Y-161583319D01*
X222606477Y-161565931D01*
X222659656Y-161554481D01*
X222710280Y-161549392D01*
X222746615Y-161548422D01*
X222799520Y-161550509D01*
X222848599Y-161556769D01*
X222898645Y-161568618D01*
X222917341Y-161574801D01*
X222965263Y-161594326D01*
X223011945Y-161619182D01*
X223043126Y-161640258D01*
X222965457Y-161758471D01*
X222920745Y-161732829D01*
X222872706Y-161712232D01*
X222866050Y-161709867D01*
X222817657Y-161697178D01*
X222766086Y-161691594D01*
X222750767Y-161691304D01*
X222699343Y-161694951D01*
X222653558Y-161710355D01*
X222624101Y-161751149D01*
X222623028Y-161763356D01*
X222638415Y-161803900D01*
X222680027Y-161830083D01*
X222694347Y-161835896D01*
X222743745Y-161852566D01*
X222792094Y-161867072D01*
X222810362Y-161872288D01*
X222858990Y-161887144D01*
X222906904Y-161905061D01*
X222939323Y-161919672D01*
X222982639Y-161946332D01*
X223018467Y-161982368D01*
X223024319Y-161990502D01*
X223046058Y-162038065D01*
X223054132Y-162089184D01*
X223054605Y-162106762D01*
X223048920Y-162159330D01*
X223031863Y-162205203D01*
X223006489Y-162241095D01*
X222969744Y-162274330D01*
X222925669Y-162301157D01*
X222879239Y-162319986D01*
X222828740Y-162333510D01*
X222775855Y-162342025D01*
X222726220Y-162345406D01*
X222709246Y-162345631D01*
X222657085Y-162343677D01*
X222608312Y-162337815D01*
X222557494Y-162326550D01*
X222520935Y-162314368D01*
X222473097Y-162293063D01*
X222430030Y-162268229D01*
X222388167Y-162236834D01*
X222384647Y-162233768D01*
X222483077Y-162124103D01*
X222524357Y-162151732D01*
X222570405Y-162174779D01*
X222584438Y-162180523D01*
X222632487Y-162194913D01*
X222683761Y-162201968D01*
X222708513Y-162202749D01*
G37*
G36*
X223594382Y-161188897D02*
G01*
X223643899Y-161197720D01*
X223678890Y-161220160D01*
X223706625Y-161262710D01*
X223712107Y-161298073D01*
X223700397Y-161348014D01*
X223678890Y-161376231D01*
X223635922Y-161401708D01*
X223594382Y-161407739D01*
X223544102Y-161398846D01*
X223508897Y-161376231D01*
X223481366Y-161333360D01*
X223475924Y-161298073D01*
X223487548Y-161248101D01*
X223508897Y-161220160D01*
X223552174Y-161194881D01*
X223594382Y-161188897D01*
G37*
G36*
X223716992Y-161564054D02*
G01*
X223716992Y-162187117D01*
X223917515Y-162187117D01*
X223917515Y-162330000D01*
X223304954Y-162330000D01*
X223304954Y-162187117D01*
X223527459Y-162187117D01*
X223527459Y-161706936D01*
X223312281Y-161706936D01*
X223312281Y-161564054D01*
X223716992Y-161564054D01*
G37*
G36*
X224332972Y-161240432D02*
G01*
X224332972Y-162330000D01*
X224143440Y-162330000D01*
X224143440Y-161260704D01*
X224332972Y-161240432D01*
G37*
G36*
X224832693Y-161564054D02*
G01*
X224550593Y-161908681D01*
X224860048Y-162330000D01*
X224636566Y-162330000D01*
X224343719Y-161913565D01*
X224623866Y-161564054D01*
X224832693Y-161564054D01*
G37*
G36*
X225190753Y-161653935D02*
G01*
X225224009Y-161616919D01*
X225264961Y-161584808D01*
X225280879Y-161575289D01*
X225327989Y-161555421D01*
X225378278Y-161546678D01*
X225393230Y-161546224D01*
X225446124Y-161550028D01*
X225500541Y-161564081D01*
X225547103Y-161588490D01*
X225585812Y-161623253D01*
X225608653Y-161654424D01*
X225634634Y-161705267D01*
X225651824Y-161754429D01*
X225664326Y-161808742D01*
X225671164Y-161857939D01*
X225674745Y-161910714D01*
X225675331Y-161944096D01*
X225673683Y-161993839D01*
X225667764Y-162047683D01*
X225657540Y-162098322D01*
X225643011Y-162145754D01*
X225640893Y-162151458D01*
X225618874Y-162199357D01*
X225591562Y-162241111D01*
X225555007Y-162280300D01*
X225538555Y-162293852D01*
X225493265Y-162321157D01*
X225441965Y-162338350D01*
X225390655Y-162345176D01*
X225372470Y-162345631D01*
X225320663Y-162341131D01*
X225267781Y-162324969D01*
X225221645Y-162297053D01*
X225182257Y-162257383D01*
X225177808Y-162251598D01*
X225169260Y-162324138D01*
X225001221Y-162324138D01*
X225001221Y-161789490D01*
X225190753Y-161789490D01*
X225190753Y-162124347D01*
X225222771Y-162162782D01*
X225248150Y-162182233D01*
X225295639Y-162200325D01*
X225323621Y-162202749D01*
X225373561Y-162194162D01*
X225417586Y-162165480D01*
X225436950Y-162141688D01*
X225458588Y-162096346D01*
X225471211Y-162043261D01*
X225476540Y-161993932D01*
X225477983Y-161946050D01*
X225476669Y-161895566D01*
X225471815Y-161844265D01*
X225461889Y-161795653D01*
X225442913Y-161749915D01*
X225440614Y-161746259D01*
X225405656Y-161709255D01*
X225357731Y-161690502D01*
X225338032Y-161689106D01*
X225288203Y-161698303D01*
X225254256Y-161718171D01*
X225218331Y-161752653D01*
X225190753Y-161789490D01*
X225001221Y-161789490D01*
X225001221Y-161264368D01*
X225190753Y-161244096D01*
X225190753Y-161653935D01*
G37*
D11*
X182699662Y-150382977D02*
X182722098Y-151096910D01*
X182722098Y-151096910D02*
X182678990Y-151241192D01*
X182678990Y-151241192D02*
X182586790Y-151339375D01*
X182586790Y-151339375D02*
X182445500Y-151391458D01*
X182445500Y-151391458D02*
X182350308Y-151394449D01*
X183682984Y-151352568D02*
X183207029Y-151367526D01*
X183207029Y-151367526D02*
X183175618Y-150368019D01*
X184584308Y-151228958D02*
X184538208Y-151278049D01*
X184538208Y-151278049D02*
X184396918Y-151330132D01*
X184396918Y-151330132D02*
X184301726Y-151333123D01*
X184301726Y-151333123D02*
X184157444Y-151290015D01*
X184157444Y-151290015D02*
X184059261Y-151197816D01*
X184059261Y-151197816D02*
X184008674Y-151104120D01*
X184008674Y-151104120D02*
X183955096Y-150915234D01*
X183955096Y-150915234D02*
X183950609Y-150772447D01*
X183950609Y-150772447D02*
X183992221Y-150580569D01*
X183992221Y-150580569D02*
X184036825Y-150483882D01*
X184036825Y-150483882D02*
X184129025Y-150385700D01*
X184129025Y-150385700D02*
X184270316Y-150333617D01*
X184270316Y-150333617D02*
X184365507Y-150330625D01*
X184365507Y-150330625D02*
X184509789Y-150373734D01*
X184509789Y-150373734D02*
X184558881Y-150419833D01*
X185269822Y-150302206D02*
X185292259Y-151016139D01*
X185292259Y-151016139D02*
X185249150Y-151160422D01*
X185249150Y-151160422D02*
X185156951Y-151258604D01*
X185156951Y-151258604D02*
X185015660Y-151310687D01*
X185015660Y-151310687D02*
X184920469Y-151313679D01*
X186253144Y-151271798D02*
X185777189Y-151286755D01*
X185777189Y-151286755D02*
X185745778Y-150287249D01*
X187154468Y-151148187D02*
X187108369Y-151197279D01*
X187108369Y-151197279D02*
X186967078Y-151249361D01*
X186967078Y-151249361D02*
X186871887Y-151252353D01*
X186871887Y-151252353D02*
X186727604Y-151209245D01*
X186727604Y-151209245D02*
X186629422Y-151117045D01*
X186629422Y-151117045D02*
X186578835Y-151023350D01*
X186578835Y-151023350D02*
X186525256Y-150834463D01*
X186525256Y-150834463D02*
X186520769Y-150691677D01*
X186520769Y-150691677D02*
X186562381Y-150499799D01*
X186562381Y-150499799D02*
X186606985Y-150403112D01*
X186606985Y-150403112D02*
X186699185Y-150304929D01*
X186699185Y-150304929D02*
X186840476Y-150252846D01*
X186840476Y-150252846D02*
X186935667Y-150249855D01*
X186935667Y-150249855D02*
X187079949Y-150292963D01*
X187079949Y-150292963D02*
X187129041Y-150339063D01*
X187839982Y-150221436D02*
X187862419Y-150935369D01*
X187862419Y-150935369D02*
X187819310Y-151079651D01*
X187819310Y-151079651D02*
X187727111Y-151177834D01*
X187727111Y-151177834D02*
X187585820Y-151229917D01*
X187585820Y-151229917D02*
X187490629Y-151232908D01*
X188823304Y-151191027D02*
X188347349Y-151205985D01*
X188347349Y-151205985D02*
X188315938Y-150206478D01*
X189724629Y-151067417D02*
X189678529Y-151116508D01*
X189678529Y-151116508D02*
X189537238Y-151168591D01*
X189537238Y-151168591D02*
X189442047Y-151171582D01*
X189442047Y-151171582D02*
X189297764Y-151128474D01*
X189297764Y-151128474D02*
X189199582Y-151036274D01*
X189199582Y-151036274D02*
X189148995Y-150942579D01*
X189148995Y-150942579D02*
X189095416Y-150753693D01*
X189095416Y-150753693D02*
X189090929Y-150610906D01*
X189090929Y-150610906D02*
X189132541Y-150419028D01*
X189132541Y-150419028D02*
X189177146Y-150322341D01*
X189177146Y-150322341D02*
X189269345Y-150224159D01*
X189269345Y-150224159D02*
X189410636Y-150172076D01*
X189410636Y-150172076D02*
X189505827Y-150169084D01*
X189505827Y-150169084D02*
X189650110Y-150212193D01*
X189650110Y-150212193D02*
X189699201Y-150258292D01*
X190410143Y-150140665D02*
X190432579Y-150854598D01*
X190432579Y-150854598D02*
X190389471Y-150998881D01*
X190389471Y-150998881D02*
X190297271Y-151097063D01*
X190297271Y-151097063D02*
X190155980Y-151149146D01*
X190155980Y-151149146D02*
X190060789Y-151152138D01*
X191393465Y-151110257D02*
X190917509Y-151125214D01*
X190917509Y-151125214D02*
X190886098Y-150125708D01*
X192294789Y-150986646D02*
X192248689Y-151035738D01*
X192248689Y-151035738D02*
X192107398Y-151087820D01*
X192107398Y-151087820D02*
X192012207Y-151090812D01*
X192012207Y-151090812D02*
X191867925Y-151047704D01*
X191867925Y-151047704D02*
X191769742Y-150955504D01*
X191769742Y-150955504D02*
X191719155Y-150861809D01*
X191719155Y-150861809D02*
X191665576Y-150672922D01*
X191665576Y-150672922D02*
X191661089Y-150530135D01*
X191661089Y-150530135D02*
X191702702Y-150338257D01*
X191702702Y-150338257D02*
X191747306Y-150241571D01*
X191747306Y-150241571D02*
X191839505Y-150143388D01*
X191839505Y-150143388D02*
X191980796Y-150091305D01*
X191980796Y-150091305D02*
X192075987Y-150088314D01*
X192075987Y-150088314D02*
X192220270Y-150131422D01*
X192220270Y-150131422D02*
X192269361Y-150177522D01*
X192980303Y-150059894D02*
X193002739Y-150773828D01*
X193002739Y-150773828D02*
X192959631Y-150918110D01*
X192959631Y-150918110D02*
X192867431Y-151016293D01*
X192867431Y-151016293D02*
X192726140Y-151068376D01*
X192726140Y-151068376D02*
X192630949Y-151071367D01*
X193963625Y-151029486D02*
X193487669Y-151044444D01*
X193487669Y-151044444D02*
X193456258Y-150044937D01*
X194864949Y-150905876D02*
X194818849Y-150954967D01*
X194818849Y-150954967D02*
X194677558Y-151007050D01*
X194677558Y-151007050D02*
X194582367Y-151010041D01*
X194582367Y-151010041D02*
X194438085Y-150966933D01*
X194438085Y-150966933D02*
X194339902Y-150874733D01*
X194339902Y-150874733D02*
X194289315Y-150781038D01*
X194289315Y-150781038D02*
X194235736Y-150592152D01*
X194235736Y-150592152D02*
X194231249Y-150449365D01*
X194231249Y-150449365D02*
X194272862Y-150257487D01*
X194272862Y-150257487D02*
X194317466Y-150160800D01*
X194317466Y-150160800D02*
X194409665Y-150062618D01*
X194409665Y-150062618D02*
X194550956Y-150010535D01*
X194550956Y-150010535D02*
X194646147Y-150007543D01*
X194646147Y-150007543D02*
X194790430Y-150050652D01*
X194790430Y-150050652D02*
X194839521Y-150096751D01*
X271923913Y-112291393D02*
X271926905Y-112100941D01*
X271926905Y-112100941D02*
X271976014Y-112006462D01*
X271976014Y-112006462D02*
X272072737Y-111912732D01*
X272072737Y-111912732D02*
X272263937Y-111868110D01*
X272263937Y-111868110D02*
X272597230Y-111873346D01*
X272597230Y-111873346D02*
X272786934Y-111923951D01*
X272786934Y-111923951D02*
X272880665Y-112020674D01*
X272880665Y-112020674D02*
X272926782Y-112116648D01*
X272926782Y-112116648D02*
X272923790Y-112307101D01*
X272923790Y-112307101D02*
X272874681Y-112401579D01*
X272874681Y-112401579D02*
X272777959Y-112495309D01*
X272777959Y-112495309D02*
X272586758Y-112539931D01*
X272586758Y-112539931D02*
X272253466Y-112534695D01*
X272253466Y-112534695D02*
X272063761Y-112484090D01*
X272063761Y-112484090D02*
X271970031Y-112387368D01*
X271970031Y-112387368D02*
X271923913Y-112291393D01*
X272418744Y-111108544D02*
X272413509Y-111441836D01*
X272937254Y-111450063D02*
X271937377Y-111434356D01*
X271937377Y-111434356D02*
X271944857Y-110958224D01*
X272432208Y-110251506D02*
X272426972Y-110584799D01*
X272950717Y-110593026D02*
X271950840Y-110577319D01*
X271950840Y-110577319D02*
X271958320Y-110101187D01*
X261930383Y-111801027D02*
X261933375Y-111610575D01*
X261933375Y-111610575D02*
X261982484Y-111516096D01*
X261982484Y-111516096D02*
X262079206Y-111422366D01*
X262079206Y-111422366D02*
X262270407Y-111377745D01*
X262270407Y-111377745D02*
X262603699Y-111382980D01*
X262603699Y-111382980D02*
X262793404Y-111433585D01*
X262793404Y-111433585D02*
X262887134Y-111530308D01*
X262887134Y-111530308D02*
X262933252Y-111626282D01*
X262933252Y-111626282D02*
X262930260Y-111816735D01*
X262930260Y-111816735D02*
X262881151Y-111911213D01*
X262881151Y-111911213D02*
X262784428Y-112004943D01*
X262784428Y-112004943D02*
X262593228Y-112049565D01*
X262593228Y-112049565D02*
X262259936Y-112044329D01*
X262259936Y-112044329D02*
X262070231Y-111993724D01*
X262070231Y-111993724D02*
X261976500Y-111897002D01*
X261976500Y-111897002D02*
X261930383Y-111801027D01*
X262943723Y-110959698D02*
X261943847Y-110943990D01*
X261943847Y-110943990D02*
X262952699Y-110388340D01*
X262952699Y-110388340D02*
X261952822Y-110372632D01*
X262496886Y-148172610D02*
X262610559Y-148212496D01*
X262610559Y-148212496D02*
X262648051Y-148251185D01*
X262648051Y-148251185D02*
X262684945Y-148327964D01*
X262684945Y-148327964D02*
X262683150Y-148442236D01*
X262683150Y-148442236D02*
X262643863Y-148517819D01*
X262643863Y-148517819D02*
X262605174Y-148555311D01*
X262605174Y-148555311D02*
X262528394Y-148592205D01*
X262528394Y-148592205D02*
X262223670Y-148587418D01*
X262223670Y-148587418D02*
X262236236Y-147787516D01*
X262236236Y-147787516D02*
X262502870Y-147791705D01*
X262502870Y-147791705D02*
X262578452Y-147830992D01*
X262578452Y-147830992D02*
X262615945Y-147869681D01*
X262615945Y-147869681D02*
X262652838Y-147946460D01*
X262652838Y-147946460D02*
X262651642Y-148022642D01*
X262651642Y-148022642D02*
X262612354Y-148098224D01*
X262612354Y-148098224D02*
X262573665Y-148135716D01*
X262573665Y-148135716D02*
X262496886Y-148172610D01*
X262496886Y-148172610D02*
X262230252Y-148168422D01*
X262989071Y-148370842D02*
X263369976Y-148376826D01*
X262909300Y-148598188D02*
X263188499Y-147802476D01*
X263188499Y-147802476D02*
X263442567Y-148606565D01*
X263607495Y-147809058D02*
X264064581Y-147816238D01*
X263823472Y-148612549D02*
X263836038Y-147812648D01*
X264127000Y-148693517D02*
X264736449Y-148703091D01*
X264928098Y-148629902D02*
X264940664Y-147830001D01*
X264940664Y-147830001D02*
X265385185Y-148637083D01*
X265385185Y-148637083D02*
X265397751Y-147837181D01*
X261595393Y-125988288D02*
X261611100Y-124988412D01*
X261611100Y-124988412D02*
X261992005Y-124994395D01*
X261992005Y-124994395D02*
X262086484Y-125043504D01*
X262086484Y-125043504D02*
X262133349Y-125091866D01*
X262133349Y-125091866D02*
X262179466Y-125187840D01*
X262179466Y-125187840D02*
X262177222Y-125330679D01*
X262177222Y-125330679D02*
X262128113Y-125425158D01*
X262128113Y-125425158D02*
X262079752Y-125472023D01*
X262079752Y-125472023D02*
X261983778Y-125518140D01*
X261983778Y-125518140D02*
X261602872Y-125512157D01*
X262561867Y-125098597D02*
X262610229Y-125051732D01*
X262610229Y-125051732D02*
X262706203Y-125005615D01*
X262706203Y-125005615D02*
X262944269Y-125009355D01*
X262944269Y-125009355D02*
X263038747Y-125058464D01*
X263038747Y-125058464D02*
X263085612Y-125106825D01*
X263085612Y-125106825D02*
X263131730Y-125202799D01*
X263131730Y-125202799D02*
X263130234Y-125298026D01*
X263130234Y-125298026D02*
X263080377Y-125440117D01*
X263080377Y-125440117D02*
X262500043Y-126002500D01*
X262500043Y-126002500D02*
X263119014Y-126012223D01*
X264071278Y-126027183D02*
X263499920Y-126018207D01*
X263785599Y-126022695D02*
X263801306Y-125022818D01*
X263801306Y-125022818D02*
X263703836Y-125164162D01*
X263703836Y-125164162D02*
X263607113Y-125257892D01*
X263607113Y-125257892D02*
X263511139Y-125304009D01*
X271010422Y-126136191D02*
X271026129Y-125136314D01*
X271026129Y-125136314D02*
X271407035Y-125142298D01*
X271407035Y-125142298D02*
X271501513Y-125191407D01*
X271501513Y-125191407D02*
X271548378Y-125239768D01*
X271548378Y-125239768D02*
X271594495Y-125335743D01*
X271594495Y-125335743D02*
X271592251Y-125478582D01*
X271592251Y-125478582D02*
X271543142Y-125573061D01*
X271543142Y-125573061D02*
X271494781Y-125619926D01*
X271494781Y-125619926D02*
X271398807Y-125666043D01*
X271398807Y-125666043D02*
X271017901Y-125660059D01*
X271976897Y-125246500D02*
X272025258Y-125199635D01*
X272025258Y-125199635D02*
X272121232Y-125153518D01*
X272121232Y-125153518D02*
X272359298Y-125157257D01*
X272359298Y-125157257D02*
X272453776Y-125206367D01*
X272453776Y-125206367D02*
X272500642Y-125254728D01*
X272500642Y-125254728D02*
X272546759Y-125350702D01*
X272546759Y-125350702D02*
X272545263Y-125445928D01*
X272545263Y-125445928D02*
X272495406Y-125588020D01*
X272495406Y-125588020D02*
X271915072Y-126150402D01*
X271915072Y-126150402D02*
X272534043Y-126160126D01*
X268021844Y-122596431D02*
X267927365Y-122547321D01*
X267927365Y-122547321D02*
X267784526Y-122545077D01*
X267784526Y-122545077D02*
X267640938Y-122590447D01*
X267640938Y-122590447D02*
X267544216Y-122684177D01*
X267544216Y-122684177D02*
X267495107Y-122778656D01*
X267495107Y-122778656D02*
X267444502Y-122968360D01*
X267444502Y-122968360D02*
X267442258Y-123111200D01*
X267442258Y-123111200D02*
X267486879Y-123302400D01*
X267486879Y-123302400D02*
X267532996Y-123398375D01*
X267532996Y-123398375D02*
X267626727Y-123495097D01*
X267626727Y-123495097D02*
X267768818Y-123544954D01*
X267768818Y-123544954D02*
X267864045Y-123546450D01*
X267864045Y-123546450D02*
X268007632Y-123501081D01*
X268007632Y-123501081D02*
X268055993Y-123454216D01*
X268055993Y-123454216D02*
X268061229Y-123120923D01*
X268061229Y-123120923D02*
X267870776Y-123117932D01*
X268483016Y-123556174D02*
X268498723Y-122556297D01*
X268498723Y-122556297D02*
X269054374Y-123565149D01*
X269054374Y-123565149D02*
X269070081Y-122565273D01*
X269530506Y-123572629D02*
X269546213Y-122572752D01*
X269546213Y-122572752D02*
X269784279Y-122576492D01*
X269784279Y-122576492D02*
X269926370Y-122626349D01*
X269926370Y-122626349D02*
X270020101Y-122723071D01*
X270020101Y-122723071D02*
X270066218Y-122819046D01*
X270066218Y-122819046D02*
X270110839Y-123010246D01*
X270110839Y-123010246D02*
X270108596Y-123153086D01*
X270108596Y-123153086D02*
X270057990Y-123342791D01*
X270057990Y-123342791D02*
X270008881Y-123437269D01*
X270008881Y-123437269D02*
X269912159Y-123530999D01*
X269912159Y-123530999D02*
X269768572Y-123576369D01*
X269768572Y-123576369D02*
X269530506Y-123572629D01*
X261435807Y-136147034D02*
X261451514Y-135147158D01*
X261451514Y-135147158D02*
X261832419Y-135153141D01*
X261832419Y-135153141D02*
X261926898Y-135202250D01*
X261926898Y-135202250D02*
X261973763Y-135250612D01*
X261973763Y-135250612D02*
X262019880Y-135346586D01*
X262019880Y-135346586D02*
X262017636Y-135489425D01*
X262017636Y-135489425D02*
X261968527Y-135583904D01*
X261968527Y-135583904D02*
X261920166Y-135630769D01*
X261920166Y-135630769D02*
X261824192Y-135676886D01*
X261824192Y-135676886D02*
X261443286Y-135670903D01*
X262959428Y-136170969D02*
X262388070Y-136161994D01*
X262673749Y-136166481D02*
X262689456Y-135166605D01*
X262689456Y-135166605D02*
X262591986Y-135307948D01*
X262591986Y-135307948D02*
X262495264Y-135401679D01*
X262495264Y-135401679D02*
X262399290Y-135447796D01*
X263879786Y-135185304D02*
X263403654Y-135177824D01*
X263403654Y-135177824D02*
X263348561Y-135653208D01*
X263348561Y-135653208D02*
X263396922Y-135606343D01*
X263396922Y-135606343D02*
X263492897Y-135560226D01*
X263492897Y-135560226D02*
X263730962Y-135563965D01*
X263730962Y-135563965D02*
X263825441Y-135613075D01*
X263825441Y-135613075D02*
X263872306Y-135661436D01*
X263872306Y-135661436D02*
X263918423Y-135757410D01*
X263918423Y-135757410D02*
X263914683Y-135995476D01*
X263914683Y-135995476D02*
X263865574Y-136089954D01*
X263865574Y-136089954D02*
X263817213Y-136136819D01*
X263817213Y-136136819D02*
X263721239Y-136182937D01*
X263721239Y-136182937D02*
X263483173Y-136179197D01*
X263483173Y-136179197D02*
X263388695Y-136130088D01*
X263388695Y-136130088D02*
X263341829Y-136081727D01*
X268740308Y-115939276D02*
X268756015Y-114939399D01*
X268756015Y-114939399D02*
X269136921Y-114945383D01*
X269136921Y-114945383D02*
X269231399Y-114994492D01*
X269231399Y-114994492D02*
X269278264Y-115042853D01*
X269278264Y-115042853D02*
X269324381Y-115138828D01*
X269324381Y-115138828D02*
X269322137Y-115281667D01*
X269322137Y-115281667D02*
X269273028Y-115376146D01*
X269273028Y-115376146D02*
X269224667Y-115423011D01*
X269224667Y-115423011D02*
X269128693Y-115469128D01*
X269128693Y-115469128D02*
X268747787Y-115463144D01*
X270263929Y-115963211D02*
X269692571Y-115954235D01*
X269978250Y-115958723D02*
X269993958Y-114958846D01*
X269993958Y-114958846D02*
X269896487Y-115100190D01*
X269896487Y-115100190D02*
X269799765Y-115193920D01*
X269799765Y-115193920D02*
X269703791Y-115240038D01*
X270731146Y-143913998D02*
X270746853Y-142914121D01*
X270746853Y-142914121D02*
X271127759Y-142920105D01*
X271127759Y-142920105D02*
X271222237Y-142969214D01*
X271222237Y-142969214D02*
X271269102Y-143017575D01*
X271269102Y-143017575D02*
X271315219Y-143113550D01*
X271315219Y-143113550D02*
X271312975Y-143256389D01*
X271312975Y-143256389D02*
X271263866Y-143350868D01*
X271263866Y-143350868D02*
X271215505Y-143397733D01*
X271215505Y-143397733D02*
X271119531Y-143443850D01*
X271119531Y-143443850D02*
X270738625Y-143437866D01*
X271778636Y-143930453D02*
X271969088Y-143933445D01*
X271969088Y-143933445D02*
X272065063Y-143887328D01*
X272065063Y-143887328D02*
X272113424Y-143840463D01*
X272113424Y-143840463D02*
X272210894Y-143699119D01*
X272210894Y-143699119D02*
X272261499Y-143509414D01*
X272261499Y-143509414D02*
X272267483Y-143128509D01*
X272267483Y-143128509D02*
X272221366Y-143032535D01*
X272221366Y-143032535D02*
X272174500Y-142984174D01*
X272174500Y-142984174D02*
X272080022Y-142935064D01*
X272080022Y-142935064D02*
X271889569Y-142932073D01*
X271889569Y-142932073D02*
X271793595Y-142978190D01*
X271793595Y-142978190D02*
X271745234Y-143025055D01*
X271745234Y-143025055D02*
X271696125Y-143119533D01*
X271696125Y-143119533D02*
X271692385Y-143357599D01*
X271692385Y-143357599D02*
X271738502Y-143453574D01*
X271738502Y-143453574D02*
X271785367Y-143501935D01*
X271785367Y-143501935D02*
X271879846Y-143551044D01*
X271879846Y-143551044D02*
X272070298Y-143554036D01*
X272070298Y-143554036D02*
X272166273Y-143507918D01*
X272166273Y-143507918D02*
X272214634Y-143461053D01*
X272214634Y-143461053D02*
X272263743Y-143366575D01*
X264551591Y-122494291D02*
X264869176Y-123499403D01*
X264869176Y-123499403D02*
X265218176Y-122504762D01*
X266108615Y-123423624D02*
X266060254Y-123470489D01*
X266060254Y-123470489D02*
X265916666Y-123515858D01*
X265916666Y-123515858D02*
X265821440Y-123514362D01*
X265821440Y-123514362D02*
X265679348Y-123464505D01*
X265679348Y-123464505D02*
X265585618Y-123367783D01*
X265585618Y-123367783D02*
X265539501Y-123271809D01*
X265539501Y-123271809D02*
X265494879Y-123080608D01*
X265494879Y-123080608D02*
X265497123Y-122937769D01*
X265497123Y-122937769D02*
X265547728Y-122748064D01*
X265547728Y-122748064D02*
X265596837Y-122653586D01*
X265596837Y-122653586D02*
X265693560Y-122559855D01*
X265693560Y-122559855D02*
X265837147Y-122514486D01*
X265837147Y-122514486D02*
X265932374Y-122515982D01*
X265932374Y-122515982D02*
X266074465Y-122565839D01*
X266074465Y-122565839D02*
X266121330Y-122614200D01*
X267108492Y-123439331D02*
X267060130Y-123486196D01*
X267060130Y-123486196D02*
X266916543Y-123531566D01*
X266916543Y-123531566D02*
X266821317Y-123530070D01*
X266821317Y-123530070D02*
X266679225Y-123480213D01*
X266679225Y-123480213D02*
X266585495Y-123383490D01*
X266585495Y-123383490D02*
X266539377Y-123287516D01*
X266539377Y-123287516D02*
X266494756Y-123096315D01*
X266494756Y-123096315D02*
X266497000Y-122953476D01*
X266497000Y-122953476D02*
X266547605Y-122763771D01*
X266547605Y-122763771D02*
X266596714Y-122669293D01*
X266596714Y-122669293D02*
X266693436Y-122575562D01*
X266693436Y-122575562D02*
X266837024Y-122530193D01*
X266837024Y-122530193D02*
X266932250Y-122531689D01*
X266932250Y-122531689D02*
X267074342Y-122581546D01*
X267074342Y-122581546D02*
X267121207Y-122629907D01*
X265298352Y-115885205D02*
X264972539Y-115403837D01*
X264726993Y-115876229D02*
X264742701Y-114876353D01*
X264742701Y-114876353D02*
X265123606Y-114882336D01*
X265123606Y-114882336D02*
X265218085Y-114931446D01*
X265218085Y-114931446D02*
X265264950Y-114979807D01*
X265264950Y-114979807D02*
X265311067Y-115075781D01*
X265311067Y-115075781D02*
X265308823Y-115218620D01*
X265308823Y-115218620D02*
X265259714Y-115313099D01*
X265259714Y-115313099D02*
X265211353Y-115359964D01*
X265211353Y-115359964D02*
X265115378Y-115406081D01*
X265115378Y-115406081D02*
X264734473Y-115400098D01*
X265683745Y-115605510D02*
X266159876Y-115612989D01*
X265584031Y-115889693D02*
X265933030Y-114895052D01*
X265933030Y-114895052D02*
X266250615Y-115900164D01*
X266504388Y-114904027D02*
X266726747Y-115907644D01*
X266726747Y-115907644D02*
X266928419Y-115196438D01*
X266928419Y-115196438D02*
X267107652Y-115913628D01*
X267107652Y-115913628D02*
X267361425Y-114917491D01*
X270930629Y-131215564D02*
X270946336Y-130215687D01*
X270946336Y-130215687D02*
X271327242Y-130221671D01*
X271327242Y-130221671D02*
X271421720Y-130270780D01*
X271421720Y-130270780D02*
X271468585Y-130319141D01*
X271468585Y-130319141D02*
X271514702Y-130415116D01*
X271514702Y-130415116D02*
X271512458Y-130557955D01*
X271512458Y-130557955D02*
X271463349Y-130652434D01*
X271463349Y-130652434D02*
X271414988Y-130699299D01*
X271414988Y-130699299D02*
X271319014Y-130745416D01*
X271319014Y-130745416D02*
X270938108Y-130739432D01*
X272369496Y-130571419D02*
X272359024Y-131238003D01*
X272137413Y-130186773D02*
X271888128Y-130897231D01*
X271888128Y-130897231D02*
X272507099Y-130906955D01*
X270890732Y-133755251D02*
X270906439Y-132755374D01*
X270906439Y-132755374D02*
X271287345Y-132761358D01*
X271287345Y-132761358D02*
X271381823Y-132810467D01*
X271381823Y-132810467D02*
X271428688Y-132858828D01*
X271428688Y-132858828D02*
X271474805Y-132954803D01*
X271474805Y-132954803D02*
X271472561Y-133097642D01*
X271472561Y-133097642D02*
X271423452Y-133192121D01*
X271423452Y-133192121D02*
X271375091Y-133238986D01*
X271375091Y-133238986D02*
X271279117Y-133285103D01*
X271279117Y-133285103D02*
X270898211Y-133279119D01*
X272382447Y-132778561D02*
X271906316Y-132771082D01*
X271906316Y-132771082D02*
X271851223Y-133246465D01*
X271851223Y-133246465D02*
X271899584Y-133199600D01*
X271899584Y-133199600D02*
X271995558Y-133153483D01*
X271995558Y-133153483D02*
X272233624Y-133157223D01*
X272233624Y-133157223D02*
X272328103Y-133206332D01*
X272328103Y-133206332D02*
X272374968Y-133254693D01*
X272374968Y-133254693D02*
X272421085Y-133350667D01*
X272421085Y-133350667D02*
X272417345Y-133588733D01*
X272417345Y-133588733D02*
X272368236Y-133683212D01*
X272368236Y-133683212D02*
X272319875Y-133730077D01*
X272319875Y-133730077D02*
X272223901Y-133776194D01*
X272223901Y-133776194D02*
X271985835Y-133772454D01*
X271985835Y-133772454D02*
X271891356Y-133723345D01*
X271891356Y-133723345D02*
X271844491Y-133674984D01*
X261475703Y-133607348D02*
X261491410Y-132607472D01*
X261491410Y-132607472D02*
X261872315Y-132613455D01*
X261872315Y-132613455D02*
X261966794Y-132662564D01*
X261966794Y-132662564D02*
X262013659Y-132710926D01*
X262013659Y-132710926D02*
X262059776Y-132806900D01*
X262059776Y-132806900D02*
X262057532Y-132949739D01*
X262057532Y-132949739D02*
X262008423Y-133044218D01*
X262008423Y-133044218D02*
X261960062Y-133091083D01*
X261960062Y-133091083D02*
X261864088Y-133137200D01*
X261864088Y-133137200D02*
X261483182Y-133131217D01*
X262999324Y-133631283D02*
X262427966Y-133622308D01*
X262713645Y-133626795D02*
X262729352Y-132626919D01*
X262729352Y-132626919D02*
X262631882Y-132768262D01*
X262631882Y-132768262D02*
X262535160Y-132861993D01*
X262535160Y-132861993D02*
X262439186Y-132908110D01*
X263579658Y-133068901D02*
X263485179Y-133019792D01*
X263485179Y-133019792D02*
X263438314Y-132971431D01*
X263438314Y-132971431D02*
X263392197Y-132875456D01*
X263392197Y-132875456D02*
X263392945Y-132827843D01*
X263392945Y-132827843D02*
X263442054Y-132733365D01*
X263442054Y-132733365D02*
X263490415Y-132686499D01*
X263490415Y-132686499D02*
X263586390Y-132640382D01*
X263586390Y-132640382D02*
X263776842Y-132643374D01*
X263776842Y-132643374D02*
X263871321Y-132692483D01*
X263871321Y-132692483D02*
X263918186Y-132740844D01*
X263918186Y-132740844D02*
X263964303Y-132836819D01*
X263964303Y-132836819D02*
X263963555Y-132884432D01*
X263963555Y-132884432D02*
X263914446Y-132978910D01*
X263914446Y-132978910D02*
X263866085Y-133025775D01*
X263866085Y-133025775D02*
X263770111Y-133071893D01*
X263770111Y-133071893D02*
X263579658Y-133068901D01*
X263579658Y-133068901D02*
X263483684Y-133115018D01*
X263483684Y-133115018D02*
X263435322Y-133161883D01*
X263435322Y-133161883D02*
X263386213Y-133256362D01*
X263386213Y-133256362D02*
X263383221Y-133446814D01*
X263383221Y-133446814D02*
X263429339Y-133542789D01*
X263429339Y-133542789D02*
X263476204Y-133591150D01*
X263476204Y-133591150D02*
X263570682Y-133640259D01*
X263570682Y-133640259D02*
X263761135Y-133643251D01*
X263761135Y-133643251D02*
X263857109Y-133597133D01*
X263857109Y-133597133D02*
X263905470Y-133550268D01*
X263905470Y-133550268D02*
X263954579Y-133455790D01*
X263954579Y-133455790D02*
X263957571Y-133265337D01*
X263957571Y-133265337D02*
X263911454Y-133169363D01*
X263911454Y-133169363D02*
X263864589Y-133121002D01*
X263864589Y-133121002D02*
X263770111Y-133071893D01*
X270850836Y-136294938D02*
X270866543Y-135295061D01*
X270866543Y-135295061D02*
X271247449Y-135301045D01*
X271247449Y-135301045D02*
X271341927Y-135350154D01*
X271341927Y-135350154D02*
X271388792Y-135398515D01*
X271388792Y-135398515D02*
X271434909Y-135494490D01*
X271434909Y-135494490D02*
X271432665Y-135637329D01*
X271432665Y-135637329D02*
X271383556Y-135731808D01*
X271383556Y-135731808D02*
X271335195Y-135778673D01*
X271335195Y-135778673D02*
X271239221Y-135824790D01*
X271239221Y-135824790D02*
X270858315Y-135818806D01*
X272294938Y-135317500D02*
X272104486Y-135314508D01*
X272104486Y-135314508D02*
X272008511Y-135360626D01*
X272008511Y-135360626D02*
X271960150Y-135407491D01*
X271960150Y-135407491D02*
X271862680Y-135548834D01*
X271862680Y-135548834D02*
X271812075Y-135738539D01*
X271812075Y-135738539D02*
X271806091Y-136119445D01*
X271806091Y-136119445D02*
X271852208Y-136215419D01*
X271852208Y-136215419D02*
X271899074Y-136263780D01*
X271899074Y-136263780D02*
X271993552Y-136312889D01*
X271993552Y-136312889D02*
X272184005Y-136315881D01*
X272184005Y-136315881D02*
X272279979Y-136269764D01*
X272279979Y-136269764D02*
X272328340Y-136222899D01*
X272328340Y-136222899D02*
X272377449Y-136128420D01*
X272377449Y-136128420D02*
X272381189Y-135890354D01*
X272381189Y-135890354D02*
X272335072Y-135794380D01*
X272335072Y-135794380D02*
X272288207Y-135746019D01*
X272288207Y-135746019D02*
X272193728Y-135696910D01*
X272193728Y-135696910D02*
X272003276Y-135693918D01*
X272003276Y-135693918D02*
X271907301Y-135740035D01*
X271907301Y-135740035D02*
X271858940Y-135786900D01*
X271858940Y-135786900D02*
X271809831Y-135881379D01*
X261356014Y-141226408D02*
X261371721Y-140226532D01*
X261371721Y-140226532D02*
X261752626Y-140232515D01*
X261752626Y-140232515D02*
X261847105Y-140281624D01*
X261847105Y-140281624D02*
X261893970Y-140329986D01*
X261893970Y-140329986D02*
X261940087Y-140425960D01*
X261940087Y-140425960D02*
X261937843Y-140568799D01*
X261937843Y-140568799D02*
X261888734Y-140663278D01*
X261888734Y-140663278D02*
X261840373Y-140710143D01*
X261840373Y-140710143D02*
X261744399Y-140756260D01*
X261744399Y-140756260D02*
X261363493Y-140750277D01*
X262879635Y-141250343D02*
X262308277Y-141241368D01*
X262593956Y-141245855D02*
X262609663Y-140245979D01*
X262609663Y-140245979D02*
X262512193Y-140387322D01*
X262512193Y-140387322D02*
X262415471Y-140481053D01*
X262415471Y-140481053D02*
X262319497Y-140527170D01*
X263752380Y-140263930D02*
X263561927Y-140260938D01*
X263561927Y-140260938D02*
X263465953Y-140307055D01*
X263465953Y-140307055D02*
X263417591Y-140353921D01*
X263417591Y-140353921D02*
X263320121Y-140495264D01*
X263320121Y-140495264D02*
X263269516Y-140684969D01*
X263269516Y-140684969D02*
X263263532Y-141065874D01*
X263263532Y-141065874D02*
X263309650Y-141161849D01*
X263309650Y-141161849D02*
X263356515Y-141210210D01*
X263356515Y-141210210D02*
X263450993Y-141259319D01*
X263450993Y-141259319D02*
X263641446Y-141262311D01*
X263641446Y-141262311D02*
X263737420Y-141216193D01*
X263737420Y-141216193D02*
X263785781Y-141169328D01*
X263785781Y-141169328D02*
X263834890Y-141074850D01*
X263834890Y-141074850D02*
X263838630Y-140836784D01*
X263838630Y-140836784D02*
X263792513Y-140740810D01*
X263792513Y-140740810D02*
X263745648Y-140692449D01*
X263745648Y-140692449D02*
X263651169Y-140643339D01*
X263651169Y-140643339D02*
X263460717Y-140640348D01*
X263460717Y-140640348D02*
X263364742Y-140686465D01*
X263364742Y-140686465D02*
X263316381Y-140733330D01*
X263316381Y-140733330D02*
X263267272Y-140827808D01*
X261316117Y-143766094D02*
X261331824Y-142766218D01*
X261331824Y-142766218D02*
X261712729Y-142772201D01*
X261712729Y-142772201D02*
X261807208Y-142821310D01*
X261807208Y-142821310D02*
X261854073Y-142869672D01*
X261854073Y-142869672D02*
X261900190Y-142965646D01*
X261900190Y-142965646D02*
X261897946Y-143108485D01*
X261897946Y-143108485D02*
X261848837Y-143202964D01*
X261848837Y-143202964D02*
X261800476Y-143249829D01*
X261800476Y-143249829D02*
X261704502Y-143295946D01*
X261704502Y-143295946D02*
X261323596Y-143289963D01*
X262839738Y-143790029D02*
X262268380Y-143781054D01*
X262554059Y-143785541D02*
X262569766Y-142785665D01*
X262569766Y-142785665D02*
X262472296Y-142927008D01*
X262472296Y-142927008D02*
X262375574Y-143020739D01*
X262375574Y-143020739D02*
X262279600Y-143066856D01*
X263474417Y-142799876D02*
X263569643Y-142801372D01*
X263569643Y-142801372D02*
X263664121Y-142850481D01*
X263664121Y-142850481D02*
X263710987Y-142898842D01*
X263710987Y-142898842D02*
X263757104Y-142994817D01*
X263757104Y-142994817D02*
X263801725Y-143186017D01*
X263801725Y-143186017D02*
X263797985Y-143424083D01*
X263797985Y-143424083D02*
X263747380Y-143613788D01*
X263747380Y-143613788D02*
X263698271Y-143708266D01*
X263698271Y-143708266D02*
X263649910Y-143755132D01*
X263649910Y-143755132D02*
X263553936Y-143801249D01*
X263553936Y-143801249D02*
X263458709Y-143799753D01*
X263458709Y-143799753D02*
X263364231Y-143750644D01*
X263364231Y-143750644D02*
X263317366Y-143702283D01*
X263317366Y-143702283D02*
X263271249Y-143606308D01*
X263271249Y-143606308D02*
X263226627Y-143415108D01*
X263226627Y-143415108D02*
X263230367Y-143177042D01*
X263230367Y-143177042D02*
X263280972Y-142987337D01*
X263280972Y-142987337D02*
X263330081Y-142892859D01*
X263330081Y-142892859D02*
X263378442Y-142845993D01*
X263378442Y-142845993D02*
X263474417Y-142799876D01*
X270970526Y-128675878D02*
X270986233Y-127676001D01*
X270986233Y-127676001D02*
X271367139Y-127681985D01*
X271367139Y-127681985D02*
X271461617Y-127731094D01*
X271461617Y-127731094D02*
X271508482Y-127779455D01*
X271508482Y-127779455D02*
X271554599Y-127875430D01*
X271554599Y-127875430D02*
X271552355Y-128018269D01*
X271552355Y-128018269D02*
X271503246Y-128112748D01*
X271503246Y-128112748D02*
X271454885Y-128159613D01*
X271454885Y-128159613D02*
X271358911Y-128205730D01*
X271358911Y-128205730D02*
X270978005Y-128199746D01*
X271890883Y-127690213D02*
X272509855Y-127699936D01*
X272509855Y-127699936D02*
X272170579Y-128075606D01*
X272170579Y-128075606D02*
X272313418Y-128077850D01*
X272313418Y-128077850D02*
X272407897Y-128126959D01*
X272407897Y-128126959D02*
X272454762Y-128175320D01*
X272454762Y-128175320D02*
X272500879Y-128271294D01*
X272500879Y-128271294D02*
X272497139Y-128509360D01*
X272497139Y-128509360D02*
X272448030Y-128603839D01*
X272448030Y-128603839D02*
X272399669Y-128650704D01*
X272399669Y-128650704D02*
X272303695Y-128696821D01*
X272303695Y-128696821D02*
X272018016Y-128692333D01*
X272018016Y-128692333D02*
X271923537Y-128643224D01*
X271923537Y-128643224D02*
X271876672Y-128594863D01*
X261515600Y-131067661D02*
X261531307Y-130067785D01*
X261531307Y-130067785D02*
X261912212Y-130073768D01*
X261912212Y-130073768D02*
X262006691Y-130122877D01*
X262006691Y-130122877D02*
X262053556Y-130171239D01*
X262053556Y-130171239D02*
X262099673Y-130267213D01*
X262099673Y-130267213D02*
X262097429Y-130410052D01*
X262097429Y-130410052D02*
X262048320Y-130504531D01*
X262048320Y-130504531D02*
X261999959Y-130551396D01*
X261999959Y-130551396D02*
X261903985Y-130597513D01*
X261903985Y-130597513D02*
X261523079Y-130591530D01*
X263039221Y-131091596D02*
X262467863Y-131082621D01*
X262753542Y-131087108D02*
X262769249Y-130087232D01*
X262769249Y-130087232D02*
X262671779Y-130228575D01*
X262671779Y-130228575D02*
X262575057Y-130322306D01*
X262575057Y-130322306D02*
X262479083Y-130368423D01*
X263515353Y-131099076D02*
X263705806Y-131102068D01*
X263705806Y-131102068D02*
X263801780Y-131055951D01*
X263801780Y-131055951D02*
X263850141Y-131009085D01*
X263850141Y-131009085D02*
X263947611Y-130867742D01*
X263947611Y-130867742D02*
X263998216Y-130678037D01*
X263998216Y-130678037D02*
X264004200Y-130297132D01*
X264004200Y-130297132D02*
X263958083Y-130201157D01*
X263958083Y-130201157D02*
X263911218Y-130152796D01*
X263911218Y-130152796D02*
X263816739Y-130103687D01*
X263816739Y-130103687D02*
X263626287Y-130100695D01*
X263626287Y-130100695D02*
X263530312Y-130146812D01*
X263530312Y-130146812D02*
X263481951Y-130193678D01*
X263481951Y-130193678D02*
X263432842Y-130288156D01*
X263432842Y-130288156D02*
X263429102Y-130526222D01*
X263429102Y-130526222D02*
X263475219Y-130622196D01*
X263475219Y-130622196D02*
X263522085Y-130670557D01*
X263522085Y-130670557D02*
X263616563Y-130719666D01*
X263616563Y-130719666D02*
X263807016Y-130722658D01*
X263807016Y-130722658D02*
X263902990Y-130676541D01*
X263902990Y-130676541D02*
X263951351Y-130629676D01*
X263951351Y-130629676D02*
X264000460Y-130535198D01*
X270771043Y-141374311D02*
X270786750Y-140374434D01*
X270786750Y-140374434D02*
X271167656Y-140380418D01*
X271167656Y-140380418D02*
X271262134Y-140429527D01*
X271262134Y-140429527D02*
X271308999Y-140477888D01*
X271308999Y-140477888D02*
X271355116Y-140573863D01*
X271355116Y-140573863D02*
X271352872Y-140716702D01*
X271352872Y-140716702D02*
X271303763Y-140811181D01*
X271303763Y-140811181D02*
X271255402Y-140858046D01*
X271255402Y-140858046D02*
X271159428Y-140904163D01*
X271159428Y-140904163D02*
X270778522Y-140898179D01*
X271922735Y-140820904D02*
X271828256Y-140771795D01*
X271828256Y-140771795D02*
X271781391Y-140723434D01*
X271781391Y-140723434D02*
X271735274Y-140627460D01*
X271735274Y-140627460D02*
X271736022Y-140579846D01*
X271736022Y-140579846D02*
X271785131Y-140485368D01*
X271785131Y-140485368D02*
X271833492Y-140438503D01*
X271833492Y-140438503D02*
X271929466Y-140392386D01*
X271929466Y-140392386D02*
X272119919Y-140395377D01*
X272119919Y-140395377D02*
X272214397Y-140444487D01*
X272214397Y-140444487D02*
X272261263Y-140492848D01*
X272261263Y-140492848D02*
X272307380Y-140588822D01*
X272307380Y-140588822D02*
X272306632Y-140636435D01*
X272306632Y-140636435D02*
X272257523Y-140730914D01*
X272257523Y-140730914D02*
X272209162Y-140777779D01*
X272209162Y-140777779D02*
X272113187Y-140823896D01*
X272113187Y-140823896D02*
X271922735Y-140820904D01*
X271922735Y-140820904D02*
X271826760Y-140867021D01*
X271826760Y-140867021D02*
X271778399Y-140913887D01*
X271778399Y-140913887D02*
X271729290Y-141008365D01*
X271729290Y-141008365D02*
X271726298Y-141198818D01*
X271726298Y-141198818D02*
X271772415Y-141294792D01*
X271772415Y-141294792D02*
X271819281Y-141343153D01*
X271819281Y-141343153D02*
X271913759Y-141392262D01*
X271913759Y-141392262D02*
X272104212Y-141395254D01*
X272104212Y-141395254D02*
X272200186Y-141349137D01*
X272200186Y-141349137D02*
X272248547Y-141302272D01*
X272248547Y-141302272D02*
X272297656Y-141207793D01*
X272297656Y-141207793D02*
X272300648Y-141017341D01*
X272300648Y-141017341D02*
X272254531Y-140921366D01*
X272254531Y-140921366D02*
X272207666Y-140873005D01*
X272207666Y-140873005D02*
X272113187Y-140823896D01*
X261555496Y-128527974D02*
X261571203Y-127528098D01*
X261571203Y-127528098D02*
X261952108Y-127534081D01*
X261952108Y-127534081D02*
X262046587Y-127583190D01*
X262046587Y-127583190D02*
X262093452Y-127631552D01*
X262093452Y-127631552D02*
X262139569Y-127727526D01*
X262139569Y-127727526D02*
X262137325Y-127870365D01*
X262137325Y-127870365D02*
X262088216Y-127964844D01*
X262088216Y-127964844D02*
X262039855Y-128011709D01*
X262039855Y-128011709D02*
X261943881Y-128057826D01*
X261943881Y-128057826D02*
X261562975Y-128051843D01*
X262521970Y-127638283D02*
X262570332Y-127591418D01*
X262570332Y-127591418D02*
X262666306Y-127545301D01*
X262666306Y-127545301D02*
X262904372Y-127549041D01*
X262904372Y-127549041D02*
X262998850Y-127598150D01*
X262998850Y-127598150D02*
X263045715Y-127646511D01*
X263045715Y-127646511D02*
X263091833Y-127742485D01*
X263091833Y-127742485D02*
X263090337Y-127837712D01*
X263090337Y-127837712D02*
X263040480Y-127979803D01*
X263040480Y-127979803D02*
X262460146Y-128542186D01*
X262460146Y-128542186D02*
X263079117Y-128551909D01*
X263713796Y-127561756D02*
X263809022Y-127563252D01*
X263809022Y-127563252D02*
X263903500Y-127612361D01*
X263903500Y-127612361D02*
X263950366Y-127660722D01*
X263950366Y-127660722D02*
X263996483Y-127756697D01*
X263996483Y-127756697D02*
X264041104Y-127947897D01*
X264041104Y-127947897D02*
X264037364Y-128185963D01*
X264037364Y-128185963D02*
X263986759Y-128375668D01*
X263986759Y-128375668D02*
X263937650Y-128470146D01*
X263937650Y-128470146D02*
X263889289Y-128517012D01*
X263889289Y-128517012D02*
X263793315Y-128563129D01*
X263793315Y-128563129D02*
X263698088Y-128561633D01*
X263698088Y-128561633D02*
X263603610Y-128512524D01*
X263603610Y-128512524D02*
X263556745Y-128464163D01*
X263556745Y-128464163D02*
X263510628Y-128368188D01*
X263510628Y-128368188D02*
X263466006Y-128176988D01*
X263466006Y-128176988D02*
X263469746Y-127938922D01*
X263469746Y-127938922D02*
X263520351Y-127749217D01*
X263520351Y-127749217D02*
X263569460Y-127654739D01*
X263569460Y-127654739D02*
X263617821Y-127607873D01*
X263617821Y-127607873D02*
X263713796Y-127561756D01*
X268061741Y-120056745D02*
X267967262Y-120007635D01*
X267967262Y-120007635D02*
X267824423Y-120005391D01*
X267824423Y-120005391D02*
X267680835Y-120050761D01*
X267680835Y-120050761D02*
X267584113Y-120144491D01*
X267584113Y-120144491D02*
X267535004Y-120238970D01*
X267535004Y-120238970D02*
X267484399Y-120428674D01*
X267484399Y-120428674D02*
X267482155Y-120571514D01*
X267482155Y-120571514D02*
X267526776Y-120762714D01*
X267526776Y-120762714D02*
X267572893Y-120858689D01*
X267572893Y-120858689D02*
X267666624Y-120955411D01*
X267666624Y-120955411D02*
X267808715Y-121005268D01*
X267808715Y-121005268D02*
X267903942Y-121006764D01*
X267903942Y-121006764D02*
X268047529Y-120961395D01*
X268047529Y-120961395D02*
X268095890Y-120914530D01*
X268095890Y-120914530D02*
X268101126Y-120581237D01*
X268101126Y-120581237D02*
X267910673Y-120578246D01*
X268522913Y-121016488D02*
X268538620Y-120016611D01*
X268538620Y-120016611D02*
X269094271Y-121025463D01*
X269094271Y-121025463D02*
X269109978Y-120025587D01*
X269570403Y-121032943D02*
X269586110Y-120033066D01*
X269586110Y-120033066D02*
X269824176Y-120036806D01*
X269824176Y-120036806D02*
X269966267Y-120086663D01*
X269966267Y-120086663D02*
X270059998Y-120183385D01*
X270059998Y-120183385D02*
X270106115Y-120279360D01*
X270106115Y-120279360D02*
X270150736Y-120470560D01*
X270150736Y-120470560D02*
X270148493Y-120613400D01*
X270148493Y-120613400D02*
X270097887Y-120803105D01*
X270097887Y-120803105D02*
X270048778Y-120897583D01*
X270048778Y-120897583D02*
X269952056Y-120991313D01*
X269952056Y-120991313D02*
X269808469Y-121036683D01*
X269808469Y-121036683D02*
X269570403Y-121032943D01*
X265361398Y-120966822D02*
X265035585Y-120485454D01*
X264790040Y-120957846D02*
X264805747Y-119957970D01*
X264805747Y-119957970D02*
X265186653Y-119963953D01*
X265186653Y-119963953D02*
X265281131Y-120013062D01*
X265281131Y-120013062D02*
X265327996Y-120061424D01*
X265327996Y-120061424D02*
X265374113Y-120157398D01*
X265374113Y-120157398D02*
X265371869Y-120300237D01*
X265371869Y-120300237D02*
X265322760Y-120394716D01*
X265322760Y-120394716D02*
X265274399Y-120441581D01*
X265274399Y-120441581D02*
X265178425Y-120487698D01*
X265178425Y-120487698D02*
X264797519Y-120481714D01*
X265743051Y-120925192D02*
X265885143Y-120975049D01*
X265885143Y-120975049D02*
X266123209Y-120978789D01*
X266123209Y-120978789D02*
X266219183Y-120932672D01*
X266219183Y-120932672D02*
X266267544Y-120885807D01*
X266267544Y-120885807D02*
X266316653Y-120791328D01*
X266316653Y-120791328D02*
X266318149Y-120696102D01*
X266318149Y-120696102D02*
X266272032Y-120600128D01*
X266272032Y-120600128D02*
X266225167Y-120551767D01*
X266225167Y-120551767D02*
X266130688Y-120502658D01*
X266130688Y-120502658D02*
X265940984Y-120452053D01*
X265940984Y-120452053D02*
X265846505Y-120402943D01*
X265846505Y-120402943D02*
X265799640Y-120354582D01*
X265799640Y-120354582D02*
X265753523Y-120258608D01*
X265753523Y-120258608D02*
X265755019Y-120163382D01*
X265755019Y-120163382D02*
X265804128Y-120068903D01*
X265804128Y-120068903D02*
X265852489Y-120022038D01*
X265852489Y-120022038D02*
X265948463Y-119975921D01*
X265948463Y-119975921D02*
X266186529Y-119979661D01*
X266186529Y-119979661D02*
X266328621Y-120029518D01*
X266615048Y-119986392D02*
X267186406Y-119995368D01*
X266885019Y-120990757D02*
X266900727Y-119990880D01*
X268700412Y-118478962D02*
X268716119Y-117479085D01*
X268716119Y-117479085D02*
X269097025Y-117485069D01*
X269097025Y-117485069D02*
X269191503Y-117534178D01*
X269191503Y-117534178D02*
X269238368Y-117582539D01*
X269238368Y-117582539D02*
X269284485Y-117678514D01*
X269284485Y-117678514D02*
X269282241Y-117821353D01*
X269282241Y-117821353D02*
X269233132Y-117915832D01*
X269233132Y-117915832D02*
X269184771Y-117962697D01*
X269184771Y-117962697D02*
X269088797Y-118008814D01*
X269088797Y-118008814D02*
X268707891Y-118002830D01*
X269906448Y-117497785D02*
X270001675Y-117499280D01*
X270001675Y-117499280D02*
X270096153Y-117548390D01*
X270096153Y-117548390D02*
X270143018Y-117596751D01*
X270143018Y-117596751D02*
X270189136Y-117692725D01*
X270189136Y-117692725D02*
X270233757Y-117883926D01*
X270233757Y-117883926D02*
X270230017Y-118121992D01*
X270230017Y-118121992D02*
X270179412Y-118311696D01*
X270179412Y-118311696D02*
X270130303Y-118406175D01*
X270130303Y-118406175D02*
X270081942Y-118453040D01*
X270081942Y-118453040D02*
X269985967Y-118499157D01*
X269985967Y-118499157D02*
X269890741Y-118497661D01*
X269890741Y-118497661D02*
X269796263Y-118448552D01*
X269796263Y-118448552D02*
X269749398Y-118400191D01*
X269749398Y-118400191D02*
X269703280Y-118304217D01*
X269703280Y-118304217D02*
X269658659Y-118113016D01*
X269658659Y-118113016D02*
X269662399Y-117874950D01*
X269662399Y-117874950D02*
X269713004Y-117685245D01*
X269713004Y-117685245D02*
X269762113Y-117590767D01*
X269762113Y-117590767D02*
X269810474Y-117543902D01*
X269810474Y-117543902D02*
X269906448Y-117497785D01*
X265201995Y-117471507D02*
X265107516Y-117422397D01*
X265107516Y-117422397D02*
X264964677Y-117420153D01*
X264964677Y-117420153D02*
X264821089Y-117465523D01*
X264821089Y-117465523D02*
X264724367Y-117559253D01*
X264724367Y-117559253D02*
X264675258Y-117653732D01*
X264675258Y-117653732D02*
X264624653Y-117843436D01*
X264624653Y-117843436D02*
X264622409Y-117986276D01*
X264622409Y-117986276D02*
X264667030Y-118177476D01*
X264667030Y-118177476D02*
X264713147Y-118273451D01*
X264713147Y-118273451D02*
X264806878Y-118370173D01*
X264806878Y-118370173D02*
X264948969Y-118420030D01*
X264948969Y-118420030D02*
X265044196Y-118421526D01*
X265044196Y-118421526D02*
X265187783Y-118376157D01*
X265187783Y-118376157D02*
X265236144Y-118329292D01*
X265236144Y-118329292D02*
X265241380Y-117995999D01*
X265241380Y-117995999D02*
X265050927Y-117993008D01*
X265663167Y-118431250D02*
X265678874Y-117431373D01*
X265678874Y-117431373D02*
X266234525Y-118440225D01*
X266234525Y-118440225D02*
X266250232Y-117440349D01*
X266710657Y-118447705D02*
X266726364Y-117447828D01*
X266726364Y-117447828D02*
X266964430Y-117451568D01*
X266964430Y-117451568D02*
X267106521Y-117501425D01*
X267106521Y-117501425D02*
X267200252Y-117598147D01*
X267200252Y-117598147D02*
X267246369Y-117694122D01*
X267246369Y-117694122D02*
X267290990Y-117885322D01*
X267290990Y-117885322D02*
X267288747Y-118028162D01*
X267288747Y-118028162D02*
X267238141Y-118217867D01*
X267238141Y-118217867D02*
X267189032Y-118312345D01*
X267189032Y-118312345D02*
X267092310Y-118406075D01*
X267092310Y-118406075D02*
X266948723Y-118451445D01*
X266948723Y-118451445D02*
X266710657Y-118447705D01*
X268705813Y-148172909D02*
X268819486Y-148212795D01*
X268819486Y-148212795D02*
X268856978Y-148251484D01*
X268856978Y-148251484D02*
X268893872Y-148328263D01*
X268893872Y-148328263D02*
X268892077Y-148442535D01*
X268892077Y-148442535D02*
X268852789Y-148518118D01*
X268852789Y-148518118D02*
X268814100Y-148555610D01*
X268814100Y-148555610D02*
X268737321Y-148592504D01*
X268737321Y-148592504D02*
X268432597Y-148587717D01*
X268432597Y-148587717D02*
X268445163Y-147787815D01*
X268445163Y-147787815D02*
X268711796Y-147792004D01*
X268711796Y-147792004D02*
X268787379Y-147831291D01*
X268787379Y-147831291D02*
X268824871Y-147869980D01*
X268824871Y-147869980D02*
X268861765Y-147946760D01*
X268861765Y-147946760D02*
X268860568Y-148022941D01*
X268860568Y-148022941D02*
X268821281Y-148098523D01*
X268821281Y-148098523D02*
X268782592Y-148136016D01*
X268782592Y-148136016D02*
X268705813Y-148172909D01*
X268705813Y-148172909D02*
X268439179Y-148168721D01*
X269197998Y-148371141D02*
X269578903Y-148377125D01*
X269118226Y-148598487D02*
X269397426Y-147802775D01*
X269397426Y-147802775D02*
X269651494Y-148606865D01*
X269816422Y-147809357D02*
X270273508Y-147816537D01*
X270032399Y-148612848D02*
X270044965Y-147812947D01*
X270335927Y-148693816D02*
X270945375Y-148703390D01*
X271137025Y-148630201D02*
X271149591Y-147830300D01*
X271149591Y-147830300D02*
X271454315Y-147835087D01*
X271454315Y-147835087D02*
X271529898Y-147874374D01*
X271529898Y-147874374D02*
X271567390Y-147913063D01*
X271567390Y-147913063D02*
X271604284Y-147989843D01*
X271604284Y-147989843D02*
X271602489Y-148104114D01*
X271602489Y-148104114D02*
X271563201Y-148179697D01*
X271563201Y-148179697D02*
X271524513Y-148217189D01*
X271524513Y-148217189D02*
X271447733Y-148254083D01*
X271447733Y-148254083D02*
X271143009Y-148249296D01*
X275036949Y-151085315D02*
X274555581Y-151411128D01*
X275027973Y-151656673D02*
X274028097Y-151640966D01*
X274028097Y-151640966D02*
X274034080Y-151260060D01*
X274034080Y-151260060D02*
X274083189Y-151165582D01*
X274083189Y-151165582D02*
X274131551Y-151118717D01*
X274131551Y-151118717D02*
X274227525Y-151072600D01*
X274227525Y-151072600D02*
X274370364Y-151074844D01*
X274370364Y-151074844D02*
X274464843Y-151123953D01*
X274464843Y-151123953D02*
X274511708Y-151172314D01*
X274511708Y-151172314D02*
X274557825Y-151268288D01*
X274557825Y-151268288D02*
X274551841Y-151649194D01*
X274995319Y-150703662D02*
X275045176Y-150561570D01*
X275045176Y-150561570D02*
X275048916Y-150323504D01*
X275048916Y-150323504D02*
X275002799Y-150227530D01*
X275002799Y-150227530D02*
X274955934Y-150179169D01*
X274955934Y-150179169D02*
X274861455Y-150130060D01*
X274861455Y-150130060D02*
X274766229Y-150128564D01*
X274766229Y-150128564D02*
X274670255Y-150174681D01*
X274670255Y-150174681D02*
X274621894Y-150221546D01*
X274621894Y-150221546D02*
X274572785Y-150316025D01*
X274572785Y-150316025D02*
X274522180Y-150505729D01*
X274522180Y-150505729D02*
X274473070Y-150600208D01*
X274473070Y-150600208D02*
X274424709Y-150647073D01*
X274424709Y-150647073D02*
X274328735Y-150693190D01*
X274328735Y-150693190D02*
X274233509Y-150691694D01*
X274233509Y-150691694D02*
X274139030Y-150642585D01*
X274139030Y-150642585D02*
X274092165Y-150594224D01*
X274092165Y-150594224D02*
X274046048Y-150498250D01*
X274046048Y-150498250D02*
X274049788Y-150260184D01*
X274049788Y-150260184D02*
X274099645Y-150118092D01*
X274056519Y-149831665D02*
X274065495Y-149260307D01*
X275060884Y-149561694D02*
X274061007Y-149545986D01*
D12*
%TO.C,PWR1*%
X270928288Y-111698301D02*
X270940697Y-110908398D01*
X270356635Y-109889099D02*
X264657339Y-109799567D01*
X269062024Y-112719113D02*
X267362233Y-112692410D01*
X266062394Y-112671991D02*
X265862418Y-112668849D01*
X264041548Y-110800018D02*
X264029139Y-111589920D01*
%TO.C,MCU1*%
X258037059Y-144589872D02*
X260696731Y-144631654D01*
X258517703Y-113993647D02*
X258037059Y-144589872D01*
X258517703Y-113993647D02*
X261177375Y-114035429D01*
X261177375Y-114035429D02*
X260696731Y-144631654D01*
X273275179Y-144829252D02*
X275934851Y-144871033D01*
X273714984Y-116832706D02*
X276374655Y-116874488D01*
X273755823Y-114233027D02*
X273275179Y-144829252D01*
X273755823Y-114233027D02*
X276415495Y-114274808D01*
X276415495Y-114274808D02*
X275934851Y-144871033D01*
D11*
%TO.C,RST1*%
X272793882Y-153502762D02*
X272888126Y-147503502D01*
X272793882Y-153502762D02*
X273043851Y-153506689D01*
X272888126Y-147503502D02*
X273138095Y-147507429D01*
X276293450Y-153557738D02*
X276043481Y-153553811D01*
X276293450Y-153557738D02*
X276387694Y-147558478D01*
X276387694Y-147558478D02*
X276137725Y-147554551D01*
%TO.C,S1*%
X162535132Y-159368326D02*
X167001322Y-159016829D01*
X162582208Y-159966477D02*
X162535132Y-159368326D01*
X162903890Y-164053838D02*
X162864660Y-163555379D01*
X167335097Y-163002930D02*
X167390018Y-163700772D01*
X167390018Y-163700772D02*
X162903890Y-164053838D01*
X167474213Y-158397819D02*
X167402030Y-157480655D01*
X167861259Y-156942967D02*
X167402030Y-157480655D01*
X170852011Y-156707589D02*
X167861259Y-156942967D01*
X171205077Y-161193717D02*
X168912167Y-161374173D01*
X171389700Y-157166818D02*
X170852011Y-156707589D01*
X171664306Y-160656029D02*
X171205077Y-161193717D01*
X167333527Y-162982991D02*
G75*
G02*
X168912167Y-161374173I1593728J15090D01*
G01*
X167474213Y-158397819D02*
G75*
G02*
X167001322Y-159016829I-545948J-73061D01*
G01*
%TO.C,S2*%
X161122868Y-141423814D02*
X165589058Y-141072317D01*
X161169944Y-142021965D02*
X161122868Y-141423814D01*
X161491626Y-146109326D02*
X161452396Y-145610867D01*
X165922833Y-145058418D02*
X165977754Y-145756260D01*
X165977754Y-145756260D02*
X161491626Y-146109326D01*
X166061949Y-140453307D02*
X165989766Y-139536143D01*
X166448995Y-138998455D02*
X165989766Y-139536143D01*
X169439747Y-138763077D02*
X166448995Y-138998455D01*
X169792813Y-143249205D02*
X167499903Y-143429661D01*
X169977436Y-139222306D02*
X169439747Y-138763077D01*
X170252042Y-142711517D02*
X169792813Y-143249205D01*
X165921263Y-145038479D02*
G75*
G02*
X167499903Y-143429661I1593728J15090D01*
G01*
X166061949Y-140453307D02*
G75*
G02*
X165589058Y-141072317I-545948J-73061D01*
G01*
%TO.C,S16*%
X219458991Y-172367341D02*
X219466844Y-171867403D01*
X219523391Y-168267847D02*
X219532815Y-167667921D01*
X219532815Y-167667921D02*
X224012262Y-167738289D01*
X223958435Y-172438024D02*
X219458991Y-172367341D01*
X223969431Y-171738110D02*
X223958435Y-172438024D01*
X224541308Y-167166529D02*
X224555759Y-166246642D01*
X225063551Y-165754558D02*
X224555759Y-166246642D01*
X227992498Y-170301124D02*
X225692782Y-170264998D01*
X228063181Y-165801680D02*
X225063551Y-165754558D01*
X228500290Y-169809040D02*
X227992498Y-170301124D01*
X228555266Y-166309472D02*
X228063181Y-165801680D01*
X223969745Y-171718113D02*
G75*
G02*
X225692782Y-170264998I1588077J-134962D01*
G01*
X224541308Y-167166529D02*
G75*
G02*
X224012262Y-167738289I-550404J-21356D01*
G01*
%TO.C,S17*%
X238428374Y-174465558D02*
X238436227Y-173965620D01*
X238492774Y-170366064D02*
X238502198Y-169766138D01*
X238502198Y-169766138D02*
X242981645Y-169836506D01*
X242927818Y-174536241D02*
X238428374Y-174465558D01*
X242938814Y-173836327D02*
X242927818Y-174536241D01*
X243510691Y-169264746D02*
X243525142Y-168344859D01*
X244032934Y-167852775D02*
X243525142Y-168344859D01*
X246961881Y-172399341D02*
X244662165Y-172363215D01*
X247032564Y-167899897D02*
X244032934Y-167852775D01*
X247469673Y-171907257D02*
X246961881Y-172399341D01*
X247524649Y-168407689D02*
X247032564Y-167899897D01*
X242939128Y-173816330D02*
G75*
G02*
X244662165Y-172363215I1588077J-134962D01*
G01*
X243510691Y-169264746D02*
G75*
G02*
X242981645Y-169836506I-550404J-21356D01*
G01*
%TO.C,S5*%
X180781852Y-124225492D02*
X185259642Y-124084771D01*
X180800699Y-124825196D02*
X180781852Y-124225492D01*
X180929483Y-128923172D02*
X180913778Y-128423419D01*
X185405275Y-128082169D02*
X185427262Y-128781824D01*
X185427262Y-128781824D02*
X180929483Y-128923172D01*
X185761167Y-123488724D02*
X185732269Y-122569178D01*
X186216317Y-122053719D02*
X185732269Y-122569178D01*
X189214837Y-121959487D02*
X186216317Y-122053719D01*
X189356185Y-126457267D02*
X187057320Y-126529511D01*
X189730295Y-122443535D02*
X189214837Y-121959487D01*
X189840233Y-125941808D02*
X189356185Y-126457267D01*
X185404647Y-128062179D02*
G75*
G02*
X187057320Y-126529512I1592669J-60002D01*
G01*
X185761167Y-123488724D02*
G75*
G02*
X185259642Y-124084771I-548785J-47262D01*
G01*
%TO.C,S10*%
X219868952Y-146270561D02*
X219876805Y-145770623D01*
X219933352Y-142171067D02*
X219942776Y-141571141D01*
X219942776Y-141571141D02*
X224422223Y-141641509D01*
X224368396Y-146341244D02*
X219868952Y-146270561D01*
X224379392Y-145641330D02*
X224368396Y-146341244D01*
X224951269Y-141069749D02*
X224965720Y-140149862D01*
X225473512Y-139657778D02*
X224965720Y-140149862D01*
X228402459Y-144204344D02*
X226102743Y-144168218D01*
X228473142Y-139704900D02*
X225473512Y-139657778D01*
X228910251Y-143712260D02*
X228402459Y-144204344D01*
X228965227Y-140212692D02*
X228473142Y-139704900D01*
X224379706Y-145621333D02*
G75*
G02*
X226102743Y-144168218I1588077J-134962D01*
G01*
X224951269Y-141069749D02*
G75*
G02*
X224422223Y-141641509I-550404J-21356D01*
G01*
%TO.C,S11*%
X220151684Y-128272781D02*
X220159537Y-127772843D01*
X220216084Y-124173287D02*
X220225508Y-123573361D01*
X220225508Y-123573361D02*
X224704955Y-123643729D01*
X224651128Y-128343464D02*
X220151684Y-128272781D01*
X224662124Y-127643550D02*
X224651128Y-128343464D01*
X225234001Y-123071969D02*
X225248452Y-122152082D01*
X225756244Y-121659998D02*
X225248452Y-122152082D01*
X228685191Y-126206564D02*
X226385475Y-126170438D01*
X228755874Y-121707120D02*
X225756244Y-121659998D01*
X229192983Y-125714480D02*
X228685191Y-126206564D01*
X229247959Y-122214912D02*
X228755874Y-121707120D01*
X224662438Y-127623553D02*
G75*
G02*
X226385475Y-126170438I1588077J-134962D01*
G01*
X225234001Y-123071969D02*
G75*
G02*
X224704955Y-123643729I-550404J-21356D01*
G01*
%TO.C,S14*%
X239092793Y-132170776D02*
X239100646Y-131670838D01*
X239157193Y-128071282D02*
X239166617Y-127471356D01*
X239166617Y-127471356D02*
X243646064Y-127541724D01*
X243592237Y-132241459D02*
X239092793Y-132170776D01*
X243603233Y-131541545D02*
X243592237Y-132241459D01*
X244175110Y-126969964D02*
X244189561Y-126050077D01*
X244697353Y-125557993D02*
X244189561Y-126050077D01*
X247626300Y-130104559D02*
X245326584Y-130068433D01*
X247696983Y-125605115D02*
X244697353Y-125557993D01*
X248134092Y-129612475D02*
X247626300Y-130104559D01*
X248189068Y-126112907D02*
X247696983Y-125605115D01*
X243603547Y-131521548D02*
G75*
G02*
X245326584Y-130068433I1588077J-134962D01*
G01*
X244175110Y-126969964D02*
G75*
G02*
X243646064Y-127541724I-550404J-21356D01*
G01*
%TO.C,S12*%
X220434415Y-110275002D02*
X220442268Y-109775064D01*
X220498815Y-106175508D02*
X220508239Y-105575582D01*
X220508239Y-105575582D02*
X224987686Y-105645950D01*
X224933859Y-110345685D02*
X220434415Y-110275002D01*
X224944855Y-109645771D02*
X224933859Y-110345685D01*
X225516732Y-105074190D02*
X225531183Y-104154303D01*
X226038975Y-103662219D02*
X225531183Y-104154303D01*
X228967922Y-108208785D02*
X226668206Y-108172659D01*
X229038605Y-103709341D02*
X226038975Y-103662219D01*
X229475714Y-107716701D02*
X228967922Y-108208785D01*
X229530690Y-104217133D02*
X229038605Y-103709341D01*
X224945169Y-109625774D02*
G75*
G02*
X226668206Y-108172659I1588077J-134962D01*
G01*
X225516732Y-105074190D02*
G75*
G02*
X224987686Y-105645950I-550404J-21356D01*
G01*
%TO.C,S7*%
X200941979Y-141472677D02*
X200949832Y-140972739D01*
X201006379Y-137373183D02*
X201015803Y-136773257D01*
X201015803Y-136773257D02*
X205495250Y-136843625D01*
X205441423Y-141543360D02*
X200941979Y-141472677D01*
X205452419Y-140843446D02*
X205441423Y-141543360D01*
X206024296Y-136271865D02*
X206038747Y-135351978D01*
X206546539Y-134859894D02*
X206038747Y-135351978D01*
X209475486Y-139406460D02*
X207175770Y-139370334D01*
X209546169Y-134907016D02*
X206546539Y-134859894D01*
X209983278Y-138914376D02*
X209475486Y-139406460D01*
X210038254Y-135414808D02*
X209546169Y-134907016D01*
X205452733Y-140823449D02*
G75*
G02*
X207175770Y-139370334I1588077J-134962D01*
G01*
X206024296Y-136271865D02*
G75*
G02*
X205495250Y-136843625I-550404J-21356D01*
G01*
%TO.C,S4*%
X181347246Y-142216610D02*
X185825036Y-142075889D01*
X181366093Y-142816314D02*
X181347246Y-142216610D01*
X181494877Y-146914290D02*
X181479172Y-146414537D01*
X185970669Y-146073287D02*
X185992656Y-146772942D01*
X185992656Y-146772942D02*
X181494877Y-146914290D01*
X186326561Y-141479842D02*
X186297663Y-140560296D01*
X186781711Y-140044837D02*
X186297663Y-140560296D01*
X189780231Y-139950605D02*
X186781711Y-140044837D01*
X189921579Y-144448385D02*
X187622714Y-144520629D01*
X190295689Y-140434653D02*
X189780231Y-139950605D01*
X190405627Y-143932926D02*
X189921579Y-144448385D01*
X185970041Y-146053297D02*
G75*
G02*
X187622714Y-144520630I1592669J-60002D01*
G01*
X186326561Y-141479842D02*
G75*
G02*
X185825036Y-142075889I-548785J-47262D01*
G01*
%TO.C,S9*%
X201507442Y-105477118D02*
X201515295Y-104977180D01*
X201571842Y-101377624D02*
X201581266Y-100777698D01*
X201581266Y-100777698D02*
X206060713Y-100848066D01*
X206006886Y-105547801D02*
X201507442Y-105477118D01*
X206017882Y-104847887D02*
X206006886Y-105547801D01*
X206589759Y-100276306D02*
X206604210Y-99356419D01*
X207112002Y-98864335D02*
X206604210Y-99356419D01*
X210040949Y-103410901D02*
X207741233Y-103374775D01*
X210111632Y-98911457D02*
X207112002Y-98864335D01*
X210548741Y-102918817D02*
X210040949Y-103410901D01*
X210603717Y-99419249D02*
X210111632Y-98911457D01*
X206018196Y-104827890D02*
G75*
G02*
X207741233Y-103374775I1588077J-134962D01*
G01*
X206589759Y-100276306D02*
G75*
G02*
X206060713Y-100848066I-550404J-21356D01*
G01*
%TO.C,S3*%
X159710605Y-123479302D02*
X164176795Y-123127805D01*
X159757681Y-124077453D02*
X159710605Y-123479302D01*
X160079363Y-128164814D02*
X160040133Y-127666355D01*
X164510570Y-127113906D02*
X164565491Y-127811748D01*
X164565491Y-127811748D02*
X160079363Y-128164814D01*
X164649686Y-122508795D02*
X164577503Y-121591631D01*
X165036732Y-121053943D02*
X164577503Y-121591631D01*
X168027484Y-120818565D02*
X165036732Y-121053943D01*
X168380550Y-125304693D02*
X166087640Y-125485149D01*
X168565173Y-121277794D02*
X168027484Y-120818565D01*
X168839779Y-124767005D02*
X168380550Y-125304693D01*
X164509000Y-127093967D02*
G75*
G02*
X166087640Y-125485149I1593728J15090D01*
G01*
X164649686Y-122508795D02*
G75*
G02*
X164176795Y-123127805I-545948J-73061D01*
G01*
%TO.C,S8*%
X201224710Y-123474898D02*
X201232563Y-122974960D01*
X201289110Y-119375404D02*
X201298534Y-118775478D01*
X201298534Y-118775478D02*
X205777981Y-118845846D01*
X205724154Y-123545581D02*
X201224710Y-123474898D01*
X205735150Y-122845667D02*
X205724154Y-123545581D01*
X206307027Y-118274086D02*
X206321478Y-117354199D01*
X206829270Y-116862115D02*
X206321478Y-117354199D01*
X209758217Y-121408681D02*
X207458501Y-121372555D01*
X209828900Y-116909237D02*
X206829270Y-116862115D01*
X210266009Y-120916597D02*
X209758217Y-121408681D01*
X210320985Y-117417029D02*
X209828900Y-116909237D01*
X205735464Y-122825670D02*
G75*
G02*
X207458501Y-121372555I1588077J-134962D01*
G01*
X206307027Y-118274086D02*
G75*
G02*
X205777981Y-118845846I-550404J-21356D01*
G01*
%TO.C,S6*%
X180216459Y-106234374D02*
X184694249Y-106093653D01*
X180235306Y-106834078D02*
X180216459Y-106234374D01*
X180364090Y-110932054D02*
X180348385Y-110432301D01*
X184839882Y-110091051D02*
X184861869Y-110790706D01*
X184861869Y-110790706D02*
X180364090Y-110932054D01*
X185195774Y-105497606D02*
X185166876Y-104578060D01*
X185650924Y-104062601D02*
X185166876Y-104578060D01*
X188649444Y-103968369D02*
X185650924Y-104062601D01*
X188790792Y-108466149D02*
X186491927Y-108538393D01*
X189164902Y-104452417D02*
X188649444Y-103968369D01*
X189274840Y-107950690D02*
X188790792Y-108466149D01*
X184839254Y-110071061D02*
G75*
G02*
X186491927Y-108538394I1592669J-60002D01*
G01*
X185195774Y-105497606D02*
G75*
G02*
X184694249Y-106093653I-548785J-47262D01*
G01*
%TO.C,S15*%
X239375525Y-114172997D02*
X239383378Y-113673059D01*
X239439925Y-110073503D02*
X239449349Y-109473577D01*
X239449349Y-109473577D02*
X243928796Y-109543945D01*
X243874969Y-114243680D02*
X239375525Y-114172997D01*
X243885965Y-113543766D02*
X243874969Y-114243680D01*
X244457842Y-108972185D02*
X244472293Y-108052298D01*
X244980085Y-107560214D02*
X244472293Y-108052298D01*
X247909032Y-112106780D02*
X245609316Y-112070654D01*
X247979715Y-107607336D02*
X244980085Y-107560214D01*
X248416824Y-111614696D02*
X247909032Y-112106780D01*
X248471800Y-108115128D02*
X247979715Y-107607336D01*
X243886279Y-113523769D02*
G75*
G02*
X245609316Y-112070654I1588077J-134962D01*
G01*
X244457842Y-108972185D02*
G75*
G02*
X243928796Y-109543945I-550404J-21356D01*
G01*
%TO.C,S18*%
X258556326Y-177107387D02*
X258900218Y-177725238D01*
X258973034Y-182944883D02*
X260200372Y-178636282D01*
X259378205Y-174222163D02*
X258556326Y-177107387D01*
X259550079Y-183109259D02*
X258973034Y-182944883D01*
X259785020Y-177977280D02*
X258900218Y-177725238D01*
X259996055Y-173878272D02*
X259378205Y-174222163D01*
X263362150Y-174837130D02*
X263706041Y-175454980D01*
X263493219Y-184232491D02*
X263012348Y-184095512D01*
X263706041Y-175454980D02*
X263075935Y-177666985D01*
X264052816Y-179712884D02*
X264726035Y-179904655D01*
X264726035Y-179904655D02*
X263493219Y-184232491D01*
X259785020Y-177977280D02*
G75*
G02*
X260200372Y-178636282I-121824J-537176D01*
G01*
X264033581Y-179707405D02*
G75*
G02*
X263075934Y-177666985I541386J1499033D01*
G01*
%TO.C,S13*%
X238810062Y-150168556D02*
X238817915Y-149668618D01*
X238874462Y-146069062D02*
X238883886Y-145469136D01*
X238883886Y-145469136D02*
X243363333Y-145539504D01*
X243309506Y-150239239D02*
X238810062Y-150168556D01*
X243320502Y-149539325D02*
X243309506Y-150239239D01*
X243892379Y-144967744D02*
X243906830Y-144047857D01*
X244414622Y-143555773D02*
X243906830Y-144047857D01*
X247343569Y-148102339D02*
X245043853Y-148066213D01*
X247414252Y-143602895D02*
X244414622Y-143555773D01*
X247851361Y-147610255D02*
X247343569Y-148102339D01*
X247906337Y-144110687D02*
X247414252Y-143602895D01*
X243320816Y-149519328D02*
G75*
G02*
X245043853Y-148066213I1588077J-134962D01*
G01*
X243892379Y-144967744D02*
G75*
G02*
X243363333Y-145539504I-550404J-21356D01*
G01*
%TD*%
M02*
