%TF.GenerationSoftware,KiCad,Pcbnew,8.0.8*%
%TF.CreationDate,2025-02-07T20:27:56+10:30*%
%TF.ProjectId,quasikeyboard,71756173-696b-4657-9962-6f6172642e6b,0.1*%
%TF.SameCoordinates,Original*%
%TF.FileFunction,Copper,L2,Bot*%
%TF.FilePolarity,Positive*%
%FSLAX46Y46*%
G04 Gerber Fmt 4.6, Leading zero omitted, Abs format (unit mm)*
G04 Created by KiCad (PCBNEW 8.0.8) date 2025-02-07 20:27:56*
%MOMM*%
%LPD*%
G01*
G04 APERTURE LIST*
G04 Aperture macros list*
%AMRotRect*
0 Rectangle, with rotation*
0 The origin of the aperture is its center*
0 $1 length*
0 $2 width*
0 $3 Rotation angle, in degrees counterclockwise*
0 Add horizontal line*
21,1,$1,$2,0,0,$3*%
%AMOutline5P*
0 Free polygon, 5 corners , with rotation*
0 The origin of the aperture is its center*
0 number of corners: always 5*
0 $1 to $10 corner X, Y*
0 $11 Rotation angle, in degrees counterclockwise*
0 create outline with 5 corners*
4,1,5,$1,$2,$3,$4,$5,$6,$7,$8,$9,$10,$1,$2,$11*%
%AMOutline6P*
0 Free polygon, 6 corners , with rotation*
0 The origin of the aperture is its center*
0 number of corners: always 6*
0 $1 to $12 corner X, Y*
0 $13 Rotation angle, in degrees counterclockwise*
0 create outline with 6 corners*
4,1,6,$1,$2,$3,$4,$5,$6,$7,$8,$9,$10,$11,$12,$1,$2,$13*%
%AMOutline7P*
0 Free polygon, 7 corners , with rotation*
0 The origin of the aperture is its center*
0 number of corners: always 7*
0 $1 to $14 corner X, Y*
0 $15 Rotation angle, in degrees counterclockwise*
0 create outline with 7 corners*
4,1,7,$1,$2,$3,$4,$5,$6,$7,$8,$9,$10,$11,$12,$13,$14,$1,$2,$15*%
%AMOutline8P*
0 Free polygon, 8 corners , with rotation*
0 The origin of the aperture is its center*
0 number of corners: always 8*
0 $1 to $16 corner X, Y*
0 $17 Rotation angle, in degrees counterclockwise*
0 create outline with 8 corners*
4,1,8,$1,$2,$3,$4,$5,$6,$7,$8,$9,$10,$11,$12,$13,$14,$15,$16,$1,$2,$17*%
%AMFreePoly0*
4,1,6,0.250000,0.000000,-0.250000,-0.625000,-0.500000,-0.625000,-0.500000,0.625000,-0.250000,0.625000,0.250000,0.000000,0.250000,0.000000,$1*%
%AMFreePoly1*
4,1,6,0.500000,-0.625000,-0.650000,-0.625000,-0.150000,0.000000,-0.650000,0.625000,0.500000,0.625000,0.500000,-0.625000,0.500000,-0.625000,$1*%
G04 Aperture macros list end*
%TA.AperFunction,ComponentPad*%
%ADD10C,1.900000*%
%TD*%
%TA.AperFunction,SMDPad,CuDef*%
%ADD11Outline5P,-1.300000X1.300000X1.300000X1.300000X1.300000X-1.300000X-0.117000X-1.300000X-1.300000X-0.117000X4.500000*%
%TD*%
%TA.AperFunction,SMDPad,CuDef*%
%ADD12RotRect,2.600000X2.600000X4.500000*%
%TD*%
%TA.AperFunction,SMDPad,CuDef*%
%ADD13Outline5P,-1.300000X1.300000X1.300000X1.300000X1.300000X-1.300000X-0.117000X-1.300000X-1.300000X-0.117000X1.800000*%
%TD*%
%TA.AperFunction,SMDPad,CuDef*%
%ADD14RotRect,2.600000X2.600000X1.800000*%
%TD*%
%TA.AperFunction,SMDPad,CuDef*%
%ADD15Outline5P,-1.300000X1.300000X1.300000X1.300000X1.300000X-1.300000X-0.117000X-1.300000X-1.300000X-0.117000X359.100000*%
%TD*%
%TA.AperFunction,SMDPad,CuDef*%
%ADD16RotRect,2.600000X2.600000X359.100000*%
%TD*%
%TA.AperFunction,SMDPad,CuDef*%
%ADD17Outline5P,-1.300000X1.300000X1.300000X1.300000X1.300000X-1.300000X-0.117000X-1.300000X-1.300000X-0.117000X74.100000*%
%TD*%
%TA.AperFunction,SMDPad,CuDef*%
%ADD18RotRect,2.600000X2.600000X74.100000*%
%TD*%
%TA.AperFunction,ComponentPad*%
%ADD19C,1.700000*%
%TD*%
%TA.AperFunction,ComponentPad*%
%ADD20C,0.800000*%
%TD*%
%TA.AperFunction,SMDPad,CuDef*%
%ADD21FreePoly0,359.100000*%
%TD*%
%TA.AperFunction,SMDPad,CuDef*%
%ADD22FreePoly1,359.100000*%
%TD*%
%TA.AperFunction,SMDPad,CuDef*%
%ADD23FreePoly1,179.100000*%
%TD*%
%TA.AperFunction,SMDPad,CuDef*%
%ADD24FreePoly0,179.100000*%
%TD*%
%TA.AperFunction,SMDPad,CuDef*%
%ADD25RotRect,1.000000X0.800000X359.100000*%
%TD*%
%TA.AperFunction,SMDPad,CuDef*%
%ADD26RotRect,0.700000X1.500000X359.100000*%
%TD*%
%TA.AperFunction,SMDPad,CuDef*%
%ADD27RotRect,1.500000X1.500000X359.100000*%
%TD*%
%TA.AperFunction,ComponentPad*%
%ADD28C,0.600000*%
%TD*%
%TA.AperFunction,ViaPad*%
%ADD29C,0.600000*%
%TD*%
%TA.AperFunction,Conductor*%
%ADD30C,0.200000*%
%TD*%
%TA.AperFunction,Conductor*%
%ADD31C,0.250000*%
%TD*%
G04 APERTURE END LIST*
D10*
%TO.P,S1,*%
%TO.N,*%
X175388651Y-169741829D03*
X165419478Y-170526420D03*
D11*
%TO.P,S1,1*%
%TO.N,matrix_pinky_bottom*%
X166268264Y-159325295D03*
D12*
%TO.P,S1,2*%
%TO.N,GND*%
X177955269Y-160612311D03*
%TD*%
D10*
%TO.P,S2,*%
%TO.N,*%
X173976387Y-151797317D03*
X164007214Y-152581908D03*
D11*
%TO.P,S2,1*%
%TO.N,matrix_pinky_home*%
X164856000Y-141380783D03*
D12*
%TO.P,S2,2*%
%TO.N,GND*%
X176543005Y-142667799D03*
%TD*%
D10*
%TO.P,S3,*%
%TO.N,*%
X172564124Y-133852805D03*
X162594951Y-134637396D03*
D11*
%TO.P,S3,1*%
%TO.N,matrix_pinky_top*%
X163443737Y-123436271D03*
D12*
%TO.P,S3,2*%
%TO.N,GND*%
X175130742Y-124723287D03*
%TD*%
D10*
%TO.P,S4,*%
%TO.N,*%
X193697837Y-153184080D03*
X183702772Y-153498188D03*
D13*
%TO.P,S4,1*%
%TO.N,matrix_ring_bottom*%
X185078261Y-142349481D03*
D14*
%TO.P,S4,2*%
%TO.N,GND*%
X196691665Y-144185601D03*
%TD*%
D10*
%TO.P,S5,*%
%TO.N,*%
X193132443Y-135192962D03*
X183137378Y-135507070D03*
D13*
%TO.P,S5,1*%
%TO.N,matrix_ring_home*%
X184512867Y-124358363D03*
D14*
%TO.P,S5,2*%
%TO.N,GND*%
X196126271Y-126194483D03*
%TD*%
D10*
%TO.P,S6,*%
%TO.N,*%
X192567050Y-117201844D03*
X182571985Y-117515952D03*
D13*
%TO.P,S6,1*%
%TO.N,matrix_ring_top*%
X183947474Y-106367245D03*
D14*
%TO.P,S6,2*%
%TO.N,GND*%
X195560878Y-108203365D03*
%TD*%
D10*
%TO.P,S7,*%
%TO.N,*%
X212836044Y-148310344D03*
X202837278Y-148153271D03*
D15*
%TO.P,S7,1*%
%TO.N,matrix_middle_bottom*%
X204736417Y-137081736D03*
D16*
%TO.P,S7,2*%
%TO.N,GND*%
X216250436Y-139462884D03*
%TD*%
D10*
%TO.P,S8,*%
%TO.N,*%
X213118775Y-130312565D03*
X203120009Y-130155492D03*
D15*
%TO.P,S8,1*%
%TO.N,matrix_middle_home*%
X205019148Y-119083957D03*
D16*
%TO.P,S8,2*%
%TO.N,GND*%
X216533167Y-121465105D03*
%TD*%
D10*
%TO.P,S9,*%
%TO.N,*%
X213401507Y-112314785D03*
X203402741Y-112157712D03*
D15*
%TO.P,S9,1*%
%TO.N,matrix_middle_top*%
X205301880Y-101086177D03*
D16*
%TO.P,S9,2*%
%TO.N,GND*%
X216815899Y-103467325D03*
%TD*%
D10*
%TO.P,S10,*%
%TO.N,*%
X231763017Y-153108228D03*
X221764251Y-152951155D03*
D15*
%TO.P,S10,1*%
%TO.N,matrix_index_bottom*%
X223663390Y-141879620D03*
D16*
%TO.P,S10,2*%
%TO.N,GND*%
X235177409Y-144260768D03*
%TD*%
D10*
%TO.P,S11,*%
%TO.N,*%
X232045749Y-135110448D03*
X222046983Y-134953375D03*
D15*
%TO.P,S11,1*%
%TO.N,matrix_index_home*%
X223946122Y-123881840D03*
D16*
%TO.P,S11,2*%
%TO.N,GND*%
X235460141Y-126262988D03*
%TD*%
D10*
%TO.P,S12,*%
%TO.N,*%
X232328480Y-117112669D03*
X222329714Y-116955596D03*
D15*
%TO.P,S12,1*%
%TO.N,matrix_index_top*%
X224228853Y-105884061D03*
D16*
%TO.P,S12,2*%
%TO.N,GND*%
X235742872Y-108265209D03*
%TD*%
D10*
%TO.P,S13,*%
%TO.N,*%
X250704127Y-157006223D03*
X240705361Y-156849150D03*
D15*
%TO.P,S13,1*%
%TO.N,matrix_inner_bottom*%
X242604500Y-145777615D03*
D16*
%TO.P,S13,2*%
%TO.N,GND*%
X254118519Y-148158763D03*
%TD*%
D10*
%TO.P,S14,*%
%TO.N,*%
X250986858Y-139008443D03*
X240988092Y-138851370D03*
D15*
%TO.P,S14,1*%
%TO.N,matrix_inner_home*%
X242887231Y-127779835D03*
D16*
%TO.P,S14,2*%
%TO.N,GND*%
X254401250Y-130160983D03*
%TD*%
D10*
%TO.P,S15,*%
%TO.N,*%
X251269590Y-121010664D03*
X241270824Y-120853591D03*
D15*
%TO.P,S15,1*%
%TO.N,matrix_inner_top*%
X243169963Y-109782056D03*
D16*
%TO.P,S15,2*%
%TO.N,GND*%
X254683982Y-112163204D03*
%TD*%
D10*
%TO.P,S16,*%
%TO.N,*%
X231353056Y-179205008D03*
X221354290Y-179047935D03*
D15*
%TO.P,S16,1*%
%TO.N,thumb_innit*%
X223253429Y-167976400D03*
D16*
%TO.P,S16,2*%
%TO.N,GND*%
X234767448Y-170357548D03*
%TD*%
D10*
%TO.P,S17,*%
%TO.N,*%
X250322439Y-181303225D03*
X240323673Y-181146152D03*
D15*
%TO.P,S17,1*%
%TO.N,thumb_middle*%
X242222812Y-170074617D03*
D16*
%TO.P,S17,2*%
%TO.N,GND*%
X253736831Y-172455765D03*
%TD*%
D10*
%TO.P,S18,*%
%TO.N,*%
X273176309Y-174513424D03*
X270436717Y-184130838D03*
D17*
%TO.P,S18,1*%
%TO.N,thumb_reachy*%
X260233968Y-179430886D03*
D18*
%TO.P,S18,2*%
%TO.N,GND*%
X265514028Y-168925485D03*
%TD*%
D19*
%TO.P,MCU1,24*%
%TO.N,MCU1_24*%
X259834659Y-114834437D03*
%TO.P,MCU1,1*%
%TO.N,MCU1_1*%
X275072779Y-115073817D03*
D20*
%TO.P,MCU1,124*%
%TO.N,RAW*%
X264054138Y-114900722D03*
%TO.P,MCU1,101*%
%TO.N,matrix_inner_home*%
X270853299Y-115007532D03*
D21*
%TO.P,MCU1,24*%
%TO.N,MCU1_24*%
X261954397Y-114867737D03*
D22*
%TO.P,MCU1,101*%
%TO.N,matrix_inner_home*%
X262679308Y-114879124D03*
D23*
%TO.P,MCU1,124*%
%TO.N,RAW*%
X272228130Y-115029129D03*
D24*
%TO.P,MCU1,1*%
%TO.N,MCU1_1*%
X272953040Y-115040517D03*
D19*
%TO.P,MCU1,23*%
%TO.N,MCU1_23*%
X259794762Y-117374124D03*
%TO.P,MCU1,2*%
%TO.N,MCU1_2*%
X275032882Y-117613503D03*
D20*
%TO.P,MCU1,123*%
%TO.N,GND*%
X264014242Y-117440409D03*
%TO.P,MCU1,102*%
%TO.N,thumb_innit*%
X270813403Y-117547218D03*
D21*
%TO.P,MCU1,23*%
%TO.N,MCU1_23*%
X261914501Y-117407423D03*
D22*
%TO.P,MCU1,102*%
%TO.N,thumb_innit*%
X262639411Y-117418811D03*
D23*
%TO.P,MCU1,123*%
%TO.N,GND*%
X272188233Y-117568816D03*
D24*
%TO.P,MCU1,2*%
%TO.N,MCU1_2*%
X272913144Y-117580204D03*
D19*
%TO.P,MCU1,22*%
%TO.N,MCU1_22*%
X259754866Y-119913810D03*
%TO.P,MCU1,3*%
%TO.N,MCU1_3*%
X274992986Y-120153190D03*
D20*
%TO.P,MCU1,122*%
%TO.N,RST*%
X263974345Y-119980095D03*
%TO.P,MCU1,103*%
%TO.N,GND*%
X270773506Y-120086905D03*
D21*
%TO.P,MCU1,22*%
%TO.N,MCU1_22*%
X261874604Y-119947110D03*
D22*
%TO.P,MCU1,103*%
%TO.N,GND*%
X262599515Y-119958498D03*
D23*
%TO.P,MCU1,122*%
%TO.N,RST*%
X272148337Y-120108503D03*
D24*
%TO.P,MCU1,3*%
%TO.N,MCU1_3*%
X272873247Y-120119890D03*
D19*
%TO.P,MCU1,21*%
%TO.N,MCU1_21*%
X259714969Y-122453497D03*
%TO.P,MCU1,4*%
%TO.N,MCU1_4*%
X274953089Y-122692876D03*
D20*
%TO.P,MCU1,121*%
%TO.N,VCC*%
X263934449Y-122519782D03*
%TO.P,MCU1,104*%
%TO.N,GND*%
X270733610Y-122626592D03*
D21*
%TO.P,MCU1,21*%
%TO.N,MCU1_21*%
X261834708Y-122486796D03*
D22*
%TO.P,MCU1,104*%
%TO.N,GND*%
X262559618Y-122498184D03*
D23*
%TO.P,MCU1,121*%
%TO.N,VCC*%
X272108440Y-122648189D03*
D24*
%TO.P,MCU1,4*%
%TO.N,MCU1_4*%
X272833351Y-122659577D03*
D19*
%TO.P,MCU1,20*%
%TO.N,MCU1_20*%
X259675073Y-124993184D03*
%TO.P,MCU1,5*%
%TO.N,MCU1_5*%
X274913193Y-125232563D03*
D20*
%TO.P,MCU1,120*%
%TO.N,matrix_inner_top*%
X263894552Y-125059468D03*
%TO.P,MCU1,105*%
%TO.N,matrix_pinky_bottom*%
X270693713Y-125166278D03*
D21*
%TO.P,MCU1,20*%
%TO.N,MCU1_20*%
X261794811Y-125026483D03*
D22*
%TO.P,MCU1,105*%
%TO.N,matrix_pinky_bottom*%
X262519722Y-125037871D03*
D23*
%TO.P,MCU1,120*%
%TO.N,matrix_inner_top*%
X272068544Y-125187876D03*
D24*
%TO.P,MCU1,5*%
%TO.N,MCU1_5*%
X272793454Y-125199264D03*
D19*
%TO.P,MCU1,19*%
%TO.N,MCU1_19*%
X259635176Y-127532870D03*
%TO.P,MCU1,6*%
%TO.N,MCU1_6*%
X274873296Y-127772250D03*
D20*
%TO.P,MCU1,119*%
%TO.N,matrix_index_top*%
X263854655Y-127599155D03*
%TO.P,MCU1,106*%
%TO.N,matrix_ring_bottom*%
X270653817Y-127705965D03*
D21*
%TO.P,MCU1,19*%
%TO.N,MCU1_19*%
X261754915Y-127566170D03*
D22*
%TO.P,MCU1,106*%
%TO.N,matrix_ring_bottom*%
X262479825Y-127577558D03*
D23*
%TO.P,MCU1,119*%
%TO.N,matrix_index_top*%
X272028647Y-127727562D03*
D24*
%TO.P,MCU1,6*%
%TO.N,MCU1_6*%
X272753557Y-127738950D03*
D19*
%TO.P,MCU1,18*%
%TO.N,MCU1_18*%
X259595279Y-130072557D03*
%TO.P,MCU1,7*%
%TO.N,MCU1_7*%
X274833399Y-130311936D03*
D20*
%TO.P,MCU1,118*%
%TO.N,matrix_middle_top*%
X263814759Y-130138842D03*
%TO.P,MCU1,107*%
%TO.N,matrix_middle_bottom*%
X270613920Y-130245652D03*
D21*
%TO.P,MCU1,18*%
%TO.N,MCU1_18*%
X261715018Y-130105856D03*
D22*
%TO.P,MCU1,107*%
%TO.N,matrix_middle_bottom*%
X262439928Y-130117244D03*
D23*
%TO.P,MCU1,118*%
%TO.N,matrix_middle_top*%
X271988750Y-130267249D03*
D24*
%TO.P,MCU1,7*%
%TO.N,MCU1_7*%
X272713661Y-130278637D03*
D19*
%TO.P,MCU1,17*%
%TO.N,MCU1_17*%
X259555383Y-132612244D03*
%TO.P,MCU1,8*%
%TO.N,MCU1_8*%
X274793503Y-132851623D03*
D20*
%TO.P,MCU1,117*%
%TO.N,matrix_ring_top*%
X263774862Y-132678528D03*
%TO.P,MCU1,108*%
%TO.N,matrix_index_bottom*%
X270574023Y-132785338D03*
D21*
%TO.P,MCU1,17*%
%TO.N,MCU1_17*%
X261675121Y-132645543D03*
D22*
%TO.P,MCU1,108*%
%TO.N,matrix_index_bottom*%
X262400032Y-132656931D03*
D23*
%TO.P,MCU1,117*%
%TO.N,matrix_ring_top*%
X271948854Y-132806936D03*
D24*
%TO.P,MCU1,8*%
%TO.N,MCU1_8*%
X272673764Y-132818324D03*
D19*
%TO.P,MCU1,16*%
%TO.N,MCU1_16*%
X259515486Y-135151930D03*
%TO.P,MCU1,9*%
%TO.N,MCU1_9*%
X274753606Y-135391310D03*
D20*
%TO.P,MCU1,116*%
%TO.N,matrix_pinky_home*%
X263734966Y-135218215D03*
%TO.P,MCU1,109*%
%TO.N,matrix_inner_bottom*%
X270534127Y-135325025D03*
D21*
%TO.P,MCU1,16*%
%TO.N,MCU1_16*%
X261635225Y-135185230D03*
D22*
%TO.P,MCU1,109*%
%TO.N,matrix_inner_bottom*%
X262360135Y-135196617D03*
D23*
%TO.P,MCU1,116*%
%TO.N,matrix_pinky_home*%
X271908957Y-135346622D03*
D24*
%TO.P,MCU1,9*%
%TO.N,MCU1_9*%
X272633868Y-135358010D03*
D19*
%TO.P,MCU1,15*%
%TO.N,MCU1_15*%
X259475590Y-137691617D03*
%TO.P,MCU1,10*%
%TO.N,MCU1_10*%
X274713710Y-137930996D03*
D20*
%TO.P,MCU1,115*%
%TO.N,matrix_ring_home*%
X263695069Y-137757902D03*
%TO.P,MCU1,110*%
%TO.N,matrix_pinky_top*%
X270494230Y-137864711D03*
D21*
%TO.P,MCU1,15*%
%TO.N,MCU1_15*%
X261595328Y-137724916D03*
D22*
%TO.P,MCU1,110*%
%TO.N,matrix_pinky_top*%
X262320239Y-137736304D03*
D23*
%TO.P,MCU1,115*%
%TO.N,matrix_ring_home*%
X271869061Y-137886309D03*
D24*
%TO.P,MCU1,10*%
%TO.N,MCU1_10*%
X272593971Y-137897697D03*
D19*
%TO.P,MCU1,14*%
%TO.N,MCU1_14*%
X259435693Y-140231303D03*
%TO.P,MCU1,11*%
%TO.N,MCU1_11*%
X274673813Y-140470683D03*
D20*
%TO.P,MCU1,114*%
%TO.N,matrix_middle_home*%
X263655173Y-140297588D03*
%TO.P,MCU1,111*%
%TO.N,thumb_middle*%
X270454334Y-140404398D03*
D21*
%TO.P,MCU1,14*%
%TO.N,MCU1_14*%
X261555432Y-140264603D03*
D22*
%TO.P,MCU1,111*%
%TO.N,thumb_middle*%
X262280342Y-140275991D03*
D23*
%TO.P,MCU1,114*%
%TO.N,matrix_middle_home*%
X271829164Y-140425996D03*
D24*
%TO.P,MCU1,11*%
%TO.N,MCU1_11*%
X272554075Y-140437383D03*
D19*
%TO.P,MCU1,13*%
%TO.N,MCU1_13*%
X259395797Y-142770990D03*
%TO.P,MCU1,12*%
%TO.N,MCU1_12*%
X274633916Y-143010370D03*
D20*
%TO.P,MCU1,113*%
%TO.N,matrix_index_home*%
X263615276Y-142837275D03*
%TO.P,MCU1,112*%
%TO.N,thumb_reachy*%
X270414437Y-142944085D03*
D21*
%TO.P,MCU1,13*%
%TO.N,MCU1_13*%
X261515535Y-142804290D03*
D22*
%TO.P,MCU1,112*%
%TO.N,thumb_reachy*%
X262240446Y-142815677D03*
D23*
%TO.P,MCU1,113*%
%TO.N,matrix_index_home*%
X271789267Y-142965682D03*
D24*
%TO.P,MCU1,12*%
%TO.N,MCU1_12*%
X272514178Y-142977070D03*
%TD*%
D19*
%TO.P,RST1,2*%
%TO.N,GND*%
X274539739Y-153780219D03*
%TO.P,RST1,1*%
%TO.N,RST*%
X274641837Y-147281021D03*
%TD*%
D25*
%TO.P,PWR1,*%
%TO.N,*%
X263822017Y-112041722D03*
X263856730Y-109831995D03*
X271121116Y-112156386D03*
X271155829Y-109946658D03*
D26*
%TO.P,PWR1,1*%
%TO.N,BAT_P*%
X265211634Y-112713632D03*
%TO.P,PWR1,2*%
%TO.N,RAW*%
X268211264Y-112760754D03*
%TO.P,PWR1,3*%
%TO.N,N/C*%
X269711079Y-112784315D03*
%TD*%
D27*
%TO.P,PAD1,1*%
%TO.N,GND*%
X263810118Y-150361263D03*
%TD*%
%TO.P,PAD2,1*%
%TO.N,BAT_P*%
X270109341Y-150460219D03*
%TD*%
D28*
%TO.P,REF\u002A\u002A,1*%
%TO.N,BAT_P*%
X266926352Y-152535479D03*
%TD*%
D29*
%TO.N,matrix_pinky_bottom*%
X169695971Y-161136945D03*
%TO.N,GND*%
X169758738Y-161934479D03*
%TO.N,matrix_pinky_home*%
X168283707Y-143192433D03*
%TO.N,GND*%
X168346475Y-143989967D03*
%TO.N,matrix_pinky_top*%
X166871444Y-125247921D03*
%TO.N,GND*%
X166934211Y-126045455D03*
%TO.N,matrix_ring_bottom*%
X188416822Y-144320587D03*
%TO.N,GND*%
X188441951Y-145120192D03*
%TO.N,matrix_ring_home*%
X187851429Y-126329469D03*
%TO.N,GND*%
X187876557Y-127129074D03*
%TO.N,matrix_ring_top*%
X187286035Y-108338351D03*
%TO.N,GND*%
X187311164Y-109137956D03*
%TO.N,matrix_middle_bottom*%
X207978420Y-139207921D03*
%TO.N,GND*%
X207965854Y-140007823D03*
%TO.N,matrix_middle_home*%
X208261151Y-121210142D03*
%TO.N,GND*%
X208248585Y-122010043D03*
%TO.N,matrix_middle_top*%
X208543883Y-103212362D03*
%TO.N,GND*%
X208531317Y-104012264D03*
%TO.N,matrix_index_bottom*%
X226905393Y-144005805D03*
%TO.N,GND*%
X226892827Y-144805706D03*
%TO.N,matrix_index_home*%
X227188124Y-126008025D03*
%TO.N,GND*%
X227175559Y-126807927D03*
%TO.N,matrix_index_top*%
X227470856Y-108010246D03*
%TO.N,GND*%
X227458290Y-108810147D03*
%TO.N,matrix_inner_bottom*%
X245846502Y-147903800D03*
%TO.N,GND*%
X245833937Y-148703701D03*
%TO.N,matrix_inner_home*%
X246129234Y-129906020D03*
%TO.N,GND*%
X246116668Y-130705922D03*
%TO.N,matrix_inner_top*%
X246411966Y-111908241D03*
%TO.N,GND*%
X246399400Y-112708142D03*
%TO.N,thumb_innit*%
X226495432Y-170102585D03*
%TO.N,GND*%
X226482866Y-170902486D03*
%TO.N,thumb_middle*%
X245464815Y-172200802D03*
%TO.N,GND*%
X245452249Y-173000703D03*
%TO.N,thumb_reachy*%
X263126797Y-176849649D03*
%TO.N,GND*%
X263896190Y-177068816D03*
%TD*%
D30*
%TO.N,matrix_pinky_bottom*%
X168499670Y-161231096D02*
X169695971Y-161136945D01*
X166268264Y-159325295D02*
X168499670Y-161231096D01*
%TO.N,GND*%
X171984810Y-162941929D02*
X170716941Y-161859067D01*
X176252448Y-162606059D02*
X171984810Y-162941929D01*
X170716941Y-161859067D02*
X169758738Y-161934479D01*
X177955269Y-160612311D02*
X176252448Y-162606059D01*
%TO.N,matrix_pinky_home*%
X167087407Y-143286584D02*
X168283707Y-143192433D01*
X164856000Y-141380783D02*
X167087407Y-143286584D01*
%TO.N,GND*%
X170572546Y-144997417D02*
X169304678Y-143914555D01*
X174840184Y-144661547D02*
X170572546Y-144997417D01*
X169304678Y-143914555D02*
X168346475Y-143989967D01*
X176543006Y-142667799D02*
X174840184Y-144661547D01*
%TO.N,matrix_pinky_top*%
X165675143Y-125342072D02*
X166871444Y-125247921D01*
X163443737Y-123436271D02*
X165675143Y-125342072D01*
%TO.N,GND*%
X169160283Y-127052905D02*
X167892414Y-125970043D01*
X173427920Y-126717035D02*
X169160283Y-127052905D01*
X167892414Y-125970043D02*
X166934211Y-126045455D01*
X175130742Y-124723287D02*
X173427920Y-126717035D01*
%TO.N,matrix_ring_bottom*%
X187217414Y-144358280D02*
X188416822Y-144320587D01*
X185078261Y-142349481D02*
X187217414Y-144358280D01*
%TO.N,GND*%
X190618094Y-146231386D02*
X189402643Y-145090001D01*
X194896816Y-146096922D02*
X190618094Y-146231386D01*
X189402643Y-145090001D02*
X188441951Y-145120192D01*
X196691665Y-144185601D02*
X194896816Y-146096922D01*
%TO.N,matrix_ring_home*%
X186652021Y-126367162D02*
X187851429Y-126329469D01*
X184512867Y-124358363D02*
X186652021Y-126367162D01*
%TO.N,GND*%
X190052701Y-128240268D02*
X188837249Y-127098883D01*
X194331422Y-128105804D02*
X190052701Y-128240268D01*
X188837249Y-127098883D02*
X187876557Y-127129074D01*
X196126272Y-126194483D02*
X194331422Y-128105804D01*
%TO.N,matrix_ring_top*%
X186086627Y-108376044D02*
X187286035Y-108338351D01*
X183947474Y-106367245D02*
X186086627Y-108376044D01*
%TO.N,GND*%
X189487307Y-110249150D02*
X188271855Y-109107765D01*
X193766028Y-110114686D02*
X189487307Y-110249150D01*
X188271855Y-109107765D02*
X187311164Y-109137956D01*
X195560878Y-108203365D02*
X193766028Y-110114686D01*
%TO.N,matrix_middle_bottom*%
X206778568Y-139189072D02*
X207978420Y-139207921D01*
X204736416Y-137081736D02*
X206778568Y-139189072D01*
%TO.N,GND*%
X210087237Y-141220293D02*
X208926901Y-140022920D01*
X214367543Y-141287534D02*
X210087237Y-141220293D01*
X208926901Y-140022920D02*
X207965854Y-140007823D01*
X216250435Y-139462884D02*
X214367543Y-141287534D01*
%TO.N,matrix_middle_home*%
X207061299Y-121191293D02*
X208261151Y-121210142D01*
X205019148Y-119083956D02*
X207061299Y-121191293D01*
%TO.N,GND*%
X210369968Y-123222514D02*
X209209633Y-122025140D01*
X214650274Y-123289754D02*
X210369968Y-123222514D01*
X209209633Y-122025140D02*
X208248585Y-122010043D01*
X216533167Y-121465104D02*
X214650274Y-123289754D01*
%TO.N,matrix_middle_top*%
X207344031Y-103193514D02*
X208543883Y-103212362D01*
X205301880Y-101086177D02*
X207344031Y-103193514D01*
%TO.N,GND*%
X210652700Y-105224735D02*
X209492365Y-104027361D01*
X214933006Y-105291975D02*
X210652700Y-105224735D01*
X209492365Y-104027361D02*
X208531317Y-104012264D01*
X216815899Y-103467325D02*
X214933006Y-105291975D01*
%TO.N,matrix_index_bottom*%
X225705541Y-143986956D02*
X226905393Y-144005805D01*
X223663389Y-141879620D02*
X225705541Y-143986956D01*
%TO.N,GND*%
X229014210Y-146018177D02*
X227853874Y-144820804D01*
X233294516Y-146085418D02*
X229014210Y-146018177D01*
X227853874Y-144820804D02*
X226892827Y-144805706D01*
X235177408Y-144260768D02*
X233294516Y-146085418D01*
%TO.N,matrix_index_home*%
X225988272Y-125989177D02*
X227188124Y-126008025D01*
X223946121Y-123881840D02*
X225988272Y-125989177D01*
%TO.N,GND*%
X229296942Y-128020398D02*
X228136606Y-126823024D01*
X233577247Y-128087638D02*
X229296942Y-128020398D01*
X228136606Y-126823024D02*
X227175559Y-126807927D01*
X235460140Y-126262988D02*
X233577247Y-128087638D01*
%TO.N,matrix_index_top*%
X226271004Y-107991397D02*
X227470856Y-108010246D01*
X224228853Y-105884061D02*
X226271004Y-107991397D01*
%TO.N,GND*%
X229579673Y-110022618D02*
X228419338Y-108825245D01*
X233859979Y-110089859D02*
X229579673Y-110022618D01*
X228419338Y-108825245D02*
X227458290Y-108810147D01*
X235742872Y-108265209D02*
X233859979Y-110089859D01*
%TO.N,matrix_inner_bottom*%
X244646650Y-147884951D02*
X245846502Y-147903800D01*
X242604499Y-145777614D02*
X244646650Y-147884951D01*
%TO.N,GND*%
X247955320Y-149916172D02*
X246794984Y-148718799D01*
X252235625Y-149983412D02*
X247955320Y-149916172D01*
X246794984Y-148718799D02*
X245833937Y-148703701D01*
X254118518Y-148158763D02*
X252235625Y-149983412D01*
%TO.N,matrix_inner_home*%
X244929382Y-129887172D02*
X246129234Y-129906020D01*
X242887231Y-127779835D02*
X244929382Y-129887172D01*
%TO.N,GND*%
X248238051Y-131918393D02*
X247077716Y-130721019D01*
X252518357Y-131985633D02*
X248238051Y-131918393D01*
X247077716Y-130721019D02*
X246116668Y-130705922D01*
X254401250Y-130160983D02*
X252518357Y-131985633D01*
%TO.N,matrix_inner_top*%
X245212114Y-111889392D02*
X246411966Y-111908241D01*
X243169963Y-109782056D02*
X245212114Y-111889392D01*
%TO.N,GND*%
X248520783Y-113920613D02*
X247360447Y-112723240D01*
X252801089Y-113987854D02*
X248520783Y-113920613D01*
X247360447Y-112723240D02*
X246399400Y-112708142D01*
X254683982Y-112163204D02*
X252801089Y-113987854D01*
%TO.N,thumb_innit*%
X225295580Y-170083736D02*
X226495432Y-170102585D01*
X223253428Y-167976400D02*
X225295580Y-170083736D01*
%TO.N,GND*%
X228604249Y-172114957D02*
X227443913Y-170917584D01*
X232884555Y-172182198D02*
X228604249Y-172114957D01*
X227443913Y-170917584D02*
X226482866Y-170902486D01*
X234767447Y-170357548D02*
X232884555Y-172182198D01*
%TO.N,thumb_middle*%
X244264963Y-172181953D02*
X245464815Y-172200802D01*
X242222811Y-170074617D02*
X244264963Y-172181953D01*
%TO.N,GND*%
X247573632Y-174213174D02*
X246413296Y-173015801D01*
X251853938Y-174280415D02*
X247573632Y-174213174D01*
X246413296Y-173015801D02*
X245452249Y-173000703D01*
X253736830Y-172455765D02*
X251853938Y-174280415D01*
%TO.N,thumb_reachy*%
X262798046Y-178003738D02*
X263126797Y-176849649D01*
X260233968Y-179430886D02*
X262798046Y-178003738D01*
%TO.N,GND*%
X265616402Y-175333528D02*
X264159511Y-176144423D01*
X266789175Y-171216473D02*
X265616402Y-175333528D01*
X264159511Y-176144423D02*
X263896190Y-177068816D01*
X265514027Y-168925484D02*
X266789175Y-171216473D01*
D31*
%TO.N,MCU1_24*%
X259834659Y-114834437D02*
X261954397Y-114867736D01*
%TO.N,MCU1_1*%
X275072779Y-115073816D02*
X272953040Y-115040517D01*
%TO.N,matrix_inner_home*%
X264845733Y-115143185D02*
X270619715Y-115233890D01*
X262679308Y-114879124D02*
X263028960Y-114884617D01*
X263742483Y-115620915D02*
X264343018Y-115630349D01*
X263028960Y-114884617D02*
X263742483Y-115620915D01*
X264343018Y-115630349D02*
X264845733Y-115143185D01*
%TO.N,RAW*%
X272228130Y-115029129D02*
X271878478Y-115023636D01*
X270051549Y-114774909D02*
X264277567Y-114684204D01*
X271878478Y-115023636D02*
X271164955Y-114287338D01*
X271164955Y-114287338D02*
X270564419Y-114277904D01*
X270564419Y-114277904D02*
X270051549Y-114774909D01*
%TO.N,MCU1_23*%
X259794762Y-117374123D02*
X261914501Y-117407423D01*
%TO.N,MCU1_2*%
X275032882Y-117613503D02*
X272913144Y-117580203D01*
%TO.N,thumb_innit*%
X264805836Y-117682872D02*
X270579819Y-117773577D01*
X262639411Y-117418811D02*
X262989063Y-117424303D01*
X263702586Y-118160602D02*
X264303122Y-118170036D01*
X262989063Y-117424303D02*
X263702586Y-118160602D01*
X264303122Y-118170036D02*
X264805836Y-117682872D01*
%TO.N,GND*%
X272188233Y-117568816D02*
X271838581Y-117563323D01*
X270011653Y-117314596D02*
X264237670Y-117223891D01*
X271838581Y-117563323D02*
X271125059Y-116827024D01*
X271125059Y-116827024D02*
X270524523Y-116817590D01*
X270524523Y-116817590D02*
X270011653Y-117314596D01*
%TO.N,MCU1_22*%
X259754866Y-119913810D02*
X261874604Y-119947109D01*
%TO.N,MCU1_3*%
X274992986Y-120153189D02*
X272873247Y-120119890D01*
%TO.N,GND*%
X264765939Y-120222559D02*
X270539922Y-120313264D01*
X262599515Y-119958497D02*
X262949167Y-119963990D01*
X263662690Y-120700288D02*
X264263225Y-120709722D01*
X262949167Y-119963990D02*
X263662690Y-120700288D01*
X264263225Y-120709722D02*
X264765939Y-120222559D01*
%TO.N,RST*%
X272148337Y-120108502D02*
X271798685Y-120103009D01*
X269971756Y-119854283D02*
X264197774Y-119763578D01*
X271798685Y-120103009D02*
X271085162Y-119366711D01*
X271085162Y-119366711D02*
X270484626Y-119357277D01*
X270484626Y-119357277D02*
X269971756Y-119854283D01*
%TO.N,MCU1_21*%
X259714969Y-122453497D02*
X261834708Y-122486796D01*
%TO.N,MCU1_4*%
X274953089Y-122692876D02*
X272833351Y-122659577D01*
%TO.N,GND*%
X264726043Y-122762245D02*
X270500025Y-122852950D01*
X262559618Y-122498184D02*
X262909270Y-122503677D01*
X263622793Y-123239975D02*
X264223329Y-123249409D01*
X262909270Y-122503677D02*
X263622793Y-123239975D01*
X264223329Y-123249409D02*
X264726043Y-122762245D01*
%TO.N,VCC*%
X272108440Y-122648189D02*
X271758788Y-122642696D01*
X269931860Y-122393969D02*
X264157877Y-122303264D01*
X271758788Y-122642696D02*
X271045266Y-121906398D01*
X271045266Y-121906398D02*
X270444730Y-121896964D01*
X270444730Y-121896964D02*
X269931860Y-122393969D01*
%TO.N,MCU1_20*%
X259675073Y-124993183D02*
X261794811Y-125026483D01*
%TO.N,MCU1_5*%
X274913193Y-125232563D02*
X272793454Y-125199263D01*
%TO.N,matrix_pinky_bottom*%
X264686146Y-125301932D02*
X270460129Y-125392637D01*
X262519722Y-125037871D02*
X262869374Y-125043363D01*
X263582896Y-125779662D02*
X264183432Y-125789096D01*
X262869374Y-125043363D02*
X263582896Y-125779662D01*
X264183432Y-125789096D02*
X264686146Y-125301932D01*
%TO.N,matrix_inner_top*%
X272068544Y-125187875D02*
X271718892Y-125182383D01*
X269891963Y-124933656D02*
X264117981Y-124842951D01*
X271718892Y-125182383D02*
X271005369Y-124446084D01*
X271005369Y-124446084D02*
X270404833Y-124436650D01*
X270404833Y-124436650D02*
X269891963Y-124933656D01*
%TO.N,MCU1_19*%
X259635176Y-127532870D02*
X261754914Y-127566169D01*
%TO.N,MCU1_6*%
X274873296Y-127772249D02*
X272753558Y-127738950D01*
%TO.N,matrix_ring_bottom*%
X264646250Y-127841619D02*
X270420232Y-127932323D01*
X262479825Y-127577557D02*
X262829477Y-127583050D01*
X263543000Y-128319348D02*
X264143536Y-128328782D01*
X262829477Y-127583050D02*
X263543000Y-128319348D01*
X264143536Y-128328782D02*
X264646250Y-127841619D01*
%TO.N,matrix_index_top*%
X272028647Y-127727562D02*
X271678995Y-127722069D01*
X269852067Y-127473342D02*
X264078084Y-127382638D01*
X271678995Y-127722069D02*
X270965472Y-126985771D01*
X270965472Y-126985771D02*
X270364936Y-126976337D01*
X270364936Y-126976337D02*
X269852067Y-127473342D01*
%TO.N,MCU1_18*%
X259595280Y-130072556D02*
X261715018Y-130105856D01*
%TO.N,MCU1_7*%
X274833399Y-130311936D02*
X272713661Y-130278637D01*
%TO.N,matrix_middle_bottom*%
X264606353Y-130381305D02*
X270380336Y-130472010D01*
X262439929Y-130117244D02*
X262789580Y-130122737D01*
X263503103Y-130859035D02*
X264103639Y-130868469D01*
X262789580Y-130122737D02*
X263503103Y-130859035D01*
X264103639Y-130868469D02*
X264606353Y-130381305D01*
%TO.N,matrix_middle_top*%
X271988750Y-130267249D02*
X271639099Y-130261756D01*
X269812170Y-130013029D02*
X264038187Y-129922324D01*
X271639099Y-130261756D02*
X270925576Y-129525458D01*
X270925576Y-129525458D02*
X270325040Y-129516024D01*
X270325040Y-129516024D02*
X269812170Y-130013029D01*
%TO.N,MCU1_17*%
X259555383Y-132612243D02*
X261675121Y-132645543D01*
%TO.N,MCU1_8*%
X274793503Y-132851623D02*
X272673764Y-132818323D01*
%TO.N,matrix_index_bottom*%
X264566457Y-132920992D02*
X270340439Y-133011697D01*
X262400032Y-132656931D02*
X262749684Y-132662423D01*
X263463207Y-133398722D02*
X264063742Y-133408156D01*
X262749684Y-132662423D02*
X263463207Y-133398722D01*
X264063742Y-133408156D02*
X264566457Y-132920992D01*
%TO.N,matrix_ring_top*%
X271948854Y-132806935D02*
X271599202Y-132801443D01*
X269772273Y-132552716D02*
X263998291Y-132462011D01*
X271599202Y-132801443D02*
X270885679Y-132065144D01*
X270885679Y-132065144D02*
X270285143Y-132055710D01*
X270285143Y-132055710D02*
X269772273Y-132552716D01*
%TO.N,MCU1_16*%
X259515486Y-135151930D02*
X261635225Y-135185229D01*
%TO.N,MCU1_9*%
X274753606Y-135391309D02*
X272633868Y-135358010D01*
%TO.N,matrix_inner_bottom*%
X264526560Y-135460678D02*
X270300543Y-135551383D01*
X262360135Y-135196617D02*
X262709787Y-135202110D01*
X263423310Y-135938408D02*
X264023846Y-135947842D01*
X262709787Y-135202110D02*
X263423310Y-135938408D01*
X264023846Y-135947842D02*
X264526560Y-135460678D01*
%TO.N,matrix_pinky_home*%
X271908957Y-135346622D02*
X271559305Y-135341129D01*
X269732377Y-135092402D02*
X263958394Y-135001697D01*
X271559305Y-135341129D02*
X270845783Y-134604831D01*
X270845783Y-134604831D02*
X270245247Y-134595397D01*
X270245247Y-134595397D02*
X269732377Y-135092402D01*
%TO.N,MCU1_15*%
X259475590Y-137691616D02*
X261595328Y-137724916D01*
%TO.N,MCU1_10*%
X274713710Y-137930996D02*
X272593971Y-137897696D01*
%TO.N,matrix_pinky_top*%
X264486663Y-138000365D02*
X270260646Y-138091070D01*
X262320239Y-137736304D02*
X262669891Y-137741797D01*
X263383413Y-138478095D02*
X263983949Y-138487529D01*
X262669891Y-137741797D02*
X263383413Y-138478095D01*
X263983949Y-138487529D02*
X264486663Y-138000365D01*
%TO.N,matrix_ring_home*%
X271869061Y-137886309D02*
X271519409Y-137880816D01*
X269692480Y-137632089D02*
X263918498Y-137541384D01*
X271519409Y-137880816D02*
X270805886Y-137144518D01*
X270805886Y-137144518D02*
X270205350Y-137135084D01*
X270205350Y-137135084D02*
X269692480Y-137632089D01*
%TO.N,MCU1_14*%
X259435693Y-140231303D02*
X261555432Y-140264603D01*
%TO.N,MCU1_11*%
X274673813Y-140470683D02*
X272554075Y-140437383D01*
%TO.N,thumb_middle*%
X264446767Y-140540052D02*
X270220749Y-140630757D01*
X262280342Y-140275990D02*
X262629994Y-140281483D01*
X263343517Y-141017782D02*
X263944053Y-141027216D01*
X262629994Y-140281483D02*
X263343517Y-141017782D01*
X263944053Y-141027216D02*
X264446767Y-140540052D01*
%TO.N,matrix_middle_home*%
X271829164Y-140425995D02*
X271479512Y-140420503D01*
X269652584Y-140171776D02*
X263878601Y-140081071D01*
X271479512Y-140420503D02*
X270765989Y-139684204D01*
X270765989Y-139684204D02*
X270165454Y-139674770D01*
X270165454Y-139674770D02*
X269652584Y-140171776D01*
%TO.N,MCU1_13*%
X259395797Y-142770990D02*
X261515535Y-142804289D01*
%TO.N,MCU1_12*%
X274633916Y-143010369D02*
X272514178Y-142977070D01*
%TO.N,thumb_reachy*%
X264406870Y-143079738D02*
X270180853Y-143170443D01*
X262240446Y-142815677D02*
X262590097Y-142821170D01*
X263303620Y-143557468D02*
X263904156Y-143566902D01*
X262590097Y-142821170D02*
X263303620Y-143557468D01*
X263904156Y-143566902D02*
X264406870Y-143079738D01*
%TO.N,matrix_index_home*%
X271789267Y-142965682D02*
X271439616Y-142960189D01*
X269612687Y-142711462D02*
X263838704Y-142620757D01*
X271439616Y-142960189D02*
X270726093Y-142223891D01*
X270726093Y-142223891D02*
X270125557Y-142214457D01*
X270125557Y-142214457D02*
X269612687Y-142711462D01*
%TD*%
M02*
