M48
; DRILL file {KiCad 8.0.8} date 2025-02-08T17:55:16+1030
; FORMAT={-:-/ absolute / inch / decimal}
; #@! TF.CreationDate,2025-02-08T17:55:16+10:30
; #@! TF.GenerationSoftware,Kicad,Pcbnew,8.0.8
; #@! TF.FileFunction,NonPlated,1,2,NPTH
FMAT,2
INCH
; #@! TA.AperFunction,NonPlated,NPTH,ComponentDrill
T1C0.0354
; #@! TA.AperFunction,NonPlated,NPTH,ComponentDrill
T2C0.0748
; #@! TA.AperFunction,NonPlated,NPTH,ComponentDrill
T3C0.1181
; #@! TA.AperFunction,NonPlated,NPTH,ComponentDrill
T4C0.1339
%
G90
G05
T1
X10.4719Y-4.3788
X10.59Y-4.3806
T2
X6.3658Y-5.1001
X6.4214Y-5.8066
X6.477Y-6.5131
X6.7976Y-5.0661
X6.8532Y-5.7726
X6.9088Y-6.4791
X7.1618Y-4.4246
X7.1841Y-5.1329
X7.2063Y-5.8412
X7.5947Y-4.411
X7.6169Y-5.1193
X7.6392Y-5.8276
X7.9692Y-5.6298
X7.9804Y-4.9212
X7.9915Y-4.2126
X8.4022Y-5.6366
X8.4134Y-4.928
X8.4245Y-4.2194
X8.6982Y-6.8461
X8.7144Y-5.8187
X8.7255Y-5.1101
X8.7366Y-4.4015
X9.1313Y-6.8529
X9.1474Y-5.8255
X9.1585Y-5.1169
X9.1697Y-4.4083
X9.4451Y-6.9287
X9.4601Y-5.9721
X9.4712Y-5.2635
X9.4824Y-4.555
X9.8781Y-6.9355
X9.8931Y-5.9789
X9.9042Y-5.2704
X9.9154Y-4.5618
X10.4467Y-7.2126
X10.5654Y-6.7961
T3
X6.3739Y-4.9514
X6.4295Y-5.6578
X6.4851Y-6.3643
X6.5633Y-4.8496
X6.6189Y-5.5561
X6.6745Y-6.2625
X6.7664Y-4.9205
X6.822Y-5.627
X6.8776Y-6.3334
X7.1769Y-4.2764
X7.1991Y-4.9847
X7.2214Y-5.693
X7.3709Y-4.1836
X7.3932Y-4.8919
X7.4154Y-5.6003
X7.5704Y-4.264
X7.5926Y-4.9723
X7.6149Y-5.6806
X7.9912Y-5.4825
X8.0024Y-4.7739
X8.0135Y-4.0653
X8.1894Y-5.3989
X8.2005Y-4.6904
X8.2117Y-3.9818
X8.3849Y-5.4886
X8.396Y-4.7801
X8.4071Y-4.0715
X8.7202Y-6.6988
X8.7364Y-5.6713
X8.7475Y-4.9628
X8.7586Y-4.2542
X8.9184Y-6.6153
X8.9346Y-5.5878
X8.9457Y-4.8793
X8.9568Y-4.1707
X9.1139Y-6.705
X9.13Y-5.6775
X9.1412Y-4.969
X9.1523Y-4.2604
X9.4671Y-6.7814
X9.4821Y-5.8248
X9.4932Y-5.1162
X9.5044Y-4.4077
X9.6653Y-6.6979
X9.6803Y-5.7413
X9.6914Y-5.0327
X9.7025Y-4.3242
X9.8607Y-6.7876
X9.8757Y-5.831
X9.8869Y-5.1224
X9.898Y-4.4138
X10.2808Y-6.9402
X10.3101Y-7.1533
X10.418Y-6.7746
T4
X6.5817Y-5.0831
X6.6373Y-5.7896
X6.6929Y-6.4961
X7.3783Y-4.4178
X7.4005Y-5.1261
X7.4228Y-5.8344
X8.1857Y-5.6332
X8.1969Y-4.9246
X8.208Y-4.216
X8.9147Y-6.8495
X8.9309Y-5.8221
X8.942Y-5.1135
X8.9531Y-4.4049
X9.6616Y-6.9321
X9.6766Y-5.9755
X9.6877Y-5.267
X9.6989Y-4.5584
X10.506Y-7.0044
M30
