%TF.GenerationSoftware,KiCad,Pcbnew,8.0.8*%
%TF.CreationDate,2025-02-07T20:27:56+10:30*%
%TF.ProjectId,quasikeyboard,71756173-696b-4657-9962-6f6172642e6b,0.1*%
%TF.SameCoordinates,Original*%
%TF.FileFunction,Soldermask,Top*%
%TF.FilePolarity,Negative*%
%FSLAX46Y46*%
G04 Gerber Fmt 4.6, Leading zero omitted, Abs format (unit mm)*
G04 Created by KiCad (PCBNEW 8.0.8) date 2025-02-07 20:27:56*
%MOMM*%
%LPD*%
G01*
G04 APERTURE LIST*
G04 Aperture macros list*
%AMRoundRect*
0 Rectangle with rounded corners*
0 $1 Rounding radius*
0 $2 $3 $4 $5 $6 $7 $8 $9 X,Y pos of 4 corners*
0 Add a 4 corners polygon primitive as box body*
4,1,4,$2,$3,$4,$5,$6,$7,$8,$9,$2,$3,0*
0 Add four circle primitives for the rounded corners*
1,1,$1+$1,$2,$3*
1,1,$1+$1,$4,$5*
1,1,$1+$1,$6,$7*
1,1,$1+$1,$8,$9*
0 Add four rect primitives between the rounded corners*
20,1,$1+$1,$2,$3,$4,$5,0*
20,1,$1+$1,$4,$5,$6,$7,0*
20,1,$1+$1,$6,$7,$8,$9,0*
20,1,$1+$1,$8,$9,$2,$3,0*%
%AMFreePoly0*
4,1,14,1.335355,1.335355,1.350000,1.300000,1.350000,-0.117000,1.335355,-0.152355,0.152355,-1.335355,0.117000,-1.350000,-1.300000,-1.350000,-1.335355,-1.335355,-1.350000,-1.300000,-1.350000,1.300000,-1.335355,1.335355,-1.300000,1.350000,1.300000,1.350000,1.335355,1.335355,1.335355,1.335355,$1*%
%AMFreePoly1*
4,1,16,-0.214645,0.660355,-0.210957,0.656235,0.289043,0.031235,0.299694,-0.005522,0.289043,-0.031235,-0.210957,-0.656235,-0.244478,-0.674694,-0.250000,-0.675000,-0.500000,-0.675000,-0.535355,-0.660355,-0.550000,-0.625000,-0.550000,0.625000,-0.535355,0.660355,-0.500000,0.675000,-0.250000,0.675000,-0.214645,0.660355,-0.214645,0.660355,$1*%
%AMFreePoly2*
4,1,16,0.535355,0.660355,0.550000,0.625000,0.550000,-0.625000,0.535355,-0.660355,0.500000,-0.675000,-0.650000,-0.675000,-0.685355,-0.660355,-0.700000,-0.625000,-0.689043,-0.593765,-0.214031,0.000000,-0.689043,0.593765,-0.699694,0.630522,-0.681235,0.664043,-0.650000,0.675000,0.500000,0.675000,0.535355,0.660355,0.535355,0.660355,$1*%
G04 Aperture macros list end*
%ADD10C,5.100000*%
%ADD11C,2.000000*%
%ADD12C,3.100000*%
%ADD13FreePoly0,4.500000*%
%ADD14RoundRect,0.050000X-1.193996X-1.397989X1.397989X-1.193996X1.193996X1.397989X-1.397989X1.193996X0*%
%ADD15FreePoly0,1.800000*%
%ADD16RoundRect,0.050000X-1.258525X-1.340193X1.340193X-1.258525X1.258525X1.340193X-1.340193X1.258525X0*%
%ADD17FreePoly0,359.100000*%
%ADD18RoundRect,0.050000X-1.320259X-1.279420X1.279420X-1.320259X1.320259X1.279420X-1.279420X1.320259X0*%
%ADD19FreePoly0,74.100000*%
%ADD20RoundRect,0.050000X0.894117X-1.606411X1.606411X0.894117X-0.894117X1.606411X-1.606411X-0.894117X0*%
%ADD21C,1.800000*%
%ADD22C,0.900000*%
%ADD23FreePoly1,359.100000*%
%ADD24FreePoly2,359.100000*%
%ADD25FreePoly2,179.100000*%
%ADD26FreePoly1,179.100000*%
%ADD27RoundRect,0.050000X0.506221X0.392097X-0.493655X0.407804X-0.506221X-0.392097X0.493655X-0.407804X0*%
%ADD28RoundRect,0.050000X0.361737X0.744410X-0.338176X0.755405X-0.361737X-0.744410X0.338176X-0.755405X0*%
%ADD29C,1.000000*%
%ADD30RoundRect,0.050000X-0.761688X-0.738127X0.738127X-0.761688X0.761688X0.738127X-0.738127X0.761688X0*%
G04 APERTURE END LIST*
D10*
%TO.C,S1*%
X170000000Y-165000000D03*
D11*
X175483045Y-164568475D03*
X164516955Y-165431525D03*
X175388651Y-169741829D03*
X165419478Y-170526420D03*
D12*
X169533168Y-159068342D03*
X164721192Y-161653855D03*
D13*
X172798073Y-158811388D03*
D14*
X161456287Y-161910809D03*
D12*
X174690365Y-160869265D03*
%TD*%
D10*
%TO.C,S2*%
X168587736Y-147055488D03*
D11*
X174070781Y-146623963D03*
X163104691Y-147487013D03*
X173976387Y-151797317D03*
X164007214Y-152581908D03*
D12*
X168120904Y-141123830D03*
X163308928Y-143709343D03*
D13*
X171385809Y-140866876D03*
D14*
X160044023Y-143966297D03*
D12*
X173278101Y-142924753D03*
%TD*%
D10*
%TO.C,S3*%
X167175473Y-129110976D03*
D11*
X172658518Y-128679451D03*
X161692428Y-129542501D03*
X172564124Y-133852805D03*
X162594951Y-134637396D03*
D12*
X166708641Y-123179318D03*
X161896665Y-125764831D03*
D13*
X169973546Y-122922364D03*
D14*
X158631760Y-126021785D03*
D12*
X171865838Y-124980241D03*
%TD*%
D10*
%TO.C,S4*%
X188538539Y-148193675D03*
D11*
X194035825Y-148020916D03*
X183041253Y-148366434D03*
X193697837Y-153184080D03*
X183702772Y-153498188D03*
D12*
X188351645Y-142246611D03*
X183423216Y-144602579D03*
D15*
X191625029Y-142143741D03*
D16*
X180149832Y-144705449D03*
D12*
X193418281Y-144288472D03*
%TD*%
D10*
%TO.C,S5*%
X187973145Y-130202557D03*
D11*
X193470431Y-130029798D03*
X182475859Y-130375316D03*
X193132443Y-135192962D03*
X183137378Y-135507070D03*
D12*
X187786251Y-124255493D03*
X182857822Y-126611461D03*
D15*
X191059635Y-124152623D03*
D16*
X179584438Y-126714331D03*
D12*
X192852887Y-126297354D03*
%TD*%
D10*
%TO.C,S6*%
X187407752Y-112211439D03*
D11*
X192905038Y-112038680D03*
X181910466Y-112384198D03*
X192567050Y-117201844D03*
X182571985Y-117515952D03*
D12*
X187220858Y-106264375D03*
X182292429Y-108620343D03*
D15*
X190494242Y-106161505D03*
D16*
X179019045Y-108723213D03*
D12*
X192287494Y-108306236D03*
%TD*%
D10*
%TO.C,S7*%
X207917554Y-143082443D03*
D11*
X213416875Y-143168833D03*
X202418233Y-142996053D03*
X212836044Y-148310344D03*
X202837278Y-148153271D03*
D12*
X208011013Y-137133177D03*
X202977073Y-139254369D03*
D17*
X211285609Y-137184619D03*
D18*
X199702477Y-139202928D03*
D12*
X212975840Y-139411442D03*
%TD*%
D10*
%TO.C,S8*%
X208200285Y-125084664D03*
D11*
X213699606Y-125171054D03*
X202700964Y-124998274D03*
X213118775Y-130312565D03*
X203120009Y-130155492D03*
D12*
X208293744Y-119135398D03*
X203259804Y-121256590D03*
D17*
X211568340Y-119186840D03*
D18*
X199985208Y-121205149D03*
D12*
X213258571Y-121413663D03*
%TD*%
D10*
%TO.C,S9*%
X208483017Y-107086884D03*
D11*
X213982338Y-107173274D03*
X202983696Y-107000494D03*
X213401507Y-112314785D03*
X203402741Y-112157712D03*
D12*
X208576476Y-101137618D03*
X203542536Y-103258810D03*
D17*
X211851072Y-101189060D03*
D18*
X200267940Y-103207369D03*
D12*
X213541303Y-103415883D03*
%TD*%
D10*
%TO.C,S10*%
X226844527Y-147880327D03*
D11*
X232343848Y-147966717D03*
X221345206Y-147793937D03*
X231763017Y-153108228D03*
X221764251Y-152951155D03*
D12*
X226937986Y-141931061D03*
X221904046Y-144052253D03*
D17*
X230212582Y-141982503D03*
D18*
X218629450Y-144000812D03*
D12*
X231902813Y-144209326D03*
%TD*%
D10*
%TO.C,S11*%
X227127259Y-129882547D03*
D11*
X232626580Y-129968937D03*
X221627938Y-129796157D03*
X232045749Y-135110448D03*
X222046983Y-134953375D03*
D12*
X227220718Y-123933281D03*
X222186778Y-126054473D03*
D17*
X230495314Y-123984723D03*
D18*
X218912182Y-126003032D03*
D12*
X232185545Y-126211546D03*
%TD*%
D10*
%TO.C,S12*%
X227409990Y-111884768D03*
D11*
X232909311Y-111971158D03*
X221910669Y-111798378D03*
X232328480Y-117112669D03*
X222329714Y-116955596D03*
D12*
X227503449Y-105935502D03*
X222469509Y-108056694D03*
D17*
X230778045Y-105986944D03*
D18*
X219194913Y-108005253D03*
D12*
X232468276Y-108213767D03*
%TD*%
D10*
%TO.C,S13*%
X245785637Y-151778322D03*
D11*
X251284958Y-151864712D03*
X240286316Y-151691932D03*
X250704127Y-157006223D03*
X240705361Y-156849150D03*
D12*
X245879096Y-145829056D03*
X240845156Y-147950248D03*
D17*
X249153692Y-145880498D03*
D18*
X237570560Y-147898807D03*
D12*
X250843923Y-148107321D03*
%TD*%
D10*
%TO.C,S14*%
X246068368Y-133780542D03*
D11*
X251567689Y-133866932D03*
X240569047Y-133694152D03*
X250986858Y-139008443D03*
X240988092Y-138851370D03*
D12*
X246161827Y-127831276D03*
X241127887Y-129952468D03*
D17*
X249436423Y-127882718D03*
D18*
X237853291Y-129901027D03*
D12*
X251126654Y-130109541D03*
%TD*%
D10*
%TO.C,S15*%
X246351100Y-115782763D03*
D11*
X251850421Y-115869153D03*
X240851779Y-115696373D03*
X251269590Y-121010664D03*
X241270824Y-120853591D03*
D12*
X246444559Y-109833497D03*
X241410619Y-111954689D03*
D17*
X249719155Y-109884939D03*
D18*
X238136023Y-111903248D03*
D12*
X251409386Y-112111762D03*
%TD*%
D10*
%TO.C,S16*%
X226434566Y-173977107D03*
D11*
X231933887Y-174063497D03*
X220935245Y-173890717D03*
X231353056Y-179205008D03*
X221354290Y-179047935D03*
D12*
X226528025Y-168027841D03*
X221494085Y-170149033D03*
D17*
X229802621Y-168079283D03*
D18*
X218219489Y-170097592D03*
D12*
X231492852Y-170306106D03*
%TD*%
D10*
%TO.C,S17*%
X245403949Y-176075324D03*
D11*
X250903270Y-176161714D03*
X239904628Y-175988934D03*
X250322439Y-181303225D03*
X240323673Y-181146152D03*
D12*
X245497408Y-170126058D03*
X240463468Y-172247250D03*
D17*
X248772004Y-170177500D03*
D18*
X237188872Y-172195809D03*
D12*
X250462235Y-172404323D03*
%TD*%
D10*
%TO.C,S18*%
X266853545Y-177911241D03*
D11*
X268360321Y-172621664D03*
X265346769Y-183200818D03*
X273176309Y-174513424D03*
X270436717Y-184130838D03*
D12*
X261131184Y-176281184D03*
X261877219Y-181692600D03*
D19*
X262028401Y-173131481D03*
D20*
X260980003Y-184842303D03*
D12*
X264616811Y-172075187D03*
%TD*%
D21*
%TO.C,MCU1*%
X259834659Y-114834437D03*
X275072779Y-115073817D03*
D22*
X264054138Y-114900722D03*
X270853299Y-115007532D03*
D23*
X261954397Y-114867737D03*
D24*
X262679308Y-114879124D03*
D25*
X272228130Y-115029129D03*
D26*
X272953040Y-115040517D03*
D21*
X259794762Y-117374124D03*
X275032882Y-117613503D03*
D22*
X264014242Y-117440409D03*
X270813403Y-117547218D03*
D23*
X261914501Y-117407423D03*
D24*
X262639411Y-117418811D03*
D25*
X272188233Y-117568816D03*
D26*
X272913144Y-117580204D03*
D21*
X259754866Y-119913810D03*
X274992986Y-120153190D03*
D22*
X263974345Y-119980095D03*
X270773506Y-120086905D03*
D23*
X261874604Y-119947110D03*
D24*
X262599515Y-119958498D03*
D25*
X272148337Y-120108503D03*
D26*
X272873247Y-120119890D03*
D21*
X259714969Y-122453497D03*
X274953089Y-122692876D03*
D22*
X263934449Y-122519782D03*
X270733610Y-122626592D03*
D23*
X261834708Y-122486796D03*
D24*
X262559618Y-122498184D03*
D25*
X272108440Y-122648189D03*
D26*
X272833351Y-122659577D03*
D21*
X259675073Y-124993184D03*
X274913193Y-125232563D03*
D22*
X263894552Y-125059468D03*
X270693713Y-125166278D03*
D23*
X261794811Y-125026483D03*
D24*
X262519722Y-125037871D03*
D25*
X272068544Y-125187876D03*
D26*
X272793454Y-125199264D03*
D21*
X259635176Y-127532870D03*
X274873296Y-127772250D03*
D22*
X263854655Y-127599155D03*
X270653817Y-127705965D03*
D23*
X261754915Y-127566170D03*
D24*
X262479825Y-127577558D03*
D25*
X272028647Y-127727562D03*
D26*
X272753557Y-127738950D03*
D21*
X259595279Y-130072557D03*
X274833399Y-130311936D03*
D22*
X263814759Y-130138842D03*
X270613920Y-130245652D03*
D23*
X261715018Y-130105856D03*
D24*
X262439928Y-130117244D03*
D25*
X271988750Y-130267249D03*
D26*
X272713661Y-130278637D03*
D21*
X259555383Y-132612244D03*
X274793503Y-132851623D03*
D22*
X263774862Y-132678528D03*
X270574023Y-132785338D03*
D23*
X261675121Y-132645543D03*
D24*
X262400032Y-132656931D03*
D25*
X271948854Y-132806936D03*
D26*
X272673764Y-132818324D03*
D21*
X259515486Y-135151930D03*
X274753606Y-135391310D03*
D22*
X263734966Y-135218215D03*
X270534127Y-135325025D03*
D23*
X261635225Y-135185230D03*
D24*
X262360135Y-135196617D03*
D25*
X271908957Y-135346622D03*
D26*
X272633868Y-135358010D03*
D21*
X259475590Y-137691617D03*
X274713710Y-137930996D03*
D22*
X263695069Y-137757902D03*
X270494230Y-137864711D03*
D23*
X261595328Y-137724916D03*
D24*
X262320239Y-137736304D03*
D25*
X271869061Y-137886309D03*
D26*
X272593971Y-137897697D03*
D21*
X259435693Y-140231303D03*
X274673813Y-140470683D03*
D22*
X263655173Y-140297588D03*
X270454334Y-140404398D03*
D23*
X261555432Y-140264603D03*
D24*
X262280342Y-140275991D03*
D25*
X271829164Y-140425996D03*
D26*
X272554075Y-140437383D03*
D21*
X259395797Y-142770990D03*
X274633916Y-143010370D03*
D22*
X263615276Y-142837275D03*
X270414437Y-142944085D03*
D23*
X261515535Y-142804290D03*
D24*
X262240446Y-142815677D03*
D25*
X271789267Y-142965682D03*
D26*
X272514178Y-142977070D03*
%TD*%
D21*
%TO.C,RST1*%
X274539739Y-153780219D03*
X274641837Y-147281021D03*
%TD*%
D27*
%TO.C,PWR1*%
X263856730Y-109831995D03*
X263822017Y-112041722D03*
X271121116Y-112156386D03*
X271155829Y-109946658D03*
D28*
X269711079Y-112784315D03*
X266711449Y-112737193D03*
X265211634Y-112713632D03*
D29*
X265989187Y-110965630D03*
X268988817Y-111012752D03*
%TD*%
D30*
%TO.C,PAD1*%
X263810118Y-150361263D03*
%TD*%
%TO.C,PAD2*%
X270109341Y-150460219D03*
%TD*%
M02*
