%TF.GenerationSoftware,KiCad,Pcbnew,8.0.8*%
%TF.CreationDate,2025-02-07T20:27:56+10:30*%
%TF.ProjectId,quasikeyboard,71756173-696b-4657-9962-6f6172642e6b,0.1*%
%TF.SameCoordinates,Original*%
%TF.FileFunction,Paste,Bot*%
%TF.FilePolarity,Positive*%
%FSLAX46Y46*%
G04 Gerber Fmt 4.6, Leading zero omitted, Abs format (unit mm)*
G04 Created by KiCad (PCBNEW 8.0.8) date 2025-02-07 20:27:56*
%MOMM*%
%LPD*%
G01*
G04 APERTURE LIST*
G04 Aperture macros list*
%AMRotRect*
0 Rectangle, with rotation*
0 The origin of the aperture is its center*
0 $1 length*
0 $2 width*
0 $3 Rotation angle, in degrees counterclockwise*
0 Add horizontal line*
21,1,$1,$2,0,0,$3*%
%AMOutline5P*
0 Free polygon, 5 corners , with rotation*
0 The origin of the aperture is its center*
0 number of corners: always 5*
0 $1 to $10 corner X, Y*
0 $11 Rotation angle, in degrees counterclockwise*
0 create outline with 5 corners*
4,1,5,$1,$2,$3,$4,$5,$6,$7,$8,$9,$10,$1,$2,$11*%
%AMOutline6P*
0 Free polygon, 6 corners , with rotation*
0 The origin of the aperture is its center*
0 number of corners: always 6*
0 $1 to $12 corner X, Y*
0 $13 Rotation angle, in degrees counterclockwise*
0 create outline with 6 corners*
4,1,6,$1,$2,$3,$4,$5,$6,$7,$8,$9,$10,$11,$12,$1,$2,$13*%
%AMOutline7P*
0 Free polygon, 7 corners , with rotation*
0 The origin of the aperture is its center*
0 number of corners: always 7*
0 $1 to $14 corner X, Y*
0 $15 Rotation angle, in degrees counterclockwise*
0 create outline with 7 corners*
4,1,7,$1,$2,$3,$4,$5,$6,$7,$8,$9,$10,$11,$12,$13,$14,$1,$2,$15*%
%AMOutline8P*
0 Free polygon, 8 corners , with rotation*
0 The origin of the aperture is its center*
0 number of corners: always 8*
0 $1 to $16 corner X, Y*
0 $17 Rotation angle, in degrees counterclockwise*
0 create outline with 8 corners*
4,1,8,$1,$2,$3,$4,$5,$6,$7,$8,$9,$10,$11,$12,$13,$14,$15,$16,$1,$2,$17*%
%AMFreePoly0*
4,1,6,0.250000,0.000000,-0.250000,-0.625000,-0.500000,-0.625000,-0.500000,0.625000,-0.250000,0.625000,0.250000,0.000000,0.250000,0.000000,$1*%
%AMFreePoly1*
4,1,6,0.500000,-0.625000,-0.650000,-0.625000,-0.150000,0.000000,-0.650000,0.625000,0.500000,0.625000,0.500000,-0.625000,0.500000,-0.625000,$1*%
G04 Aperture macros list end*
%ADD10Outline5P,-1.300000X1.300000X1.300000X1.300000X1.300000X-1.300000X-0.117000X-1.300000X-1.300000X-0.117000X4.500000*%
%ADD11RotRect,2.600000X2.600000X4.500000*%
%ADD12Outline5P,-1.300000X1.300000X1.300000X1.300000X1.300000X-1.300000X-0.117000X-1.300000X-1.300000X-0.117000X1.800000*%
%ADD13RotRect,2.600000X2.600000X1.800000*%
%ADD14Outline5P,-1.300000X1.300000X1.300000X1.300000X1.300000X-1.300000X-0.117000X-1.300000X-1.300000X-0.117000X359.100000*%
%ADD15RotRect,2.600000X2.600000X359.100000*%
%ADD16Outline5P,-1.300000X1.300000X1.300000X1.300000X1.300000X-1.300000X-0.117000X-1.300000X-1.300000X-0.117000X74.100000*%
%ADD17RotRect,2.600000X2.600000X74.100000*%
%ADD18FreePoly0,359.100000*%
%ADD19FreePoly1,359.100000*%
%ADD20FreePoly1,179.100000*%
%ADD21FreePoly0,179.100000*%
%ADD22RotRect,1.000000X0.800000X359.100000*%
%ADD23RotRect,0.700000X1.500000X359.100000*%
%ADD24RotRect,1.500000X1.500000X359.100000*%
G04 APERTURE END LIST*
D10*
%TO.C,S1*%
X166268264Y-159325295D03*
D11*
X177955269Y-160612311D03*
%TD*%
D10*
%TO.C,S2*%
X164856000Y-141380783D03*
D11*
X176543005Y-142667799D03*
%TD*%
D10*
%TO.C,S3*%
X163443737Y-123436271D03*
D11*
X175130742Y-124723287D03*
%TD*%
D12*
%TO.C,S4*%
X185078261Y-142349481D03*
D13*
X196691665Y-144185601D03*
%TD*%
D12*
%TO.C,S5*%
X184512867Y-124358363D03*
D13*
X196126271Y-126194483D03*
%TD*%
D12*
%TO.C,S6*%
X183947474Y-106367245D03*
D13*
X195560878Y-108203365D03*
%TD*%
D14*
%TO.C,S7*%
X204736417Y-137081736D03*
D15*
X216250436Y-139462884D03*
%TD*%
D14*
%TO.C,S8*%
X205019148Y-119083957D03*
D15*
X216533167Y-121465105D03*
%TD*%
D14*
%TO.C,S9*%
X205301880Y-101086177D03*
D15*
X216815899Y-103467325D03*
%TD*%
D14*
%TO.C,S10*%
X223663390Y-141879620D03*
D15*
X235177409Y-144260768D03*
%TD*%
D14*
%TO.C,S11*%
X223946122Y-123881840D03*
D15*
X235460141Y-126262988D03*
%TD*%
D14*
%TO.C,S12*%
X224228853Y-105884061D03*
D15*
X235742872Y-108265209D03*
%TD*%
D14*
%TO.C,S13*%
X242604500Y-145777615D03*
D15*
X254118519Y-148158763D03*
%TD*%
D14*
%TO.C,S14*%
X242887231Y-127779835D03*
D15*
X254401250Y-130160983D03*
%TD*%
D14*
%TO.C,S15*%
X243169963Y-109782056D03*
D15*
X254683982Y-112163204D03*
%TD*%
D14*
%TO.C,S16*%
X223253429Y-167976400D03*
D15*
X234767448Y-170357548D03*
%TD*%
D14*
%TO.C,S17*%
X242222812Y-170074617D03*
D15*
X253736831Y-172455765D03*
%TD*%
D16*
%TO.C,S18*%
X260233968Y-179430886D03*
D17*
X265514028Y-168925485D03*
%TD*%
D18*
%TO.C,MCU1*%
X261954397Y-114867737D03*
D19*
X262679308Y-114879124D03*
D20*
X272228130Y-115029129D03*
D21*
X272953040Y-115040517D03*
D18*
X261914501Y-117407423D03*
D19*
X262639411Y-117418811D03*
D20*
X272188233Y-117568816D03*
D21*
X272913144Y-117580204D03*
D18*
X261874604Y-119947110D03*
D19*
X262599515Y-119958498D03*
D20*
X272148337Y-120108503D03*
D21*
X272873247Y-120119890D03*
D18*
X261834708Y-122486796D03*
D19*
X262559618Y-122498184D03*
D20*
X272108440Y-122648189D03*
D21*
X272833351Y-122659577D03*
D18*
X261794811Y-125026483D03*
D19*
X262519722Y-125037871D03*
D20*
X272068544Y-125187876D03*
D21*
X272793454Y-125199264D03*
D18*
X261754915Y-127566170D03*
D19*
X262479825Y-127577558D03*
D20*
X272028647Y-127727562D03*
D21*
X272753557Y-127738950D03*
D18*
X261715018Y-130105856D03*
D19*
X262439928Y-130117244D03*
D20*
X271988750Y-130267249D03*
D21*
X272713661Y-130278637D03*
D18*
X261675121Y-132645543D03*
D19*
X262400032Y-132656931D03*
D20*
X271948854Y-132806936D03*
D21*
X272673764Y-132818324D03*
D18*
X261635225Y-135185230D03*
D19*
X262360135Y-135196617D03*
D20*
X271908957Y-135346622D03*
D21*
X272633868Y-135358010D03*
D18*
X261595328Y-137724916D03*
D19*
X262320239Y-137736304D03*
D20*
X271869061Y-137886309D03*
D21*
X272593971Y-137897697D03*
D18*
X261555432Y-140264603D03*
D19*
X262280342Y-140275991D03*
D20*
X271829164Y-140425996D03*
D21*
X272554075Y-140437383D03*
D18*
X261515535Y-142804290D03*
D19*
X262240446Y-142815677D03*
D20*
X271789267Y-142965682D03*
D21*
X272514178Y-142977070D03*
%TD*%
D22*
%TO.C,PWR1*%
X263822017Y-112041722D03*
X263856730Y-109831995D03*
X271121116Y-112156386D03*
X271155829Y-109946658D03*
D23*
X265211634Y-112713632D03*
X268211264Y-112760754D03*
X269711079Y-112784315D03*
%TD*%
D24*
%TO.C,PAD1*%
X263810118Y-150361263D03*
%TD*%
%TO.C,PAD2*%
X270109341Y-150460219D03*
%TD*%
M02*
