%TF.GenerationSoftware,KiCad,Pcbnew,8.0.8*%
%TF.CreationDate,2025-02-10T10:14:42+10:30*%
%TF.ProjectId,quasikb,71756173-696b-4622-9e6b-696361645f70,0.1*%
%TF.SameCoordinates,Original*%
%TF.FileFunction,Profile,NP*%
%FSLAX46Y46*%
G04 Gerber Fmt 4.6, Leading zero omitted, Abs format (unit mm)*
G04 Created by KiCad (PCBNEW 8.0.8) date 2025-02-10 10:14:42*
%MOMM*%
%LPD*%
G01*
G04 APERTURE LIST*
%TA.AperFunction,Profile*%
%ADD10C,0.150000*%
%TD*%
G04 APERTURE END LIST*
D10*
X198392796Y-152313098D02*
G75*
G02*
X198646459Y-152055301I249804J7898D01*
G01*
X256210167Y-107006540D02*
X256178281Y-109036289D01*
X254197549Y-188831821D02*
X255164625Y-185436874D01*
X218340609Y-98312083D02*
X218254734Y-102308338D01*
X237475712Y-106462205D02*
X255964125Y-106752644D01*
X279073476Y-109645987D02*
G75*
G02*
X279319545Y-109895904I-3976J-250013D01*
G01*
X161010603Y-174665094D02*
X156784796Y-120971127D01*
X157014411Y-120702283D02*
X177612959Y-119081142D01*
X254369495Y-189140746D02*
G75*
G02*
X254197547Y-188831820I68505J240446D01*
G01*
X279321895Y-167649395D02*
X271855120Y-193861712D01*
X198908160Y-98009050D02*
G75*
G02*
X199162086Y-97759392I249940J-250D01*
G01*
X198903821Y-102423607D02*
X198908160Y-98009050D01*
X161279447Y-174894709D02*
G75*
G02*
X161010587Y-174665095I-19647J249209D01*
G01*
X177653308Y-103333452D02*
X198661674Y-102673238D01*
X177411262Y-103590415D02*
G75*
G02*
X177653309Y-103333482I249838J7115D01*
G01*
X235543479Y-184852914D02*
X235556705Y-183550183D01*
X255164625Y-185436874D02*
X254978556Y-185406867D01*
X216575499Y-182753330D02*
X217049433Y-152584193D01*
X279319550Y-109895904D02*
X279331460Y-167580853D01*
X156784796Y-120971127D02*
G75*
G02*
X157014412Y-120702293I249204J19627D01*
G01*
X256424324Y-109290185D02*
G75*
G02*
X256178212Y-109036288I3976J250085D01*
G01*
X271546195Y-194033658D02*
X254369495Y-189140746D01*
X216803250Y-152330295D02*
G75*
G02*
X217049500Y-152584194I-3650J-249905D01*
G01*
X179133353Y-157936659D02*
G75*
G02*
X179374649Y-157666133I249247J20559D01*
G01*
X177843244Y-118824826D02*
G75*
G02*
X177612954Y-119081078I-249844J-7074D01*
G01*
X198903821Y-102423607D02*
G75*
G02*
X198661673Y-102673200I-249921J207D01*
G01*
X218500749Y-102563678D02*
X237023708Y-102854660D01*
X198534241Y-156813956D02*
G75*
G02*
X198292219Y-157071739I-249941J-7844D01*
G01*
X216821541Y-183007226D02*
G75*
G02*
X216575571Y-182753331I4059J250026D01*
G01*
X180160085Y-173408770D02*
X161279447Y-174894709D01*
X180389621Y-173138952D02*
G75*
G02*
X180160087Y-173408791I-249221J-20548D01*
G01*
X235310645Y-183297676D02*
G75*
G02*
X235556743Y-183550183I-3945J-250024D01*
G01*
X271855120Y-193861712D02*
G75*
G02*
X271546204Y-194033625I-240420J68512D01*
G01*
X218500749Y-102563678D02*
G75*
G02*
X218254748Y-102308338I3951J249978D01*
G01*
X256424324Y-109290185D02*
X279073476Y-109645987D01*
X237475712Y-106462205D02*
G75*
G02*
X237229588Y-106209002I3788J249905D01*
G01*
X237269761Y-103107861D02*
X237229660Y-106209003D01*
X199162087Y-97759327D02*
X218094593Y-98056742D01*
X198392796Y-152313098D02*
X198534241Y-156813956D01*
X177843244Y-118824826D02*
X177411261Y-103590415D01*
X198292217Y-157071685D02*
X179374651Y-157666193D01*
X237023709Y-102854660D02*
G75*
G02*
X237269749Y-103107861I-3909J-249940D01*
G01*
X179133353Y-157936659D02*
X180389621Y-173138952D01*
X218094593Y-98056742D02*
G75*
G02*
X218340630Y-98312083I-3893J-249958D01*
G01*
X279331460Y-167580853D02*
G75*
G02*
X279321892Y-167649394I-249960J-47D01*
G01*
X235310645Y-183297676D02*
X216821541Y-183007226D01*
X254978556Y-185406867D02*
X235789539Y-185105421D01*
X235789539Y-185105421D02*
G75*
G02*
X235543558Y-184852915I4061J250021D01*
G01*
X216803250Y-152330295D02*
X198646459Y-152055274D01*
X255964125Y-106752644D02*
G75*
G02*
X256210156Y-107006540I-3925J-249956D01*
G01*
M02*
