%TF.GenerationSoftware,KiCad,Pcbnew,8.0.8*%
%TF.CreationDate,2025-02-08T17:55:19+10:30*%
%TF.ProjectId,quasikb,71756173-696b-4622-9e6b-696361645f70,0.1*%
%TF.SameCoordinates,Original*%
%TF.FileFunction,Copper,L1,Top*%
%TF.FilePolarity,Positive*%
%FSLAX46Y46*%
G04 Gerber Fmt 4.6, Leading zero omitted, Abs format (unit mm)*
G04 Created by KiCad (PCBNEW 8.0.8) date 2025-02-08 17:55:19*
%MOMM*%
%LPD*%
G01*
G04 APERTURE LIST*
G04 Aperture macros list*
%AMRotRect*
0 Rectangle, with rotation*
0 The origin of the aperture is its center*
0 $1 length*
0 $2 width*
0 $3 Rotation angle, in degrees counterclockwise*
0 Add horizontal line*
21,1,$1,$2,0,0,$3*%
%AMOutline5P*
0 Free polygon, 5 corners , with rotation*
0 The origin of the aperture is its center*
0 number of corners: always 5*
0 $1 to $10 corner X, Y*
0 $11 Rotation angle, in degrees counterclockwise*
0 create outline with 5 corners*
4,1,5,$1,$2,$3,$4,$5,$6,$7,$8,$9,$10,$1,$2,$11*%
%AMOutline6P*
0 Free polygon, 6 corners , with rotation*
0 The origin of the aperture is its center*
0 number of corners: always 6*
0 $1 to $12 corner X, Y*
0 $13 Rotation angle, in degrees counterclockwise*
0 create outline with 6 corners*
4,1,6,$1,$2,$3,$4,$5,$6,$7,$8,$9,$10,$11,$12,$1,$2,$13*%
%AMOutline7P*
0 Free polygon, 7 corners , with rotation*
0 The origin of the aperture is its center*
0 number of corners: always 7*
0 $1 to $14 corner X, Y*
0 $15 Rotation angle, in degrees counterclockwise*
0 create outline with 7 corners*
4,1,7,$1,$2,$3,$4,$5,$6,$7,$8,$9,$10,$11,$12,$13,$14,$1,$2,$15*%
%AMOutline8P*
0 Free polygon, 8 corners , with rotation*
0 The origin of the aperture is its center*
0 number of corners: always 8*
0 $1 to $16 corner X, Y*
0 $17 Rotation angle, in degrees counterclockwise*
0 create outline with 8 corners*
4,1,8,$1,$2,$3,$4,$5,$6,$7,$8,$9,$10,$11,$12,$13,$14,$15,$16,$1,$2,$17*%
%AMFreePoly0*
4,1,6,0.250000,0.000000,-0.250000,-0.625000,-0.500000,-0.625000,-0.500000,0.625000,-0.250000,0.625000,0.250000,0.000000,0.250000,0.000000,$1*%
%AMFreePoly1*
4,1,6,0.500000,-0.625000,-0.650000,-0.625000,-0.150000,0.000000,-0.650000,0.625000,0.500000,0.625000,0.500000,-0.625000,0.500000,-0.625000,$1*%
G04 Aperture macros list end*
%TA.AperFunction,SMDPad,CuDef*%
%ADD10Outline5P,-1.300000X1.300000X1.300000X1.300000X1.300000X-0.117000X0.117000X-1.300000X-1.300000X-1.300000X4.500000*%
%TD*%
%TA.AperFunction,SMDPad,CuDef*%
%ADD11RotRect,2.600000X2.600000X4.500000*%
%TD*%
%TA.AperFunction,SMDPad,CuDef*%
%ADD12Outline5P,-1.300000X1.300000X1.300000X1.300000X1.300000X-0.117000X0.117000X-1.300000X-1.300000X-1.300000X1.800000*%
%TD*%
%TA.AperFunction,SMDPad,CuDef*%
%ADD13RotRect,2.600000X2.600000X1.800000*%
%TD*%
%TA.AperFunction,SMDPad,CuDef*%
%ADD14Outline5P,-1.300000X1.300000X1.300000X1.300000X1.300000X-0.117000X0.117000X-1.300000X-1.300000X-1.300000X359.100000*%
%TD*%
%TA.AperFunction,SMDPad,CuDef*%
%ADD15RotRect,2.600000X2.600000X359.100000*%
%TD*%
%TA.AperFunction,SMDPad,CuDef*%
%ADD16Outline5P,-1.300000X1.300000X1.300000X1.300000X1.300000X-0.117000X0.117000X-1.300000X-1.300000X-1.300000X74.100000*%
%TD*%
%TA.AperFunction,SMDPad,CuDef*%
%ADD17RotRect,2.600000X2.600000X74.100000*%
%TD*%
%TA.AperFunction,ComponentPad*%
%ADD18C,1.700000*%
%TD*%
%TA.AperFunction,ComponentPad*%
%ADD19C,0.800000*%
%TD*%
%TA.AperFunction,SMDPad,CuDef*%
%ADD20FreePoly0,359.100000*%
%TD*%
%TA.AperFunction,SMDPad,CuDef*%
%ADD21FreePoly1,359.100000*%
%TD*%
%TA.AperFunction,SMDPad,CuDef*%
%ADD22FreePoly1,179.100000*%
%TD*%
%TA.AperFunction,SMDPad,CuDef*%
%ADD23FreePoly0,179.100000*%
%TD*%
%TA.AperFunction,SMDPad,CuDef*%
%ADD24RotRect,1.000000X0.800000X179.100000*%
%TD*%
%TA.AperFunction,SMDPad,CuDef*%
%ADD25RotRect,0.700000X1.500000X179.100000*%
%TD*%
%TA.AperFunction,SMDPad,CuDef*%
%ADD26RotRect,1.500000X1.500000X359.100000*%
%TD*%
%TA.AperFunction,ComponentPad*%
%ADD27C,1.000000*%
%TD*%
%TA.AperFunction,ViaPad*%
%ADD28C,0.600000*%
%TD*%
%TA.AperFunction,Conductor*%
%ADD29C,0.200000*%
%TD*%
%TA.AperFunction,Conductor*%
%ADD30C,0.250000*%
%TD*%
G04 APERTURE END LIST*
D10*
%TO.P,S1,1*%
%TO.N,matrix_pinky_bottom*%
X172798073Y-158811388D03*
D11*
%TO.P,S1,2*%
%TO.N,GND*%
X161456287Y-161910809D03*
%TD*%
D10*
%TO.P,S2,1*%
%TO.N,matrix_pinky_home*%
X171385809Y-140866876D03*
D11*
%TO.P,S2,2*%
%TO.N,GND*%
X160044023Y-143966297D03*
%TD*%
D10*
%TO.P,S3,1*%
%TO.N,matrix_pinky_top*%
X169973546Y-122922364D03*
D11*
%TO.P,S3,2*%
%TO.N,GND*%
X158631760Y-126021785D03*
%TD*%
D12*
%TO.P,S4,1*%
%TO.N,matrix_ring_bottom*%
X191625029Y-142143741D03*
D13*
%TO.P,S4,2*%
%TO.N,GND*%
X180149832Y-144705449D03*
%TD*%
D12*
%TO.P,S5,1*%
%TO.N,matrix_ring_home*%
X191059635Y-124152623D03*
D13*
%TO.P,S5,2*%
%TO.N,GND*%
X179584438Y-126714331D03*
%TD*%
D12*
%TO.P,S6,1*%
%TO.N,matrix_ring_top*%
X190494242Y-106161505D03*
D13*
%TO.P,S6,2*%
%TO.N,GND*%
X179019045Y-108723213D03*
%TD*%
D14*
%TO.P,S7,1*%
%TO.N,matrix_middle_bottom*%
X211285609Y-137184619D03*
D15*
%TO.P,S7,2*%
%TO.N,GND*%
X199702477Y-139202928D03*
%TD*%
D14*
%TO.P,S8,1*%
%TO.N,matrix_middle_home*%
X211568340Y-119186840D03*
D15*
%TO.P,S8,2*%
%TO.N,GND*%
X199985208Y-121205149D03*
%TD*%
D14*
%TO.P,S9,1*%
%TO.N,matrix_middle_top*%
X211851072Y-101189060D03*
D15*
%TO.P,S9,2*%
%TO.N,GND*%
X200267940Y-103207369D03*
%TD*%
D14*
%TO.P,S10,1*%
%TO.N,matrix_index_bottom*%
X230212582Y-141982503D03*
D15*
%TO.P,S10,2*%
%TO.N,GND*%
X218629450Y-144000812D03*
%TD*%
D14*
%TO.P,S11,1*%
%TO.N,matrix_index_home*%
X230495314Y-123984723D03*
D15*
%TO.P,S11,2*%
%TO.N,GND*%
X218912182Y-126003032D03*
%TD*%
D14*
%TO.P,S12,1*%
%TO.N,matrix_index_top*%
X230778045Y-105986944D03*
D15*
%TO.P,S12,2*%
%TO.N,GND*%
X219194913Y-108005253D03*
%TD*%
D14*
%TO.P,S13,1*%
%TO.N,matrix_inner_bottom*%
X249153692Y-145880498D03*
D15*
%TO.P,S13,2*%
%TO.N,GND*%
X237570560Y-147898807D03*
%TD*%
D14*
%TO.P,S14,1*%
%TO.N,matrix_inner_home*%
X249436423Y-127882718D03*
D15*
%TO.P,S14,2*%
%TO.N,GND*%
X237853291Y-129901027D03*
%TD*%
D14*
%TO.P,S15,1*%
%TO.N,matrix_inner_top*%
X249719155Y-109884939D03*
D15*
%TO.P,S15,2*%
%TO.N,GND*%
X238136023Y-111903248D03*
%TD*%
D14*
%TO.P,S16,1*%
%TO.N,thumb_innit*%
X229802621Y-168079283D03*
D15*
%TO.P,S16,2*%
%TO.N,GND*%
X218219489Y-170097592D03*
%TD*%
D14*
%TO.P,S17,1*%
%TO.N,thumb_middle*%
X248772004Y-170177500D03*
D15*
%TO.P,S17,2*%
%TO.N,GND*%
X237188872Y-172195809D03*
%TD*%
D16*
%TO.P,S18,1*%
%TO.N,thumb_reachy*%
X262028401Y-173131481D03*
D17*
%TO.P,S18,2*%
%TO.N,GND*%
X260980003Y-184842303D03*
%TD*%
D18*
%TO.P,MCU1,24*%
%TO.N,MCU1_24*%
X259826648Y-115344374D03*
%TO.P,MCU1,1*%
%TO.N,MCU1_1*%
X275064768Y-115583754D03*
D19*
%TO.P,MCU1,124*%
%TO.N,RAW*%
X264046127Y-115410659D03*
%TO.P,MCU1,101*%
%TO.N,P1*%
X270845288Y-115517469D03*
D20*
%TO.P,MCU1,24*%
%TO.N,MCU1_24*%
X261946386Y-115377674D03*
D21*
%TO.P,MCU1,124*%
%TO.N,RAW*%
X262671297Y-115389061D03*
D22*
%TO.P,MCU1,101*%
%TO.N,P1*%
X272220119Y-115539066D03*
D23*
%TO.P,MCU1,1*%
%TO.N,MCU1_1*%
X272945029Y-115550454D03*
D18*
%TO.P,MCU1,23*%
%TO.N,MCU1_23*%
X259786751Y-117884061D03*
%TO.P,MCU1,2*%
%TO.N,MCU1_2*%
X275024871Y-118123440D03*
D19*
%TO.P,MCU1,123*%
%TO.N,GND*%
X264006231Y-117950346D03*
%TO.P,MCU1,102*%
%TO.N,P0*%
X270805392Y-118057155D03*
D20*
%TO.P,MCU1,23*%
%TO.N,MCU1_23*%
X261906490Y-117917360D03*
D21*
%TO.P,MCU1,123*%
%TO.N,GND*%
X262631400Y-117928748D03*
D22*
%TO.P,MCU1,102*%
%TO.N,P0*%
X272180222Y-118078753D03*
D23*
%TO.P,MCU1,2*%
%TO.N,MCU1_2*%
X272905133Y-118090141D03*
D18*
%TO.P,MCU1,22*%
%TO.N,MCU1_22*%
X259746855Y-120423747D03*
%TO.P,MCU1,3*%
%TO.N,MCU1_3*%
X274984975Y-120663127D03*
D19*
%TO.P,MCU1,122*%
%TO.N,RST*%
X263966334Y-120490032D03*
%TO.P,MCU1,103*%
%TO.N,GND*%
X270765495Y-120596842D03*
D20*
%TO.P,MCU1,22*%
%TO.N,MCU1_22*%
X261866593Y-120457047D03*
D21*
%TO.P,MCU1,122*%
%TO.N,RST*%
X262591504Y-120468435D03*
D22*
%TO.P,MCU1,103*%
%TO.N,GND*%
X272140326Y-120618440D03*
D23*
%TO.P,MCU1,3*%
%TO.N,MCU1_3*%
X272865236Y-120629827D03*
D18*
%TO.P,MCU1,21*%
%TO.N,MCU1_21*%
X259706958Y-122963434D03*
%TO.P,MCU1,4*%
%TO.N,MCU1_4*%
X274945078Y-123202813D03*
D19*
%TO.P,MCU1,121*%
%TO.N,VCC*%
X263926438Y-123029719D03*
%TO.P,MCU1,104*%
%TO.N,GND*%
X270725599Y-123136529D03*
D20*
%TO.P,MCU1,21*%
%TO.N,MCU1_21*%
X261826697Y-122996733D03*
D21*
%TO.P,MCU1,121*%
%TO.N,VCC*%
X262551607Y-123008121D03*
D22*
%TO.P,MCU1,104*%
%TO.N,GND*%
X272100429Y-123158126D03*
D23*
%TO.P,MCU1,4*%
%TO.N,MCU1_4*%
X272825340Y-123169514D03*
D18*
%TO.P,MCU1,20*%
%TO.N,matrix_inner_top*%
X259667062Y-125503121D03*
%TO.P,MCU1,5*%
%TO.N,matrix_ring_home*%
X274905182Y-125742500D03*
%TO.P,MCU1,19*%
%TO.N,matrix_index_top*%
X259627165Y-128042807D03*
%TO.P,MCU1,6*%
%TO.N,matrix_pinky_home*%
X274865285Y-128282187D03*
%TO.P,MCU1,18*%
%TO.N,matrix_middle_top*%
X259587268Y-130582494D03*
%TO.P,MCU1,7*%
%TO.N,matrix_inner_bottom*%
X274825388Y-130821873D03*
%TO.P,MCU1,17*%
%TO.N,matrix_ring_top*%
X259547372Y-133122181D03*
%TO.P,MCU1,8*%
%TO.N,matrix_index_bottom*%
X274785492Y-133361560D03*
%TO.P,MCU1,16*%
%TO.N,matrix_pinky_top*%
X259507475Y-135661867D03*
%TO.P,MCU1,9*%
%TO.N,matrix_middle_bottom*%
X274745595Y-135901247D03*
%TO.P,MCU1,15*%
%TO.N,matrix_inner_home*%
X259467579Y-138201554D03*
%TO.P,MCU1,10*%
%TO.N,matrix_ring_bottom*%
X274705699Y-138440933D03*
%TO.P,MCU1,14*%
%TO.N,matrix_index_home*%
X259427682Y-140741240D03*
%TO.P,MCU1,11*%
%TO.N,matrix_pinky_bottom*%
X274665802Y-140980620D03*
%TO.P,MCU1,13*%
%TO.N,matrix_middle_home*%
X259387786Y-143280927D03*
%TO.P,MCU1,12*%
%TO.N,P9*%
X274625905Y-143520307D03*
%TO.P,MCU1,25*%
%TO.N,thumb_innit*%
X272166012Y-138401037D03*
%TO.P,MCU1,26*%
%TO.N,thumb_middle*%
X269626325Y-138361140D03*
%TO.P,MCU1,27*%
%TO.N,thumb_reachy*%
X267086639Y-138321244D03*
%TO.P,MCU1,28*%
%TO.N,thumb_innit*%
X262007265Y-138241450D03*
%TO.P,MCU1,29*%
%TO.N,thumb_middle*%
X264546952Y-138281347D03*
%TD*%
%TO.P,RST1,2*%
%TO.N,GND*%
X274539739Y-153780219D03*
%TO.P,RST1,1*%
%TO.N,RST*%
X274641837Y-147281021D03*
%TD*%
D24*
%TO.P,PWR1,*%
%TO.N,*%
X263852725Y-110086964D03*
X263818012Y-112296691D03*
X271117111Y-112411355D03*
X271151824Y-110201627D03*
D25*
%TO.P,PWR1,1*%
%TO.N,N/C*%
X269707074Y-113039284D03*
%TO.P,PWR1,2*%
%TO.N,RAW*%
X266707444Y-112992162D03*
%TO.P,PWR1,3*%
%TO.N,BAT_P*%
X265207629Y-112968601D03*
%TD*%
D26*
%TO.P,PAD1,1*%
%TO.N,GND*%
X263810118Y-150361263D03*
%TD*%
%TO.P,PAD2,1*%
%TO.N,BAT_P*%
X270109341Y-150460219D03*
%TD*%
D27*
%TO.P,REF\u002A\u002A,1*%
%TO.N,BAT_P*%
X266926352Y-152535479D03*
%TD*%
D28*
%TO.N,matrix_pinky_bottom*%
X177284201Y-158458322D03*
%TO.N,GND*%
X161782136Y-159678361D03*
%TO.N,matrix_pinky_home*%
X175871937Y-140513810D03*
%TO.N,GND*%
X160369872Y-141733849D03*
%TO.N,matrix_pinky_top*%
X174459673Y-122569298D03*
%TO.N,GND*%
X158957609Y-123789337D03*
%TO.N,matrix_ring_bottom*%
X196122809Y-142002392D03*
%TO.N,GND*%
X180580482Y-142490829D03*
%TO.N,matrix_ring_home*%
X195557415Y-124011274D03*
%TO.N,GND*%
X180015088Y-124499711D03*
%TO.N,matrix_ring_top*%
X194992021Y-106020156D03*
%TO.N,GND*%
X179449694Y-106508593D03*
%TO.N,matrix_middle_bottom*%
X215785053Y-137255302D03*
%TO.N,GND*%
X200236971Y-137011053D03*
%TO.N,matrix_middle_home*%
X216067785Y-119257522D03*
%TO.N,GND*%
X200519703Y-119013273D03*
%TO.N,matrix_middle_top*%
X216350517Y-101259743D03*
%TO.N,GND*%
X200802435Y-101015494D03*
%TO.N,matrix_index_bottom*%
X234712026Y-142053185D03*
%TO.N,GND*%
X219163945Y-141808937D03*
%TO.N,matrix_index_home*%
X234994758Y-124055406D03*
%TO.N,GND*%
X219446676Y-123811157D03*
%TO.N,matrix_index_top*%
X235277490Y-106057626D03*
%TO.N,GND*%
X219729408Y-105813378D03*
%TO.N,matrix_inner_bottom*%
X253653136Y-145951180D03*
%TO.N,GND*%
X238105054Y-145706931D03*
%TO.N,matrix_inner_home*%
X253935868Y-127953401D03*
%TO.N,GND*%
X238387786Y-127709152D03*
%TO.N,matrix_inner_top*%
X254218599Y-109955621D03*
%TO.N,GND*%
X238670518Y-109711373D03*
%TO.N,thumb_innit*%
X234302065Y-168149965D03*
%TO.N,GND*%
X218753984Y-167905717D03*
%TO.N,thumb_middle*%
X253271448Y-170248182D03*
%TO.N,GND*%
X237723366Y-170003934D03*
%TO.N,thumb_reachy*%
X263261217Y-168803645D03*
%TO.N,GND*%
X259001151Y-183758722D03*
%TD*%
D29*
%TO.N,GND*%
X274539739Y-153780219D02*
X266478981Y-153780219D01*
X266478981Y-153780219D02*
X263810118Y-151111356D01*
X263810118Y-151111356D02*
X263810118Y-150361263D01*
%TO.N,BAT_P*%
X266926352Y-152535479D02*
X268034081Y-152535479D01*
X268034081Y-152535479D02*
X270109341Y-150460219D01*
X265207629Y-112968601D02*
X264851999Y-113324231D01*
X264851999Y-113324231D02*
X263522969Y-113324231D01*
X263522969Y-113324231D02*
X263011791Y-112813053D01*
X276250000Y-143522558D02*
X270109341Y-149663217D01*
X263011791Y-112813053D02*
X263011791Y-111777189D01*
X263011791Y-111777189D02*
X263899752Y-110889228D01*
X263899752Y-110889228D02*
X265185182Y-110889228D01*
X265185182Y-110889228D02*
X265653811Y-110420599D01*
X265653811Y-110420599D02*
X269269061Y-110420599D01*
X269269061Y-110420599D02*
X270552013Y-111703551D01*
X270552013Y-111703551D02*
X273424304Y-111703551D01*
X273424304Y-111703551D02*
X276250000Y-114529247D01*
X276250000Y-114529247D02*
X276250000Y-143522558D01*
X270109341Y-149663217D02*
X270109341Y-150460219D01*
%TO.N,RAW*%
X266707444Y-112992162D02*
X264288947Y-115410659D01*
X264288947Y-115410659D02*
X264046127Y-115410659D01*
%TO.N,matrix_pinky_bottom*%
X177284201Y-158458322D02*
X184299876Y-151442647D01*
X221915969Y-151442647D02*
X225923322Y-155450000D01*
X256000000Y-155450000D02*
X270200000Y-141250000D01*
X184299876Y-151442647D02*
X221915969Y-151442647D01*
X225923322Y-155450000D02*
X256000000Y-155450000D01*
X270200000Y-141250000D02*
X274396422Y-141250000D01*
X274396422Y-141250000D02*
X274665802Y-140980620D01*
%TO.N,matrix_ring_bottom*%
X196122809Y-142002392D02*
X199252860Y-145132443D01*
X199252860Y-145132443D02*
X216171451Y-145132443D01*
X216171451Y-145132443D02*
X226089008Y-155050000D01*
X226089008Y-155050000D02*
X255265685Y-155050000D01*
X255265685Y-155050000D02*
X269657843Y-140657842D01*
X269657843Y-140657842D02*
X272488790Y-140657842D01*
X272488790Y-140657842D02*
X274705699Y-138440933D01*
%TO.N,matrix_middle_bottom*%
X215785053Y-137255302D02*
X215785053Y-144180359D01*
X215785053Y-144180359D02*
X226254694Y-154650000D01*
X226254694Y-154650000D02*
X255100000Y-154650000D01*
X255100000Y-154650000D02*
X271016012Y-138733988D01*
X271016012Y-138733988D02*
X271016012Y-137733988D01*
X271016012Y-137733988D02*
X272848753Y-135901247D01*
X272848753Y-135901247D02*
X274745595Y-135901247D01*
%TO.N,matrix_index_bottom*%
X234712026Y-142053185D02*
X234712026Y-148064217D01*
X234712026Y-148064217D02*
X240897809Y-154250000D01*
X240897809Y-154250000D02*
X253063811Y-154250000D01*
X253063811Y-154250000D02*
X268476325Y-138837486D01*
X268476325Y-138837486D02*
X268476325Y-133523675D01*
X268476325Y-133523675D02*
X268750000Y-133250000D01*
X268750000Y-133250000D02*
X268861560Y-133361560D01*
X268861560Y-133361560D02*
X274785492Y-133361560D01*
%TO.N,matrix_inner_bottom*%
X265750000Y-140065685D02*
X265750000Y-131000000D01*
X265750000Y-131000000D02*
X266000000Y-130750000D01*
X259864505Y-145951180D02*
X265750000Y-140065685D01*
X253653136Y-145951180D02*
X259864505Y-145951180D01*
X266000000Y-130750000D02*
X266071873Y-130821873D01*
X266071873Y-130821873D02*
X274825388Y-130821873D01*
%TO.N,matrix_pinky_home*%
X175871937Y-140513810D02*
X183235747Y-133150000D01*
X236381262Y-133150000D02*
X240481262Y-137250000D01*
X183235747Y-133150000D02*
X236381262Y-133150000D01*
X240481262Y-137250000D02*
X256000000Y-137250000D01*
X256000000Y-137250000D02*
X256000000Y-142085173D01*
X256000000Y-142085173D02*
X258745754Y-144830927D01*
X258745754Y-144830927D02*
X260419073Y-144830927D01*
X260419073Y-144830927D02*
X263396952Y-141853048D01*
X263396952Y-141853048D02*
X263396952Y-128603048D01*
X263396952Y-128603048D02*
X263500000Y-128500000D01*
X263500000Y-128500000D02*
X264000000Y-128500000D01*
X264000000Y-128500000D02*
X264217813Y-128282187D01*
X264217813Y-128282187D02*
X274865285Y-128282187D01*
%TO.N,matrix_ring_home*%
X260777165Y-143722835D02*
X260777165Y-126500000D01*
X260777165Y-126500000D02*
X261534665Y-125742500D01*
X261534665Y-125742500D02*
X274905182Y-125742500D01*
X258911440Y-144430927D02*
X260069073Y-144430927D01*
X260069073Y-144430927D02*
X260777165Y-143722835D01*
X256409484Y-141928971D02*
X258911440Y-144430927D01*
X195557415Y-124011274D02*
X204296141Y-132750000D01*
X256409484Y-136840517D02*
X256409484Y-141928971D01*
X204296141Y-132750000D02*
X236546948Y-132750000D01*
X240637465Y-136840517D02*
X256409484Y-136840517D01*
X236546948Y-132750000D02*
X240637465Y-136840517D01*
%TO.N,matrix_middle_home*%
X216067785Y-119257522D02*
X216067785Y-126182579D01*
X216067785Y-126182579D02*
X222078889Y-132193683D01*
X222078889Y-132193683D02*
X236556317Y-132193683D01*
X236556317Y-132193683D02*
X240593176Y-136230542D01*
X240593176Y-136230542D02*
X256365195Y-136230542D01*
X256365195Y-136230542D02*
X257450170Y-137315517D01*
X257450170Y-137315517D02*
X257450170Y-141343311D01*
X257450170Y-141343311D02*
X259387786Y-143280927D01*
%TO.N,matrix_index_home*%
X256530881Y-135830542D02*
X257850170Y-137149831D01*
X240758862Y-135830542D02*
X256530881Y-135830542D01*
X257850170Y-139163728D02*
X259427682Y-140741240D01*
X234994758Y-130066438D02*
X240758862Y-135830542D01*
X234994758Y-124055406D02*
X234994758Y-130066438D01*
X257850170Y-137149831D02*
X257850170Y-139163728D01*
%TO.N,matrix_inner_home*%
X253935868Y-127953401D02*
X253935868Y-132669843D01*
X253935868Y-132669843D02*
X259467579Y-138201554D01*
%TO.N,matrix_pinky_top*%
X241000000Y-119500000D02*
X256400000Y-119500000D01*
X256400000Y-119500000D02*
X256400000Y-132554392D01*
X237000000Y-115500000D02*
X241000000Y-119500000D01*
X178452086Y-119190046D02*
X178452086Y-115357431D01*
X175072834Y-122569298D02*
X178452086Y-119190046D01*
X236759163Y-115247390D02*
X237000000Y-115488227D01*
X178452086Y-115357431D02*
X178342045Y-115247390D01*
X174459673Y-122569298D02*
X175072834Y-122569298D01*
X178342045Y-115247390D02*
X236759163Y-115247390D01*
X237000000Y-115488227D02*
X237000000Y-115500000D01*
X256400000Y-132554392D02*
X259507475Y-135661867D01*
%TO.N,matrix_ring_top*%
X194992021Y-106020156D02*
X198108749Y-109136884D01*
X198108749Y-109136884D02*
X216736914Y-109136884D01*
X216736914Y-109136884D02*
X222428458Y-114828428D01*
X222428458Y-114828428D02*
X236905887Y-114828428D01*
X236905887Y-114828428D02*
X240977459Y-118900000D01*
X240977459Y-118900000D02*
X256800000Y-118900000D01*
X256800000Y-118900000D02*
X256800000Y-130374809D01*
X256800000Y-130374809D02*
X259547372Y-133122181D01*
%TO.N,matrix_inner_top*%
X254218599Y-109955621D02*
X254218599Y-114052914D01*
X254218599Y-114052914D02*
X258000000Y-117834315D01*
X258000000Y-117834315D02*
X258000000Y-123836059D01*
X258000000Y-123836059D02*
X259667062Y-125503121D01*
%TO.N,matrix_middle_top*%
X216350517Y-101259743D02*
X216350517Y-108184801D01*
X216350517Y-108184801D02*
X222594144Y-114428428D01*
X222594144Y-114428428D02*
X237071573Y-114428428D01*
X237071573Y-114428428D02*
X241143145Y-118500000D01*
X241143145Y-118500000D02*
X257200000Y-118500000D01*
X257200000Y-118500000D02*
X257200000Y-128195226D01*
X257200000Y-128195226D02*
X259587268Y-130582494D01*
%TO.N,matrix_index_top*%
X241208831Y-118000000D02*
X257600000Y-118000000D01*
X235277490Y-112068659D02*
X241208831Y-118000000D01*
X235277490Y-106057626D02*
X235277490Y-112068659D01*
X257600000Y-118000000D02*
X257600000Y-126015642D01*
X257600000Y-126015642D02*
X259627165Y-128042807D01*
%TO.N,matrix_pinky_bottom*%
X172798073Y-158811388D02*
X177284201Y-158458322D01*
%TO.N,GND*%
X161954746Y-161871580D02*
X161782136Y-159678361D01*
%TO.N,matrix_pinky_home*%
X171385809Y-140866876D02*
X175871937Y-140513810D01*
%TO.N,GND*%
X160542482Y-143927068D02*
X160369872Y-141733849D01*
%TO.N,matrix_pinky_top*%
X169973545Y-122922364D02*
X174459673Y-122569298D01*
%TO.N,GND*%
X159130219Y-125982555D02*
X158957609Y-123789337D01*
%TO.N,matrix_ring_bottom*%
X191625029Y-142143740D02*
X196122809Y-142002392D01*
%TO.N,GND*%
X180649585Y-144689744D02*
X180580482Y-142490829D01*
%TO.N,matrix_ring_home*%
X191059635Y-124152622D02*
X195557415Y-124011274D01*
%TO.N,GND*%
X180084191Y-126698626D02*
X180015088Y-124499711D01*
%TO.N,matrix_ring_top*%
X190494242Y-106161504D02*
X194992021Y-106020156D01*
%TO.N,GND*%
X179518798Y-108707508D02*
X179449694Y-106508593D01*
%TO.N,matrix_middle_bottom*%
X211285608Y-137184619D02*
X215785053Y-137255302D01*
%TO.N,GND*%
X200202415Y-139210781D02*
X200236971Y-137011053D01*
%TO.N,matrix_middle_home*%
X211568340Y-119186839D02*
X216067785Y-119257522D01*
%TO.N,GND*%
X200485147Y-121213002D02*
X200519703Y-119013273D01*
%TO.N,matrix_middle_top*%
X211851072Y-101189060D02*
X216350517Y-101259743D01*
%TO.N,GND*%
X200767879Y-103215223D02*
X200802435Y-101015494D01*
%TO.N,matrix_index_bottom*%
X230212581Y-141982502D02*
X234712026Y-142053185D01*
%TO.N,GND*%
X219129388Y-144008665D02*
X219163945Y-141808937D01*
%TO.N,matrix_index_home*%
X230495313Y-123984723D02*
X234994758Y-124055406D01*
%TO.N,GND*%
X219412120Y-126010886D02*
X219446676Y-123811157D01*
%TO.N,matrix_index_top*%
X230778045Y-105986944D02*
X235277490Y-106057626D01*
%TO.N,GND*%
X219694852Y-108013106D02*
X219729408Y-105813378D01*
%TO.N,matrix_inner_bottom*%
X249153691Y-145880497D02*
X253653136Y-145951180D01*
%TO.N,GND*%
X238070498Y-147906660D02*
X238105054Y-145706931D01*
%TO.N,matrix_inner_home*%
X249436423Y-127882718D02*
X253935868Y-127953401D01*
%TO.N,GND*%
X238353230Y-129908881D02*
X238387786Y-127709152D01*
%TO.N,matrix_inner_top*%
X249719154Y-109884939D02*
X254218599Y-109955621D01*
%TO.N,GND*%
X238635962Y-111911101D02*
X238670518Y-109711373D01*
%TO.N,thumb_innit*%
X229802620Y-168079282D02*
X234302065Y-168149965D01*
%TO.N,GND*%
X218719427Y-170105445D02*
X218753984Y-167905717D01*
%TO.N,thumb_middle*%
X248772003Y-170177499D02*
X253271448Y-170248182D01*
%TO.N,GND*%
X237688810Y-172203662D02*
X237723366Y-170003934D01*
%TO.N,thumb_reachy*%
X262028400Y-173131481D02*
X263261217Y-168803645D01*
%TO.N,GND*%
X261116982Y-184361432D02*
X259001151Y-183758722D01*
D30*
%TO.N,P1*%
X272220119Y-115539066D02*
X270845289Y-115517468D01*
%TO.N,RAW*%
X262671297Y-115389061D02*
X264046128Y-115410659D01*
%TO.N,MCU1_24*%
X259826648Y-115344374D02*
X261946387Y-115377673D01*
%TO.N,MCU1_1*%
X272945030Y-115550454D02*
X275064768Y-115583753D01*
%TO.N,P0*%
X272180223Y-118078753D02*
X270805392Y-118057155D01*
%TO.N,GND*%
X262631401Y-117928748D02*
X264006231Y-117950345D01*
%TO.N,MCU1_23*%
X259786752Y-117884060D02*
X261906490Y-117917360D01*
%TO.N,MCU1_2*%
X272905133Y-118090140D02*
X275024872Y-118123440D01*
%TO.N,GND*%
X272140326Y-120618439D02*
X270765496Y-120596842D01*
%TO.N,RST*%
X262591504Y-120468434D02*
X263966335Y-120490032D01*
%TO.N,MCU1_22*%
X259746855Y-120423747D02*
X261866594Y-120457046D01*
%TO.N,MCU1_3*%
X272865237Y-120629827D02*
X274984975Y-120663126D01*
%TO.N,GND*%
X272100429Y-123158126D02*
X270725599Y-123136528D01*
%TO.N,VCC*%
X262551608Y-123008121D02*
X263926438Y-123029718D01*
%TO.N,MCU1_21*%
X259706958Y-122963434D02*
X261826697Y-122996733D01*
%TO.N,MCU1_4*%
X272825340Y-123169514D02*
X274945078Y-123202813D01*
%TD*%
M02*
