%TF.GenerationSoftware,KiCad,Pcbnew,8.0.8*%
%TF.CreationDate,2025-02-07T20:27:56+10:30*%
%TF.ProjectId,quasikeyboard,71756173-696b-4657-9962-6f6172642e6b,0.1*%
%TF.SameCoordinates,Original*%
%TF.FileFunction,Legend,Bot*%
%TF.FilePolarity,Positive*%
%FSLAX46Y46*%
G04 Gerber Fmt 4.6, Leading zero omitted, Abs format (unit mm)*
G04 Created by KiCad (PCBNEW 8.0.8) date 2025-02-07 20:27:56*
%MOMM*%
%LPD*%
G01*
G04 APERTURE LIST*
%ADD10C,0.150000*%
%ADD11C,0.120000*%
G04 APERTURE END LIST*
D10*
X267210889Y-115405187D02*
X267226597Y-114405310D01*
X267226597Y-114405310D02*
X266845691Y-114399326D01*
X266845691Y-114399326D02*
X266749717Y-114445443D01*
X266749717Y-114445443D02*
X266701356Y-114492309D01*
X266701356Y-114492309D02*
X266652247Y-114586787D01*
X266652247Y-114586787D02*
X266650003Y-114729627D01*
X266650003Y-114729627D02*
X266696120Y-114825601D01*
X266696120Y-114825601D02*
X266742985Y-114873962D01*
X266742985Y-114873962D02*
X266837464Y-114923071D01*
X266837464Y-114923071D02*
X267218369Y-114929055D01*
X266272837Y-114485577D02*
X266225972Y-114437216D01*
X266225972Y-114437216D02*
X266131494Y-114388107D01*
X266131494Y-114388107D02*
X265893428Y-114384367D01*
X265893428Y-114384367D02*
X265797454Y-114430484D01*
X265797454Y-114430484D02*
X265749092Y-114477349D01*
X265749092Y-114477349D02*
X265699983Y-114571828D01*
X265699983Y-114571828D02*
X265698487Y-114667054D01*
X265698487Y-114667054D02*
X265743857Y-114810642D01*
X265743857Y-114810642D02*
X266306239Y-115390975D01*
X266306239Y-115390975D02*
X265687268Y-115381252D01*
X264735004Y-115366292D02*
X265306363Y-115375268D01*
X265020683Y-115370780D02*
X265036391Y-114370903D01*
X265036391Y-114370903D02*
X265129373Y-114515239D01*
X265129373Y-114515239D02*
X265223104Y-114611961D01*
X265223104Y-114611961D02*
X265317582Y-114661070D01*
X269586787Y-115442510D02*
X269927558Y-114971614D01*
X270158145Y-115451486D02*
X270173852Y-114451609D01*
X270173852Y-114451609D02*
X269792947Y-114445625D01*
X269792947Y-114445625D02*
X269696972Y-114491742D01*
X269696972Y-114491742D02*
X269648611Y-114538608D01*
X269648611Y-114538608D02*
X269599502Y-114633086D01*
X269599502Y-114633086D02*
X269597258Y-114775926D01*
X269597258Y-114775926D02*
X269643375Y-114871900D01*
X269643375Y-114871900D02*
X269690241Y-114920261D01*
X269690241Y-114920261D02*
X269784719Y-114969370D01*
X269784719Y-114969370D02*
X270165624Y-114975354D01*
X269210369Y-115150847D02*
X268734237Y-115143368D01*
X269301107Y-115438022D02*
X268983523Y-114432910D01*
X268983523Y-114432910D02*
X268634523Y-115427551D01*
X268412164Y-114423934D02*
X268158391Y-115420071D01*
X268158391Y-115420071D02*
X267979158Y-114702881D01*
X267979158Y-114702881D02*
X267777486Y-115414087D01*
X267777486Y-115414087D02*
X267555127Y-114410471D01*
X266104933Y-117928126D02*
X266120641Y-116928249D01*
X266120641Y-116928249D02*
X265739735Y-116922266D01*
X265739735Y-116922266D02*
X265643761Y-116968383D01*
X265643761Y-116968383D02*
X265595400Y-117015248D01*
X265595400Y-117015248D02*
X265546291Y-117109726D01*
X265546291Y-117109726D02*
X265544047Y-117252566D01*
X265544047Y-117252566D02*
X265590164Y-117348540D01*
X265590164Y-117348540D02*
X265637029Y-117396901D01*
X265637029Y-117396901D02*
X265731508Y-117446010D01*
X265731508Y-117446010D02*
X266112413Y-117451994D01*
X265166881Y-117008516D02*
X265120016Y-116960155D01*
X265120016Y-116960155D02*
X265025538Y-116911046D01*
X265025538Y-116911046D02*
X264787472Y-116907306D01*
X264787472Y-116907306D02*
X264691497Y-116953423D01*
X264691497Y-116953423D02*
X264643136Y-117000289D01*
X264643136Y-117000289D02*
X264594027Y-117094767D01*
X264594027Y-117094767D02*
X264592531Y-117189993D01*
X264592531Y-117189993D02*
X264637900Y-117333581D01*
X264637900Y-117333581D02*
X265200283Y-117913915D01*
X265200283Y-117913915D02*
X264581312Y-117904191D01*
X269633268Y-117031055D02*
X269729242Y-116984938D01*
X269729242Y-116984938D02*
X269872082Y-116987182D01*
X269872082Y-116987182D02*
X270014173Y-117037039D01*
X270014173Y-117037039D02*
X270107904Y-117133761D01*
X270107904Y-117133761D02*
X270154021Y-117229736D01*
X270154021Y-117229736D02*
X270198642Y-117420936D01*
X270198642Y-117420936D02*
X270196399Y-117563776D01*
X270196399Y-117563776D02*
X270145793Y-117753481D01*
X270145793Y-117753481D02*
X270096684Y-117847959D01*
X270096684Y-117847959D02*
X269999962Y-117941689D01*
X269999962Y-117941689D02*
X269856375Y-117987059D01*
X269856375Y-117987059D02*
X269761148Y-117985563D01*
X269761148Y-117985563D02*
X269619057Y-117935706D01*
X269619057Y-117935706D02*
X269572192Y-117887345D01*
X269572192Y-117887345D02*
X269577427Y-117554052D01*
X269577427Y-117554052D02*
X269767880Y-117557044D01*
X269142177Y-117975839D02*
X269157884Y-116975963D01*
X269157884Y-116975963D02*
X268570819Y-117966864D01*
X268570819Y-117966864D02*
X268586526Y-116966987D01*
X268094687Y-117959384D02*
X268110395Y-116959507D01*
X268110395Y-116959507D02*
X267872329Y-116955767D01*
X267872329Y-116955767D02*
X267728741Y-117001137D01*
X267728741Y-117001137D02*
X267632019Y-117094867D01*
X267632019Y-117094867D02*
X267582910Y-117189346D01*
X267582910Y-117189346D02*
X267532305Y-117379050D01*
X267532305Y-117379050D02*
X267530061Y-117521890D01*
X267530061Y-117521890D02*
X267574682Y-117713090D01*
X267574682Y-117713090D02*
X267620799Y-117809065D01*
X267620799Y-117809065D02*
X267714530Y-117905787D01*
X267714530Y-117905787D02*
X267856621Y-117955644D01*
X267856621Y-117955644D02*
X268094687Y-117959384D01*
X266693730Y-119525190D02*
X266789704Y-119479073D01*
X266789704Y-119479073D02*
X266932544Y-119481317D01*
X266932544Y-119481317D02*
X267074635Y-119531174D01*
X267074635Y-119531174D02*
X267168366Y-119627896D01*
X267168366Y-119627896D02*
X267214483Y-119723871D01*
X267214483Y-119723871D02*
X267259104Y-119915071D01*
X267259104Y-119915071D02*
X267256861Y-120057911D01*
X267256861Y-120057911D02*
X267206255Y-120247616D01*
X267206255Y-120247616D02*
X267157146Y-120342094D01*
X267157146Y-120342094D02*
X267060424Y-120435824D01*
X267060424Y-120435824D02*
X266916837Y-120481194D01*
X266916837Y-120481194D02*
X266821610Y-120479698D01*
X266821610Y-120479698D02*
X266679519Y-120429841D01*
X266679519Y-120429841D02*
X266632654Y-120381480D01*
X266632654Y-120381480D02*
X266637889Y-120048187D01*
X266637889Y-120048187D02*
X266828342Y-120051179D01*
X266202639Y-120469974D02*
X266218346Y-119470098D01*
X266218346Y-119470098D02*
X265631281Y-120460999D01*
X265631281Y-120460999D02*
X265646988Y-119461122D01*
X265155149Y-120453519D02*
X265170857Y-119453642D01*
X265170857Y-119453642D02*
X264932791Y-119449902D01*
X264932791Y-119449902D02*
X264789203Y-119495272D01*
X264789203Y-119495272D02*
X264692481Y-119589002D01*
X264692481Y-119589002D02*
X264643372Y-119683481D01*
X264643372Y-119683481D02*
X264592767Y-119873185D01*
X264592767Y-119873185D02*
X264590523Y-120016025D01*
X264590523Y-120016025D02*
X264635144Y-120207225D01*
X264635144Y-120207225D02*
X264681261Y-120303200D01*
X264681261Y-120303200D02*
X264774992Y-120399922D01*
X264774992Y-120399922D02*
X264917083Y-120449779D01*
X264917083Y-120449779D02*
X265155149Y-120453519D01*
X269364154Y-120519640D02*
X269704926Y-120048744D01*
X269935512Y-120528616D02*
X269951220Y-119528739D01*
X269951220Y-119528739D02*
X269570314Y-119522755D01*
X269570314Y-119522755D02*
X269474340Y-119568873D01*
X269474340Y-119568873D02*
X269425979Y-119615738D01*
X269425979Y-119615738D02*
X269376870Y-119710216D01*
X269376870Y-119710216D02*
X269374626Y-119853056D01*
X269374626Y-119853056D02*
X269420743Y-119949030D01*
X269420743Y-119949030D02*
X269467608Y-119997391D01*
X269467608Y-119997391D02*
X269562087Y-120046500D01*
X269562087Y-120046500D02*
X269942992Y-120052484D01*
X268983997Y-120466043D02*
X268840409Y-120511412D01*
X268840409Y-120511412D02*
X268602343Y-120507673D01*
X268602343Y-120507673D02*
X268507865Y-120458563D01*
X268507865Y-120458563D02*
X268461000Y-120410202D01*
X268461000Y-120410202D02*
X268414883Y-120314228D01*
X268414883Y-120314228D02*
X268416378Y-120219002D01*
X268416378Y-120219002D02*
X268465488Y-120124523D01*
X268465488Y-120124523D02*
X268513849Y-120077658D01*
X268513849Y-120077658D02*
X268609823Y-120031541D01*
X268609823Y-120031541D02*
X268801024Y-119986920D01*
X268801024Y-119986920D02*
X268896998Y-119940802D01*
X268896998Y-119940802D02*
X268945359Y-119893937D01*
X268945359Y-119893937D02*
X268994468Y-119799459D01*
X268994468Y-119799459D02*
X268995964Y-119704232D01*
X268995964Y-119704232D02*
X268949847Y-119608258D01*
X268949847Y-119608258D02*
X268902982Y-119559897D01*
X268902982Y-119559897D02*
X268808503Y-119510788D01*
X268808503Y-119510788D02*
X268570438Y-119507048D01*
X268570438Y-119507048D02*
X268426850Y-119552417D01*
X268141919Y-119500316D02*
X267570561Y-119491341D01*
X267840533Y-120495705D02*
X267856240Y-119495828D01*
X266653833Y-122064877D02*
X266749807Y-122018760D01*
X266749807Y-122018760D02*
X266892647Y-122021004D01*
X266892647Y-122021004D02*
X267034738Y-122070861D01*
X267034738Y-122070861D02*
X267128469Y-122167583D01*
X267128469Y-122167583D02*
X267174586Y-122263558D01*
X267174586Y-122263558D02*
X267219207Y-122454758D01*
X267219207Y-122454758D02*
X267216964Y-122597598D01*
X267216964Y-122597598D02*
X267166358Y-122787303D01*
X267166358Y-122787303D02*
X267117249Y-122881781D01*
X267117249Y-122881781D02*
X267020527Y-122975511D01*
X267020527Y-122975511D02*
X266876940Y-123020881D01*
X266876940Y-123020881D02*
X266781713Y-123019385D01*
X266781713Y-123019385D02*
X266639622Y-122969528D01*
X266639622Y-122969528D02*
X266592757Y-122921167D01*
X266592757Y-122921167D02*
X266597992Y-122587874D01*
X266597992Y-122587874D02*
X266788445Y-122590866D01*
X266162742Y-123009661D02*
X266178449Y-122009785D01*
X266178449Y-122009785D02*
X265591384Y-123000686D01*
X265591384Y-123000686D02*
X265607091Y-122000809D01*
X265115252Y-122993206D02*
X265130960Y-121993329D01*
X265130960Y-121993329D02*
X264892894Y-121989589D01*
X264892894Y-121989589D02*
X264749306Y-122034959D01*
X264749306Y-122034959D02*
X264652584Y-122128689D01*
X264652584Y-122128689D02*
X264603475Y-122223168D01*
X264603475Y-122223168D02*
X264552870Y-122412872D01*
X264552870Y-122412872D02*
X264550626Y-122555712D01*
X264550626Y-122555712D02*
X264595247Y-122746912D01*
X264595247Y-122746912D02*
X264641364Y-122842887D01*
X264641364Y-122842887D02*
X264735095Y-122939609D01*
X264735095Y-122939609D02*
X264877186Y-122989466D01*
X264877186Y-122989466D02*
X265115252Y-122993206D01*
X270125581Y-122071791D02*
X269776582Y-123066432D01*
X269776582Y-123066432D02*
X269458997Y-122061319D01*
X268540135Y-122951758D02*
X268587000Y-123000119D01*
X268587000Y-123000119D02*
X268729092Y-123049976D01*
X268729092Y-123049976D02*
X268824318Y-123051472D01*
X268824318Y-123051472D02*
X268967906Y-123006103D01*
X268967906Y-123006103D02*
X269064628Y-122912373D01*
X269064628Y-122912373D02*
X269113737Y-122817894D01*
X269113737Y-122817894D02*
X269164342Y-122628190D01*
X269164342Y-122628190D02*
X269166586Y-122485350D01*
X269166586Y-122485350D02*
X269121965Y-122294149D01*
X269121965Y-122294149D02*
X269075847Y-122198175D01*
X269075847Y-122198175D02*
X268982117Y-122101453D01*
X268982117Y-122101453D02*
X268840025Y-122051596D01*
X268840025Y-122051596D02*
X268744799Y-122050100D01*
X268744799Y-122050100D02*
X268601212Y-122095469D01*
X268601212Y-122095469D02*
X268552850Y-122142334D01*
X267540258Y-122936051D02*
X267587124Y-122984412D01*
X267587124Y-122984412D02*
X267729215Y-123034269D01*
X267729215Y-123034269D02*
X267824441Y-123035765D01*
X267824441Y-123035765D02*
X267968029Y-122990396D01*
X267968029Y-122990396D02*
X268064751Y-122896665D01*
X268064751Y-122896665D02*
X268113860Y-122802187D01*
X268113860Y-122802187D02*
X268164465Y-122612482D01*
X268164465Y-122612482D02*
X268166709Y-122469643D01*
X268166709Y-122469643D02*
X268122088Y-122278442D01*
X268122088Y-122278442D02*
X268075971Y-122182468D01*
X268075971Y-122182468D02*
X267982240Y-122085746D01*
X267982240Y-122085746D02*
X267840149Y-122035888D01*
X267840149Y-122035888D02*
X267744922Y-122034393D01*
X267744922Y-122034393D02*
X267601335Y-122079762D01*
X267601335Y-122079762D02*
X267552974Y-122126627D01*
X265985243Y-125547186D02*
X266000951Y-124547309D01*
X266000951Y-124547309D02*
X265620045Y-124541326D01*
X265620045Y-124541326D02*
X265524071Y-124587443D01*
X265524071Y-124587443D02*
X265475710Y-124634308D01*
X265475710Y-124634308D02*
X265426601Y-124728786D01*
X265426601Y-124728786D02*
X265424357Y-124871626D01*
X265424357Y-124871626D02*
X265470474Y-124967600D01*
X265470474Y-124967600D02*
X265517339Y-125015961D01*
X265517339Y-125015961D02*
X265611818Y-125065070D01*
X265611818Y-125065070D02*
X265992723Y-125071054D01*
X265047191Y-124627576D02*
X265000326Y-124579215D01*
X265000326Y-124579215D02*
X264905848Y-124530106D01*
X264905848Y-124530106D02*
X264667782Y-124526366D01*
X264667782Y-124526366D02*
X264571807Y-124572483D01*
X264571807Y-124572483D02*
X264523446Y-124619349D01*
X264523446Y-124619349D02*
X264474337Y-124713827D01*
X264474337Y-124713827D02*
X264472841Y-124809053D01*
X264472841Y-124809053D02*
X264518210Y-124952641D01*
X264518210Y-124952641D02*
X265080593Y-125532975D01*
X265080593Y-125532975D02*
X264461622Y-125523251D01*
X270064740Y-125611272D02*
X270080448Y-124611395D01*
X270080448Y-124611395D02*
X269699542Y-124605412D01*
X269699542Y-124605412D02*
X269603568Y-124651529D01*
X269603568Y-124651529D02*
X269555207Y-124698394D01*
X269555207Y-124698394D02*
X269506098Y-124792872D01*
X269506098Y-124792872D02*
X269503854Y-124935712D01*
X269503854Y-124935712D02*
X269549971Y-125031686D01*
X269549971Y-125031686D02*
X269596836Y-125080047D01*
X269596836Y-125080047D02*
X269691315Y-125129156D01*
X269691315Y-125129156D02*
X270072220Y-125135140D01*
X268541119Y-125587337D02*
X269112477Y-125596313D01*
X268826798Y-125591825D02*
X268842505Y-124591948D01*
X268842505Y-124591948D02*
X268935487Y-124736284D01*
X268935487Y-124736284D02*
X269029218Y-124833006D01*
X269029218Y-124833006D02*
X269123696Y-124882115D01*
X265945347Y-128086873D02*
X265961055Y-127086996D01*
X265961055Y-127086996D02*
X265580149Y-127081013D01*
X265580149Y-127081013D02*
X265484175Y-127127130D01*
X265484175Y-127127130D02*
X265435814Y-127173995D01*
X265435814Y-127173995D02*
X265386705Y-127268473D01*
X265386705Y-127268473D02*
X265384461Y-127411313D01*
X265384461Y-127411313D02*
X265430578Y-127507287D01*
X265430578Y-127507287D02*
X265477443Y-127555648D01*
X265477443Y-127555648D02*
X265571922Y-127604757D01*
X265571922Y-127604757D02*
X265952827Y-127610741D01*
X265056404Y-127072785D02*
X264437433Y-127063061D01*
X264437433Y-127063061D02*
X264764741Y-127449202D01*
X264764741Y-127449202D02*
X264621902Y-127446959D01*
X264621902Y-127446959D02*
X264525928Y-127493076D01*
X264525928Y-127493076D02*
X264477566Y-127539941D01*
X264477566Y-127539941D02*
X264428457Y-127634419D01*
X264428457Y-127634419D02*
X264424718Y-127872485D01*
X264424718Y-127872485D02*
X264470835Y-127968460D01*
X264470835Y-127968460D02*
X264517700Y-128016821D01*
X264517700Y-128016821D02*
X264612178Y-128065930D01*
X264612178Y-128065930D02*
X264897857Y-128070418D01*
X264897857Y-128070418D02*
X264993832Y-128024300D01*
X264993832Y-128024300D02*
X265042193Y-127977435D01*
X269911048Y-128149172D02*
X269926756Y-127149295D01*
X269926756Y-127149295D02*
X269545850Y-127143311D01*
X269545850Y-127143311D02*
X269449876Y-127189428D01*
X269449876Y-127189428D02*
X269401515Y-127236294D01*
X269401515Y-127236294D02*
X269352406Y-127330772D01*
X269352406Y-127330772D02*
X269350162Y-127473612D01*
X269350162Y-127473612D02*
X269396279Y-127569586D01*
X269396279Y-127569586D02*
X269443144Y-127617947D01*
X269443144Y-127617947D02*
X269537623Y-127667056D01*
X269537623Y-127667056D02*
X269918528Y-127673040D01*
X268972996Y-127229562D02*
X268926131Y-127181201D01*
X268926131Y-127181201D02*
X268831653Y-127132092D01*
X268831653Y-127132092D02*
X268593587Y-127128352D01*
X268593587Y-127128352D02*
X268497613Y-127174469D01*
X268497613Y-127174469D02*
X268449251Y-127221334D01*
X268449251Y-127221334D02*
X268400142Y-127315813D01*
X268400142Y-127315813D02*
X268398646Y-127411039D01*
X268398646Y-127411039D02*
X268444016Y-127554627D01*
X268444016Y-127554627D02*
X269006398Y-128134960D01*
X269006398Y-128134960D02*
X268387427Y-128125237D01*
X267784163Y-127115636D02*
X267688937Y-127114141D01*
X267688937Y-127114141D02*
X267592962Y-127160258D01*
X267592962Y-127160258D02*
X267544601Y-127207123D01*
X267544601Y-127207123D02*
X267495492Y-127301601D01*
X267495492Y-127301601D02*
X267444887Y-127491306D01*
X267444887Y-127491306D02*
X267441147Y-127729372D01*
X267441147Y-127729372D02*
X267485768Y-127920573D01*
X267485768Y-127920573D02*
X267531886Y-128016547D01*
X267531886Y-128016547D02*
X267578751Y-128064908D01*
X267578751Y-128064908D02*
X267673229Y-128114017D01*
X267673229Y-128114017D02*
X267768456Y-128115513D01*
X267768456Y-128115513D02*
X267864430Y-128069396D01*
X267864430Y-128069396D02*
X267912791Y-128022531D01*
X267912791Y-128022531D02*
X267961900Y-127928052D01*
X267961900Y-127928052D02*
X268012505Y-127738348D01*
X268012505Y-127738348D02*
X268016245Y-127500282D01*
X268016245Y-127500282D02*
X267971624Y-127309081D01*
X267971624Y-127309081D02*
X267925507Y-127213107D01*
X267925507Y-127213107D02*
X267878641Y-127164746D01*
X267878641Y-127164746D02*
X267784163Y-127115636D01*
X265905450Y-130626560D02*
X265921158Y-129626683D01*
X265921158Y-129626683D02*
X265540252Y-129620700D01*
X265540252Y-129620700D02*
X265444278Y-129666817D01*
X265444278Y-129666817D02*
X265395917Y-129713682D01*
X265395917Y-129713682D02*
X265346808Y-129808160D01*
X265346808Y-129808160D02*
X265344564Y-129951000D01*
X265344564Y-129951000D02*
X265390681Y-130046974D01*
X265390681Y-130046974D02*
X265437546Y-130095335D01*
X265437546Y-130095335D02*
X265532025Y-130144444D01*
X265532025Y-130144444D02*
X265912930Y-130150428D01*
X264487527Y-129937536D02*
X264477055Y-130604121D01*
X264731576Y-129560371D02*
X264958423Y-130278308D01*
X264958423Y-130278308D02*
X264339451Y-130268585D01*
X269871152Y-130688858D02*
X269886860Y-129688981D01*
X269886860Y-129688981D02*
X269505954Y-129682997D01*
X269505954Y-129682997D02*
X269409980Y-129729114D01*
X269409980Y-129729114D02*
X269361619Y-129775980D01*
X269361619Y-129775980D02*
X269312510Y-129870458D01*
X269312510Y-129870458D02*
X269310266Y-130013298D01*
X269310266Y-130013298D02*
X269356383Y-130109272D01*
X269356383Y-130109272D02*
X269403248Y-130157633D01*
X269403248Y-130157633D02*
X269497727Y-130206742D01*
X269497727Y-130206742D02*
X269878632Y-130212726D01*
X268347531Y-130664923D02*
X268918889Y-130673898D01*
X268633210Y-130669410D02*
X268648917Y-129669534D01*
X268648917Y-129669534D02*
X268741900Y-129813869D01*
X268741900Y-129813869D02*
X268835630Y-129910592D01*
X268835630Y-129910592D02*
X268930109Y-129959701D01*
X267871399Y-130657443D02*
X267680946Y-130654451D01*
X267680946Y-130654451D02*
X267586468Y-130605342D01*
X267586468Y-130605342D02*
X267539603Y-130556981D01*
X267539603Y-130556981D02*
X267446620Y-130412645D01*
X267446620Y-130412645D02*
X267401999Y-130221445D01*
X267401999Y-130221445D02*
X267407983Y-129840539D01*
X267407983Y-129840539D02*
X267457092Y-129746061D01*
X267457092Y-129746061D02*
X267505453Y-129699196D01*
X267505453Y-129699196D02*
X267601427Y-129653079D01*
X267601427Y-129653079D02*
X267791880Y-129656070D01*
X267791880Y-129656070D02*
X267886359Y-129705180D01*
X267886359Y-129705180D02*
X267933224Y-129753541D01*
X267933224Y-129753541D02*
X267979341Y-129849515D01*
X267979341Y-129849515D02*
X267975601Y-130087581D01*
X267975601Y-130087581D02*
X267926492Y-130182059D01*
X267926492Y-130182059D02*
X267878131Y-130228924D01*
X267878131Y-130228924D02*
X267782157Y-130275042D01*
X267782157Y-130275042D02*
X267591704Y-130272050D01*
X267591704Y-130272050D02*
X267497225Y-130222941D01*
X267497225Y-130222941D02*
X267450360Y-130174580D01*
X267450360Y-130174580D02*
X267404243Y-130078605D01*
X265865553Y-133166246D02*
X265881261Y-132166369D01*
X265881261Y-132166369D02*
X265500355Y-132160386D01*
X265500355Y-132160386D02*
X265404381Y-132206503D01*
X265404381Y-132206503D02*
X265356020Y-132253368D01*
X265356020Y-132253368D02*
X265306911Y-132347846D01*
X265306911Y-132347846D02*
X265304667Y-132490686D01*
X265304667Y-132490686D02*
X265350784Y-132586660D01*
X265350784Y-132586660D02*
X265397649Y-132635021D01*
X265397649Y-132635021D02*
X265492128Y-132684130D01*
X265492128Y-132684130D02*
X265873033Y-132690114D01*
X264405252Y-132143182D02*
X264881384Y-132150662D01*
X264881384Y-132150662D02*
X264921517Y-132627542D01*
X264921517Y-132627542D02*
X264874652Y-132579181D01*
X264874652Y-132579181D02*
X264780174Y-132530071D01*
X264780174Y-132530071D02*
X264542108Y-132526332D01*
X264542108Y-132526332D02*
X264446134Y-132572449D01*
X264446134Y-132572449D02*
X264397772Y-132619314D01*
X264397772Y-132619314D02*
X264348663Y-132713792D01*
X264348663Y-132713792D02*
X264344924Y-132951858D01*
X264344924Y-132951858D02*
X264391041Y-133047833D01*
X264391041Y-133047833D02*
X264437906Y-133096194D01*
X264437906Y-133096194D02*
X264532384Y-133145303D01*
X264532384Y-133145303D02*
X264770450Y-133149043D01*
X264770450Y-133149043D02*
X264866425Y-133102925D01*
X264866425Y-133102925D02*
X264914786Y-133056060D01*
X269831255Y-133228545D02*
X269846963Y-132228668D01*
X269846963Y-132228668D02*
X269466057Y-132222684D01*
X269466057Y-132222684D02*
X269370083Y-132268801D01*
X269370083Y-132268801D02*
X269321722Y-132315667D01*
X269321722Y-132315667D02*
X269272613Y-132410145D01*
X269272613Y-132410145D02*
X269270369Y-132552985D01*
X269270369Y-132552985D02*
X269316486Y-132648959D01*
X269316486Y-132648959D02*
X269363351Y-132697320D01*
X269363351Y-132697320D02*
X269457830Y-132746429D01*
X269457830Y-132746429D02*
X269838735Y-132752413D01*
X268307634Y-133204610D02*
X268878992Y-133213585D01*
X268593313Y-133209097D02*
X268609020Y-132209221D01*
X268609020Y-132209221D02*
X268702003Y-132353556D01*
X268702003Y-132353556D02*
X268795733Y-132450279D01*
X268795733Y-132450279D02*
X268890212Y-132499388D01*
X267745251Y-132624276D02*
X267841226Y-132578159D01*
X267841226Y-132578159D02*
X267889587Y-132531294D01*
X267889587Y-132531294D02*
X267938696Y-132436815D01*
X267938696Y-132436815D02*
X267939444Y-132389202D01*
X267939444Y-132389202D02*
X267893327Y-132293228D01*
X267893327Y-132293228D02*
X267846462Y-132244867D01*
X267846462Y-132244867D02*
X267751983Y-132195757D01*
X267751983Y-132195757D02*
X267561530Y-132192766D01*
X267561530Y-132192766D02*
X267465556Y-132238883D01*
X267465556Y-132238883D02*
X267417195Y-132285748D01*
X267417195Y-132285748D02*
X267368086Y-132380226D01*
X267368086Y-132380226D02*
X267367338Y-132427840D01*
X267367338Y-132427840D02*
X267413455Y-132523814D01*
X267413455Y-132523814D02*
X267460320Y-132572175D01*
X267460320Y-132572175D02*
X267554799Y-132621284D01*
X267554799Y-132621284D02*
X267745251Y-132624276D01*
X267745251Y-132624276D02*
X267839730Y-132673385D01*
X267839730Y-132673385D02*
X267886595Y-132721746D01*
X267886595Y-132721746D02*
X267932712Y-132817721D01*
X267932712Y-132817721D02*
X267929720Y-133008173D01*
X267929720Y-133008173D02*
X267880611Y-133102652D01*
X267880611Y-133102652D02*
X267832250Y-133149517D01*
X267832250Y-133149517D02*
X267736276Y-133195634D01*
X267736276Y-133195634D02*
X267545823Y-133192642D01*
X267545823Y-133192642D02*
X267451345Y-133143533D01*
X267451345Y-133143533D02*
X267404480Y-133095172D01*
X267404480Y-133095172D02*
X267358362Y-132999198D01*
X267358362Y-132999198D02*
X267361354Y-132808745D01*
X267361354Y-132808745D02*
X267410463Y-132714267D01*
X267410463Y-132714267D02*
X267458824Y-132667401D01*
X267458824Y-132667401D02*
X267554799Y-132621284D01*
X265825657Y-135705933D02*
X265841365Y-134706056D01*
X265841365Y-134706056D02*
X265460459Y-134700073D01*
X265460459Y-134700073D02*
X265364485Y-134746190D01*
X265364485Y-134746190D02*
X265316124Y-134793055D01*
X265316124Y-134793055D02*
X265267015Y-134887533D01*
X265267015Y-134887533D02*
X265264771Y-135030373D01*
X265264771Y-135030373D02*
X265310888Y-135126347D01*
X265310888Y-135126347D02*
X265357753Y-135174708D01*
X265357753Y-135174708D02*
X265452232Y-135223817D01*
X265452232Y-135223817D02*
X265833137Y-135229801D01*
X264412969Y-134683617D02*
X264603422Y-134686609D01*
X264603422Y-134686609D02*
X264697900Y-134735718D01*
X264697900Y-134735718D02*
X264744766Y-134784079D01*
X264744766Y-134784079D02*
X264837748Y-134928415D01*
X264837748Y-134928415D02*
X264882369Y-135119616D01*
X264882369Y-135119616D02*
X264876386Y-135500521D01*
X264876386Y-135500521D02*
X264827277Y-135594999D01*
X264827277Y-135594999D02*
X264778915Y-135641864D01*
X264778915Y-135641864D02*
X264682941Y-135687982D01*
X264682941Y-135687982D02*
X264492488Y-135684990D01*
X264492488Y-135684990D02*
X264398010Y-135635881D01*
X264398010Y-135635881D02*
X264351145Y-135587520D01*
X264351145Y-135587520D02*
X264305028Y-135491545D01*
X264305028Y-135491545D02*
X264308767Y-135253479D01*
X264308767Y-135253479D02*
X264357876Y-135159001D01*
X264357876Y-135159001D02*
X264406238Y-135112136D01*
X264406238Y-135112136D02*
X264502212Y-135066019D01*
X264502212Y-135066019D02*
X264692665Y-135069010D01*
X264692665Y-135069010D02*
X264787143Y-135118120D01*
X264787143Y-135118120D02*
X264834008Y-135166481D01*
X264834008Y-135166481D02*
X264880125Y-135262455D01*
X269791358Y-135768232D02*
X269807066Y-134768355D01*
X269807066Y-134768355D02*
X269426160Y-134762371D01*
X269426160Y-134762371D02*
X269330186Y-134808488D01*
X269330186Y-134808488D02*
X269281825Y-134855354D01*
X269281825Y-134855354D02*
X269232716Y-134949832D01*
X269232716Y-134949832D02*
X269230472Y-135092672D01*
X269230472Y-135092672D02*
X269276589Y-135188646D01*
X269276589Y-135188646D02*
X269323454Y-135237007D01*
X269323454Y-135237007D02*
X269417933Y-135286116D01*
X269417933Y-135286116D02*
X269798838Y-135292100D01*
X268267737Y-135744297D02*
X268839095Y-135753272D01*
X268553416Y-135748784D02*
X268569123Y-134748908D01*
X268569123Y-134748908D02*
X268662106Y-134893243D01*
X268662106Y-134893243D02*
X268755836Y-134989966D01*
X268755836Y-134989966D02*
X268850315Y-135039075D01*
X267378794Y-134730209D02*
X267854926Y-134737688D01*
X267854926Y-134737688D02*
X267895059Y-135214568D01*
X267895059Y-135214568D02*
X267848194Y-135166207D01*
X267848194Y-135166207D02*
X267753716Y-135117098D01*
X267753716Y-135117098D02*
X267515650Y-135113358D01*
X267515650Y-135113358D02*
X267419675Y-135159475D01*
X267419675Y-135159475D02*
X267371314Y-135206340D01*
X267371314Y-135206340D02*
X267322205Y-135300819D01*
X267322205Y-135300819D02*
X267318465Y-135538885D01*
X267318465Y-135538885D02*
X267364583Y-135634859D01*
X267364583Y-135634859D02*
X267411448Y-135683220D01*
X267411448Y-135683220D02*
X267505926Y-135732329D01*
X267505926Y-135732329D02*
X267743992Y-135736069D01*
X267743992Y-135736069D02*
X267839966Y-135689952D01*
X267839966Y-135689952D02*
X267888327Y-135643087D01*
X266851820Y-138262367D02*
X266867528Y-137262490D01*
X266867528Y-137262490D02*
X266486622Y-137256506D01*
X266486622Y-137256506D02*
X266390648Y-137302623D01*
X266390648Y-137302623D02*
X266342287Y-137349489D01*
X266342287Y-137349489D02*
X266293178Y-137443967D01*
X266293178Y-137443967D02*
X266290934Y-137586807D01*
X266290934Y-137586807D02*
X266337051Y-137682781D01*
X266337051Y-137682781D02*
X266383916Y-137731142D01*
X266383916Y-137731142D02*
X266478395Y-137780251D01*
X266478395Y-137780251D02*
X266859300Y-137786235D01*
X265913768Y-137342757D02*
X265866903Y-137294396D01*
X265866903Y-137294396D02*
X265772425Y-137245287D01*
X265772425Y-137245287D02*
X265534359Y-137241547D01*
X265534359Y-137241547D02*
X265438385Y-137287664D01*
X265438385Y-137287664D02*
X265390023Y-137334529D01*
X265390023Y-137334529D02*
X265340914Y-137429008D01*
X265340914Y-137429008D02*
X265339418Y-137524234D01*
X265339418Y-137524234D02*
X265384788Y-137667822D01*
X265384788Y-137667822D02*
X265947170Y-138248155D01*
X265947170Y-138248155D02*
X265328199Y-138238432D01*
X264375935Y-138223472D02*
X264947294Y-138232448D01*
X264661614Y-138227960D02*
X264677322Y-137228083D01*
X264677322Y-137228083D02*
X264770304Y-137372419D01*
X264770304Y-137372419D02*
X264864035Y-137469141D01*
X264864035Y-137469141D02*
X264958513Y-137518250D01*
X269751462Y-138307918D02*
X269767170Y-137308041D01*
X269767170Y-137308041D02*
X269386264Y-137302057D01*
X269386264Y-137302057D02*
X269290290Y-137348174D01*
X269290290Y-137348174D02*
X269241929Y-137395040D01*
X269241929Y-137395040D02*
X269192820Y-137489518D01*
X269192820Y-137489518D02*
X269190576Y-137632358D01*
X269190576Y-137632358D02*
X269236693Y-137728332D01*
X269236693Y-137728332D02*
X269283558Y-137776693D01*
X269283558Y-137776693D02*
X269378037Y-137825802D01*
X269378037Y-137825802D02*
X269758942Y-137831786D01*
X268227841Y-138283983D02*
X268799199Y-138292958D01*
X268513520Y-138288470D02*
X268529227Y-137288594D01*
X268529227Y-137288594D02*
X268622210Y-137432929D01*
X268622210Y-137432929D02*
X268715940Y-137529652D01*
X268715940Y-137529652D02*
X268810419Y-137578761D01*
X267381275Y-137603935D02*
X267370804Y-138270519D01*
X267625325Y-137226769D02*
X267852171Y-137944707D01*
X267852171Y-137944707D02*
X267233200Y-137934983D01*
X265745864Y-140785306D02*
X265761572Y-139785429D01*
X265761572Y-139785429D02*
X265380666Y-139779446D01*
X265380666Y-139779446D02*
X265284692Y-139825563D01*
X265284692Y-139825563D02*
X265236331Y-139872428D01*
X265236331Y-139872428D02*
X265187222Y-139966906D01*
X265187222Y-139966906D02*
X265184978Y-140109746D01*
X265184978Y-140109746D02*
X265231095Y-140205720D01*
X265231095Y-140205720D02*
X265277960Y-140254081D01*
X265277960Y-140254081D02*
X265372439Y-140303190D01*
X265372439Y-140303190D02*
X265753344Y-140309174D01*
X264612124Y-140195997D02*
X264708098Y-140149879D01*
X264708098Y-140149879D02*
X264756459Y-140103014D01*
X264756459Y-140103014D02*
X264805568Y-140008536D01*
X264805568Y-140008536D02*
X264806316Y-139960923D01*
X264806316Y-139960923D02*
X264760199Y-139864948D01*
X264760199Y-139864948D02*
X264713334Y-139816587D01*
X264713334Y-139816587D02*
X264618855Y-139767478D01*
X264618855Y-139767478D02*
X264428403Y-139764486D01*
X264428403Y-139764486D02*
X264332428Y-139810603D01*
X264332428Y-139810603D02*
X264284067Y-139857469D01*
X264284067Y-139857469D02*
X264234958Y-139951947D01*
X264234958Y-139951947D02*
X264234210Y-139999560D01*
X264234210Y-139999560D02*
X264280327Y-140095535D01*
X264280327Y-140095535D02*
X264327193Y-140143896D01*
X264327193Y-140143896D02*
X264421671Y-140193005D01*
X264421671Y-140193005D02*
X264612124Y-140195997D01*
X264612124Y-140195997D02*
X264706602Y-140245106D01*
X264706602Y-140245106D02*
X264753467Y-140293467D01*
X264753467Y-140293467D02*
X264799584Y-140389441D01*
X264799584Y-140389441D02*
X264796593Y-140579894D01*
X264796593Y-140579894D02*
X264747484Y-140674372D01*
X264747484Y-140674372D02*
X264699122Y-140721237D01*
X264699122Y-140721237D02*
X264603148Y-140767355D01*
X264603148Y-140767355D02*
X264412695Y-140764363D01*
X264412695Y-140764363D02*
X264318217Y-140715254D01*
X264318217Y-140715254D02*
X264271352Y-140666893D01*
X264271352Y-140666893D02*
X264225235Y-140570918D01*
X264225235Y-140570918D02*
X264228226Y-140380466D01*
X264228226Y-140380466D02*
X264277336Y-140285987D01*
X264277336Y-140285987D02*
X264325697Y-140239122D01*
X264325697Y-140239122D02*
X264421671Y-140193005D01*
X269711565Y-140847605D02*
X269727273Y-139847728D01*
X269727273Y-139847728D02*
X269346367Y-139841744D01*
X269346367Y-139841744D02*
X269250393Y-139887861D01*
X269250393Y-139887861D02*
X269202032Y-139934727D01*
X269202032Y-139934727D02*
X269152923Y-140029205D01*
X269152923Y-140029205D02*
X269150679Y-140172045D01*
X269150679Y-140172045D02*
X269196796Y-140268019D01*
X269196796Y-140268019D02*
X269243661Y-140316380D01*
X269243661Y-140316380D02*
X269338140Y-140365489D01*
X269338140Y-140365489D02*
X269719045Y-140371473D01*
X268187944Y-140823670D02*
X268759302Y-140832645D01*
X268473623Y-140828157D02*
X268489330Y-139828281D01*
X268489330Y-139828281D02*
X268582313Y-139972616D01*
X268582313Y-139972616D02*
X268676043Y-140069339D01*
X268676043Y-140069339D02*
X268770522Y-140118448D01*
X267346614Y-139810330D02*
X267537067Y-139813321D01*
X267537067Y-139813321D02*
X267631545Y-139862431D01*
X267631545Y-139862431D02*
X267678410Y-139910792D01*
X267678410Y-139910792D02*
X267771393Y-140055127D01*
X267771393Y-140055127D02*
X267816014Y-140246328D01*
X267816014Y-140246328D02*
X267810030Y-140627233D01*
X267810030Y-140627233D02*
X267760921Y-140721712D01*
X267760921Y-140721712D02*
X267712560Y-140768577D01*
X267712560Y-140768577D02*
X267616586Y-140814694D01*
X267616586Y-140814694D02*
X267426133Y-140811702D01*
X267426133Y-140811702D02*
X267331655Y-140762593D01*
X267331655Y-140762593D02*
X267284790Y-140714232D01*
X267284790Y-140714232D02*
X267238672Y-140618258D01*
X267238672Y-140618258D02*
X267242412Y-140380192D01*
X267242412Y-140380192D02*
X267291521Y-140285713D01*
X267291521Y-140285713D02*
X267339882Y-140238848D01*
X267339882Y-140238848D02*
X267435857Y-140192731D01*
X267435857Y-140192731D02*
X267626309Y-140195723D01*
X267626309Y-140195723D02*
X267720788Y-140244832D01*
X267720788Y-140244832D02*
X267767653Y-140293193D01*
X267767653Y-140293193D02*
X267813770Y-140389167D01*
X265705967Y-143324993D02*
X265721675Y-142325116D01*
X265721675Y-142325116D02*
X265340769Y-142319133D01*
X265340769Y-142319133D02*
X265244795Y-142365250D01*
X265244795Y-142365250D02*
X265196434Y-142412115D01*
X265196434Y-142412115D02*
X265147325Y-142506593D01*
X265147325Y-142506593D02*
X265145081Y-142649433D01*
X265145081Y-142649433D02*
X265191198Y-142745407D01*
X265191198Y-142745407D02*
X265238063Y-142793768D01*
X265238063Y-142793768D02*
X265332542Y-142842877D01*
X265332542Y-142842877D02*
X265713447Y-142848861D01*
X264658477Y-143308538D02*
X264468025Y-143305546D01*
X264468025Y-143305546D02*
X264373546Y-143256437D01*
X264373546Y-143256437D02*
X264326681Y-143208076D01*
X264326681Y-143208076D02*
X264233699Y-143063740D01*
X264233699Y-143063740D02*
X264189077Y-142872539D01*
X264189077Y-142872539D02*
X264195061Y-142491634D01*
X264195061Y-142491634D02*
X264244170Y-142397156D01*
X264244170Y-142397156D02*
X264292531Y-142350290D01*
X264292531Y-142350290D02*
X264388506Y-142304173D01*
X264388506Y-142304173D02*
X264578958Y-142307165D01*
X264578958Y-142307165D02*
X264673437Y-142356274D01*
X264673437Y-142356274D02*
X264720302Y-142404635D01*
X264720302Y-142404635D02*
X264766419Y-142500610D01*
X264766419Y-142500610D02*
X264762679Y-142738676D01*
X264762679Y-142738676D02*
X264713570Y-142833154D01*
X264713570Y-142833154D02*
X264665209Y-142880019D01*
X264665209Y-142880019D02*
X264569235Y-142926136D01*
X264569235Y-142926136D02*
X264378782Y-142923144D01*
X264378782Y-142923144D02*
X264284304Y-142874035D01*
X264284304Y-142874035D02*
X264237439Y-142825674D01*
X264237439Y-142825674D02*
X264191321Y-142729700D01*
X269671669Y-143387291D02*
X269687377Y-142387414D01*
X269687377Y-142387414D02*
X269306471Y-142381430D01*
X269306471Y-142381430D02*
X269210497Y-142427547D01*
X269210497Y-142427547D02*
X269162136Y-142474413D01*
X269162136Y-142474413D02*
X269113027Y-142568891D01*
X269113027Y-142568891D02*
X269110783Y-142711731D01*
X269110783Y-142711731D02*
X269156900Y-142807705D01*
X269156900Y-142807705D02*
X269203765Y-142856066D01*
X269203765Y-142856066D02*
X269298244Y-142905175D01*
X269298244Y-142905175D02*
X269679149Y-142911159D01*
X268148048Y-143363356D02*
X268719406Y-143372331D01*
X268433727Y-143367843D02*
X268449434Y-142367967D01*
X268449434Y-142367967D02*
X268542417Y-142512302D01*
X268542417Y-142512302D02*
X268636147Y-142609025D01*
X268636147Y-142609025D02*
X268730626Y-142658134D01*
X267544784Y-142353755D02*
X267449558Y-142352260D01*
X267449558Y-142352260D02*
X267353583Y-142398377D01*
X267353583Y-142398377D02*
X267305222Y-142445242D01*
X267305222Y-142445242D02*
X267256113Y-142539720D01*
X267256113Y-142539720D02*
X267205508Y-142729425D01*
X267205508Y-142729425D02*
X267201768Y-142967491D01*
X267201768Y-142967491D02*
X267246389Y-143158692D01*
X267246389Y-143158692D02*
X267292507Y-143254666D01*
X267292507Y-143254666D02*
X267339372Y-143303027D01*
X267339372Y-143303027D02*
X267433850Y-143352136D01*
X267433850Y-143352136D02*
X267529077Y-143353632D01*
X267529077Y-143353632D02*
X267625051Y-143307515D01*
X267625051Y-143307515D02*
X267673412Y-143260650D01*
X267673412Y-143260650D02*
X267722521Y-143166171D01*
X267722521Y-143166171D02*
X267773126Y-142976467D01*
X267773126Y-142976467D02*
X267776866Y-142738401D01*
X267776866Y-142738401D02*
X267732245Y-142547200D01*
X267732245Y-142547200D02*
X267686128Y-142451226D01*
X267686128Y-142451226D02*
X267639262Y-142402865D01*
X267639262Y-142402865D02*
X267544784Y-142353755D01*
X275054152Y-149990212D02*
X274583256Y-149649440D01*
X275063128Y-149418854D02*
X274063251Y-149403146D01*
X274063251Y-149403146D02*
X274057267Y-149784052D01*
X274057267Y-149784052D02*
X274103385Y-149880026D01*
X274103385Y-149880026D02*
X274150250Y-149928387D01*
X274150250Y-149928387D02*
X274244728Y-149977496D01*
X274244728Y-149977496D02*
X274387568Y-149979740D01*
X274387568Y-149979740D02*
X274483542Y-149933623D01*
X274483542Y-149933623D02*
X274531903Y-149886758D01*
X274531903Y-149886758D02*
X274581012Y-149792279D01*
X274581012Y-149792279D02*
X274586996Y-149411374D01*
X275000555Y-150370369D02*
X275045924Y-150513957D01*
X275045924Y-150513957D02*
X275042185Y-150752023D01*
X275042185Y-150752023D02*
X274993075Y-150846501D01*
X274993075Y-150846501D02*
X274944714Y-150893366D01*
X274944714Y-150893366D02*
X274848740Y-150939483D01*
X274848740Y-150939483D02*
X274753514Y-150937988D01*
X274753514Y-150937988D02*
X274659035Y-150888878D01*
X274659035Y-150888878D02*
X274612170Y-150840517D01*
X274612170Y-150840517D02*
X274566053Y-150744543D01*
X274566053Y-150744543D02*
X274521432Y-150553342D01*
X274521432Y-150553342D02*
X274475314Y-150457368D01*
X274475314Y-150457368D02*
X274428449Y-150409007D01*
X274428449Y-150409007D02*
X274333971Y-150359898D01*
X274333971Y-150359898D02*
X274238744Y-150358402D01*
X274238744Y-150358402D02*
X274142770Y-150404519D01*
X274142770Y-150404519D02*
X274094409Y-150451384D01*
X274094409Y-150451384D02*
X274045300Y-150545863D01*
X274045300Y-150545863D02*
X274041560Y-150783928D01*
X274041560Y-150783928D02*
X274086929Y-150927516D01*
X274034828Y-151212447D02*
X274025853Y-151783805D01*
X275030217Y-151513833D02*
X274030340Y-151498126D01*
X261953835Y-110308116D02*
X261950844Y-110498569D01*
X261950844Y-110498569D02*
X261996961Y-110594543D01*
X261996961Y-110594543D02*
X262090691Y-110691265D01*
X262090691Y-110691265D02*
X262280396Y-110741870D01*
X262280396Y-110741870D02*
X262613688Y-110747106D01*
X262613688Y-110747106D02*
X262804889Y-110702485D01*
X262804889Y-110702485D02*
X262901611Y-110608754D01*
X262901611Y-110608754D02*
X262950720Y-110514276D01*
X262950720Y-110514276D02*
X262953712Y-110323823D01*
X262953712Y-110323823D02*
X262907595Y-110227849D01*
X262907595Y-110227849D02*
X262813864Y-110131127D01*
X262813864Y-110131127D02*
X262624160Y-110080522D01*
X262624160Y-110080522D02*
X262290867Y-110075286D01*
X262290867Y-110075286D02*
X262099667Y-110119907D01*
X262099667Y-110119907D02*
X262002944Y-110213638D01*
X262002944Y-110213638D02*
X261953835Y-110308116D01*
X262940249Y-111180860D02*
X261940372Y-111165153D01*
X261940372Y-111165153D02*
X262931273Y-111752218D01*
X262931273Y-111752218D02*
X261931396Y-111736511D01*
X271957837Y-110131898D02*
X271954845Y-110322351D01*
X271954845Y-110322351D02*
X272000963Y-110418325D01*
X272000963Y-110418325D02*
X272094693Y-110515047D01*
X272094693Y-110515047D02*
X272284398Y-110565652D01*
X272284398Y-110565652D02*
X272617690Y-110570888D01*
X272617690Y-110570888D02*
X272808891Y-110526267D01*
X272808891Y-110526267D02*
X272905613Y-110432536D01*
X272905613Y-110432536D02*
X272954722Y-110338058D01*
X272954722Y-110338058D02*
X272957714Y-110147605D01*
X272957714Y-110147605D02*
X272911597Y-110051631D01*
X272911597Y-110051631D02*
X272817866Y-109954909D01*
X272817866Y-109954909D02*
X272628161Y-109904304D01*
X272628161Y-109904304D02*
X272294869Y-109899068D01*
X272294869Y-109899068D02*
X272103669Y-109943689D01*
X272103669Y-109943689D02*
X272006946Y-110037420D01*
X272006946Y-110037420D02*
X271957837Y-110131898D01*
X272415270Y-111329707D02*
X272420505Y-110996415D01*
X272944250Y-111004642D02*
X271944374Y-110988935D01*
X271944374Y-110988935D02*
X271936894Y-111465067D01*
X272401806Y-112186744D02*
X272407042Y-111853452D01*
X272930787Y-111861680D02*
X271930910Y-111845972D01*
X271930910Y-111845972D02*
X271923431Y-112322104D01*
X261375595Y-150266259D02*
X261260725Y-150302554D01*
X261260725Y-150302554D02*
X261222036Y-150340047D01*
X261222036Y-150340047D02*
X261182749Y-150415629D01*
X261182749Y-150415629D02*
X261180954Y-150529901D01*
X261180954Y-150529901D02*
X261217847Y-150606680D01*
X261217847Y-150606680D02*
X261255340Y-150645369D01*
X261255340Y-150645369D02*
X261330922Y-150684657D01*
X261330922Y-150684657D02*
X261635647Y-150689444D01*
X261635647Y-150689444D02*
X261648212Y-149889542D01*
X261648212Y-149889542D02*
X261381579Y-149885354D01*
X261381579Y-149885354D02*
X261304799Y-149922247D01*
X261304799Y-149922247D02*
X261266110Y-149959740D01*
X261266110Y-149959740D02*
X261226823Y-150035322D01*
X261226823Y-150035322D02*
X261225626Y-150111503D01*
X261225626Y-150111503D02*
X261262520Y-150188283D01*
X261262520Y-150188283D02*
X261300012Y-150226972D01*
X261300012Y-150226972D02*
X261375595Y-150266259D01*
X261375595Y-150266259D02*
X261642229Y-150270448D01*
X260877426Y-150448933D02*
X260496521Y-150442949D01*
X260950017Y-150678673D02*
X260695949Y-149874583D01*
X260695949Y-149874583D02*
X260416749Y-150670296D01*
X260276953Y-149868001D02*
X259819867Y-149860820D01*
X260035844Y-150664312D02*
X260048410Y-149864411D01*
X259729923Y-150735706D02*
X259120474Y-150726132D01*
X258931218Y-150646959D02*
X258943784Y-149847058D01*
X258943784Y-149847058D02*
X258474132Y-150639779D01*
X258474132Y-150639779D02*
X258486698Y-149839877D01*
X267655773Y-150364916D02*
X267540903Y-150401211D01*
X267540903Y-150401211D02*
X267502214Y-150438703D01*
X267502214Y-150438703D02*
X267462927Y-150514286D01*
X267462927Y-150514286D02*
X267461132Y-150628558D01*
X267461132Y-150628558D02*
X267498026Y-150705337D01*
X267498026Y-150705337D02*
X267535518Y-150744026D01*
X267535518Y-150744026D02*
X267611101Y-150783313D01*
X267611101Y-150783313D02*
X267915825Y-150788100D01*
X267915825Y-150788100D02*
X267928391Y-149988199D01*
X267928391Y-149988199D02*
X267661757Y-149984010D01*
X267661757Y-149984010D02*
X267584978Y-150020904D01*
X267584978Y-150020904D02*
X267546289Y-150058396D01*
X267546289Y-150058396D02*
X267507001Y-150133979D01*
X267507001Y-150133979D02*
X267505805Y-150210160D01*
X267505805Y-150210160D02*
X267542698Y-150286940D01*
X267542698Y-150286940D02*
X267580191Y-150325629D01*
X267580191Y-150325629D02*
X267655773Y-150364916D01*
X267655773Y-150364916D02*
X267922407Y-150369104D01*
X267157604Y-150547590D02*
X266776699Y-150541606D01*
X267230195Y-150777330D02*
X266976127Y-149973240D01*
X266976127Y-149973240D02*
X266696928Y-150768952D01*
X266557132Y-149966658D02*
X266100045Y-149959477D01*
X266316023Y-150762969D02*
X266328588Y-149963067D01*
X266010101Y-150834363D02*
X265400653Y-150824789D01*
X265211397Y-150745616D02*
X265223962Y-149945715D01*
X265223962Y-149945715D02*
X264919238Y-149940928D01*
X264919238Y-149940928D02*
X264842459Y-149977821D01*
X264842459Y-149977821D02*
X264803770Y-150015313D01*
X264803770Y-150015313D02*
X264764483Y-150090896D01*
X264764483Y-150090896D02*
X264762687Y-150205168D01*
X264762687Y-150205168D02*
X264799581Y-150281947D01*
X264799581Y-150281947D02*
X264837073Y-150320636D01*
X264837073Y-150320636D02*
X264912656Y-150359923D01*
X264912656Y-150359923D02*
X265217380Y-150364710D01*
%TO.C,S1*%
X167861259Y-156942967D02*
X167402030Y-157480655D01*
X170852011Y-156707589D02*
X167861259Y-156942967D01*
X171389700Y-157166818D02*
X170852011Y-156707589D01*
X171389700Y-157166818D02*
X171461882Y-158083982D01*
X172025785Y-158621396D02*
X176491975Y-158269899D01*
X176491975Y-158269899D02*
X176539050Y-158868049D01*
X172025785Y-158621396D02*
G75*
G02*
X171461881Y-158083982I-13245J550659D01*
G01*
X168214325Y-161429095D02*
X167676637Y-160969865D01*
X170507235Y-161248639D02*
X168214325Y-161429095D01*
X172374605Y-163308476D02*
X172319683Y-162610634D01*
X176860733Y-162955410D02*
X172374605Y-163308476D01*
X176821503Y-162456952D02*
X176860733Y-162955410D01*
X170507235Y-161248639D02*
G75*
G02*
X172318114Y-162590696I234411J-1576468D01*
G01*
%TO.C,S2*%
X166448995Y-138998455D02*
X165989766Y-139536143D01*
X169439747Y-138763077D02*
X166448995Y-138998455D01*
X169977436Y-139222306D02*
X169439747Y-138763077D01*
X169977436Y-139222306D02*
X170049618Y-140139470D01*
X170613521Y-140676884D02*
X175079711Y-140325387D01*
X175079711Y-140325387D02*
X175126786Y-140923537D01*
X170613521Y-140676884D02*
G75*
G02*
X170049617Y-140139470I-13245J550659D01*
G01*
X166802061Y-143484583D02*
X166264373Y-143025353D01*
X169094971Y-143304127D02*
X166802061Y-143484583D01*
X170962341Y-145363964D02*
X170907419Y-144666122D01*
X175448469Y-145010898D02*
X170962341Y-145363964D01*
X175409239Y-144512440D02*
X175448469Y-145010898D01*
X169094971Y-143304127D02*
G75*
G02*
X170905850Y-144646184I234411J-1576468D01*
G01*
%TO.C,S3*%
X165036732Y-121053943D02*
X164577503Y-121591631D01*
X168027484Y-120818565D02*
X165036732Y-121053943D01*
X168565173Y-121277794D02*
X168027484Y-120818565D01*
X168565173Y-121277794D02*
X168637355Y-122194958D01*
X169201258Y-122732372D02*
X173667448Y-122380875D01*
X173667448Y-122380875D02*
X173714523Y-122979025D01*
X169201258Y-122732372D02*
G75*
G02*
X168637354Y-122194958I-13245J550659D01*
G01*
X165389798Y-125540071D02*
X164852110Y-125080841D01*
X167682708Y-125359615D02*
X165389798Y-125540071D01*
X169550078Y-127419452D02*
X169495156Y-126721610D01*
X174036206Y-127066386D02*
X169550078Y-127419452D01*
X173996976Y-126567928D02*
X174036206Y-127066386D01*
X167682708Y-125359615D02*
G75*
G02*
X169493587Y-126701672I234411J-1576468D01*
G01*
%TO.C,S4*%
X186781711Y-140044837D02*
X186297663Y-140560296D01*
X189780231Y-139950605D02*
X186781711Y-140044837D01*
X190295689Y-140434653D02*
X189780231Y-139950605D01*
X190295689Y-140434653D02*
X190324587Y-141354199D01*
X190862549Y-141917579D02*
X195340338Y-141776859D01*
X195340338Y-141776859D02*
X195359185Y-142376563D01*
X190862549Y-141917579D02*
G75*
G02*
X190324587Y-141354199I12709J550671D01*
G01*
X186923059Y-144542617D02*
X186407601Y-144058569D01*
X189221924Y-144470372D02*
X186923059Y-144542617D01*
X190990189Y-146615888D02*
X190968202Y-145916234D01*
X195487969Y-146474540D02*
X190990189Y-146615888D01*
X195472263Y-145974787D02*
X195487969Y-146474540D01*
X189221924Y-144470372D02*
G75*
G02*
X190967573Y-145896244I159889J-1585760D01*
G01*
%TO.C,S5*%
X186216317Y-122053719D02*
X185732269Y-122569178D01*
X189214837Y-121959487D02*
X186216317Y-122053719D01*
X189730295Y-122443535D02*
X189214837Y-121959487D01*
X189730295Y-122443535D02*
X189759193Y-123363081D01*
X190297155Y-123926461D02*
X194774944Y-123785741D01*
X194774944Y-123785741D02*
X194793791Y-124385445D01*
X190297155Y-123926461D02*
G75*
G02*
X189759193Y-123363081I12709J550671D01*
G01*
X186357665Y-126551499D02*
X185842207Y-126067451D01*
X188656530Y-126479254D02*
X186357665Y-126551499D01*
X190424795Y-128624770D02*
X190402808Y-127925116D01*
X194922575Y-128483422D02*
X190424795Y-128624770D01*
X194906869Y-127983669D02*
X194922575Y-128483422D01*
X188656530Y-126479254D02*
G75*
G02*
X190402179Y-127905126I159889J-1585760D01*
G01*
%TO.C,S6*%
X185650924Y-104062601D02*
X185166876Y-104578060D01*
X188649444Y-103968369D02*
X185650924Y-104062601D01*
X189164902Y-104452417D02*
X188649444Y-103968369D01*
X189164902Y-104452417D02*
X189193800Y-105371963D01*
X189731762Y-105935343D02*
X194209551Y-105794623D01*
X194209551Y-105794623D02*
X194228398Y-106394327D01*
X189731762Y-105935343D02*
G75*
G02*
X189193800Y-105371963I12709J550671D01*
G01*
X185792272Y-108560381D02*
X185276814Y-108076333D01*
X188091137Y-108488136D02*
X185792272Y-108560381D01*
X189859402Y-110633652D02*
X189837415Y-109933998D01*
X194357182Y-110492304D02*
X189859402Y-110633652D01*
X194341476Y-109992551D02*
X194357182Y-110492304D01*
X188091137Y-108488136D02*
G75*
G02*
X189836786Y-109914008I159889J-1585760D01*
G01*
%TO.C,S7*%
X206546539Y-134859894D02*
X206038747Y-135351978D01*
X209546169Y-134907016D02*
X206546539Y-134859894D01*
X210038254Y-135414808D02*
X209546169Y-134907016D01*
X210038254Y-135414808D02*
X210023803Y-136334694D01*
X210534628Y-136922790D02*
X215014076Y-136993159D01*
X215014076Y-136993159D02*
X215004651Y-137593085D01*
X210534628Y-136922790D02*
G75*
G02*
X210023803Y-136334694I38636J549461D01*
G01*
X206475856Y-139359338D02*
X205983771Y-138851547D01*
X208775572Y-139395465D02*
X206475856Y-139359338D01*
X210440807Y-141621896D02*
X210451802Y-140921983D01*
X214940251Y-141692579D02*
X210440807Y-141621896D01*
X214948105Y-141192641D02*
X214940251Y-141692579D01*
X208775572Y-139395465D02*
G75*
G02*
X210452116Y-140901985I85012J-1591532D01*
G01*
%TO.C,S8*%
X206829270Y-116862115D02*
X206321478Y-117354199D01*
X209828900Y-116909237D02*
X206829270Y-116862115D01*
X210320985Y-117417029D02*
X209828900Y-116909237D01*
X210320985Y-117417029D02*
X210306534Y-118336915D01*
X210817359Y-118925011D02*
X215296807Y-118995380D01*
X215296807Y-118995380D02*
X215287382Y-119595306D01*
X210817359Y-118925011D02*
G75*
G02*
X210306534Y-118336915I38636J549461D01*
G01*
X206758587Y-121361559D02*
X206266502Y-120853768D01*
X209058303Y-121397686D02*
X206758587Y-121361559D01*
X210723538Y-123624117D02*
X210734533Y-122924204D01*
X215222982Y-123694800D02*
X210723538Y-123624117D01*
X215230836Y-123194862D02*
X215222982Y-123694800D01*
X209058303Y-121397686D02*
G75*
G02*
X210734847Y-122904206I85012J-1591532D01*
G01*
%TO.C,S9*%
X207112002Y-98864335D02*
X206604210Y-99356419D01*
X210111632Y-98911457D02*
X207112002Y-98864335D01*
X210603717Y-99419249D02*
X210111632Y-98911457D01*
X210603717Y-99419249D02*
X210589266Y-100339135D01*
X211100091Y-100927231D02*
X215579539Y-100997600D01*
X215579539Y-100997600D02*
X215570114Y-101597526D01*
X211100091Y-100927231D02*
G75*
G02*
X210589266Y-100339135I38636J549461D01*
G01*
X207041319Y-103363779D02*
X206549234Y-102855988D01*
X209341035Y-103399906D02*
X207041319Y-103363779D01*
X211006270Y-105626337D02*
X211017265Y-104926424D01*
X215505714Y-105697020D02*
X211006270Y-105626337D01*
X215513568Y-105197082D02*
X215505714Y-105697020D01*
X209341035Y-103399906D02*
G75*
G02*
X211017579Y-104906426I85012J-1591532D01*
G01*
%TO.C,S10*%
X225473512Y-139657778D02*
X224965720Y-140149862D01*
X228473142Y-139704900D02*
X225473512Y-139657778D01*
X228965227Y-140212692D02*
X228473142Y-139704900D01*
X228965227Y-140212692D02*
X228950776Y-141132578D01*
X229461601Y-141720674D02*
X233941049Y-141791043D01*
X233941049Y-141791043D02*
X233931624Y-142390969D01*
X229461601Y-141720674D02*
G75*
G02*
X228950776Y-141132578I38636J549461D01*
G01*
X225402829Y-144157222D02*
X224910744Y-143649431D01*
X227702545Y-144193349D02*
X225402829Y-144157222D01*
X229367780Y-146419780D02*
X229378775Y-145719867D01*
X233867224Y-146490463D02*
X229367780Y-146419780D01*
X233875078Y-145990525D02*
X233867224Y-146490463D01*
X227702545Y-144193349D02*
G75*
G02*
X229379089Y-145699869I85012J-1591532D01*
G01*
%TO.C,S11*%
X225756244Y-121659998D02*
X225248452Y-122152082D01*
X228755874Y-121707120D02*
X225756244Y-121659998D01*
X229247959Y-122214912D02*
X228755874Y-121707120D01*
X229247959Y-122214912D02*
X229233508Y-123134798D01*
X229744333Y-123722894D02*
X234223781Y-123793263D01*
X234223781Y-123793263D02*
X234214356Y-124393189D01*
X229744333Y-123722894D02*
G75*
G02*
X229233508Y-123134798I38636J549461D01*
G01*
X225685561Y-126159442D02*
X225193476Y-125651651D01*
X227985277Y-126195569D02*
X225685561Y-126159442D01*
X229650512Y-128422000D02*
X229661507Y-127722087D01*
X234149956Y-128492683D02*
X229650512Y-128422000D01*
X234157810Y-127992745D02*
X234149956Y-128492683D01*
X227985277Y-126195569D02*
G75*
G02*
X229661821Y-127702089I85012J-1591532D01*
G01*
%TO.C,S12*%
X226038975Y-103662219D02*
X225531183Y-104154303D01*
X229038605Y-103709341D02*
X226038975Y-103662219D01*
X229530690Y-104217133D02*
X229038605Y-103709341D01*
X229530690Y-104217133D02*
X229516239Y-105137019D01*
X230027064Y-105725115D02*
X234506512Y-105795484D01*
X234506512Y-105795484D02*
X234497087Y-106395410D01*
X230027064Y-105725115D02*
G75*
G02*
X229516239Y-105137019I38636J549461D01*
G01*
X225968292Y-108161663D02*
X225476207Y-107653872D01*
X228268008Y-108197790D02*
X225968292Y-108161663D01*
X229933243Y-110424221D02*
X229944238Y-109724308D01*
X234432687Y-110494904D02*
X229933243Y-110424221D01*
X234440541Y-109994966D02*
X234432687Y-110494904D01*
X228268008Y-108197790D02*
G75*
G02*
X229944552Y-109704310I85012J-1591532D01*
G01*
%TO.C,S13*%
X244414622Y-143555773D02*
X243906830Y-144047857D01*
X247414252Y-143602895D02*
X244414622Y-143555773D01*
X247906337Y-144110687D02*
X247414252Y-143602895D01*
X247906337Y-144110687D02*
X247891886Y-145030573D01*
X248402711Y-145618669D02*
X252882159Y-145689038D01*
X252882159Y-145689038D02*
X252872734Y-146288964D01*
X248402711Y-145618669D02*
G75*
G02*
X247891886Y-145030573I38636J549461D01*
G01*
X244343939Y-148055217D02*
X243851854Y-147547426D01*
X246643655Y-148091344D02*
X244343939Y-148055217D01*
X248308890Y-150317775D02*
X248319885Y-149617862D01*
X252808334Y-150388458D02*
X248308890Y-150317775D01*
X252816188Y-149888520D02*
X252808334Y-150388458D01*
X246643655Y-148091344D02*
G75*
G02*
X248320199Y-149597864I85012J-1591532D01*
G01*
%TO.C,S14*%
X244697353Y-125557993D02*
X244189561Y-126050077D01*
X247696983Y-125605115D02*
X244697353Y-125557993D01*
X248189068Y-126112907D02*
X247696983Y-125605115D01*
X248189068Y-126112907D02*
X248174617Y-127032793D01*
X248685442Y-127620889D02*
X253164890Y-127691258D01*
X253164890Y-127691258D02*
X253155465Y-128291184D01*
X248685442Y-127620889D02*
G75*
G02*
X248174617Y-127032793I38636J549461D01*
G01*
X244626670Y-130057437D02*
X244134585Y-129549646D01*
X246926386Y-130093564D02*
X244626670Y-130057437D01*
X248591621Y-132319995D02*
X248602616Y-131620082D01*
X253091065Y-132390678D02*
X248591621Y-132319995D01*
X253098919Y-131890740D02*
X253091065Y-132390678D01*
X246926386Y-130093564D02*
G75*
G02*
X248602930Y-131600084I85012J-1591532D01*
G01*
%TO.C,S15*%
X244980085Y-107560214D02*
X244472293Y-108052298D01*
X247979715Y-107607336D02*
X244980085Y-107560214D01*
X248471800Y-108115128D02*
X247979715Y-107607336D01*
X248471800Y-108115128D02*
X248457349Y-109035014D01*
X248968174Y-109623110D02*
X253447622Y-109693479D01*
X253447622Y-109693479D02*
X253438197Y-110293405D01*
X248968174Y-109623110D02*
G75*
G02*
X248457349Y-109035014I38636J549461D01*
G01*
X244909402Y-112059658D02*
X244417317Y-111551867D01*
X247209118Y-112095785D02*
X244909402Y-112059658D01*
X248874353Y-114322216D02*
X248885348Y-113622303D01*
X253373797Y-114392899D02*
X248874353Y-114322216D01*
X253381651Y-113892961D02*
X253373797Y-114392899D01*
X247209118Y-112095785D02*
G75*
G02*
X248885662Y-113602305I85012J-1591532D01*
G01*
%TO.C,S16*%
X225063551Y-165754558D02*
X224555759Y-166246642D01*
X228063181Y-165801680D02*
X225063551Y-165754558D01*
X228555266Y-166309472D02*
X228063181Y-165801680D01*
X228555266Y-166309472D02*
X228540815Y-167229358D01*
X229051640Y-167817454D02*
X233531088Y-167887823D01*
X233531088Y-167887823D02*
X233521663Y-168487749D01*
X229051640Y-167817454D02*
G75*
G02*
X228540815Y-167229358I38636J549461D01*
G01*
X224992868Y-170254002D02*
X224500783Y-169746211D01*
X227292584Y-170290129D02*
X224992868Y-170254002D01*
X228957819Y-172516560D02*
X228968814Y-171816647D01*
X233457263Y-172587243D02*
X228957819Y-172516560D01*
X233465117Y-172087305D02*
X233457263Y-172587243D01*
X227292584Y-170290129D02*
G75*
G02*
X228969128Y-171796649I85012J-1591532D01*
G01*
%TO.C,S17*%
X244032934Y-167852775D02*
X243525142Y-168344859D01*
X247032564Y-167899897D02*
X244032934Y-167852775D01*
X247524649Y-168407689D02*
X247032564Y-167899897D01*
X247524649Y-168407689D02*
X247510198Y-169327575D01*
X248021023Y-169915671D02*
X252500471Y-169986040D01*
X252500471Y-169986040D02*
X252491046Y-170585966D01*
X248021023Y-169915671D02*
G75*
G02*
X247510198Y-169327575I38636J549461D01*
G01*
X243962251Y-172352219D02*
X243470166Y-171844428D01*
X246261967Y-172388346D02*
X243962251Y-172352219D01*
X247927202Y-174614777D02*
X247938197Y-173914864D01*
X252426646Y-174685460D02*
X247927202Y-174614777D01*
X252434500Y-174185522D02*
X252426646Y-174685460D01*
X246261967Y-172388346D02*
G75*
G02*
X247938511Y-173894866I85012J-1591532D01*
G01*
%TO.C,S18*%
X258556327Y-177107387D02*
X258900218Y-177725238D01*
X259378205Y-174222163D02*
X258556327Y-177107387D01*
X259996055Y-173878272D02*
X259378205Y-174222163D01*
X259996055Y-173878272D02*
X260880857Y-174130315D01*
X261581126Y-173789106D02*
X262808463Y-169480505D01*
X262808463Y-169480505D02*
X263385508Y-169644880D01*
X261581126Y-173789106D02*
G75*
G02*
X260880857Y-174130315I-520739J179530D01*
G01*
X262884163Y-178340204D02*
X262266313Y-178684095D01*
X263514270Y-176128199D02*
X262884163Y-178340204D01*
X266095831Y-175095949D02*
X265422612Y-174904177D01*
X267328648Y-170768113D02*
X266095831Y-175095949D01*
X266847777Y-170631133D02*
X267328648Y-170768113D01*
X263514270Y-176128199D02*
G75*
G02*
X265403377Y-174898698I1559304J-329803D01*
G01*
D11*
%TO.C,MCU1*%
X261185386Y-113525492D02*
X258525714Y-113483710D01*
X261185386Y-113525492D02*
X260704742Y-144121717D01*
X260704742Y-144121717D02*
X258045070Y-144079935D01*
X258525714Y-113483710D02*
X258045070Y-144079935D01*
X276423506Y-113764871D02*
X273763834Y-113723090D01*
X276423506Y-113764871D02*
X275942862Y-144361096D01*
X275942862Y-144361096D02*
X273283190Y-144319315D01*
X273763834Y-113723090D02*
X273283190Y-144319315D01*
X258484875Y-116083390D02*
X261144547Y-116125171D01*
D10*
%TO.C,RST1*%
X276137725Y-147554551D02*
X276387694Y-147558478D01*
X276387694Y-147558478D02*
X276293450Y-153557738D01*
X276293450Y-153557738D02*
X276043481Y-153553811D01*
X273043851Y-153506689D02*
X272793882Y-153502762D01*
X272793882Y-153502762D02*
X272888126Y-147503502D01*
X272888126Y-147503502D02*
X273138095Y-147507429D01*
D11*
%TO.C,PWR1*%
X268866053Y-112461002D02*
X269066029Y-112464144D01*
X270944702Y-110653429D02*
X270932293Y-111443332D01*
X264033144Y-111334951D02*
X264045553Y-110545049D01*
X265866423Y-112413880D02*
X267566214Y-112440583D01*
X264661344Y-109544598D02*
X270360640Y-109634130D01*
%TD*%
M02*
