0
SECTION
2
HEADER
9
$INSUNITS
70
4
0
ENDSEC
0
SECTION
2
TABLES
0
TABLE
2
LTYPE
0
LTYPE
72
65
70
64
2
CONTINUOUS
3
______
73
0
40
0
0
ENDTAB
0
TABLE
2
LAYER
0
ENDTAB
0
ENDSEC
0
SECTION
2
ENTITIES
0
LINE
8
0
10
160.3216121
20
-156.7338759
11
178.2661241
21
-155.3216121
0
LINE
8
0
10
178.2661241
20
-155.3216121
11
179.6783879
21
-173.2661241
0
LINE
8
0
10
179.6783879
20
-173.2661241
11
161.7338759
21
-174.6783879
0
LINE
8
0
10
161.7338759
20
-174.6783879
11
160.3216121
21
-156.7338759
0
LINE
8
0
10
158.9093484
20
-138.7893639
11
176.8538604
21
-137.3771001
0
LINE
8
0
10
176.8538604
20
-137.3771001
11
178.2661242
21
-155.3216121
0
LINE
8
0
10
178.2661242
20
-155.3216121
11
160.3216122
21
-156.7338759
0
LINE
8
0
10
160.3216122
20
-156.7338759
11
158.9093484
21
-138.7893639
0
LINE
8
0
10
157.4970847
20
-120.8448519
11
175.4415967
21
-119.4325881
0
LINE
8
0
10
175.4415967
20
-119.4325881
11
176.8538605
21
-137.3771001
0
LINE
8
0
10
176.8538605
20
-137.3771001
11
158.9093485
21
-138.7893639
0
LINE
8
0
10
158.9093485
20
-138.7893639
11
157.4970847
21
-120.8448519
0
LINE
8
0
10
179.2602831
20
-139.4808125
11
197.2514012
21
-138.9154188
0
LINE
8
0
10
197.2514012
20
-138.9154188
11
197.8167949
21
-156.9065369
0
LINE
8
0
10
197.8167949
20
-156.9065369
11
179.8256768
21
-157.4719306
0
LINE
8
0
10
179.8256768
20
-157.4719306
11
179.2602831
21
-139.4808125
0
LINE
8
0
10
178.6948894
20
-121.4896944
11
196.6860075
21
-120.9243007
0
LINE
8
0
10
196.6860075
20
-120.9243007
11
197.2514012
21
-138.9154188
0
LINE
8
0
10
197.2514012
20
-138.9154188
11
179.2602831
21
-139.4808125
0
LINE
8
0
10
179.2602831
20
-139.4808125
11
178.6948894
21
-121.4896944
0
LINE
8
0
10
178.1294957
20
-103.4985763
11
196.1206138
21
-102.9331826
0
LINE
8
0
10
196.1206138
20
-102.9331826
11
196.6860075
21
-120.9243007
0
LINE
8
0
10
196.6860075
20
-120.9243007
11
178.6948894
21
-121.4896944
0
LINE
8
0
10
178.6948894
20
-121.4896944
11
178.1294957
21
-103.4985763
0
LINE
8
0
10
199.0600299
20
-133.9421876
11
217.0578092
21
-134.2249193
0
LINE
8
0
10
217.0578092
20
-134.2249193
11
216.7750775
21
-152.2226986
0
LINE
8
0
10
216.7750775
20
-152.2226986
11
198.7772982
21
-151.9399669
0
LINE
8
0
10
198.7772982
20
-151.9399669
11
199.0600299
21
-133.9421876
0
LINE
8
0
10
199.3427616
20
-115.9444082
11
217.3405409
21
-116.2271399
0
LINE
8
0
10
217.3405409
20
-116.2271399
11
217.0578092
21
-134.2249192
0
LINE
8
0
10
217.0578092
20
-134.2249192
11
199.0600299
21
-133.9421875
0
LINE
8
0
10
199.0600299
20
-133.9421875
11
199.3427616
21
-115.9444082
0
LINE
8
0
10
199.6254933
20
-97.9466288
11
217.6232726
21
-98.2293605
0
LINE
8
0
10
217.6232726
20
-98.2293605
11
217.3405409
21
-116.2271398
0
LINE
8
0
10
217.3405409
20
-116.2271398
11
199.3427616
21
-115.9444081
0
LINE
8
0
10
199.3427616
20
-115.9444081
11
199.6254933
21
-97.9466288
0
LINE
8
0
10
217.987003
20
-138.7400714
11
235.9847823
21
-139.0228031
0
LINE
8
0
10
235.9847823
20
-139.0228031
11
235.7020506
21
-157.0205824
0
LINE
8
0
10
235.7020506
20
-157.0205824
11
217.7042713
21
-156.7378507
0
LINE
8
0
10
217.7042713
20
-156.7378507
11
217.987003
21
-138.7400714
0
LINE
8
0
10
218.2697347
20
-120.742292
11
236.267514
21
-121.0250237
0
LINE
8
0
10
236.267514
20
-121.0250237
11
235.9847823
21
-139.022803
0
LINE
8
0
10
235.9847823
20
-139.022803
11
217.987003
21
-138.7400713
0
LINE
8
0
10
217.987003
20
-138.7400713
11
218.2697347
21
-120.742292
0
LINE
8
0
10
218.5524664
20
-102.7445126
11
236.5502457
21
-103.0272443
0
LINE
8
0
10
236.5502457
20
-103.0272443
11
236.267514
21
-121.0250236
0
LINE
8
0
10
236.267514
20
-121.0250236
11
218.2697347
21
-120.7422919
0
LINE
8
0
10
218.2697347
20
-120.7422919
11
218.5524664
21
-102.7445126
0
LINE
8
0
10
236.9281127
20
-142.6380663
11
254.925892
21
-142.920798
0
LINE
8
0
10
254.925892
20
-142.920798
11
254.6431603
21
-160.9185773
0
LINE
8
0
10
254.6431603
20
-160.9185773
11
236.645381
21
-160.6358456
0
LINE
8
0
10
236.645381
20
-160.6358456
11
236.9281127
21
-142.6380663
0
LINE
8
0
10
237.2108444
20
-124.6402869
11
255.2086237
21
-124.9230186
0
LINE
8
0
10
255.2086237
20
-124.9230186
11
254.925892
21
-142.9207979
0
LINE
8
0
10
254.925892
20
-142.9207979
11
236.9281127
21
-142.6380662
0
LINE
8
0
10
236.9281127
20
-142.6380662
11
237.2108444
21
-124.6402869
0
LINE
8
0
10
237.4935761
20
-106.6425075
11
255.4913554
21
-106.9252392
0
LINE
8
0
10
255.4913554
20
-106.9252392
11
255.2086237
21
-124.9230185
0
LINE
8
0
10
255.2086237
20
-124.9230185
11
237.2108444
21
-124.6402868
0
LINE
8
0
10
237.2108444
20
-124.6402868
11
237.4935761
21
-106.6425075
0
LINE
8
0
10
217.5204957
20
-168.4364074
11
235.518275
21
-168.7191391
0
LINE
8
0
10
235.518275
20
-168.7191391
11
235.2355433
21
-186.7169184
0
LINE
8
0
10
235.2355433
20
-186.7169184
11
217.237764
21
-186.4341867
0
LINE
8
0
10
217.237764
20
-186.4341867
11
217.5204957
21
-168.4364074
0
LINE
8
0
10
236.5181517
20
-168.7348464
11
254.515931
21
-169.0175781
0
LINE
8
0
10
254.515931
20
-169.0175781
11
254.2331993
21
-187.0153574
0
LINE
8
0
10
254.2331993
20
-187.0153574
11
236.23542
21
-186.7326257
0
LINE
8
0
10
236.23542
20
-186.7326257
11
236.5181517
21
-168.7348464
0
LINE
8
0
10
260.9100693
20
-165.9243687
11
278.2214129
21
-170.8556347
0
LINE
8
0
10
278.2214129
20
-170.8556347
11
273.2901469
21
-188.1669783
0
LINE
8
0
10
273.2901469
20
-188.1669783
11
255.9788033
21
-183.2357123
0
LINE
8
0
10
255.9788033
20
-183.2357123
11
260.9100693
21
-165.9243687
0
ENDSEC
0
EOF